<svg width="48" height="48" viewBox="0 0 48 48" fill="none" xmlns="http://www.w3.org/2000/svg">
<circle cx="24" cy="24" r="19.5" fill="#2E3957" stroke="white"/>
<path d="M33.7032 13.8237C31.9186 12.9796 30.0048 12.3577 28.0039 12.0015C27.9674 11.9946 27.931 12.0118 27.9123 12.0462C27.6661 12.4974 27.3935 13.0861 27.2026 13.5488C25.0505 13.2167 22.9094 13.2167 20.8014 13.5488C20.6104 13.0758 20.3279 12.4974 20.0807 12.0462C20.0619 12.0129 20.0255 11.9958 19.9891 12.0015C17.9892 12.3565 16.0755 12.9784 14.2898 13.8237C14.2743 13.8306 14.261 13.842 14.2523 13.8569C10.6223 19.4471 9.62789 24.9 10.1157 30.2852C10.1179 30.3116 10.1323 30.3368 10.1521 30.3528C12.5471 32.1658 14.867 33.2664 17.1438 33.996C17.1803 34.0075 17.2189 33.9937 17.2421 33.9628C17.7806 33.2046 18.2607 32.4052 18.6724 31.5645C18.6967 31.5153 18.6735 31.4569 18.6238 31.4374C17.8623 31.1396 17.1372 30.7765 16.4397 30.3642C16.3845 30.331 16.3801 30.2497 16.4309 30.2107C16.5776 30.0974 16.7245 29.9794 16.8646 29.8603C16.89 29.8385 16.9253 29.8339 16.9551 29.8477C21.5375 32.0043 26.4985 32.0043 31.0268 29.8477C31.0566 29.8328 31.0919 29.8374 31.1184 29.8591C31.2586 29.9783 31.4054 30.0974 31.5533 30.2107C31.604 30.2497 31.6007 30.331 31.5455 30.3642C30.848 30.7845 30.1229 31.1396 29.3603 31.4362C29.3106 31.4557 29.2885 31.5153 29.3128 31.5645C29.7333 32.404 30.2134 33.2034 30.742 33.9616C30.7641 33.9937 30.8038 34.0075 30.8403 33.996C33.1282 33.2664 35.4481 32.1658 37.843 30.3528C37.864 30.3368 37.8772 30.3127 37.8794 30.2864C38.4633 24.0604 36.9016 18.6523 33.7396 13.858C33.7319 13.842 33.7186 13.8306 33.7032 13.8237ZM19.3567 27.0062C17.9771 27.0062 16.8403 25.7005 16.8403 24.0971C16.8403 22.4937 17.955 21.188 19.3567 21.188C20.7694 21.188 21.8951 22.5051 21.873 24.0971C21.873 25.7005 20.7583 27.0062 19.3567 27.0062ZM28.6605 27.0062C27.281 27.0062 26.1442 25.7005 26.1442 24.0971C26.1442 22.4937 27.2589 21.188 28.6605 21.188C30.0732 21.188 31.199 22.5051 31.1769 24.0971C31.1769 25.7005 30.0732 27.0062 28.6605 27.0062Z" fill="white"/>
</svg>
