<svg width="48" height="48" viewBox="0 0 48 48" fill="none" xmlns="http://www.w3.org/2000/svg">
<circle cx="24" cy="24" r="19.5" fill="#2E3957" stroke="white"/>
<path fill-rule="evenodd" clip-rule="evenodd" d="M23.9953 11C20.7456 11.0017 17.6026 12.1526 15.1281 14.247C12.6536 16.3414 11.0091 19.2427 10.4885 22.4321C9.96792 25.6215 10.6053 28.8911 12.2866 31.6561C13.9679 34.4211 16.5836 36.5013 19.6659 37.5248C20.3459 37.651 20.602 37.2295 20.602 36.8712C20.602 36.5128 20.5884 35.4738 20.5839 34.3379C16.7759 35.1606 15.9712 32.731 15.9712 32.731C15.3501 31.1533 14.4525 30.7386 14.4525 30.7386C13.2104 29.8957 14.5455 29.9115 14.5455 29.9115C15.9214 30.0084 16.6444 31.3156 16.6444 31.3156C17.8639 33.3958 19.8472 32.7941 20.627 32.4425C20.7494 31.5613 21.1052 30.9618 21.4974 30.6214C18.4555 30.2789 15.2595 29.1114 15.2595 23.8961C15.2406 22.5436 15.7454 21.2356 16.6694 20.2428C16.5288 19.9002 16.0596 18.5164 16.8031 16.6367C16.8031 16.6367 17.9523 16.2716 20.568 18.0318C22.8117 17.4217 25.1788 17.4217 27.4225 18.0318C30.0359 16.2716 31.1829 16.6367 31.1829 16.6367C31.9286 18.5119 31.4594 19.8957 31.3189 20.2428C32.2458 21.2358 32.7516 22.546 32.731 23.9007C32.731 29.1272 29.5282 30.2789 26.4818 30.6147C26.9714 31.0384 27.4089 31.8655 27.4089 33.1367C27.4089 34.9577 27.393 36.4227 27.393 36.8712C27.393 37.234 27.6401 37.6577 28.3337 37.5248C31.4163 36.5012 34.0322 34.4206 35.7135 31.6551C37.3948 28.8896 38.0319 25.6196 37.5107 22.4299C36.9895 19.2402 35.3442 16.3389 32.8689 14.2449C30.3936 12.1508 27.2498 11.0006 23.9998 11H23.9953Z" fill="white"/>
<path d="M15.4905 30.5425C15.461 30.6101 15.3522 30.6304 15.2638 30.5831C15.1754 30.5358 15.1097 30.4479 15.1414 30.378C15.1731 30.3081 15.2797 30.2901 15.3681 30.3374C15.4565 30.3847 15.5245 30.4749 15.4905 30.5425Z" fill="white"/>
<path d="M16.0458 31.1577C15.9989 31.1812 15.9452 31.1878 15.8939 31.1763C15.8426 31.1648 15.797 31.1359 15.7648 31.0946C15.6764 30.9999 15.6582 30.8692 15.7262 30.8106C15.7942 30.752 15.9166 30.7791 16.005 30.8737C16.0934 30.9684 16.1138 31.0991 16.0458 31.1577Z" fill="white"/>
<path d="M16.5853 31.9399C16.5015 31.9985 16.3587 31.9399 16.2793 31.8227C16.2574 31.8017 16.2399 31.7764 16.228 31.7486C16.2161 31.7207 16.21 31.6907 16.21 31.6604C16.21 31.6301 16.2161 31.6001 16.228 31.5722C16.2399 31.5444 16.2574 31.5192 16.2793 31.4981C16.3632 31.4418 16.506 31.4981 16.5853 31.6131C16.6647 31.728 16.6669 31.8813 16.5853 31.9399Z" fill="white"/>
<path d="M17.3175 32.697C17.2427 32.7804 17.0909 32.7579 16.9662 32.6452C16.8415 32.5325 16.8121 32.3793 16.8869 32.2981C16.9617 32.217 17.1135 32.2395 17.2427 32.35C17.3719 32.4604 17.3969 32.6159 17.3175 32.697Z" fill="white"/>
<path d="M18.3443 33.1386C18.3103 33.2445 18.1561 33.2919 18.002 33.2468C17.8479 33.2017 17.7459 33.0755 17.7753 32.9673C17.8048 32.8591 17.9612 32.8095 18.1176 32.8591C18.274 32.9087 18.3737 33.0282 18.3443 33.1386Z" fill="white"/>
<path d="M19.4641 33.2152C19.4641 33.3257 19.3372 33.4203 19.174 33.4226C19.0108 33.4248 18.8771 33.3347 18.8771 33.2242C18.8771 33.1138 19.004 33.0191 19.1672 33.0169C19.3304 33.0146 19.4641 33.1025 19.4641 33.2152Z" fill="white"/>
<path d="M20.5066 33.0418C20.527 33.1523 20.4137 33.2672 20.2505 33.2942C20.0873 33.3213 19.9445 33.2559 19.9241 33.1477C19.9037 33.0396 20.0215 32.9224 20.1802 32.8931C20.3389 32.8638 20.4862 32.9314 20.5066 33.0418Z" fill="white"/>
</svg>
