<svg width="48" height="48" viewBox="0 0 48 48" fill="none" xmlns="http://www.w3.org/2000/svg">
<circle cx="24" cy="24" r="19.5" fill="#2E3957" stroke="white"/>
<path d="M34.376 14H15.624C15.1933 14 14.7802 14.1711 14.4757 14.4757C14.1711 14.7802 14 15.1933 14 15.624V34.376C14 34.8067 14.1711 35.2198 14.4757 35.5243C14.7802 35.8289 15.1933 36 15.624 36H34.376C34.8067 36 35.2198 35.8289 35.5243 35.5243C35.8289 35.2198 36 34.8067 36 34.376V15.624C36 15.1933 35.8289 14.7802 35.5243 14.4757C35.2198 14.1711 34.8067 14 34.376 14ZM20.5572 32.7413H17.2496V22.2347H20.5572V32.7413ZM18.9011 20.7788C18.5259 20.7766 18.1598 20.6634 17.8488 20.4534C17.5379 20.2434 17.2962 19.946 17.1541 19.5987C17.0121 19.2514 16.9761 18.8699 17.0507 18.5022C17.1253 18.1345 17.3072 17.7971 17.5733 17.5326C17.8395 17.2682 18.178 17.0885 18.5462 17.0163C18.9144 16.944 19.2957 16.9825 19.642 17.1267C19.9884 17.271 20.2842 17.5147 20.4923 17.8269C20.7003 18.1392 20.8111 18.5061 20.8108 18.8813C20.8144 19.1324 20.7673 19.3818 20.6724 19.6144C20.5776 19.847 20.4368 20.0582 20.2586 20.2352C20.0804 20.4123 19.8684 20.5517 19.6351 20.6451C19.4019 20.7384 19.1523 20.7839 18.9011 20.7788ZM32.7489 32.7504H29.4428V27.0106C29.4428 25.3178 28.7232 24.7953 27.7943 24.7953C26.8135 24.7953 25.851 25.5347 25.851 27.0533V32.7504H22.5433V22.2424H25.7242V23.6983H25.7669C26.0863 23.0521 27.2046 21.9475 28.9111 21.9475C30.7567 21.9475 32.7504 23.0429 32.7504 26.2513L32.7489 32.7504Z" fill="white"/>
</svg>
