<svg width="48" height="48" viewBox="0 0 48 48" fill="none" xmlns="http://www.w3.org/2000/svg">
<path d="M16.9218 9.47307C17.0848 9.54061 17.233 9.6396 17.3577 9.7644L20.2009 12.6076L20.215 12.6003L24.0082 16.4007L24.0011 16.4078L31.5944 24.0011L35.3948 20.2007L21.1509 5.96419C19.892 4.70796 18.1862 4.00244 16.4077 4.00244C14.6292 4.00244 12.9234 4.70796 11.6645 5.96419L5.96404 11.6646C4.70775 12.9235 4.0022 14.6293 4.0022 16.4078C4.0022 18.1862 4.70775 19.8921 5.96404 21.1509L8.81427 24.0011L12.6075 20.2007L9.76408 17.3578C9.6392 17.2331 9.54013 17.085 9.47254 16.9219C9.40495 16.7589 9.37016 16.5842 9.37016 16.4077C9.37016 16.2312 9.40495 16.0564 9.47254 15.8934C9.54013 15.7304 9.6392 15.5823 9.76408 15.4576L15.4577 9.7644C15.6455 9.57646 15.8849 9.44846 16.1456 9.3966C16.4062 9.34474 16.6763 9.37135 16.9218 9.47307Z" fill="white"/>
<path d="M30.6446 38.238L27.8017 35.3949L27.7873 35.4021L23.9942 31.6019L24.0014 31.5946L16.408 24.0015L12.6075 27.8017L26.8516 42.0382C28.1104 43.2945 29.8163 44.0001 31.5947 44.0001C33.3732 44.0001 35.079 43.2945 36.3378 42.0382L42.0383 36.3378C43.2945 35.0789 44 33.3731 44 31.5946C44 29.8162 43.2945 28.1104 42.0383 26.8515L39.1881 24.0015L35.3951 27.8017L38.238 30.6446C38.3629 30.7693 38.462 30.9174 38.5296 31.0805C38.5972 31.2435 38.632 31.4183 38.632 31.5947C38.632 31.7712 38.5972 31.946 38.5296 32.109C38.462 32.272 38.3629 32.4201 38.238 32.5448L32.5448 38.238C32.4201 38.3629 32.272 38.462 32.109 38.5295C31.946 38.5971 31.7712 38.6319 31.5947 38.6319C31.4182 38.6319 31.2435 38.5971 31.0805 38.5295C30.9174 38.462 30.7693 38.3629 30.6446 38.238Z" fill="white"/>
<path fill-rule="evenodd" clip-rule="evenodd" d="M38.5357 16.9125C38.4642 17.0768 38.3714 17.2195 38.2498 17.3411L23.9918 31.599L27.7848 35.3992L42.036 21.1484C43.2923 19.8895 43.9978 18.1837 43.9978 16.4052C43.9978 14.6267 43.2923 12.9209 42.036 11.6621L36.3355 5.96183C35.0766 4.70555 33.3708 4 31.5923 4C29.8138 4 28.108 4.70555 26.8491 5.96183L24.0062 8.79047L27.8064 12.5909L30.6423 9.75479C30.767 9.62989 30.9151 9.53081 31.0781 9.4632C31.2411 9.3956 31.4158 9.3608 31.5923 9.3608C31.7688 9.3608 31.9435 9.3956 32.1066 9.4632C32.2696 9.53081 32.4176 9.62989 32.5423 9.75479L38.2357 15.4482C38.4239 15.6359 38.5521 15.8753 38.6042 16.1359C38.6563 16.3966 38.63 16.6668 38.5285 16.9125H38.5357ZM17.3627 38.2279L20.1987 35.392L24.0062 39.1851L21.1487 42.0281C19.8898 43.2844 18.184 43.9899 16.4055 43.9899C14.627 43.9899 12.9211 43.2844 11.6623 42.0281L5.96201 36.3277C4.70563 35.0688 4 33.363 4 31.5845C4 29.806 4.70563 28.1001 5.96201 26.8413L20.22 12.5907L24.0062 16.3911L9.76931 30.6347C9.64443 30.7594 9.54536 30.9075 9.47777 31.0705C9.41018 31.2336 9.37538 31.4083 9.37538 31.5848C9.37538 31.7613 9.41018 31.936 9.47777 32.0991C9.54536 32.2621 9.64443 32.4102 9.76931 32.5349L15.4625 38.2281C15.5872 38.3529 15.7353 38.452 15.8984 38.5196C16.0614 38.5872 16.2361 38.622 16.4126 38.622C16.5891 38.622 16.7639 38.5872 16.9269 38.5196C17.0899 38.452 17.238 38.3529 17.3627 38.2281V38.2279Z" fill="white"/>
</svg>
