<svg width="48" height="48" viewBox="0 0 48 48" fill="none" xmlns="http://www.w3.org/2000/svg">
<circle cx="24" cy="24" r="19.5" fill="#2E3957" stroke="white"/>
<path d="M20.34 34.5502C29.21 34.5502 34.06 27.2002 34.06 20.8302C34.06 20.6202 34.06 20.4102 34.05 20.2102C34.99 19.5302 35.81 18.6802 36.46 17.7102C35.6 18.0902 34.67 18.3502 33.69 18.4702C34.69 17.8702 35.45 16.9302 35.81 15.8002C34.88 16.3502 33.85 16.7502 32.75 16.9702C31.87 16.0302 30.62 15.4502 29.23 15.4502C26.57 15.4502 24.41 17.6102 24.41 20.2702C24.41 20.6502 24.45 21.0202 24.54 21.3702C20.53 21.1702 16.98 19.2502 14.6 16.3302C14.19 17.0402 13.95 17.8702 13.95 18.7502C13.95 20.4202 14.8 21.9002 16.1 22.7602C15.31 22.7402 14.57 22.5202 13.92 22.1602C13.92 22.1802 13.92 22.2002 13.92 22.2202C13.92 24.5602 15.58 26.5002 17.79 26.9502C17.39 27.0602 16.96 27.1202 16.52 27.1202C16.21 27.1202 15.91 27.0902 15.61 27.0302C16.22 28.9502 18 30.3402 20.11 30.3802C18.46 31.6702 16.38 32.4402 14.12 32.4402C13.73 32.4402 13.35 32.4202 12.97 32.3702C15.08 33.7502 17.62 34.5502 20.34 34.5502Z" fill="white"/>
</svg>
