<svg width="48" height="48" viewBox="0 0 48 48" fill="none" xmlns="http://www.w3.org/2000/svg">
<circle cx="24" cy="24" r="19.5" fill="#2E3957" stroke="white"/>
<path d="M37.4233 17.1304C37.1004 15.9065 36.1547 14.9415 34.9554 14.612C32.7643 14 23.9999 14 23.9999 14C23.9999 14 15.2356 14 13.0445 14.5884C11.8682 14.9179 10.8995 15.9065 10.5766 17.1304C10 19.3664 10 24.0032 10 24.0032C10 24.0032 10 28.6636 10.5766 30.876C10.8995 32.1 11.8451 33.065 13.0445 33.3945C15.2586 34.0065 23.9999 34.0065 23.9999 34.0065C23.9999 34.0065 32.7643 34.0065 34.9554 33.418C36.1547 33.0885 37.1004 32.1235 37.4233 30.8996C37.9999 28.6636 37.9999 24.0268 37.9999 24.0268C37.9999 24.0268 38.0229 19.3664 37.4233 17.1304Z" fill="white"/>
<path d="M21.2091 28.2867L28.4974 24.003L21.2091 19.7192V28.2867Z" fill="#2E3957"/>
</svg>
