<svg width="104" height="168" viewBox="0 0 104 168" fill="none" xmlns="http://www.w3.org/2000/svg">
<g clip-path="url(#clip0_384_65825)">
<g style="mix-blend-mode:multiply" opacity="0.5">
<path d="M13.3588 111.45L17.5573 111.641L83.2061 73.6642L80.3435 71.9466L76.1451 72.1375L13.3588 111.45Z" fill="#AC958B"/>
</g>
<path d="M13.3588 107.443L79.0077 69.4657V73.4733L13.3588 111.45V107.443Z" fill="#92B54D"/>
<path d="M10.4962 105.725L76.1451 67.7482L79.0076 69.4657L13.3588 107.443L10.4962 105.725Z" fill="#B9F270"/>
<path d="M13.3588 107.443V111.45L10.4962 109.924V105.725L13.3588 107.443Z" fill="#92B54D"/>
<g style="mix-blend-mode:multiply" opacity="0.4">
<path d="M200 121.756L180.916 119.847L179.389 119.275L175 119.466L170.611 115.649L179.962 110.115L166.603 86.8321L136.45 84.7329L96.9466 86.8321L98.6642 131.87H142.557L145.992 129.962H161.26L167.939 126.145L178.626 126.336L180.344 125.382L200 121.756Z" fill="#AC958B"/>
</g>
<path d="M136.26 66.9848L136.069 88.5497V110.305L117.366 121.183L98.855 131.87V110.305V88.5497L117.557 77.6718L136.26 66.9848Z" fill="#C1B9AC"/>
<path d="M98.855 88.5497V110.305V131.87L78.8168 120.42L58.9695 108.97L59.1603 87.2138V65.6489L79.0077 77.0993L98.855 88.5497Z" fill="#DBD6C6"/>
<path d="M136.26 66.9848L117.557 77.6718L98.855 88.5497L79.0077 77.0993L59.1603 65.6489L77.8626 54.771L96.3741 43.8932L116.412 55.5344L136.26 66.9848Z" fill="#EFEDE4"/>
<path d="M105.725 125.382L102.481 127.29L105.725 125.382Z" fill="#E6E7E8"/>
<path d="M105.916 118.321L102.29 120.42V127.672L105.916 125.573V118.321ZM102.481 127.29V120.42L105.534 118.702V125.573L102.29 127.481L102.481 127.29Z" fill="#BCBEC0"/>
<path d="M105.725 125.382L102.481 127.29V120.42L105.725 118.702V125.382Z" fill="#4F413C"/>
<path d="M105.725 118.321L102.481 120.229V120.038L105.725 118.321Z" fill="#E6E7E8"/>
<path d="M105.916 111.26L102.29 113.359V120.611L105.916 118.512V111.26ZM102.481 120.229V113.359L105.534 111.641V118.512L102.29 120.42L102.481 120.229Z" fill="#BCBEC0"/>
<path d="M105.725 118.321L102.481 120.038V113.359L105.725 111.641V118.321Z" fill="#4F413C"/>
<path d="M105.725 111.26L102.481 113.168V112.977L105.725 111.26Z" fill="#E6E7E8"/>
<path d="M105.916 104.199L102.29 106.298V113.55L105.916 111.45V104.199ZM102.481 113.168V106.298L105.534 104.58V111.45L102.29 113.359L102.481 113.168Z" fill="#BCBEC0"/>
<path d="M105.725 111.26L102.481 112.977V106.298L105.534 104.58L105.725 111.26Z" fill="#4F413C"/>
<path d="M105.725 104.199L102.481 106.107V105.916L105.725 104.199Z" fill="#E6E7E8"/>
<path d="M105.916 97.1375L102.29 99.2367V106.489L105.916 104.389V97.1375ZM102.481 106.107V99.2367L105.534 97.5191V104.389L102.29 106.298L102.481 106.107Z" fill="#BCBEC0"/>
<path d="M105.725 104.199L102.481 105.916V99.2367L105.534 97.5191L105.725 104.199Z" fill="#4F413C"/>
<path d="M102.099 127.672L102.672 128.053L103.244 128.435L107.061 126.145L105.916 125.573L103.244 127.099L102.672 127.481L102.099 127.672Z" fill="#897F74"/>
<path d="M107.634 126.336V95.8016L106.679 95.229L101.718 98.0916V128.626L102.863 129.199L107.824 126.336H107.634ZM103.244 128.244V98.855L106.107 97.1375L107.061 96.5649V125.954L103.244 128.244Z" fill="#C1B9AC"/>
<path d="M98.855 88.5497L79.0076 57.8245L59.1603 65.6489L98.855 88.5497Z" fill="#A33B37"/>
<path d="M79.0076 59.351L60.1145 66.2213L59.542 66.0304L78.626 58.9694L79.0076 59.351Z" fill="#918779"/>
<path d="M97.9008 88.168L60.1145 66.2214L79.0076 59.3512L97.9008 88.168Z" fill="#DBD6C6"/>
<path d="M136.26 66.9848L116.221 36.4504L96.3741 44.084L136.26 66.9848Z" fill="#C72F21"/>
<path d="M79.0076 57.8245L116.221 36.4504L136.26 66.9848L98.855 88.5497L79.0076 57.8245Z" fill="#822B29"/>
<path d="M59.1603 65.6489L95.8015 44.2749L116.221 36.4504L79.0076 57.8245L59.1603 65.6489Z" fill="#A33B37"/>
<path d="M78.8168 58.5878L78.6259 101.527V129.771L86.8321 125L87.0229 96.5649V53.6259L78.8168 58.5878Z" fill="#C1B9AC"/>
<path d="M62.2137 49.0458L70.4199 44.2748L87.0229 53.8168L78.8168 58.5878L62.2137 49.0458Z" fill="#F9F9F9"/>
<path d="M93.1298 66.7939V50.3817L82.8245 56.2977L83.397 72.3283L93.1298 66.7939Z" fill="#C1B9AC"/>
<path d="M66.7939 46.3741L71.5649 43.5115L76.5267 40.8397L84.7328 45.6107L93.1298 50.3817L88.3588 53.0535L83.3969 55.9161L75.1908 51.1451L66.7939 46.3741Z" fill="#F9F9F9"/>
<path d="M90.8397 122.901L93.7023 124.618V124.428L90.8397 122.901Z" fill="#E6E7E8"/>
<path d="M90.8397 122.901L93.7023 124.428V118.512L90.8397 116.794V122.901Z" fill="#6B5A53"/>
<path d="M90.8397 116.603L93.7023 118.321V118.13L90.8397 116.603Z" fill="#E6E7E8"/>
<path d="M90.8397 116.603L93.7023 118.13V112.214L90.8397 110.496V116.603Z" fill="#6B5A53"/>
<path d="M90.8397 110.305L93.7023 112.023V111.832L90.8397 110.305Z" fill="#E6E7E8"/>
<path d="M90.8397 110.305L93.7023 111.832V105.916L90.8397 104.199V110.305Z" fill="#6B5A53"/>
<path d="M90.8397 104.008L93.7023 105.725V105.534L90.8397 104.008Z" fill="#E6E7E8"/>
<path d="M90.8397 104.008L93.7023 105.534V99.6184L90.8397 97.9008V104.008Z" fill="#6B5A53"/>
<path d="M90.8397 97.71L93.7023 99.2367L90.8397 97.71Z" fill="#E6E7E8"/>
<path d="M90.8397 97.71L93.7023 99.2367V93.3207L90.8397 91.6031V97.71Z" fill="#6B5A53"/>
<path d="M90.8397 91.4123L93.7023 92.939L90.8397 91.2214V91.4123Z" fill="#E6E7E8"/>
<path d="M90.6489 123.092L93.8931 125V118.512V112.405V105.916V99.6184V93.3207V87.023L90.6489 85.1146V91.6031V97.9008V104.199V110.305V116.794V123.092ZM90.6489 110.305V104.199L93.5115 105.916V111.832L90.6489 110.305ZM93.5115 105.534L90.6489 104.008V97.9008L93.5115 99.6184V105.534ZM93.5115 99.2367L90.6489 97.71V91.6031L93.5115 93.3207V99.2367ZM93.5115 87.023V92.939L90.6489 91.4123V85.3054L93.5115 87.023ZM93.5115 112.214V118.13L90.6489 116.603V110.496L93.5115 112.214ZM93.5115 124.618L90.6489 123.092V116.985L93.5115 118.702V124.618Z" fill="#F1F2F2"/>
<path d="M90.8397 91.2214L93.7023 92.939V86.8321L90.8397 85.3054V91.2214Z" fill="#6B5A53"/>
<path d="M94.084 125L93.5115 125.191L93.1298 125.573L89.6947 123.473L90.6489 122.901L93.1298 124.428L93.5115 124.618L94.084 125Z" fill="#F9F9F9"/>
<path d="M90.6489 84.1604V85.1146V122.901L89.6947 123.473V84.7329L90.0764 84.3512L90.6489 84.1604Z" fill="#9B928A"/>
<path d="M93.5115 126.336L94.4657 125.763V85.8779L90.0764 83.397L89.1222 83.9695V123.855L93.5115 126.336ZM89.6947 123.473V84.542L90.6489 85.1145L93.1298 86.6412V125.573L89.6947 123.664V123.473Z" fill="#DBD6C6"/>
<path d="M61.8321 48.8549L70.229 38.1679L79.0077 58.7786L61.8321 48.8549Z" fill="#A33B37"/>
<path d="M76.5268 40.458L84.9237 29.9618L93.5115 50.3816L76.5268 40.458Z" fill="#EFEDE4"/>
<path d="M70.229 38.1679L77.6718 33.9694L84.9237 29.771L89.313 40.0763L93.5115 50.3816L86.2596 54.5801L79.0077 58.7786L74.6183 48.4732L70.229 38.1679Z" fill="#822B29"/>
<path d="M78.2443 58.3969H78.4351L70.229 38.9313L62.2138 49.0458V52.8626V70.6107V91.9847L62.0229 106.107V120.229L66.2214 122.519L70.4199 125L74.4275 127.29L78.626 129.771V115.649V101.527L78.8168 80.1526V58.5878L78.2443 58.3969Z" fill="#EFEDE4"/>
<path d="M70.8015 107.824L74.8092 110.115H75L74.8092 109.924L70.8015 107.634V107.824Z" fill="white"/>
<path d="M70.4199 107.824L75 110.496V100.191L70.4199 97.5191V107.824ZM70.6107 107.824V97.9008L74.6183 100.191V109.924L70.6107 107.634V107.824Z" fill="#F1F2F2"/>
<path d="M70.8015 107.634L74.8092 109.924V100.191L70.8015 97.9008V107.634Z" fill="#6B5A53"/>
<path d="M70.8015 97.5191L74.8092 100L75 99.8092H74.8092L70.8015 97.5191Z" fill="white"/>
<path d="M70.4199 97.7099L75 100.382V90.0763L70.4199 87.4046V97.7099ZM70.6107 97.7099V87.7863L74.6183 90.0763V99.8092L70.6107 97.5191V97.7099Z" fill="#F1F2F2"/>
<path d="M70.8015 97.5191L74.8092 99.8092V90.0763L70.8015 87.7863V97.5191Z" fill="#6B5A53"/>
<path d="M70.8015 87.4046L74.8091 89.6947H75H74.8091L70.8015 87.4046Z" fill="white"/>
<path d="M70.6107 87.5954L75.1908 90.2672V79.9618L70.6107 77.2901V87.5954ZM70.8015 87.5954V77.6718L74.8092 79.9618V89.6947L70.8015 87.4046V87.5954Z" fill="#F1F2F2"/>
<path d="M70.8015 87.4046L74.8091 89.6947V79.9618L70.8015 77.6718V87.4046Z" fill="#6B5A53"/>
<path d="M70.8015 77.2901L74.8091 79.5802H75H74.8091L70.8015 77.2901Z" fill="white"/>
<path d="M70.8015 77.2901L70.9924 68.7023V68.5114L70.8015 68.7023V77.2901Z" fill="#E6E7E8"/>
<path d="M70.6107 77.4809L75.1908 80.1527V70.9924L70.6107 68.3206V77.4809ZM70.8015 77.4809V68.8931L74.8092 71.1832V79.771L70.8015 77.4809Z" fill="#F1F2F2"/>
<path d="M70.8015 77.2901L74.8091 79.5802V70.9924L70.9924 68.7023L70.8015 77.2901Z" fill="#6B5A53"/>
<path d="M66.2214 105.153L70.4198 107.443V107.252L66.4122 104.962L66.2214 105.153Z" fill="white"/>
<path d="M66.2214 105.153L66.4122 104.962V95.229L66.2214 105.153Z" fill="#E6E7E8"/>
<path d="M66.0305 105.153L70.6107 107.824V97.5191L66.0305 94.8473V105.153ZM66.2214 105.153V95.229L70.229 97.5191V107.252L66.2214 104.962V105.153Z" fill="#F1F2F2"/>
<path d="M66.4122 104.962L70.4199 107.252V97.5191L66.4122 95.229V104.962Z" fill="#6B5A53"/>
<path d="M66.2214 94.8473L70.4198 97.3282V97.1374L66.4122 94.8473H66.2214Z" fill="white"/>
<path d="M66.2214 94.8473H66.4122V85.1145V84.9237V85.1145L66.2214 94.8473Z" fill="#E6E7E8"/>
<path d="M66.0305 95.0382L70.6107 97.7099V87.4046L66.0305 84.7328V95.0382ZM66.2214 95.0382V85.1145L70.229 87.4046V97.1374L66.2214 94.8473V95.0382Z" fill="#F1F2F2"/>
<path d="M66.4122 94.8473L70.4199 97.1374V87.4046L66.4122 85.1145V94.8473Z" fill="#6B5A53"/>
<path d="M66.4122 84.7328L70.4199 87.2138V87.0229L66.4122 84.7328Z" fill="white"/>
<path d="M66.0305 84.9237L70.6107 87.5954V77.2901L66.0305 74.6183V84.9237ZM66.2214 84.9237V75L70.229 77.2901V87.0229L66.2214 84.7328V84.9237Z" fill="#F1F2F2"/>
<path d="M66.4122 84.7328L70.4199 87.0229V77.2901L66.4122 75V84.7328Z" fill="#6B5A53"/>
<path d="M66.4122 74.6183L70.4199 76.9084L66.4122 74.6183Z" fill="white"/>
<path d="M66.0305 74.8092L70.6107 77.4809V68.3206L66.0305 65.6488V74.8092ZM66.2214 74.8092V66.2214L70.229 68.5114V77.0992L66.2214 74.8092Z" fill="#F1F2F2"/>
<path d="M66.4122 74.6183L70.4199 76.9084V68.3206L66.4122 66.0305V74.6183Z" fill="#6B5A53"/>
<path d="M75.7634 110.687L75 111.069L74.4275 111.45L64.6947 105.916L66.0305 105.153L74.4275 109.924L75 110.305L75.7634 110.687Z" fill="#F9F9F9"/>
<path d="M66.0305 64.5038V66.0305V105.153L64.6947 105.916V65.2672L65.458 64.8855L66.0305 64.5038Z" fill="#B4B096"/>
<path d="M65.458 63.3588L64.1221 64.1221V106.489L75 112.786L76.3359 112.023V69.6565L65.458 63.3588ZM74.4275 110.114V111.641L64.6947 106.107V65.2672L66.0305 66.0305L74.4275 70.8015V110.114Z" fill="#EFEDE4"/>
<g style="mix-blend-mode:multiply" opacity="0.5">
<path d="M64.6947 105.916H67.3664V105.725V105.534L67.5573 66.7939L64.6947 65.2672V105.916Z" fill="#AC958B"/>
</g>
<path d="M69.8474 122.901L66.0306 120.611V109.733L69.8474 111.832V122.901Z" fill="#58595B"/>
<path d="M66.2214 115.458H66.4122V120.611L66.2214 120.802V115.458Z" fill="#6D6E71"/>
<path d="M66.2214 120.802L66.4122 120.611L69.8474 122.71L69.6565 122.901L66.2214 120.802Z" fill="#808285"/>
<path d="M66.2214 109.924L66.4122 109.733V115.076H66.2214V109.924Z" fill="#6D6E71"/>
<path d="M66.2214 115.076H66.4122L70.0382 116.985L69.6565 117.176L66.2214 115.076Z" fill="#808285"/>
<path d="M65.8397 109.16L70.0382 111.641V123.473L65.8397 120.992V109.16ZM69.6565 122.71V117.367L66.2214 115.458V120.802L69.6565 122.71ZM69.6565 116.985V111.641L66.2214 109.733V115.076L69.6565 116.985Z" fill="#414042"/>
<path d="M70.229 111.45L66.2214 109.16H65.8397L70.0382 111.641V117.367V117.748V123.473L70.229 123.283V117.557V117.176V111.45Z" fill="#DBD6C6"/>
<path d="M70.0382 116.794L69.8474 116.985V118.13L70.0382 117.939H69.8474V116.985H70.0382V116.794Z" fill="#705E42"/>
<path d="M74.0458 125.191L70.229 123.092V112.023L74.0458 114.313V125.191Z" fill="#58595B"/>
<path d="M70.4199 117.939L70.6107 117.748V123.092L70.4199 123.283V117.939Z" fill="#6D6E71"/>
<path d="M70.4199 123.283L70.6107 123.092L74.0458 125L73.855 125.191L70.4199 123.283Z" fill="#808285"/>
<path d="M70.4199 112.214L70.6107 112.023V117.366L70.4199 117.557V112.214Z" fill="#6D6E71"/>
<path d="M70.4199 117.557L70.6107 117.366L74.0458 119.275L73.855 119.466L70.4199 117.557Z" fill="#808285"/>
<path d="M70.0382 111.641L74.2367 114.122V125.954L70.0382 123.473V111.641ZM73.855 125.191V119.847L70.4199 117.939V123.283L73.855 125.191ZM73.855 119.466V114.122L70.4199 112.214V117.557L73.855 119.466Z" fill="#414042"/>
<path d="M74.4275 113.931L70.229 111.45L70.0382 111.641L74.2367 113.931V119.657V120.038V125.763L74.4275 125.573V120.038V119.466V113.931Z" fill="#DBD6C6"/>
<path d="M70.229 116.985H70.0382V118.13H70.229V117.939V118.13V117.176V116.985Z" fill="#705E42"/>
<path d="M75.5725 126.527L75 126.908L74.2367 127.29L64.6947 121.756L66.0305 120.992L74.2367 125.763L75 126.145L75.5725 126.527Z" fill="#F9F9F9"/>
<path d="M65.8397 108.969L66.0305 110.305V120.992L64.6947 121.756L64.5038 109.733L65.2672 109.351L65.8397 108.969Z" fill="#B4B096"/>
<path d="M65.2672 107.824L63.9313 108.588V121.374L75 127.672H76.3359V114.122L65.2672 107.824ZM74.2367 125.763V127.29L64.6947 121.947V109.924L65.8397 110.687L74.2367 115.458V125.954V125.763Z" fill="#EFEDE4"/>
<g style="mix-blend-mode:multiply" opacity="0.5">
<path d="M64.6947 121.756H67.1756V121.374H67.3664V111.26L64.5038 109.733L64.6947 121.756Z" fill="#AC958B"/>
</g>
<path d="M67.3664 58.5878L72.9008 61.8321H73.0916L72.9008 61.6412L67.5573 58.5878H67.3664Z" fill="#D2D1C9"/>
<path d="M67.3664 58.5878H67.5573V51.9084L67.3664 52.0993V58.5878Z" fill="#E6E7E8"/>
<path d="M73.2824 62.4046H73.4733V55.3435H73.2824V62.4046Z" fill="#82827D"/>
<path d="M67.3664 52.0993L67.5573 51.9084L70.229 49.4275L67.3664 52.0993Z" fill="#E6E7E8"/>
<path d="M73.2824 55.3435H73.4733L70.229 48.855L73.2824 55.3435Z" fill="#ADACA5"/>
<path d="M66.9847 58.7786L73.2824 62.4046V55.3435L70.229 48.855L67.1756 51.7176V58.7786H66.9847ZM67.3664 58.7786V52.0993L70.229 49.4275L73.0916 55.3435V61.8321L67.3664 58.7786Z" fill="#F1F2F2"/>
<path d="M67.5573 58.5878L72.9008 61.6412V55.3435L70.229 49.4275L67.5573 51.9084V58.5878Z" fill="#6B5A53"/>
<path d="M74.0458 62.9771L73.4733 63.3588L72.9008 63.7405L65.6489 59.542L66.9847 58.7787L73.2824 62.4046L73.4733 62.5955L74.0458 62.9771Z" fill="#F9F9F9"/>
<path d="M70.229 47.1374V48.855L66.9847 51.7176V58.7787L65.6489 59.542V51.9084L69.2748 48.2825L69.6565 47.5191L70.229 47.1374Z" fill="#B4B096"/>
<path d="M70.229 47.1375L68.7023 47.5191L65.0764 51.9084V59.9237L73.4733 64.8855L74.8092 64.1222V54.0077L70.229 47.1375ZM72.9008 62.2138V63.7405L65.8397 59.542V51.9084L69.2748 48.4733L72.9008 55.1527V62.2138Z" fill="#EFEDE4"/>
<g style="mix-blend-mode:multiply" opacity="0.5">
<path d="M65.6489 59.542H68.3206V59.1603V52.0993L70.229 50.3817L69.2748 48.4733L65.6489 51.9084V59.542Z" fill="#AC958B"/>
</g>
<path d="M106.107 94.6565L103.053 96.5649L102.863 96.3741H103.053L106.107 94.6565Z" fill="#D2D1C9"/>
<path d="M106.298 89.313L104.58 87.7863L102.863 91.4122V96.9466L106.298 94.8473V89.313ZM103.053 96.5649V91.2214L104.58 87.9771L106.107 89.313V94.6565L103.053 96.3741V96.5649Z" fill="#BCBEC0"/>
<path d="M106.107 94.6565L103.053 96.3741V91.2214L104.58 87.9771L105.916 89.313L106.107 94.6565Z" fill="#4F413C"/>
<path d="M102.29 97.1374L102.672 97.3282L103.053 97.5191L107.061 95.229L106.298 94.8473L102.863 96.7557H102.672L102.29 97.1374Z" fill="#897F74"/>
<path d="M101.908 90.458V97.7099L102.672 98.0916L107.443 95.4198V88.9313L105.343 86.8321H104.389L101.908 90.458ZM103.053 91.0305L105.153 87.2137L106.87 88.9313V95.0382L102.863 97.3282V90.8397L103.053 91.0305Z" fill="#C1B9AC"/>
<path d="M78.4351 40.0763V25.3817L82.6336 22.9008V37.7863L78.4351 40.0763Z" fill="#C1B9AC"/>
<path d="M74.2366 22.9008V36.0687L75.7633 35.1145L78.4351 40.0763V25.1908L74.2366 22.9008Z" fill="#EFEDE4"/>
<path d="M78.4351 26.145V25L83.2061 22.3282V23.2824L78.4351 26.145Z" fill="#B5AA95"/>
<path d="M73.6641 22.3282V23.2824L78.4351 26.145V25L73.6641 22.3282Z" fill="#F9F9F9"/>
<path d="M73.6641 22.3282L78.4351 0V25L73.6641 22.3282Z" fill="#A33B37"/>
<path d="M83.2061 22.3282L78.4351 0V25L83.2061 22.3282Z" fill="#822B29"/>
<g style="mix-blend-mode:multiply" opacity="0.5">
<path d="M78.626 129.771L94.8473 129.58V83.397L87.0229 71.5649L86.8321 125L78.626 129.771Z" fill="#AC958B"/>
</g>
<g style="mix-blend-mode:multiply" opacity="0.5">
<path d="M97.9008 159.924H102.099L167.939 121.947L165.076 120.42H160.878L97.9008 159.924Z" fill="#AC958B"/>
</g>
<path d="M98.0916 155.725L163.55 117.748V121.947L98.0916 159.924V155.725Z" fill="#92B54D"/>
<path d="M95.229 154.198L160.687 116.031L163.55 117.748L98.0916 155.725L95.229 154.198Z" fill="#B9F270"/>
<path d="M98.0916 155.725V159.924L95.229 158.206V154.199L98.0916 155.725Z" fill="#92B54D"/>
<g style="mix-blend-mode:multiply" opacity="0.5">
<path d="M12.7863 111.641H7.6336V112.023H7.25192V112.405V112.786V113.168C7.25192 113.168 7.25192 113.168 7.44276 113.168H12.0229C12.0229 113.168 12.4046 113.168 12.5954 112.977H26.7176V113.359H28.8168C28.8168 113.359 29.1985 113.359 29.3893 113.359C29.3893 113.359 29.3893 113.359 29.1985 113.55L27.2901 115.076C27.2901 115.076 26.5267 115.076 26.1451 115.458L24.0458 117.176L23.4733 117.748V118.321H23.6641L29.3893 114.122H29.5802V113.74V113.359V112.977H30.1527C30.1527 112.977 30.1527 112.977 30.3435 112.977C30.3435 112.977 30.7252 112.595 30.7252 112.405H12.9771V112.023C12.9771 112.023 12.9771 111.832 12.7863 111.832V111.641ZM11.8321 112.977H11.6412H11.8321ZM11.8321 112.977H11.6412H11.8321ZM11.8321 112.977H11.6412H11.8321ZM11.8321 112.977H11.6412H11.8321ZM11.8321 112.786H11.6412H11.8321ZM11.8321 112.595H12.0229H11.8321ZM11.8321 112.595H12.0229H11.8321ZM12.0229 112.405H12.2138H12.0229ZM12.0229 112.405H12.2138H12.0229ZM12.0229 112.405H12.4046H12.0229ZM12.0229 112.405H12.4046H12.0229ZM12.0229 112.405H12.5954H12.0229ZM12.2138 112.405H12.7863H12.2138Z" fill="#AC958B"/>
</g>
<path d="M8.77864 107.252V107.634H7.06108C7.06108 107.634 6.87024 107.634 6.87024 107.252V112.405C6.87024 112.405 6.87024 112.595 7.06108 112.786H8.77864V112.405V107.252Z" fill="url(#paint0_linear_384_65825)"/>
<path d="M8.39695 106.87C8.39695 106.87 8.58779 107.443 8.39695 107.634C8.01527 107.634 7.44275 107.634 7.06107 107.634C7.06107 107.634 6.87024 107.061 7.06107 106.87C7.44275 106.87 8.01527 106.87 8.39695 106.87Z" fill="#F1F2F2"/>
<path d="M8.20611 87.2137H7.44275V107.252C7.44275 107.252 7.44275 107.252 7.44275 107.443H8.20611V87.2137Z" fill="url(#paint1_linear_384_65825)"/>
<path d="M8.01525 87.0229C8.01525 87.0229 8.20609 87.4045 8.01525 87.4045C8.01525 87.4045 7.44273 87.4045 7.25189 87.4045C7.06105 87.4045 7.06105 87.0229 7.25189 87.0229C7.44273 87.0229 7.82441 87.0229 8.01525 87.0229Z" fill="#F1F2F2"/>
<path d="M7.63358 89.1221C7.63358 89.1221 7.63358 88.5496 7.44274 88.3587L6.67938 87.7862C6.67938 87.7862 7.06106 88.1679 7.06106 88.7404V91.0305L7.82442 91.4122V89.1221H7.63358Z" fill="#D1D3D4"/>
<path d="M4.58015 89.1221C4.58015 89.1221 4.38931 90.0763 4.00763 90.2671L1.90839 91.603C1.90839 91.603 0.954193 91.9847 0.954193 91.603L4.58015 89.3129V89.1221Z" fill="#F1F2F2"/>
<path d="M0.954185 91.2213L0.190826 90.8397V91.2213L0.954185 91.603C0.954185 91.603 0.954185 91.4122 0.954185 91.2213Z" fill="#E6E7E8"/>
<path d="M0.954185 91.2213L0.190826 90.8397L3.81678 88.7404L4.58014 89.1221L0.954185 91.2213Z" fill="#CFD0D0"/>
<path d="M0.763359 91.4122L0 91.0305V90.8397L0.763359 91.2213V91.4122Z" fill="#A7A9AC"/>
<path d="M6.67939 87.7862H6.87023H7.06107H7.25191L7.44275 87.9771L6.67939 87.5954L6.48855 87.4045H6.29771H6.10687H5.91603L5.72519 87.5954L0 90.8397L0.763359 91.2213L6.48855 87.9771H6.67939V87.7862Z" fill="#CFD0D0"/>
<path d="M6.48854 87.9771C6.48854 87.9771 7.82442 87.9771 7.82442 88.9313V91.2213V88.9313C7.82442 88.9313 7.2519 87.5954 6.67938 87.9771L0.954193 91.4122L6.67938 87.9771H6.48854Z" fill="#A7A9AC"/>
<g style="mix-blend-mode:multiply" opacity="0.5">
<path d="M37.4046 125.572H32.2519V125.954H31.8702V126.336V126.718V127.099C31.8702 127.099 31.8702 127.099 32.0611 127.099H36.6412C36.6412 127.099 37.0229 127.099 37.2138 126.908H51.3359L53.4351 127.29C53.4351 127.29 53.8168 127.29 54.0076 127.29C54.0076 127.29 54.0076 127.481 53.8168 127.481L51.9084 129.008C51.9084 129.008 51.1451 129.008 50.7634 129.389L48.6641 131.107L48.0916 131.679V132.252H48.2825L54.0076 128.053H54.1985V127.672V127.29V126.908H54.771C54.771 126.908 54.771 126.908 54.9618 126.908C54.9618 126.908 55.3435 126.527 55.3435 126.336H37.9771V125.954C37.9771 125.954 37.9771 125.763 37.7863 125.763L37.4046 125.572Z" fill="#AC958B"/>
</g>
<path d="M33.2061 121.183V121.565H31.4885C31.4885 121.565 31.2977 121.565 31.2977 121.183V126.336C31.2977 126.336 31.2977 126.527 31.4885 126.718H33.2061V126.336V121.183Z" fill="url(#paint2_linear_384_65825)"/>
<path d="M33.0153 120.801C33.0153 120.801 33.2061 121.374 33.0153 121.565C32.6336 121.565 32.0611 121.565 31.6794 121.565C31.6794 121.565 31.4886 120.992 31.6794 120.801C32.0611 120.801 32.6336 120.801 33.0153 120.801Z" fill="#F1F2F2"/>
<path d="M32.8244 101.336H32.0611V121.374C32.0611 121.374 32.0611 121.374 32.0611 121.565H32.8244V101.336Z" fill="url(#paint3_linear_384_65825)"/>
<path d="M32.6336 100.954C32.6336 100.954 32.8244 101.336 32.6336 101.336C32.6336 101.336 32.0611 101.336 31.8702 101.336C31.6794 101.336 31.6794 100.954 31.8702 100.954C32.0611 100.954 32.4427 100.954 32.6336 100.954Z" fill="#F1F2F2"/>
<path d="M32.2519 103.053C32.2519 103.053 32.2519 102.481 32.0611 102.29L31.2977 101.718C31.2977 101.718 31.6794 102.099 31.6794 102.672V104.962L32.4427 105.343V103.053H32.2519Z" fill="#D1D3D4"/>
<path d="M29.1985 103.053C29.1985 103.053 29.0076 104.008 28.6259 104.198L26.5267 105.343C26.5267 105.343 25.5725 105.725 25.5725 105.343L29.1985 103.053Z" fill="#F1F2F2"/>
<path d="M25.3817 105.153L24.6183 104.771V105.153L25.3817 105.534C25.3817 105.534 25.3817 105.343 25.3817 105.153Z" fill="#E6E7E8"/>
<path d="M25.3817 105.153L24.8091 104.771L28.4351 102.672L29.1985 103.053L25.3817 105.153Z" fill="#CFD0D0"/>
<path d="M25.1908 105.343L24.6183 104.962V104.771L25.1908 105.343Z" fill="#A7A9AC"/>
<path d="M31.2977 101.718H31.4885H31.6794V101.908H31.8702L31.1069 101.527V101.336H30.916H30.7252H30.5343V101.527H30.3435L24.6183 104.771L25.1908 105.343L31.1069 101.908L31.2977 101.718Z" fill="#CFD0D0"/>
<path d="M31.1069 101.908C31.1069 101.908 32.4427 101.908 32.4427 102.863V105.153V102.863C32.4427 102.863 31.8702 101.527 31.2977 101.908L25.5725 105.343L31.2977 101.908H31.1069Z" fill="#A7A9AC"/>
<g style="mix-blend-mode:multiply" opacity="0.5">
<path d="M73.8549 146.756H68.7023V147.137H68.3206V147.519V147.901V148.282C68.3206 148.282 68.3206 148.282 68.5114 148.282H73.0916C73.0916 148.282 73.4733 148.282 73.6641 148.092H87.7862L89.8855 148.473C89.8855 148.473 90.2672 148.473 90.458 148.473C90.458 148.473 90.458 148.473 90.2672 148.664L88.3588 150.191C88.3588 150.191 87.5954 150.191 87.2137 150.572L85.1145 152.29L84.542 152.863V153.435H84.7328L90.458 149.237H90.6488V148.855V148.473V148.092H91.2214C91.2214 148.092 91.2214 148.092 91.4122 148.092C91.4122 148.092 91.7939 147.71 91.7939 147.519H74.4275V147.137C74.4275 147.137 74.4275 146.947 74.2366 146.947L73.8549 146.756Z" fill="#AC958B"/>
</g>
<path d="M69.6565 142.557V142.939H67.9389C67.9389 142.939 67.7481 142.939 67.7481 142.557V147.71C67.7481 147.71 67.7481 147.901 67.9389 148.092H69.6565V147.71V142.557Z" fill="url(#paint4_linear_384_65825)"/>
<path d="M69.4657 141.985C69.4657 141.985 69.6565 142.557 69.4657 142.748C69.084 142.748 68.5114 142.748 68.1298 142.748C68.1298 142.748 67.9389 142.176 68.1298 141.985C68.5114 141.985 69.084 141.985 69.4657 141.985Z" fill="#F1F2F2"/>
<path d="M69.2748 122.519H68.5114V142.557C68.5114 142.557 68.5114 142.557 68.5114 142.748H69.2748V122.519Z" fill="url(#paint5_linear_384_65825)"/>
<path d="M69.0839 122.137C69.0839 122.137 69.2748 122.519 69.0839 122.519C69.0839 122.519 68.5114 122.519 68.3206 122.519C68.1297 122.519 68.1297 122.137 68.3206 122.137C68.3206 122.137 68.8931 122.137 69.0839 122.137Z" fill="#F1F2F2"/>
<path d="M68.7023 124.237C68.7023 124.237 68.7023 123.664 68.5114 123.473L67.7481 122.901C67.7481 122.901 68.1298 123.282 68.1298 123.855V126.145L68.8931 126.527V124.237H68.7023Z" fill="#D1D3D4"/>
<path d="M65.6488 124.237C65.6488 124.237 65.458 125.191 65.0763 125.382L62.9771 126.527C62.9771 126.527 62.0229 126.908 62.0229 126.527L65.6488 124.237Z" fill="#F1F2F2"/>
<path d="M61.8321 126.527L61.0687 126.145V126.527L61.8321 126.908C61.8321 126.908 61.8321 126.718 61.8321 126.527Z" fill="#E6E7E8"/>
<path d="M61.832 126.527L61.2595 125.954L64.8855 123.855L65.6488 124.237L61.832 126.527Z" fill="#CFD0D0"/>
<path d="M61.6412 126.718L61.0687 126.145L61.6412 126.527V126.718Z" fill="#A7A9AC"/>
<path d="M67.7481 123.092H67.9389H68.1298H68.3206L67.7481 122.71H67.5572L67.3664 122.519H67.1756L66.9847 122.71H66.7939L61.0687 126.145L61.6412 126.527L67.5572 123.092H67.7481Z" fill="#CFD0D0"/>
<path d="M67.5572 123.092C67.5572 123.092 68.8931 123.092 68.8931 124.046V126.336V124.046C68.8931 124.046 68.3206 122.71 67.7481 123.092L62.0229 126.527L67.7481 123.092H67.5572Z" fill="#A7A9AC"/>
<g style="mix-blend-mode:multiply" opacity="0.5">
<path d="M98.2825 160.687H93.1298V161.069H92.7481V161.45V161.832V162.214C92.7481 162.214 92.7481 162.214 92.9389 162.214H97.5191C97.5191 162.214 97.9008 162.214 98.0916 162.023H112.214L114.313 162.405C114.313 162.405 114.695 162.405 114.886 162.405C114.886 162.405 114.886 162.405 114.695 162.595L112.786 164.122C112.786 164.122 112.023 164.122 111.641 164.504L109.542 166.221L108.969 166.794V167.366H109.16L114.886 163.168H115.076V162.786V162.405V162.023H115.649C115.649 162.023 115.649 162.023 115.84 162.023C115.84 162.023 116.221 161.641 116.221 161.45H98.855V161.069C98.855 161.069 98.855 160.878 98.6641 160.878L98.2825 160.687Z" fill="#AC958B"/>
</g>
<path d="M94.084 156.298V156.679H92.3664C92.3664 156.679 92.1756 156.679 92.1756 156.298V161.45C92.1756 161.45 92.1756 161.641 92.3664 161.832H94.084V161.45V156.298Z" fill="url(#paint6_linear_384_65825)"/>
<path d="M93.8931 155.916C93.8931 155.916 94.084 156.489 93.8931 156.679C93.5114 156.679 92.9389 156.679 92.5572 156.679C92.5572 156.679 92.3664 156.107 92.5572 155.916C92.9389 155.916 93.5114 155.916 93.8931 155.916Z" fill="#F1F2F2"/>
<path d="M93.7023 136.259H92.9389V156.298C92.9389 156.298 92.9389 156.298 92.9389 156.489H93.7023V136.259Z" fill="url(#paint7_linear_384_65825)"/>
<path d="M93.5115 136.069C93.5115 136.069 93.7023 136.45 93.5115 136.45C93.3206 136.45 92.9389 136.45 92.7481 136.45C92.5573 136.45 92.5573 136.069 92.7481 136.069C92.7481 136.069 93.3206 136.069 93.5115 136.069Z" fill="#F1F2F2"/>
<path d="M93.1298 137.977C93.1298 137.977 93.1298 137.405 92.9389 137.214L92.1756 136.641C92.1756 136.641 92.5572 137.023 92.5572 137.595V139.885L93.3206 140.267V137.977H93.1298Z" fill="#D1D3D4"/>
<path d="M90.0763 138.168C90.0763 138.168 89.8855 139.122 89.5038 139.313L87.4046 140.458C87.4046 140.458 86.4504 140.84 86.4504 140.458L90.0763 138.168Z" fill="#F1F2F2"/>
<path d="M86.2595 140.267L85.4962 139.885V140.267L86.2595 140.649C86.2595 140.649 86.2595 140.458 86.2595 140.267Z" fill="#E6E7E8"/>
<path d="M86.2595 140.267L85.687 139.885L89.313 137.786L90.0763 138.168L86.2595 140.267Z" fill="#CFD0D0"/>
<path d="M86.0687 140.458L85.4962 140.076V139.885L86.0687 140.267V140.458Z" fill="#A7A9AC"/>
<path d="M92.1756 136.832H92.3664H92.5573H92.7481V137.023L92.1756 136.45H91.9847H91.7939H91.6031H91.4122L91.2214 136.641L85.4962 139.885L86.0687 140.267L91.9847 137.023V136.832H92.1756Z" fill="#CFD0D0"/>
<path d="M91.9847 137.023C91.9847 137.023 93.3206 137.023 93.3206 137.977V140.267V137.977C93.3206 137.977 92.7481 136.641 92.1756 137.023L86.4504 140.458L92.1756 137.023H91.9847Z" fill="#A7A9AC"/>
</g>
<defs>
<linearGradient id="paint0_linear_384_65825" x1="6.6794" y1="110.114" x2="8.77864" y2="110.114" gradientUnits="userSpaceOnUse">
<stop stop-color="#E6E7E8"/>
<stop offset="1" stop-color="#A7A9AC"/>
</linearGradient>
<linearGradient id="paint1_linear_384_65825" x1="7.25191" y1="97.3282" x2="8.20611" y2="97.3282" gradientUnits="userSpaceOnUse">
<stop stop-color="#E6E7E8"/>
<stop offset="1" stop-color="#A7A9AC"/>
</linearGradient>
<linearGradient id="paint2_linear_384_65825" x1="31.2977" y1="124.046" x2="33.2061" y2="124.046" gradientUnits="userSpaceOnUse">
<stop stop-color="#E6E7E8"/>
<stop offset="1" stop-color="#A7A9AC"/>
</linearGradient>
<linearGradient id="paint3_linear_384_65825" x1="31.6794" y1="111.26" x2="32.8244" y2="111.26" gradientUnits="userSpaceOnUse">
<stop stop-color="#E6E7E8"/>
<stop offset="1" stop-color="#A7A9AC"/>
</linearGradient>
<linearGradient id="paint4_linear_384_65825" x1="67.7481" y1="145.229" x2="69.6565" y2="145.229" gradientUnits="userSpaceOnUse">
<stop stop-color="#E6E7E8"/>
<stop offset="1" stop-color="#A7A9AC"/>
</linearGradient>
<linearGradient id="paint5_linear_384_65825" x1="68.1297" y1="132.634" x2="69.2748" y2="132.634" gradientUnits="userSpaceOnUse">
<stop stop-color="#E6E7E8"/>
<stop offset="1" stop-color="#A7A9AC"/>
</linearGradient>
<linearGradient id="paint6_linear_384_65825" x1="92.1756" y1="159.16" x2="94.084" y2="159.16" gradientUnits="userSpaceOnUse">
<stop stop-color="#E6E7E8"/>
<stop offset="1" stop-color="#A7A9AC"/>
</linearGradient>
<linearGradient id="paint7_linear_384_65825" x1="92.5573" y1="146.374" x2="93.7023" y2="146.374" gradientUnits="userSpaceOnUse">
<stop stop-color="#E6E7E8"/>
<stop offset="1" stop-color="#A7A9AC"/>
</linearGradient>
<clipPath id="clip0_384_65825">
<rect width="200" height="167.557" fill="white"/>
</clipPath>
</defs>
</svg>
