<svg width="149" height="148" viewBox="0 0 149 148" fill="none" xmlns="http://www.w3.org/2000/svg">
<path d="M16.8629 52.3866L3.21402 60.3579L1.55746 59.4092L15.2913 51.4805L16.8629 52.3866Z" fill="#EDE3DE"/>
<path d="M77.7163 76.2862L63.9259 68.2159L62.2835 69.1787L76.0173 77.1074L77.7163 76.2862Z" fill="#EDE3DE"/>
<g style="mix-blend-mode:multiply">
<path d="M15.2771 82.4452L19.0008 84.2717L35.8636 74.5447L69.5185 93.9845L71.4157 90.9828L97.0427 105.793L75.1252 118.436H54.0998L55.3316 116.497H56.5917L60.6411 114.16L53.8166 110.21L50.1921 112.306H40.3802L41.0032 108.228H36.43L35.5096 107.534H32.1116L31.7293 105.17L25.0465 100.568H20.0627L19.2698 97.7081L14.2718 93.5455H7.90049L15.2771 82.4452Z" fill="#9A89AB"/>
</g>
<path d="M51.7637 103.924L38.8086 111.399V75.8615L51.7637 81.8647V103.924Z" fill="#7B444A"/>
<path d="M51.7637 103.924L64.9311 111.541L64.7187 75.8615L51.7637 81.8647V103.924Z" fill="#573231"/>
<path d="M56.351 87.1175V106.571L57.512 105.92V87.783L56.351 87.1175Z" fill="#7B444A"/>
<path d="M57.512 90.8412V105.92L63.3878 109.318V94.2534L57.512 90.8412Z" fill="#4D303A"/>
<path d="M57.9509 91.6057V105.665L63.3878 108.808V94.749L58.5031 91.9314L57.9509 91.6057Z" fill="#4D303A"/>
<path d="M57.951 91.6057V105.665L58.489 105.368V91.9173L57.951 91.6057Z" fill="#2B0512"/>
<path d="M57.9509 105.665L63.3878 108.808V108.214L58.5031 105.368L57.9509 105.665Z" fill="#593B45"/>
<path d="M57.512 87.783V90.8412L63.3878 94.2534V91.181L57.9509 88.0379L57.512 87.783Z" fill="#4D303A"/>
<path d="M60.004 105.495L63.133 107.308V95.4286L60.004 93.6305V105.495Z" fill="#382129"/>
<path d="M60.004 104.901V105.495L63.133 107.308V106.699L60.004 104.901Z" fill="#593B45"/>
<path d="M60.004 93.6305V105.495L60.542 105.198V93.9419L60.004 93.6305Z" fill="#2B0512"/>
<path d="M57.9509 88.0379V90.6572L63.3878 93.8004V91.181L57.9509 88.0379Z" fill="#382129"/>
<path d="M57.9509 90.6572L63.3878 93.8004V93.2057L58.5031 90.3598L57.9509 90.6572Z" fill="#593B45"/>
<path d="M3.12904 12.6436V89.0006L9.45791 92.6536L10.1517 92.2571L16.7779 96.0657V96.8728L36.4299 108.228L37.1237 107.817L39.9696 109.46V85.3194L52.9246 91.3227L54.0998 90.7705V42.0792L43.7499 36.0902L36.4299 31.8709L16.7779 20.5299L9.45791 16.2965L3.12904 12.6436Z" fill="#F4EBD8"/>
<g style="mix-blend-mode:multiply">
<path d="M5.83334 67.8478L3.12906 66.3186V64.5063L6.05988 66.1771L5.83334 67.8478Z" fill="#8A7999"/>
</g>
<path d="M33.6832 79.4153V106.628L32.1116 107.534L31.616 80.8878L33.6832 79.4153Z" fill="#694C51"/>
<path d="M31.2479 76.0031V58.0784L24.6217 54.2556V72.1803L31.2479 76.0031Z" fill="#4D303A"/>
<path d="M30.8232 75.2668V58.319L25.0465 54.9918V71.9395L30.8232 75.2668Z" fill="#8A5B6B"/>
<path d="M25.0465 54.9918V71.9395L29.6905 74.6155V74.0775L25.5137 71.6847V55.2608L25.0465 54.9918Z" fill="#2B0512"/>
<path d="M25.0465 71.9395L30.8232 75.2668V74.7429L25.5137 71.6847L25.0465 71.9395Z" fill="#593B45"/>
<g style="mix-blend-mode:multiply">
<path d="M25.0465 71.9396H25.981L26.0659 56.1103L30.8232 58.8146V58.3191L25.5137 55.2608V71.6847L25.0465 71.9396Z" fill="#8A7999"/>
</g>
<path d="M31.2479 53.8167V35.8919L24.6217 32.0691V49.9938L31.2479 53.8167Z" fill="#4D303A"/>
<path d="M30.8232 53.0804V36.1327L25.0465 32.8054V49.7532L30.8232 53.0804Z" fill="#8A5B6B"/>
<path d="M25.0465 32.8054V49.7532L29.6905 52.4291V51.8911L25.5137 49.4983V33.0744L25.0465 32.8054Z" fill="#2B0512"/>
<path d="M25.0465 49.7531L30.8232 53.0804V52.5565L25.5137 49.4982L25.0465 49.7531Z" fill="#593B45"/>
<g style="mix-blend-mode:multiply">
<path d="M25.0465 49.7532H25.981L26.0659 33.9239L30.8232 36.6423V36.1327L25.5137 33.0744V49.4983L25.0465 49.7532Z" fill="#8A7999"/>
</g>
<path d="M54.0998 42.0792V90.7704L65.8655 85.3193V111.64L76.0172 105.793V29.4356L54.0998 42.0792Z" fill="#987677"/>
<path d="M25.0323 0L3.12903 12.6436L54.1139 42.0792L76.0172 29.4356L25.0323 0Z" fill="#EDE3DE"/>
<path d="M70.991 29.4357L25.0323 2.90256L8.15535 12.6436L54.114 39.1767L70.991 29.4357Z" fill="#EDE3DE"/>
<path d="M25.0323 4.99799L9.9676 13.6914L8.15531 12.6436L25.0323 2.90256V4.99799Z" fill="#694C51"/>
<path d="M25.0323 2.90256V4.99799L69.1787 30.4834L70.991 29.4357L25.0323 2.90256Z" fill="#D9C0B0"/>
<path d="M9.45793 16.2965V92.6536L10.1517 92.2571L16.7779 96.0657V20.5299L9.45793 16.2965Z" fill="#C8805E"/>
<path d="M10.1517 24.2819V41.2863L16.7779 45.095V28.1047L10.1517 24.2819Z" fill="#4D303A"/>
<path d="M10.6331 25.1031V41.0173L16.7779 44.5711V28.6569L10.6331 25.1031Z" fill="#8A5B6B"/>
<path d="M10.6331 35.1982L13.663 36.9396L13.9603 37.1237L16.7779 38.7519V38.398L14.2718 36.9396H14.2577L13.9603 36.7697L13.663 36.5857L10.9304 35.0283L10.6331 35.1982Z" fill="#593B45"/>
<path d="M10.6331 35.1981V35.6936L10.9304 35.8636L16.7779 39.2474V38.7519L13.9603 37.1237L13.663 36.9396L10.6331 35.1981Z" fill="#4D303A"/>
<path d="M13.9745 37.1237V27.0287L13.663 26.8588V36.9538L13.9745 37.1237Z" fill="#4D303A"/>
<path d="M10.6331 41.0173L16.7779 44.5711V44.2171L10.9304 40.8474L10.6331 41.0173Z" fill="#593B45"/>
<path d="M10.6331 35.6937V41.0173L10.9304 40.8333V35.8636L10.6331 35.6937Z" fill="#2B0512"/>
<path d="M13.9745 27.0287V37.1237L14.2719 36.9538V27.2127L13.9745 27.0287Z" fill="#2B0512"/>
<path d="M10.6331 25.1031V35.1982L10.9304 35.0141V25.273L10.6331 25.1031Z" fill="#2B0512"/>
<path d="M10.1517 47.0347V64.0249L16.7779 67.8478V50.8575L10.1517 47.0347Z" fill="#4D303A"/>
<path d="M10.6331 47.8559V63.7701L16.7779 67.3239V51.4097L14.2718 49.9655V49.9513L13.9603 49.7814L13.663 49.5974L10.9304 48.0258L10.6331 47.8559Z" fill="#8A5B6B"/>
<path d="M10.6331 57.9509L13.663 59.6924L13.9603 59.8765L16.7779 61.5047V61.1507L14.2718 59.6924H14.2577L13.9603 59.5225L13.663 59.3385L10.9304 57.7669L10.6331 57.9509Z" fill="#593B45"/>
<path d="M10.6331 57.9509V58.4323L10.9304 58.6164L16.7779 62.0003V61.5047L13.9603 59.8765L13.663 59.6924L10.6331 57.9509Z" fill="#4D303A"/>
<path d="M13.9745 59.8765V49.7814L13.663 49.5974V59.6924L13.9745 59.8765Z" fill="#4D303A"/>
<path d="M10.6331 63.7701L16.7779 67.3239V66.9699L10.9304 63.586L10.6331 63.7701Z" fill="#593B45"/>
<path d="M10.6331 58.4465V63.7701L10.9304 63.586V58.6164L10.6331 58.4465Z" fill="#2B0512"/>
<path d="M13.9745 49.7814V59.8765L14.2719 59.6924V49.9513L13.9745 49.7814Z" fill="#2B0512"/>
<path d="M10.6331 47.8559V57.9509L10.9304 57.7669V48.0258L10.6331 47.8559Z" fill="#2B0512"/>
<path d="M10.1517 69.7167V86.7069L16.7779 90.5297V73.5395L10.1517 69.7167Z" fill="#4D303A"/>
<path d="M10.6331 70.5379V86.4379L16.7779 90.0058V74.0917L14.2718 72.6475V72.6334L13.9603 72.4493L13.663 72.2794L10.9304 70.7078L10.6331 70.5379Z" fill="#8A5B6B"/>
<path d="M10.6331 80.6188L13.663 82.3744L13.9603 82.5443L16.7779 84.1867V83.8327L14.2718 82.3744H14.2577L13.9603 82.1904L13.663 82.0205L10.9304 80.4488L10.6331 80.6188Z" fill="#593B45"/>
<path d="M10.6331 80.6188V81.1143L10.9304 81.2842L16.7779 84.6681V84.1867L13.9603 82.5443L13.663 82.3744L10.6331 80.6188Z" fill="#4D303A"/>
<path d="M13.9745 82.5443V72.4493L13.663 72.2794V82.3744L13.9745 82.5443Z" fill="#4D303A"/>
<path d="M10.6331 86.4379L16.7779 90.0058V89.6519L10.9304 86.268L10.6331 86.4379Z" fill="#593B45"/>
<path d="M10.6331 81.1143V86.4379L10.9304 86.268V81.2984L10.6331 81.1143Z" fill="#2B0512"/>
<path d="M13.9745 72.4493V82.5443L14.2719 82.3744V72.6333L13.9745 72.4493Z" fill="#2B0512"/>
<path d="M10.6331 70.5237V80.6188L10.9304 80.4488V70.7078L10.6331 70.5237Z" fill="#2B0512"/>
<path d="M17.4717 20.1193L10.1517 15.9001L9.45794 16.2965L16.7779 20.5299L17.4717 20.1193Z" fill="#C8805E"/>
<path d="M36.4299 31.8709V108.228L37.1237 107.817L41.3288 110.238L40.6208 110.635L40.3801 110.507L41.8385 111.357L41.9376 111.399V85.6592L43.7499 86.6928V36.0901L36.4299 31.8709Z" fill="#C8805E"/>
<g style="mix-blend-mode:multiply">
<path d="M37.8174 108.228V86.8201L38.8085 87.3582V85.645L37.1237 84.6681V107.817L37.8174 108.228Z" fill="#8A7999"/>
</g>
<path d="M37.1237 39.8705V56.8607L43.7499 60.6836V43.6933L37.1237 39.8705Z" fill="#4D303A"/>
<path d="M37.6051 40.6917V56.5917L43.7499 60.1455V44.2454L41.2438 42.8013V42.7871L40.9323 42.603L40.635 42.4332L37.9024 40.8616L37.6051 40.6917Z" fill="#8A5B6B"/>
<path d="M37.6051 50.7726L40.635 52.5282L40.9323 52.6981L43.7499 54.3405V53.9865L41.2438 52.5282H41.2297L40.9323 52.3441L40.635 52.1742L37.9024 50.6027L37.6051 50.7726Z" fill="#593B45"/>
<g style="mix-blend-mode:multiply">
<path d="M40.9323 52.6981H41.527V43.4809L43.7499 44.7268V44.2454L40.9323 42.603V52.6981Z" fill="#8A7999"/>
</g>
<path d="M37.6051 50.7726V51.2681L43.7499 54.8219V54.3405L40.9323 52.6981L40.635 52.5282L37.6051 50.7726Z" fill="#4D303A"/>
<path d="M40.9323 52.6981V42.603L40.635 42.4331V52.5282L40.9323 52.6981Z" fill="#4D303A"/>
<path d="M37.6051 56.5917L43.7499 60.1455V59.8057L37.9024 56.4218L37.6051 56.5917Z" fill="#593B45"/>
<path d="M37.6051 51.2681V56.5917L37.9024 56.4218V51.438L37.6051 51.2681Z" fill="#2B0512"/>
<path d="M40.9323 42.603V52.6981L41.2438 52.5282V42.7871L40.9323 42.603Z" fill="#2B0512"/>
<path d="M37.6051 40.6775V50.7725L37.9024 50.6026V40.8474L37.6051 40.6775Z" fill="#2B0512"/>
<path d="M37.1237 62.6232V79.6135L43.7499 83.4363V66.4319L37.1237 62.6232Z" fill="#4D303A"/>
<path d="M37.6051 63.4303V79.3445L43.7499 82.8983V66.9841L41.2438 65.5399L40.9323 65.3558L40.635 65.1859L37.9024 63.6143L37.6051 63.4303Z" fill="#8A5B6B"/>
<path d="M37.6051 73.5253L40.635 75.2668L40.9323 75.4509L43.7499 77.0791V76.7251L41.2438 75.2668H41.2297L40.9323 75.0969L40.635 74.927L37.9024 73.3554L37.6051 73.5253Z" fill="#593B45"/>
<g style="mix-blend-mode:multiply">
<path d="M40.9323 75.4509H41.527V66.2336L43.7499 67.4796V66.984L40.9323 65.3558V75.4509Z" fill="#8A7999"/>
</g>
<path d="M37.6051 73.5253V74.0209L43.7499 77.5747V77.0791L40.9323 75.4509L40.635 75.2668L37.6051 73.5253Z" fill="#4D303A"/>
<path d="M40.9323 75.4509V65.3558L40.635 65.1859V75.281L40.9323 75.4509Z" fill="#4D303A"/>
<path d="M37.6051 79.3445L43.7499 82.8983V82.5443L37.9024 79.1746L37.6051 79.3445Z" fill="#593B45"/>
<path d="M37.6051 74.0209V79.3445L37.9024 79.1746V74.1908L37.6051 74.0209Z" fill="#2B0512"/>
<path d="M40.9323 65.3558V75.4509L41.2438 75.281V65.5257L40.9323 65.3558Z" fill="#2B0512"/>
<path d="M37.6051 63.4303V73.5253L37.9024 73.3413V63.6002L37.6051 63.4303Z" fill="#2B0512"/>
<path d="M44.4437 35.6937L37.1379 31.4745L36.4299 31.8709L43.7499 36.3733L44.4437 35.6937Z" fill="#C8805E"/>
<path d="M40.3802 81.8222V112.306L41.9376 111.399V82.7142L40.3802 81.8222Z" fill="#694C51"/>
<path d="M38.8086 82.7142L52.5424 90.643L54.114 89.751L40.3802 81.8222L38.8086 82.7142Z" fill="#EDE3DE"/>
<path d="M40.3802 86.5512L54.114 94.48V91.5491L40.3802 83.6204V86.5512Z" fill="#BEA296"/>
<path d="M38.8086 82.7142V111.399L40.3802 112.306V83.6204L38.8086 82.7142Z" fill="#BEA296"/>
<path d="M10.1517 15.9001V92.2571L9.4579 92.6536V16.2965L10.1517 15.9001Z" fill="#7B444A"/>
<path d="M66.2762 82.7142V113.212L67.8478 112.306V83.6204L66.2762 82.7142Z" fill="#694C51"/>
<path d="M64.7187 83.6204V112.306L66.2762 113.212V84.5265L64.7187 83.6204Z" fill="#796065"/>
<path d="M54.1139 92.6677V118.436L55.6714 117.53V93.5738L54.1139 92.6677Z" fill="#694C51"/>
<path d="M52.5424 93.5738V117.53L54.114 118.436V94.48L52.5424 93.5738Z" fill="#BEA296"/>
<path d="M67.8478 83.6204L54.114 91.5492L52.5424 90.643L66.2762 82.7142L67.8478 83.6204Z" fill="#EDE3DE"/>
<path d="M66.2762 87.4431L54.114 94.48V91.5492L66.2762 84.5265V87.4431Z" fill="#694C51"/>
<path d="M79.1321 77.1074L67.8477 83.6204L66.2761 82.7142L77.5746 76.2013L79.1321 77.1074Z" fill="#EDE3DE"/>
<path d="M79.1321 80.0241L67.8477 86.5512V83.6204L79.1321 77.1074V80.0241Z" fill="#694C51"/>
<path d="M37.1237 31.4603V107.817L36.43 108.228V31.8709L37.1237 31.4603Z" fill="#7B444A"/>
<path d="M31.2479 98.232V80.3073L24.6217 76.4986V94.4092L31.2479 98.232Z" fill="#4D303A"/>
<path d="M30.8232 97.4958V80.5621L25.0465 77.2349V94.1685L30.8232 97.4958Z" fill="#8A5B6B"/>
<path d="M25.0465 77.2349V94.1685L29.6905 96.8444V96.3064L25.5137 93.9136V77.4897L25.0465 77.2349Z" fill="#2B0512"/>
<path d="M25.0465 94.1684L30.8232 97.4958V96.9719L25.5137 93.9136L25.0465 94.1684Z" fill="#593B45"/>
<g style="mix-blend-mode:multiply">
<path d="M12.3887 93.5455V87.4573L12.771 87.3299V82.8134L16.7779 85.1212V84.6681L12.3887 82.1337V81.6382L12.771 81.5107V72.7183L13.663 73.1997V73.0298L13.9745 73.228V72.4493L14.2718 72.6334V73.5112L16.7779 74.9129V72.8457L9.45793 68.0884V92.6536L10.1517 92.2571L12.3887 93.5455Z" fill="#B0A4BA"/>
</g>
<path d="M2.28882e-05 60.3154L38.8086 82.7142L40.3802 81.8222L1.55746 59.4092L2.28882e-05 60.3154Z" fill="#EDE3DE"/>
<path d="M21.6343 73.3554V99.662L20.0627 100.568L19.5671 73.9217L21.6343 73.3554Z" fill="#694C51"/>
<path d="M9.45795 68.0884V92.6536L7.90051 93.5455L7.40496 64.2232L9.45795 68.0884Z" fill="#694C51"/>
<path d="M2.28882e-05 63.2321L38.8086 85.6451V82.7142L2.28882e-05 60.3154V63.2321Z" fill="#BEA296"/>
<path d="M21.6343 13.2241V70.9768L20.0768 71.8829L19.5813 14.7107L9.47209 8.86324V63.9541L7.91466 64.8603L7.41911 5.01212L21.6484 13.2382L21.6343 13.2241Z" fill="#694C51"/>
<path d="M7.40489 5.01212L21.6342 13.2241L20.0626 14.1302L5.83329 5.91824L7.40489 5.01212Z" fill="#EDE3DE"/>
<path d="M20.0627 14.1303V100.568L17.9955 99.3789V15.6169L7.88633 9.7694V93.5455L5.81918 92.3562V5.91827L20.0485 14.1444L20.0627 14.1303Z" fill="#BEA296"/>
<path d="M32.1116 79.7976V107.534L30.0444 106.345V78.9056C30.7382 79.1321 31.432 79.4295 32.1116 79.7976Z" fill="#BEA296"/>
<g style="mix-blend-mode:multiply">
<path d="M7.90049 64.8603H11.0154V63.9824H11.61V59.48L16.7779 62.4675V62.0003L11.0154 58.6588V58.1633H11.6242V48.9744L13.663 50.1354V49.5974L11.0154 48.0824V41.2438H11.61V36.6423L16.7779 39.7006V39.2475L11.0154 35.9061V35.4105H11.61V26.1933L13.663 27.3401V26.8587L11.0154 25.3296V16.3956H14.6541L12.0065 14.8665H9.45793V63.9683L7.90049 64.8603Z" fill="#8A7999"/>
</g>
<g style="mix-blend-mode:multiply">
<path d="M32.1116 78.849H35.2265V31.1771L40.1961 31.1488L37.237 29.4356H33.6832V77.9569L32.1116 78.849Z" fill="#8A7999"/>
</g>
<g style="mix-blend-mode:multiply">
<path d="M20.0626 71.883H23.1775V24.2111L28.1472 24.1828L25.188 22.4696H21.6342V70.991L20.0626 71.883Z" fill="#8A7999"/>
</g>
<g style="mix-blend-mode:multiply">
<path d="M44.2879 85.8716H47.4028V38.1998L52.3583 38.1714L49.4133 36.4583H45.8453V84.9796L44.2879 85.8716Z" fill="#8A7999"/>
</g>
<g style="mix-blend-mode:multiply">
<path d="M37.1237 79.5427L37.6051 79.8117V79.3445H38.1997V74.8421L43.7499 78.0419V77.5747L37.6051 74.0209V73.5395H38.2139V64.3364L40.635 65.724V65.1859L37.6051 63.4303V56.6059H38.1997V52.0043L43.7499 55.275V54.8219L37.6051 51.2681V50.7726L38.1997 50.7867V41.5553L40.635 42.9145V42.4332L37.6051 40.6917V32.3523L37.1378 31.4745L36.4299 79.5427H37.1237Z" fill="#8A7999"/>
</g>
<path d="M45.8453 27.2127V84.9654L44.2879 85.8716L43.7924 28.6994L33.6832 22.8519V77.9428L32.1257 78.849L31.6302 19.0008L45.8595 27.2269L45.8453 27.2127Z" fill="#694C51"/>
<path d="M31.616 18.9866L45.8453 27.2127L44.2879 28.1047L30.0586 19.8928L31.616 18.9866Z" fill="#EDE3DE"/>
<path d="M44.2879 28.1047V87.8255L42.2208 86.6362V29.5914L32.1116 23.7439V78.849L30.0444 77.6596V19.8928L44.2738 28.1189L44.2879 28.1047Z" fill="#BEA296"/>
<g style="mix-blend-mode:multiply">
<path d="M13.9603 37.1237H14.555V27.9065L16.7779 29.1525V28.6569L14.2718 27.2127V36.9396L13.9603 37.1237Z" fill="#8A7999"/>
</g>
<g style="mix-blend-mode:multiply">
<path d="M23.1634 100.568V77.7587L25.0465 78.9056V77.7021L25.5137 77.9711V93.9136L25.0465 94.1684H25.9668V79.1462L30.0586 81.5107V80.5904L21.6343 75.7199V99.6619L23.1634 100.568Z" fill="#8A7999"/>
</g>
<g style="mix-blend-mode:multiply">
<path d="M35.2265 107.534V84.7106L36.4299 85.461V84.2717L33.6832 82.6859V106.628L35.2265 107.534Z" fill="#8A7999"/>
</g>
<path d="M67.8336 81.8222L54.1989 89.7934L52.5423 88.8449L66.2761 80.916L67.8336 81.8222Z" fill="#EDE3DE"/>
<path d="M128.701 105.722L114.911 97.6514L113.254 98.6142L126.988 106.543L128.701 105.722Z" fill="#EDE3DE"/>
<g style="mix-blend-mode:multiply">
<path d="M66.262 111.895L69.9857 113.721L86.8344 103.98L120.503 123.42L122.386 120.418L148.013 135.228L126.11 147.872H105.085L106.302 145.932H107.577L111.626 143.596L104.802 139.646L101.177 141.741H91.3651L91.9881 137.663H87.4149L86.4946 136.97H83.0965L82.7142 134.605L76.0314 130.004H71.0476L70.2406 127.144L65.2568 122.981H58.8854L66.262 111.895Z" fill="#9A89AB"/>
</g>
<path d="M102.749 133.373L89.7935 140.849V105.297L102.749 111.314V133.373Z" fill="#7B444A"/>
<path d="M102.749 133.373L115.916 140.977L115.689 105.297L102.749 111.314V133.373Z" fill="#573231"/>
<path d="M107.322 116.553V136.007L108.497 135.356V117.219L107.322 116.553Z" fill="#7B444A"/>
<path d="M108.497 120.277V135.356L114.373 138.754V123.689L108.497 120.277Z" fill="#4D303A"/>
<path d="M108.936 121.041V135.115L114.373 138.258V124.185L109.474 121.367L108.936 121.041Z" fill="#4D303A"/>
<path d="M108.936 121.041V135.115L109.474 134.818V121.353L108.936 121.041Z" fill="#2B0512"/>
<path d="M108.936 135.115L114.373 138.258V137.649L109.474 134.818L108.936 135.115Z" fill="#593B45"/>
<path d="M108.497 117.219V120.277L114.373 123.689V120.617L108.936 117.473L108.497 117.219Z" fill="#4D303A"/>
<path d="M110.989 134.945L114.118 136.743V124.878L110.989 123.066V134.945Z" fill="#382129"/>
<path d="M110.989 134.336V134.945L114.118 136.743V136.149L110.989 134.336Z" fill="#593B45"/>
<path d="M110.989 123.066V134.945L111.527 134.648V123.377L110.989 123.066Z" fill="#2B0512"/>
<path d="M108.936 117.473V120.093L114.373 123.236V120.617L108.936 117.473Z" fill="#382129"/>
<path d="M108.936 120.093L114.373 123.236V122.641L109.474 119.795L108.936 120.093Z" fill="#593B45"/>
<path d="M54.1139 42.0792V118.436L60.4286 122.089L61.1366 121.693L67.7628 125.515V126.308L87.4148 137.663L88.1086 137.267L90.9545 138.895V114.755L103.91 120.758L105.085 120.206V71.5148L94.7348 65.5399L87.4148 61.3065L67.7628 49.9655L60.4286 45.7321L54.1139 42.0792Z" fill="#F4EBD8"/>
<g style="mix-blend-mode:multiply">
<path d="M56.8183 97.2833L54.114 95.7542V93.9419L57.0448 95.6126L56.8183 97.2833Z" fill="#8A7999"/>
</g>
<path d="M84.6681 108.851V136.064L83.0965 136.97L82.6009 110.323L84.6681 108.851Z" fill="#694C51"/>
<path d="M82.2328 105.439V87.514L75.6067 83.6911V101.616L82.2328 105.439Z" fill="#4D303A"/>
<path d="M81.8081 104.702V87.7546L76.0314 84.4274V101.375L81.8081 104.702Z" fill="#8A5B6B"/>
<path d="M76.0314 84.4274V101.375L80.6754 104.051V103.513L76.4986 101.12V84.6963L76.0314 84.4274Z" fill="#2B0512"/>
<path d="M76.0314 101.375L81.8081 104.702V104.179L76.4986 101.12L76.0314 101.375Z" fill="#593B45"/>
<g style="mix-blend-mode:multiply">
<path d="M76.0314 101.375H76.9517L77.0367 85.5459L81.8081 88.2643V87.7546L76.4986 84.6964V101.12L76.0314 101.375Z" fill="#8A7999"/>
</g>
<path d="M82.2328 83.2522V65.3275L75.6067 61.5189V79.4294L82.2328 83.2522Z" fill="#4D303A"/>
<path d="M81.8081 82.516V65.5824L76.0314 62.2551V79.1887L81.8081 82.516Z" fill="#8A5B6B"/>
<path d="M76.0314 62.2551V79.1887L80.6754 81.8646V81.3408L76.4986 78.9339V62.5099L76.0314 62.2551Z" fill="#2B0512"/>
<path d="M76.0314 79.1887L81.8081 82.516V81.9921L76.4986 78.9339L76.0314 79.1887Z" fill="#593B45"/>
<g style="mix-blend-mode:multiply">
<path d="M76.0314 79.1887H76.9517L77.0367 63.3594L81.8081 66.0779V65.5823L76.4986 62.5099V78.9339L76.0314 79.1887Z" fill="#8A7999"/>
</g>
<path d="M105.085 71.5148V120.206L116.85 114.755V141.076L126.988 135.228V58.8712L105.085 71.5148Z" fill="#987677"/>
<path d="M76.0172 29.4356L54.0998 42.0791L105.099 71.5148L127.002 58.8712L76.0172 29.4356Z" fill="#EDE3DE"/>
<path d="M121.976 58.8712L76.0172 32.3381L59.1402 42.0792L105.099 68.6123L121.976 58.8712Z" fill="#EDE3DE"/>
<path d="M76.0172 34.4336L60.9525 43.1269L59.1402 42.0792L76.0172 32.3381V34.4336Z" fill="#694C51"/>
<path d="M76.0172 32.3381V34.4336L120.149 59.9189L121.976 58.8712L76.0172 32.3381Z" fill="#D9C0B0"/>
<path d="M60.4287 45.7321V122.089L61.1366 121.693L67.7628 125.515V49.9654L60.4287 45.7321Z" fill="#C8805E"/>
<path d="M61.1366 53.7316V70.7219L67.7628 74.5447V57.5403L61.1366 53.7316Z" fill="#4D303A"/>
<path d="M61.618 54.5387V70.4529L67.7628 74.0067V58.1066L61.618 54.5387Z" fill="#8A5B6B"/>
<path d="M61.618 64.6337L64.6479 66.3752L64.9453 66.5593L67.7628 68.1875V67.8335L65.2568 66.3752H65.2426L64.9453 66.2053L64.6479 66.0354L61.9153 64.4638L61.618 64.6337Z" fill="#593B45"/>
<path d="M61.618 64.6337V65.1292L61.9153 65.2991L67.7628 68.683V68.1875L64.9453 66.5593L64.6479 66.3752L61.618 64.6337Z" fill="#4D303A"/>
<path d="M64.9453 66.5593V56.4642L64.6479 56.2943V66.3894L64.9453 66.5593Z" fill="#4D303A"/>
<path d="M61.618 70.4529L67.7628 74.0067V73.6527L61.9153 70.283L61.618 70.4529Z" fill="#593B45"/>
<path d="M61.6039 65.1293V70.4529L61.9153 70.283V65.2992L61.6039 65.1293Z" fill="#2B0512"/>
<path d="M64.9453 56.4642V66.5593L65.2568 66.3894V56.6483L64.9453 56.4642Z" fill="#2B0512"/>
<path d="M61.6039 54.5387V64.6337L61.9153 64.4638V54.7086L61.6039 54.5387Z" fill="#2B0512"/>
<path d="M61.1366 76.4702V93.4746L67.7628 97.2833V80.293L61.1366 76.4702Z" fill="#4D303A"/>
<path d="M61.618 77.2914V93.2056L67.7628 96.7594V80.8453L65.2568 79.4011V79.3869L64.9453 79.217L64.6479 79.0329L61.9153 77.4755L61.618 77.2914Z" fill="#8A5B6B"/>
<path d="M61.618 87.3865L64.6479 89.1279L64.9453 89.312L67.7628 90.9403V90.5863L65.2568 89.1279H65.2426L64.9453 88.958L64.6479 88.774L61.9153 87.2024L61.618 87.3865Z" fill="#593B45"/>
<path d="M61.618 87.3864V87.8679L61.9153 88.0519L67.7628 91.4358V90.9403L64.9453 89.312L64.6479 89.1279L61.618 87.3864Z" fill="#4D303A"/>
<path d="M64.9453 89.312V79.217L64.6479 79.0471V89.1421L64.9453 89.312Z" fill="#4D303A"/>
<path d="M61.618 93.2056L67.7628 96.7595V96.4055L61.9153 93.0216L61.618 93.2056Z" fill="#593B45"/>
<path d="M61.6039 87.882V93.2056L61.9153 93.0216V88.052L61.6039 87.882Z" fill="#2B0512"/>
<path d="M64.9453 79.217V89.312L65.2568 89.128V79.3869L64.9453 79.217Z" fill="#2B0512"/>
<path d="M61.6039 77.2914V87.3865L61.9153 87.2024V77.4613L61.6039 77.2914Z" fill="#2B0512"/>
<path d="M61.1366 99.1522V116.142L67.7628 119.965V102.975L61.1366 99.1522Z" fill="#4D303A"/>
<path d="M61.618 99.9734V115.888L67.7628 119.441V103.527L65.2568 102.083V102.069L64.9453 101.899L64.6479 101.715L61.9153 100.143L61.618 99.9734Z" fill="#8A5B6B"/>
<path d="M61.618 110.068L64.6479 111.81L64.9453 111.98L67.7628 113.622V113.268L65.2568 111.81H65.2426L64.9453 111.626L64.6479 111.456L61.9153 109.884L61.618 110.068Z" fill="#593B45"/>
<path d="M61.618 110.068V110.55L61.9153 110.734L67.7628 114.104V113.622L64.9453 111.98L64.6479 111.81L61.618 110.068Z" fill="#4D303A"/>
<path d="M64.9453 111.994V101.899L64.6479 101.715V111.81L64.9453 111.994Z" fill="#4D303A"/>
<path d="M61.618 115.888L67.7628 119.441V119.087L61.9153 115.704L61.618 115.888Z" fill="#593B45"/>
<path d="M61.6039 110.55V115.873L61.9153 115.704V110.734L61.6039 110.55Z" fill="#2B0512"/>
<path d="M64.9453 101.899V111.994L65.2568 111.81V102.069L64.9453 101.899Z" fill="#2B0512"/>
<path d="M61.6039 99.9593V110.054L61.9153 109.884V100.143L61.6039 99.9593Z" fill="#2B0512"/>
<path d="M68.4565 49.5549L61.1366 45.3357L60.4287 45.7321L67.7628 49.9655L68.4565 49.5549Z" fill="#C8805E"/>
<path d="M87.4148 61.3065V137.663L88.1086 137.267L92.2995 139.674L91.6058 140.07L91.3651 139.957L92.8234 140.793L92.9225 140.849V115.095L94.7348 116.128V65.5398L87.4148 61.3065Z" fill="#C8805E"/>
<g style="mix-blend-mode:multiply">
<path d="M88.8024 137.663V116.256L89.7935 116.794V115.081L88.1087 114.104V137.253L88.8024 137.663Z" fill="#8A7999"/>
</g>
<path d="M88.1086 69.306V86.2962L94.7348 90.1191V73.1288L88.1086 69.306Z" fill="#4D303A"/>
<path d="M88.59 70.1272V86.0272L94.7348 89.5952V73.681L92.2287 72.2368V72.2227L91.9172 72.0386L91.6199 71.8687L88.8873 70.2971L88.59 70.1272Z" fill="#8A5B6B"/>
<path d="M88.59 80.2081L91.6199 81.9637L91.9172 82.1336L94.7348 83.7761V83.4221L92.2287 81.9637H92.2146L91.9172 81.7797L91.6199 81.6098L88.8873 80.0382L88.59 80.2081Z" fill="#593B45"/>
<g style="mix-blend-mode:multiply">
<path d="M91.9172 82.1336L92.5119 82.1478V72.9165L94.7348 74.1624V73.681L91.9172 72.0386V82.1336Z" fill="#8A7999"/>
</g>
<path d="M88.59 80.2081V80.7037L94.7348 84.2575V83.7761L91.9172 82.1337L91.6199 81.9638L88.59 80.2081Z" fill="#4D303A"/>
<path d="M91.9173 82.1336V72.0386L91.6199 71.8687V81.9637L91.9173 82.1336Z" fill="#4D303A"/>
<path d="M88.59 86.0273L94.7348 89.5952V89.2413L88.8873 85.8574L88.59 86.0273Z" fill="#593B45"/>
<path d="M88.59 80.7037L88.5758 86.0272L88.8873 85.8573V80.8736L88.59 80.7037Z" fill="#2B0512"/>
<path d="M91.9172 72.0386V82.1336L92.2287 81.9637V72.2227L91.9172 72.0386Z" fill="#2B0512"/>
<path d="M88.5758 70.1131L88.59 80.2081L88.8873 80.0382V70.2971L88.5758 70.1131Z" fill="#2B0512"/>
<path d="M88.1086 92.0588V109.049L94.7348 112.872V95.8816L88.1086 92.0588Z" fill="#4D303A"/>
<path d="M88.59 92.8658V108.78L94.7348 112.334V96.4338L92.2287 94.9896V94.9754L91.9172 94.7914L91.6199 94.6215L88.8873 93.0499L88.59 92.8658Z" fill="#8A5B6B"/>
<path d="M88.59 102.961L91.6199 104.717L91.9172 104.886L94.7348 106.515V106.175L92.2287 104.717H92.2146L91.9172 104.532L91.6199 104.363L88.8873 102.791L88.59 102.961Z" fill="#593B45"/>
<g style="mix-blend-mode:multiply">
<path d="M91.9172 104.886H92.5119V95.6692L94.7348 96.9151V96.4338L91.9172 94.7914V104.886Z" fill="#8A7999"/>
</g>
<path d="M88.59 102.961V103.456L94.7348 107.01V106.515L91.9172 104.886L91.6199 104.717L88.59 102.961Z" fill="#4D303A"/>
<path d="M91.9173 104.886V94.7914L91.6199 94.6215V104.717L91.9173 104.886Z" fill="#4D303A"/>
<path d="M88.59 108.78L94.7348 112.334V111.994L88.8873 108.61L88.59 108.78Z" fill="#593B45"/>
<path d="M88.59 103.456L88.5758 108.78L88.8873 108.61V103.626L88.59 103.456Z" fill="#2B0512"/>
<path d="M91.9172 94.7914V104.886L92.2287 104.717V94.9754L91.9172 94.7914Z" fill="#2B0512"/>
<path d="M88.5758 92.8658V102.961L88.8873 102.791V93.0357L88.5758 92.8658Z" fill="#2B0512"/>
<path d="M95.4286 65.1293L88.1086 60.91L87.4149 61.3065L94.7348 65.8089L95.4286 65.1293Z" fill="#C8805E"/>
<path d="M91.3651 111.258V141.741L92.9225 140.849V112.15L91.3651 111.258Z" fill="#694C51"/>
<path d="M89.7935 112.15L103.527 120.079L105.099 119.187L91.3651 111.258L89.7935 112.15Z" fill="#EDE3DE"/>
<path d="M91.3651 115.987L105.099 123.915V120.985L91.3651 113.056V115.987Z" fill="#BEA296"/>
<path d="M89.7935 112.15V140.849L91.3651 141.741V113.056L89.7935 112.15Z" fill="#BEA296"/>
<path d="M61.1366 45.3357V121.693L60.4287 122.089L60.4428 45.7321L61.1366 45.3357Z" fill="#7B444A"/>
<path d="M117.261 112.15V142.647L118.819 141.741V113.056L117.261 112.15Z" fill="#694C51"/>
<path d="M115.704 113.056V141.741L117.261 142.647V113.962L115.704 113.056Z" fill="#796065"/>
<path d="M105.099 122.103V147.872L106.656 146.966V123.009L105.099 122.103Z" fill="#694C51"/>
<path d="M103.527 123.009V146.966L105.099 147.872V123.916L103.527 123.009Z" fill="#BEA296"/>
<path d="M118.819 113.056L105.099 120.985L103.527 120.079L117.261 112.15L118.819 113.056Z" fill="#EDE3DE"/>
<path d="M117.261 116.879L105.099 123.916V120.985L117.261 113.962V116.879Z" fill="#694C51"/>
<path d="M130.117 106.543L118.819 113.056L117.261 112.15L128.56 105.637L130.117 106.543Z" fill="#EDE3DE"/>
<path d="M130.117 109.46L118.819 115.987V113.056L130.117 106.543V109.46Z" fill="#694C51"/>
<path d="M88.1086 60.91V137.253L87.4148 137.663V61.3065L88.1086 60.91Z" fill="#7B444A"/>
<path d="M82.2328 127.668V109.757L75.6067 105.934V123.845L82.2328 127.668Z" fill="#4D303A"/>
<path d="M81.8081 126.931V109.998L76.0314 106.67V123.604L81.8081 126.931Z" fill="#8A5B6B"/>
<path d="M76.0314 106.67V123.604L80.6754 126.28V125.756L76.4986 123.349V106.925L76.0314 106.67Z" fill="#2B0512"/>
<path d="M76.0314 123.604L81.8081 126.931V126.407L76.4986 123.349L76.0314 123.604Z" fill="#593B45"/>
<g style="mix-blend-mode:multiply">
<path d="M63.3737 122.981V116.907L63.7559 116.765V112.249L67.7628 114.557V114.104L63.3737 111.569V111.074L63.7559 110.946V102.154L64.6479 102.635V102.465L64.9453 102.664V101.899L65.2568 102.069V102.947L67.7628 104.348V102.281L60.4429 97.524L60.4287 122.089L61.1366 121.693L63.3737 122.981Z" fill="#B0A4BA"/>
</g>
<path d="M50.9849 89.7509L89.7935 112.15L91.3651 111.258L52.5424 88.8448L50.9849 89.7509Z" fill="#EDE3DE"/>
<path d="M72.605 102.791V129.098L71.0475 130.004L70.552 103.371L72.605 102.791Z" fill="#694C51"/>
<path d="M60.4428 97.524L60.4286 122.089L58.8854 122.981L58.3898 93.6587L60.4428 97.524Z" fill="#694C51"/>
<path d="M50.9849 92.6676L89.7935 115.081V112.15L50.9849 89.7509V92.6676Z" fill="#BEA296"/>
<path d="M72.605 42.6596V100.412L71.0476 101.319L70.5521 44.1463L60.4429 38.2988V93.3897L58.8854 94.2958L58.3899 34.4477L72.6192 42.6738L72.605 42.6596Z" fill="#694C51"/>
<path d="M58.3898 34.4477L72.605 42.6596L71.0475 43.5658L56.8182 35.3538L58.3898 34.4477Z" fill="#EDE3DE"/>
<path d="M71.0475 43.5658V130.004L68.9804 128.814V45.0524L58.8712 39.2049V122.981L56.8041 121.792V35.3538L71.0334 43.5799L71.0475 43.5658Z" fill="#BEA296"/>
<path d="M83.0965 109.233V136.97L81.0293 135.78V108.341C81.7231 108.568 82.4169 108.865 83.0965 109.233Z" fill="#BEA296"/>
<g style="mix-blend-mode:multiply">
<path d="M58.8854 94.2959H62.0003V93.418H62.5808V88.9156L67.7628 91.9031V91.4358L62.0003 88.0944V87.5989H62.6091V78.41L64.6479 79.5851V79.0471L62.0003 77.518V70.6794H62.5808V66.0779L67.7628 69.1362V68.6831L62.0003 65.3416V64.8461H62.5949V55.6289L64.6479 56.7757V56.2943L62.0003 54.7652V45.8312H65.639L62.9914 44.3021H60.4429V93.4039L58.8854 94.2959Z" fill="#8A7999"/>
</g>
<g style="mix-blend-mode:multiply">
<path d="M83.0965 108.284H86.2114V60.6127L91.181 60.5844L88.2219 58.8712H84.6681V107.392L83.0965 108.284Z" fill="#8A7999"/>
</g>
<g style="mix-blend-mode:multiply">
<path d="M71.0476 101.319H74.1624V53.6467L79.1321 53.6184L76.173 51.9052H72.605V100.427L71.0476 101.319Z" fill="#8A7999"/>
</g>
<g style="mix-blend-mode:multiply">
<path d="M95.2587 115.307H98.3736V67.6353L103.343 67.607L100.384 65.8938H96.8303V114.415L95.2587 115.307Z" fill="#8A7999"/>
</g>
<g style="mix-blend-mode:multiply">
<path d="M88.1086 108.978L88.59 109.247V108.78H89.1705V104.278L94.7348 107.477V107.01L88.59 103.456V102.975H89.1988V93.772L91.6199 95.1595V94.6215L88.59 92.8658V86.0414H89.1705V81.4399L94.7348 84.7105V84.2574L88.59 80.7037V80.2081L89.1847 80.2223V70.9909L91.6199 72.3501V71.8687L88.59 70.1272V61.7879L88.1086 60.91L87.4148 108.978H88.1086Z" fill="#8A7999"/>
</g>
<path d="M96.8303 56.6483V114.401L95.2729 115.307L94.7773 58.135L84.6681 52.2875V107.378L83.1107 108.285L82.6151 48.4363L96.8445 56.6625L96.8303 56.6483Z" fill="#694C51"/>
<path d="M82.601 48.4222L96.8303 56.6483L95.2587 57.5544L81.0435 49.3283L82.601 48.4222Z" fill="#EDE3DE"/>
<path d="M95.2587 57.5544V117.275L93.1916 116.086V59.0411L83.0823 53.1936V108.299L81.0152 107.109V49.3425L95.2445 57.5686L95.2587 57.5544Z" fill="#BEA296"/>
<g style="mix-blend-mode:multiply">
<path d="M64.9453 66.5593H65.5399V57.342L67.7628 58.588V58.1066L65.2568 56.6483V66.3752L64.9453 66.5593Z" fill="#8A7999"/>
</g>
<g style="mix-blend-mode:multiply">
<path d="M74.1483 130.004V107.194L76.0314 108.341V107.138L76.4986 107.407V123.349L76.0314 123.604H76.9517V108.596L81.0435 110.96V110.026L72.605 105.155V129.098L74.1483 130.004Z" fill="#8A7999"/>
</g>
<g style="mix-blend-mode:multiply">
<path d="M86.1972 136.97V114.16L87.4149 114.897V113.721L84.6681 112.121V136.064L86.1972 136.97Z" fill="#8A7999"/>
</g>
</svg>
