<svg width="444" height="380" viewBox="0 0 444 380" fill="none" xmlns="http://www.w3.org/2000/svg">
<g clip-path="url(#clip0_153_218534)">
<rect width="645.014" height="251.888" rx="111" transform="matrix(0.866185 0.499724 -0.866185 0.499724 -60.7852 -37)" fill="#E8D689"/>
<rect width="628.63" height="222.089" rx="111" transform="matrix(0.866315 0.499497 -0.866316 0.499497 -75.5928 -35.0012)" fill="url(#paint0_radial_153_218534)"/>
<path d="M124.698 219.92L115.767 214.764L140.961 200.219L149.966 205.418C152.5 206.881 154.177 208.431 154.997 210.07C155.825 211.703 155.792 213.346 154.899 214.999C154.013 216.656 152.262 218.24 149.646 219.75C147.021 221.265 144.27 222.281 141.391 222.797C138.521 223.318 135.659 223.337 132.805 222.854C129.959 222.375 127.257 221.398 124.698 219.92ZM125.658 215.205L129.041 217.158C130.615 218.067 132.219 218.67 133.851 218.969C135.499 219.267 137.184 219.232 138.907 218.862C140.645 218.493 142.454 217.766 144.332 216.682C146.193 215.607 147.44 214.57 148.071 213.571C148.711 212.577 148.772 211.608 148.256 210.666C147.739 209.724 146.693 208.798 145.119 207.889L141.724 205.929L125.658 215.205Z" fill="white"/>
<path d="M145.903 232.575C144.698 231.879 143.832 231.138 143.307 230.352C142.791 229.561 142.672 228.768 142.951 227.973C143.246 227.177 144.017 226.42 145.263 225.7C146.313 225.094 147.387 224.696 148.486 224.507C149.585 224.317 150.684 224.289 151.783 224.422C152.882 224.554 153.965 224.8 155.031 225.16C156.105 225.525 157.155 225.951 158.18 226.439C159.394 227.007 160.386 227.457 161.157 227.788C161.936 228.115 162.58 228.306 163.088 228.363C163.597 228.42 164.052 228.333 164.454 228.101L164.528 228.058C165.307 227.608 165.663 227.118 165.598 226.588C165.54 226.062 165.065 225.541 164.171 225.025C163.228 224.481 162.268 224.168 161.292 224.088C160.325 224.002 159.439 224.088 158.635 224.343L154.182 221.318C155.576 220.797 157.052 220.503 158.611 220.437C160.177 220.366 161.756 220.529 163.347 220.927C164.954 221.325 166.512 221.959 168.021 222.831C169.071 223.437 169.952 224.088 170.666 224.784C171.388 225.484 171.863 226.199 172.093 226.929C172.331 227.663 172.261 228.389 171.884 229.109C171.515 229.824 170.768 230.506 169.645 231.154L156.901 238.512L151.931 235.643L154.551 234.13L154.403 234.045C153.509 234.211 152.583 234.277 151.623 234.244C150.672 234.206 149.712 234.055 148.745 233.789C147.785 233.52 146.838 233.115 145.903 232.575ZM151.02 231.353C151.791 231.798 152.624 232.104 153.518 232.27C154.42 232.431 155.301 232.457 156.163 232.348C157.024 232.239 157.786 231.993 158.451 231.609L160.456 230.451C160.185 230.418 159.861 230.345 159.484 230.231C159.123 230.118 158.729 229.98 158.303 229.819C157.885 229.654 157.471 229.485 157.061 229.315C156.659 229.14 156.294 228.981 155.966 228.839C155.26 228.536 154.58 228.309 153.924 228.157C153.268 228.006 152.644 227.954 152.054 228.001C151.472 228.044 150.934 228.207 150.442 228.491C149.729 228.903 149.442 229.367 149.581 229.883C149.737 230.399 150.217 230.889 151.02 231.353Z" fill="white"/>
<path d="M189.912 235.753L185.975 238.026L174.596 231.456L178.533 229.184L189.912 235.753ZM185.643 228.061L190.883 231.087L173.268 241.257C172.784 241.537 172.48 241.797 172.357 242.039C172.243 242.275 172.263 242.5 172.419 242.713C172.583 242.931 172.841 243.142 173.194 243.346C173.44 243.488 173.706 243.618 173.994 243.736C174.289 243.85 174.514 243.937 174.67 243.999L171.595 246.726C171.25 246.622 170.787 246.463 170.205 246.25C169.614 246.042 168.966 245.748 168.261 245.37C166.949 244.669 166.01 243.933 165.444 243.161C164.886 242.394 164.751 241.624 165.038 240.853C165.325 240.081 166.092 239.34 167.338 238.63L185.643 228.061Z" fill="white"/>
<path d="M179.462 251.95C178.256 251.254 177.391 250.513 176.866 249.727C176.349 248.936 176.23 248.143 176.509 247.348C176.804 246.552 177.575 245.795 178.822 245.075C179.872 244.469 180.946 244.071 182.045 243.882C183.144 243.692 184.243 243.664 185.342 243.797C186.441 243.929 187.523 244.175 188.589 244.535C189.664 244.9 190.713 245.326 191.738 245.814C192.952 246.382 193.945 246.832 194.715 247.163C195.494 247.49 196.138 247.681 196.647 247.738C197.155 247.795 197.61 247.708 198.012 247.475L198.086 247.433C198.865 246.983 199.222 246.493 199.156 245.963C199.099 245.437 198.623 244.916 197.729 244.4C196.786 243.856 195.827 243.543 194.851 243.463C193.883 243.377 192.997 243.463 192.194 243.718L187.74 240.693C189.135 240.172 190.611 239.878 192.169 239.812C193.735 239.741 195.314 239.904 196.905 240.302C198.512 240.7 200.071 241.334 201.58 242.206C202.629 242.812 203.511 243.463 204.224 244.159C204.946 244.859 205.422 245.574 205.651 246.304C205.889 247.038 205.82 247.764 205.442 248.484C205.073 249.199 204.327 249.881 203.203 250.529L190.459 257.887L185.489 255.018L188.109 253.505L187.962 253.42C187.068 253.586 186.141 253.652 185.182 253.619C184.23 253.581 183.271 253.43 182.303 253.164C181.344 252.895 180.396 252.49 179.462 251.95ZM184.579 250.728C185.35 251.173 186.182 251.479 187.076 251.645C187.978 251.806 188.86 251.832 189.721 251.723C190.582 251.614 191.345 251.368 192.009 250.984L194.014 249.826C193.744 249.793 193.42 249.72 193.042 249.606C192.682 249.493 192.288 249.355 191.861 249.194C191.443 249.029 191.029 248.86 190.619 248.69C190.217 248.515 189.852 248.356 189.524 248.214C188.819 247.911 188.138 247.684 187.482 247.532C186.826 247.381 186.203 247.329 185.612 247.376C185.03 247.419 184.493 247.582 184.001 247.866C183.287 248.278 183 248.742 183.14 249.258C183.296 249.774 183.775 250.264 184.579 250.728Z" fill="white"/>
<path d="M202.641 264.92L227.834 250.375L233.161 253.45L212.359 265.46L223.16 271.696L218.768 274.232L202.641 264.92Z" fill="white"/>
<path d="M227.228 279.528C226.023 278.832 225.158 278.091 224.633 277.305C224.116 276.514 223.997 275.721 224.276 274.926C224.571 274.13 225.342 273.373 226.589 272.653C227.638 272.047 228.713 271.649 229.812 271.46C230.911 271.27 232.009 271.242 233.108 271.375C234.207 271.507 235.29 271.753 236.356 272.113C237.43 272.478 238.48 272.904 239.505 273.392C240.719 273.96 241.711 274.41 242.482 274.741C243.261 275.068 243.905 275.26 244.413 275.316C244.922 275.373 245.377 275.286 245.779 275.054L245.853 275.011C246.632 274.561 246.989 274.071 246.923 273.541C246.866 273.015 246.39 272.494 245.496 271.978C244.553 271.434 243.593 271.121 242.617 271.041C241.65 270.956 240.764 271.041 239.96 271.297L235.507 268.271C236.901 267.75 238.378 267.457 239.936 267.39C241.502 267.319 243.081 267.483 244.672 267.88C246.279 268.278 247.837 268.913 249.346 269.784C250.396 270.39 251.278 271.041 251.991 271.737C252.713 272.438 253.189 273.153 253.418 273.882C253.656 274.616 253.586 275.342 253.209 276.062C252.84 276.777 252.094 277.459 250.97 278.108L238.226 285.466L233.256 282.596L235.876 281.083L235.729 280.998C234.835 281.164 233.908 281.23 232.948 281.197C231.997 281.159 231.038 281.008 230.07 280.743C229.11 280.473 228.163 280.068 227.228 279.528ZM232.346 278.306C233.117 278.752 233.949 279.057 234.843 279.223C235.745 279.384 236.627 279.41 237.488 279.301C238.349 279.192 239.112 278.946 239.776 278.562L241.781 277.404C241.51 277.371 241.186 277.298 240.809 277.184C240.448 277.071 240.055 276.933 239.628 276.772C239.21 276.607 238.796 276.439 238.386 276.268C237.984 276.093 237.619 275.934 237.291 275.792C236.586 275.489 235.905 275.262 235.249 275.11C234.593 274.959 233.969 274.907 233.379 274.954C232.797 274.997 232.26 275.16 231.768 275.444C231.054 275.856 230.767 276.32 230.906 276.836C231.062 277.352 231.542 277.842 232.346 278.306Z" fill="white"/>
<path d="M252.477 287.415L258.775 283.793L259.538 284.233L272.762 283.587L278.778 287.06L261.15 287.848L259.907 287.131L252.477 287.415ZM242.291 287.813L267.485 273.267L272.725 276.293L247.532 290.838L242.291 287.813ZM254.101 294.631L256.77 286.669L263.967 286.549L260.239 298.175L254.101 294.631Z" fill="white"/>
<path d="M269.918 304.189C267.974 303.067 266.695 301.874 266.079 300.609C265.481 299.345 265.53 298.076 266.227 296.803C266.932 295.524 268.281 294.31 270.274 293.159C272.218 292.037 274.301 291.27 276.523 290.858C278.746 290.446 280.952 290.399 283.142 290.716C285.34 291.038 287.365 291.734 289.219 292.804C290.465 293.524 291.425 294.31 292.097 295.162C292.786 296.014 293.135 296.902 293.143 297.825C293.159 298.753 292.79 299.696 292.036 300.652C291.289 301.604 290.112 302.544 288.505 303.472L287.066 304.303L271.111 295.091L274.358 293.216L285.381 299.58C286.135 299.144 286.639 298.663 286.894 298.138C287.148 297.612 287.148 297.087 286.894 296.561C286.656 296.036 286.156 295.553 285.393 295.112C284.597 294.653 283.707 294.352 282.723 294.21C281.756 294.068 280.792 294.075 279.833 294.232C278.881 294.383 278.028 294.672 277.274 295.098L274.186 296.881C273.251 297.42 272.616 297.986 272.279 298.578C271.951 299.175 271.923 299.764 272.193 300.347C272.464 300.929 273.038 301.473 273.916 301.98C274.498 302.316 275.113 302.577 275.761 302.761C276.409 302.946 277.069 303.043 277.741 303.053C278.414 303.062 279.078 302.982 279.734 302.811L284.261 305.794C282.851 306.324 281.329 306.62 279.697 306.682C278.082 306.743 276.433 306.568 274.752 306.156C273.087 305.744 271.476 305.089 269.918 304.189Z" fill="white"/>
<g clip-path="url(#clip1_153_218534)">
<g style="mix-blend-mode:multiply" opacity="0.5">
<path d="M233.788 220.673C233.788 220.673 233.583 220.221 233.2 219.464C233.713 217.555 234.287 215.498 234.907 213.361L235.108 213.392C235.147 213.161 235.149 212.903 235.119 212.626C236.163 209.006 237.295 205.194 238.413 201.505C238.426 201.818 238.424 202.132 238.374 202.439L238.623 202.477C238.703 201.979 238.664 201.464 238.579 200.962C239.555 197.753 240.507 194.651 241.368 191.889C241.497 192.322 241.565 192.781 241.517 193.243L241.766 193.281C241.828 192.664 241.707 192.068 241.482 191.509C242.735 187.48 243.775 184.198 244.354 182.371C247.611 183.229 248.304 186.082 252.235 186.42C252.201 186.413 252.164 186.398 252.13 186.391C252.193 186.397 252.25 186.408 252.313 186.414C248.568 185.596 250.337 180.435 246.754 179.478L246.853 179.401C246.894 179.368 246.889 179.316 246.817 179.251C246.682 179.123 246.363 178.995 246.094 178.962C245.954 178.949 245.866 178.963 245.828 179.003L245.797 178.972L198.923 185.866L190.796 184.954L188.262 186.949L184.058 186.871C187.964 192.444 193.865 198.821 199.142 203.259L201.317 205.046C215.443 216.349 230.531 223.137 230.531 223.137L234.584 222.42L233.803 220.672L233.788 220.673ZM204.698 199.754C204.698 199.754 204.725 199.777 204.743 199.796C204.698 199.754 204.662 199.715 204.612 199.676C204.634 199.704 204.671 199.731 204.702 199.762L204.698 199.754ZM204.963 200.002C205.071 200.106 205.184 200.207 205.301 200.315L205.292 200.312C205.184 200.207 205.071 200.106 204.968 200.01L204.886 199.94L204.823 199.878C204.868 199.921 204.913 199.963 204.958 200.006L204.963 200.002ZM205.603 200.59C205.648 200.633 205.689 200.668 205.734 200.71L205.716 200.691L205.644 200.625C205.545 200.536 205.445 200.447 205.351 200.354L205.323 200.343C205.423 200.42 205.513 200.505 205.608 200.586L205.603 200.59ZM205.892 200.853C205.946 200.9 206 200.946 206.05 200.997C205.968 200.927 205.892 200.853 205.81 200.784C205.837 200.807 205.865 200.83 205.892 200.853ZM206.651 201.526C206.682 201.557 206.723 201.592 206.759 201.619C206.674 201.542 206.588 201.464 206.488 201.387C206.47 201.368 206.443 201.345 206.42 201.329C206.32 201.24 206.221 201.151 206.112 201.059L206.094 201.051C206.28 201.206 206.46 201.364 206.651 201.526ZM206.831 201.685L206.849 201.704L206.84 201.701L206.818 201.673L206.837 201.681L206.831 201.685ZM207.65 202.4C207.528 202.296 207.415 202.195 207.292 202.091C207.269 202.076 207.252 202.056 207.229 202.041C207.12 201.948 207.021 201.859 206.912 201.766L206.884 201.755C207.143 201.964 207.392 202.18 207.64 202.397L207.65 202.4ZM207.786 202.516L207.814 202.527L207.745 202.481L207.795 202.52L207.786 202.516ZM208.053 202.74C208.212 202.872 208.366 203.007 208.525 203.138L208.493 203.107C208.371 203.003 208.249 202.898 208.126 202.794L208.086 202.759C208.031 202.713 207.977 202.667 207.932 202.624C207.982 202.663 208.023 202.697 208.068 202.74L208.053 202.74ZM208.802 203.366C208.856 203.412 208.901 203.455 208.96 203.497C208.838 203.393 208.716 203.289 208.588 203.188L208.538 203.15C208.629 203.223 208.72 203.296 208.806 203.374L208.802 203.366ZM209.133 203.64C209.187 203.686 209.237 203.725 209.292 203.771C209.187 203.686 209.079 203.594 208.974 203.509C209.028 203.555 209.079 203.594 209.133 203.64ZM209.9 204.273C209.941 204.308 209.991 204.347 210.032 204.381C209.977 204.335 209.914 204.285 209.859 204.238L209.818 204.204C209.696 204.099 209.559 203.995 209.437 203.891L209.418 203.884C209.582 204.011 209.741 204.142 209.905 204.269L209.9 204.273ZM210.163 204.489L210.218 204.536L210.208 204.532L210.14 204.474L210.168 204.485L210.163 204.489ZM211.208 205.338L211.18 205.327L211.19 205.319L211.208 205.338ZM211.104 205.254L211.085 205.246C210.976 205.153 210.868 205.061 210.754 204.972C210.731 204.957 210.713 204.937 210.681 204.918C210.553 204.818 210.421 204.71 210.294 204.609L210.276 204.59C210.549 204.81 210.831 205.034 211.104 205.254ZM211.386 205.477L211.486 205.554C211.413 205.5 211.349 205.45 211.281 205.392C211.318 205.419 211.345 205.442 211.382 205.469L211.386 205.477ZM213.285 206.957L213.432 207.065C213.472 207.1 213.528 207.134 213.569 207.169L213.505 207.119C213.505 207.119 213.432 207.065 213.405 207.042L213.291 206.953L213.285 206.957ZM213.727 207.3C213.768 207.335 213.824 207.37 213.864 207.404L213.846 207.397C213.791 207.351 213.741 207.312 213.687 207.266L213.727 207.3ZM215.735 208.818C215.608 208.718 215.466 208.618 215.338 208.517C215.302 208.49 215.265 208.463 215.238 208.44C215.101 208.336 214.964 208.232 214.832 208.136L214.804 208.125L214.421 207.824L214.311 207.743C214.175 207.639 214.047 207.539 213.91 207.435C214.521 207.901 215.128 208.359 215.745 208.822L215.735 208.818ZM215.932 208.964L216.014 209.022C215.941 208.968 215.868 208.914 215.786 208.856L215.758 208.833C215.818 208.875 215.878 208.918 215.932 208.964ZM216.229 209.187C216.375 209.295 216.521 209.403 216.667 209.511L216.658 209.507C216.53 209.407 216.388 209.307 216.261 209.206C216.224 209.18 216.188 209.153 216.161 209.129L216.06 209.052C216.12 209.095 216.179 209.137 216.234 209.183L216.229 209.187ZM217.056 209.795C217.093 209.822 217.138 209.853 217.17 209.884C217.143 209.861 217.11 209.842 217.083 209.819C216.964 209.734 216.85 209.645 216.731 209.561L216.685 209.53C216.808 209.622 216.928 209.707 217.051 209.799L217.056 209.795ZM217.385 210.038C217.431 210.068 217.472 210.103 217.518 210.134C217.458 210.092 217.399 210.049 217.344 210.003L217.394 210.042L217.385 210.038ZM218.341 210.734C218.341 210.734 218.405 210.784 218.446 210.807L218.099 210.557C218.099 210.557 218.039 210.515 218.012 210.492C217.893 210.407 217.783 210.326 217.669 210.238L217.632 210.223C217.875 210.388 218.108 210.561 218.346 210.73L218.341 210.734ZM218.464 210.826L218.514 210.865L218.486 210.854L218.441 210.811L218.469 210.822L218.464 210.826ZM219.566 211.631L219.594 211.642L219.503 211.58L219.576 211.634L219.566 211.631ZM219.42 211.523L219.392 211.512C219.264 211.411 219.141 211.319 219.008 211.223C218.985 211.207 218.958 211.184 218.935 211.169C218.816 211.084 218.707 211.003 218.587 210.919L218.56 210.896C218.849 211.103 219.141 211.319 219.429 211.527L219.42 211.523ZM219.781 211.784C219.928 211.892 220.079 211.996 220.225 212.103L219.901 211.869L219.85 211.83L219.681 211.707C219.681 211.707 219.745 211.757 219.787 211.78L219.781 211.784ZM220.656 212.411L220.748 212.472C220.665 212.415 220.573 212.353 220.496 212.292C220.546 212.33 220.606 212.373 220.661 212.407L220.656 212.411ZM220.931 212.607C220.981 212.646 221.04 212.688 221.096 212.722C221.022 212.668 220.949 212.615 220.862 212.561L220.931 212.607ZM221.81 213.23L221.893 213.287L221.691 213.145L221.663 213.134C221.563 213.057 221.462 212.98 221.357 212.907C221.512 213.018 221.664 213.122 221.819 213.234L221.81 213.23ZM221.979 213.353L222.039 213.395L221.966 213.341L221.984 213.349L221.979 213.353ZM222.826 213.956C222.735 213.895 222.648 213.83 222.556 213.768C222.537 213.761 222.529 213.745 222.51 213.737C222.427 213.68 222.345 213.622 222.262 213.565C222.45 213.695 222.633 213.83 222.821 213.96L222.826 213.956ZM223.028 214.099L223.111 214.156C223.308 214.291 223.5 214.429 223.688 214.56C223.596 214.498 223.51 214.433 223.418 214.371L223.358 214.329C223.23 214.241 223.111 214.156 222.982 214.068L223.037 214.102L223.028 214.099ZM224.037 214.798L224.12 214.855C224.014 214.782 223.918 214.713 223.812 214.64L223.794 214.633C223.881 214.686 223.955 214.74 224.028 214.794L224.037 214.798ZM224.257 214.947C224.313 214.982 224.363 215.02 224.418 215.055C224.359 215.012 224.303 214.978 224.244 214.936L224.194 214.897L224.148 214.867C224.184 214.893 224.221 214.92 224.267 214.951L224.257 214.947ZM225.074 215.508C225.13 215.542 225.18 215.581 225.235 215.615C225.285 215.654 225.35 215.692 225.4 215.731C225.276 215.65 225.166 215.569 225.047 215.485L224.987 215.442C224.886 215.377 224.799 215.312 224.698 215.247C224.827 215.335 224.946 215.42 225.07 215.5L225.074 215.508ZM226.763 216.664L226.575 216.533C226.575 216.533 226.543 216.514 226.529 216.502L226.401 216.414C226.52 216.499 226.644 216.579 226.763 216.664ZM225.859 216.049L225.831 216.026L225.776 215.992C225.707 215.946 225.634 215.892 225.556 215.842C225.652 215.911 225.763 215.98 225.859 216.049ZM195.504 190.163C195.623 190.303 195.742 190.444 195.871 190.587C195.813 190.521 195.747 190.451 195.689 190.385L195.636 190.327C195.582 190.269 195.538 190.214 195.494 190.16L195.504 190.163ZM196.451 191.257L196.491 191.303L196.366 191.167L196.348 191.148C196.282 191.066 196.211 190.988 196.14 190.911L196.092 190.848C196.03 190.774 195.973 190.708 195.906 190.638L195.896 190.634C196.078 190.837 196.255 191.043 196.446 191.261L196.451 191.257ZM196.619 191.447C196.69 191.525 196.756 191.607 196.837 191.688C196.766 191.61 196.695 191.533 196.633 191.459L196.579 191.4L196.54 191.354C196.54 191.354 196.597 191.42 196.629 191.451L196.619 191.447ZM197.09 191.968C197.126 192.007 197.152 192.042 197.187 192.081L197.148 192.034C197.148 192.034 197.112 191.995 197.094 191.976C197.027 191.906 196.975 191.836 196.908 191.766C196.966 191.832 197.032 191.902 197.09 191.968ZM197.281 192.174C197.281 192.174 197.339 192.24 197.37 192.271C197.321 192.221 197.277 192.166 197.238 192.12C197.255 192.139 197.273 192.158 197.291 192.178L197.281 192.174ZM197.944 192.901C197.868 192.815 197.784 192.726 197.708 192.64C197.691 192.621 197.663 192.598 197.651 192.574C197.566 192.485 197.491 192.399 197.415 192.314C197.589 192.5 197.771 192.703 197.958 192.901L197.944 192.901ZM198.571 193.577C198.482 193.48 198.384 193.379 198.295 193.282L198.228 193.212C198.139 193.115 198.055 193.025 197.975 192.932C198.176 193.142 198.372 193.355 198.581 193.581L198.571 193.577ZM198.692 193.705L198.741 193.756C198.692 193.705 198.643 193.655 198.593 193.604C198.625 193.635 198.651 193.67 198.682 193.701L198.692 193.705ZM198.91 193.934C199.013 194.043 199.111 194.144 199.214 194.253C199.12 194.148 199.022 194.047 198.929 193.942C198.902 193.919 198.889 193.895 198.862 193.872L198.799 193.81C198.835 193.849 198.88 193.891 198.92 193.938L198.91 193.934ZM199.494 194.556C199.543 194.606 199.579 194.645 199.628 194.696L199.575 194.637L199.498 194.564C199.413 194.474 199.333 194.393 199.258 194.307C199.338 194.389 199.413 194.474 199.494 194.556ZM199.735 194.812C199.78 194.855 199.815 194.894 199.855 194.94C199.797 194.874 199.725 194.808 199.668 194.742C199.695 194.765 199.717 194.793 199.735 194.812ZM200.547 195.655C200.449 195.554 200.355 195.461 200.266 195.363C200.244 195.336 200.217 195.313 200.185 195.282C200.087 195.181 199.989 195.08 199.896 194.975C200.11 195.196 200.329 195.426 200.552 195.651L200.547 195.655ZM201.339 196.458C201.227 196.345 201.115 196.233 201.003 196.12L200.923 196.039C200.811 195.926 200.699 195.814 200.596 195.705C200.838 195.95 201.093 196.206 201.348 196.462L201.339 196.458ZM201.5 196.621C201.531 196.652 201.563 196.683 201.598 196.722C201.518 196.64 201.428 196.555 201.347 196.474C201.402 196.52 201.455 196.578 201.504 196.629L201.5 196.621ZM201.773 196.896C201.889 197.017 202.01 197.133 202.136 197.257C202.02 197.137 201.898 197.02 201.777 196.904C201.746 196.873 201.724 196.846 201.692 196.815L201.608 196.726C201.666 196.78 201.72 196.838 201.773 196.896ZM202.503 197.626C202.548 197.668 202.583 197.707 202.628 197.75L202.597 197.719C202.597 197.719 202.534 197.657 202.503 197.626C202.395 197.521 202.293 197.412 202.185 197.308C202.293 197.412 202.4 197.517 202.503 197.626ZM202.803 197.924C202.856 197.983 202.915 198.037 202.974 198.091C202.897 198.017 202.83 197.947 202.754 197.874L202.803 197.924ZM203.857 198.956C204.086 199.177 204.319 199.405 204.567 199.634C204.459 199.529 204.356 199.432 204.252 199.335C204.225 199.312 204.198 199.289 204.176 199.262C204.073 199.165 203.965 199.06 203.867 198.959C203.732 198.832 203.602 198.7 203.467 198.572C203.436 198.541 203.404 198.51 203.373 198.479C203.257 198.358 203.126 198.238 203.005 198.122C203.283 198.393 203.575 198.676 203.867 198.959L203.857 198.956ZM243.317 182.185C243.317 182.185 243.389 182.195 243.427 182.198C240.07 185.41 235.758 188.95 231.636 192.129L231.502 192.168L231.548 192.198C228.681 194.411 225.925 196.447 223.659 198.087L223.497 198.114L223.551 198.161C221.889 199.358 220.522 200.334 219.57 200.995C219.543 200.972 219.515 200.948 219.494 200.921L243.298 182.177L243.317 182.185ZM236.177 186.603L236.137 186.557L245.766 179.053L236.177 186.603ZM229.988 191.353L230.106 191.339L230.066 191.292L236.064 186.614L236.171 186.607L218.815 200.274C218.779 200.235 218.739 200.2 218.698 200.166L222.542 197.172L222.654 197.162L222.62 197.111L230.003 191.353L229.988 191.353ZM246.773 179.43C246.773 179.43 246.67 179.444 246.583 179.435C246.67 179.444 246.718 179.439 246.773 179.43ZM245.809 179.063C245.809 179.063 245.829 179.115 245.86 179.146C245.829 179.115 245.807 179.087 245.809 179.063ZM245.668 179.063C244.732 179.41 239.263 181.409 232.342 183.549L232.323 183.541L232.252 183.574C229.439 184.441 226.386 185.329 223.306 186.138L223.26 186.119L223.202 186.164C219.597 187.108 215.962 187.942 212.607 188.499C212.588 188.492 212.569 188.484 212.551 188.477L212.493 188.522C210.127 188.914 207.909 189.167 205.954 189.224C204.117 187.806 202.867 186.918 202.367 186.564L202.25 186.456L202.164 186.379L202.078 186.369L201.812 186.188L199.188 185.892L245.663 179.067L245.668 179.063ZM192.386 186.132L192.339 186.057C192.339 186.057 192.373 186.108 192.386 186.132Z" fill="#6F5F6A"/>
</g>
<path d="M234.223 218.461C234.223 218.461 221.134 204.096 205.611 195.331C190.087 186.566 181.113 183.551 181.113 183.551L177.34 185.715L173.497 187.928C173.497 187.928 178.739 193.087 193.991 202.013C209.243 210.938 234.223 218.461 234.223 218.461Z" fill="#C9C9C9"/>
<path d="M230.652 217.329C223.197 214.905 205.721 208.874 193.99 202.013C183.809 196.052 178.085 191.775 175.408 189.591L181.485 186.095C183.326 186.756 191.938 190.042 205.46 197.675C213.408 202.163 220.712 208.173 225.43 212.41C227.503 214.273 229.273 215.966 230.641 217.329H230.652Z" fill="#E8C49B"/>
<path opacity="0.2" d="M208.901 202.113C208.448 201.852 207.935 201.562 207.281 201.191C206.104 200.53 204.484 199.618 201.858 198.106C196.647 195.111 192.783 195.161 191.455 195.922C190.127 196.683 190.047 198.907 195.258 201.902C197.884 203.415 199.474 204.336 200.631 205.018C201.265 205.388 201.768 205.689 202.23 205.949C202.894 206.33 203.458 206.64 204.182 207.031C206.355 208.193 208.237 208.604 210.883 207.081C213.528 205.559 212.804 204.477 210.792 203.235C210.128 202.824 209.585 202.493 208.921 202.113H208.901Z" fill="black"/>
<path d="M210.651 199.278C210.198 199.017 209.685 198.727 209.031 198.356C207.854 197.695 206.234 196.784 203.609 195.271C198.397 192.276 194.534 192.326 193.206 193.087C191.878 193.849 191.797 196.072 197.009 199.067C199.635 200.58 201.224 201.502 202.381 202.183C203.015 202.553 203.518 202.854 203.981 203.114C204.645 203.495 205.208 203.806 205.923 204.196C208.096 205.358 209.977 205.769 212.623 204.246C215.269 202.724 214.545 201.642 212.532 200.4C211.868 199.989 211.325 199.658 210.661 199.278H210.651Z" fill="#F0E4DA"/>
<path d="M195.409 192.646V192.697C196.757 192.697 199.625 193.037 203.578 195.311C206.204 196.824 207.824 197.735 209.001 198.396C209.645 198.757 210.158 199.047 210.621 199.318C211.285 199.699 211.828 200.019 212.492 200.44C213.75 201.221 214.283 201.802 214.273 202.393C214.273 202.964 213.71 203.555 212.583 204.206C211.436 204.867 210.379 205.188 209.353 205.188C208.327 205.188 207.291 204.877 205.933 204.156C205.218 203.775 204.655 203.465 203.991 203.084C203.538 202.824 203.035 202.533 202.401 202.163C201.244 201.482 199.665 200.55 197.029 199.037C193.075 196.764 192.492 195.141 192.492 194.369C192.492 193.849 192.753 193.418 193.226 193.137C193.709 192.857 194.484 192.707 195.409 192.707V192.656V192.646ZM195.409 192.646C194.403 192.646 193.659 192.827 193.196 193.087C191.868 193.849 191.787 196.072 196.999 199.067C199.625 200.58 201.214 201.502 202.371 202.183C203.005 202.553 203.508 202.854 203.971 203.114C204.635 203.495 205.198 203.806 205.913 204.196C207.09 204.827 208.186 205.238 209.363 205.238C210.349 205.238 211.406 204.947 212.613 204.256C215.259 202.734 214.535 201.652 212.522 200.41C211.858 199.999 211.315 199.668 210.651 199.288C210.198 199.027 209.685 198.737 209.031 198.366C207.854 197.705 206.234 196.794 203.609 195.281C200.178 193.308 197.341 192.656 195.409 192.656V192.646Z" fill="white"/>
<path d="M191.526 196.603L192.492 193.939C192.17 195.031 193.105 196.834 196.999 199.067C199.625 200.58 201.214 201.502 202.371 202.183C203.005 202.553 203.508 202.854 203.971 203.114C204.635 203.495 205.198 203.806 205.912 204.196C208.086 205.358 209.967 205.769 212.613 204.246C213.901 203.505 214.394 202.874 214.323 202.263L215.943 204.717C216.597 205.649 216.557 206.811 214.333 208.083C210.46 210.307 207.19 208.724 205.591 207.862C203.277 206.62 202.774 206.25 196.637 202.714C192.029 200.069 190.982 197.936 191.526 196.593V196.603Z" fill="url(#paint1_linear_153_218534)"/>
<path d="M205.711 204.387C207.12 205.138 208.186 205.458 209.293 205.458C209.414 205.458 209.544 205.458 209.665 205.448C209.816 205.438 209.947 205.549 209.967 205.699C209.967 205.699 210.148 207.993 210.198 208.694C210.198 208.804 210.118 208.894 210.007 208.894C208.015 208.834 206.375 207.963 205.671 207.572C205.329 207.392 205.037 207.231 204.756 207.071C204.655 207.011 204.595 206.891 204.615 206.781L205.077 204.447C205.118 204.266 205.319 204.166 205.48 204.256C205.56 204.296 205.641 204.346 205.721 204.387H205.711Z" fill="#104B5E"/>
<path d="M209.987 208.944C207.975 208.884 206.325 208.003 205.621 207.622C205.279 207.442 204.987 207.281 204.705 207.121C204.585 207.051 204.514 206.911 204.544 206.771L205.007 204.437C205.027 204.336 205.098 204.246 205.188 204.206C205.279 204.166 205.389 204.166 205.48 204.206L205.721 204.336C207.12 205.088 208.186 205.398 209.273 205.398C209.394 205.398 209.514 205.398 209.635 205.388C209.816 205.378 209.967 205.508 209.987 205.689L210.219 208.684C210.219 208.754 210.198 208.814 210.158 208.864C210.108 208.914 210.048 208.934 209.987 208.934V208.944ZM209.655 205.498C209.534 205.498 209.404 205.508 209.283 205.508C208.176 205.508 207.1 205.188 205.681 204.427L205.44 204.296C205.379 204.266 205.299 204.256 205.239 204.296C205.168 204.326 205.128 204.387 205.108 204.457L204.645 206.791C204.625 206.891 204.675 206.981 204.756 207.031C205.037 207.191 205.339 207.352 205.671 207.532C206.365 207.903 208.005 208.784 209.987 208.844C210.027 208.844 210.068 208.834 210.098 208.804C210.128 208.774 210.138 208.744 210.138 208.704L209.907 205.709C209.907 205.589 209.796 205.498 209.675 205.498H209.655Z" fill="white"/>
<path d="M201.908 202.253H201.928C202.552 202.634 203.045 202.924 203.498 203.185C203.91 203.425 204.283 203.625 204.675 203.846C204.796 203.916 204.866 204.056 204.836 204.186L204.393 206.42C204.353 206.63 204.112 206.741 203.92 206.64C203.317 206.3 202.703 205.939 201.818 205.428C201.335 205.148 200.781 204.827 200.117 204.437C199.987 204.357 199.926 204.196 199.977 204.056L200.701 202.002C200.771 201.812 200.993 201.732 201.174 201.832C201.445 201.992 201.687 202.133 201.918 202.263L201.908 202.253Z" fill="#104B5E"/>
<path d="M203.9 206.68C203.297 206.34 202.673 205.979 201.808 205.468H201.798C201.315 205.178 200.761 204.857 200.097 204.467C199.946 204.377 199.876 204.196 199.936 204.026L200.661 201.972C200.701 201.872 200.781 201.782 200.882 201.752C200.983 201.712 201.103 201.722 201.194 201.782L201.969 202.233C202.592 202.594 203.085 202.884 203.538 203.144C203.951 203.385 204.323 203.595 204.715 203.806C204.856 203.886 204.937 204.046 204.896 204.206L204.454 206.44C204.433 206.56 204.353 206.65 204.242 206.701C204.192 206.721 204.142 206.731 204.091 206.731C204.031 206.731 203.971 206.711 203.91 206.68H203.9ZM200.912 201.842C200.832 201.872 200.771 201.932 200.751 202.013L200.027 204.066C199.987 204.186 200.027 204.326 200.148 204.387C200.822 204.777 201.375 205.098 201.848 205.378C202.713 205.889 203.337 206.25 203.94 206.59C204.021 206.63 204.112 206.64 204.192 206.6C204.272 206.56 204.333 206.49 204.343 206.41L204.786 204.176C204.806 204.056 204.755 203.946 204.645 203.886C204.252 203.675 203.88 203.465 203.468 203.225C203.015 202.964 202.522 202.674 201.898 202.303L201.134 201.852C201.134 201.852 201.043 201.812 200.993 201.812C200.963 201.812 200.932 201.812 200.902 201.832L200.912 201.842Z" fill="white"/>
<path d="M210.601 208.514C210.249 208.003 210.138 205.548 210.138 205.448V205.408H210.178C210.993 205.278 211.828 204.967 212.724 204.447C213.619 203.926 214.172 203.445 214.414 202.954L214.454 202.874L215.762 204.847C216.044 205.258 216.144 205.639 216.054 206.029C215.913 206.65 215.299 207.271 214.223 207.892C213.518 208.303 212.291 208.854 211.426 208.854C211.064 208.854 210.772 208.754 210.601 208.514ZM212.774 204.527C211.888 205.038 211.053 205.348 210.239 205.488C210.259 205.829 210.369 208.013 210.681 208.463C211.174 209.175 213.035 208.463 214.172 207.812C215.219 207.211 215.822 206.6 215.953 206.009C216.033 205.649 215.943 205.288 215.671 204.907L214.454 203.074C214.192 203.555 213.639 204.036 212.764 204.537L212.774 204.527Z" fill="white"/>
<path opacity="0.2" d="M208.065 199.689C207.784 199.528 207.462 199.348 207.059 199.118C206.325 198.707 205.319 198.136 203.689 197.194C200.45 195.331 198.045 195.361 197.22 195.832C196.395 196.303 196.345 197.685 199.584 199.548C201.214 200.49 202.381 200.961 203.106 201.381C203.498 201.612 203.81 201.792 204.102 201.962C204.514 202.203 204.866 202.393 205.309 202.634C206.657 203.355 207.643 203.715 209.293 202.764C210.933 201.822 210.49 201.151 209.233 200.37C208.82 200.109 208.478 199.909 208.065 199.679V199.689Z" fill="black"/>
<path d="M208.84 197.926C208.569 197.765 208.267 197.595 207.874 197.385C207.17 196.994 206.214 196.453 204.655 195.552C201.556 193.768 199.262 193.799 198.478 194.249C197.693 194.7 197.643 196.022 200.741 197.805C202.301 198.707 203.246 199.258 203.931 199.659C204.313 199.879 204.605 200.059 204.876 200.209C205.269 200.44 205.611 200.62 206.033 200.851C207.321 201.542 208.438 201.782 210.007 200.881C211.577 199.979 211.154 199.338 209.957 198.597C209.565 198.356 209.243 198.156 208.84 197.936V197.926Z" fill="#F1F2F2"/>
<path d="M199.786 193.989V194.019C200.59 194.019 202.291 194.219 204.645 195.571C206.204 196.473 207.17 197.014 207.864 197.405C208.247 197.625 208.548 197.795 208.82 197.946C209.212 198.176 209.534 198.366 209.937 198.607C210.681 199.067 211.003 199.418 210.993 199.769C210.993 200.109 210.661 200.46 209.987 200.84C209.303 201.231 208.679 201.421 208.076 201.421C207.472 201.421 206.848 201.241 206.043 200.81C205.621 200.58 205.279 200.4 204.886 200.169C204.615 200.009 204.323 199.839 203.941 199.618C203.257 199.208 202.311 198.667 200.751 197.765C198.407 196.413 198.055 195.451 198.055 194.99C198.055 194.68 198.206 194.42 198.498 194.259C198.79 194.089 199.242 193.999 199.796 193.999V193.969L199.786 193.989ZM199.786 193.989C199.192 193.989 198.739 194.099 198.478 194.249C197.693 194.7 197.643 196.022 200.741 197.805C202.301 198.707 203.246 199.258 203.931 199.658C204.313 199.879 204.605 200.059 204.876 200.209C205.269 200.44 205.611 200.62 206.033 200.85C206.738 201.221 207.381 201.472 208.076 201.472C208.659 201.472 209.283 201.301 210.007 200.891C211.577 199.989 211.154 199.348 209.957 198.607C209.565 198.366 209.243 198.166 208.84 197.946C208.569 197.785 208.267 197.615 207.874 197.405C207.17 197.014 206.214 196.473 204.655 195.571C202.623 194.399 200.933 194.009 199.786 194.009V193.989Z" fill="white"/>
<path d="M197.482 196.343L198.055 194.76C197.864 195.411 198.417 196.483 200.731 197.805C202.291 198.707 203.236 199.258 203.921 199.658C204.303 199.879 204.595 200.059 204.866 200.209C205.259 200.44 205.601 200.62 206.023 200.851C207.311 201.542 208.428 201.782 209.997 200.881C210.762 200.44 211.054 200.059 211.013 199.709L211.979 201.171C212.362 201.722 212.341 202.413 211.023 203.174C208.72 204.497 206.778 203.555 205.832 203.044C204.454 202.303 204.162 202.083 200.51 199.989C197.774 198.416 197.15 197.154 197.472 196.353L197.482 196.343Z" fill="url(#paint2_linear_153_218534)"/>
<path d="M208.81 203.415C208.599 203.114 208.538 201.652 208.528 201.592V201.562H208.548C209.031 201.482 209.524 201.301 210.058 200.991C210.591 200.68 210.923 200.39 211.064 200.109L211.084 200.059L211.858 201.231C212.029 201.472 212.08 201.702 212.029 201.932C211.949 202.303 211.577 202.674 210.943 203.044C210.52 203.285 209.796 203.615 209.283 203.615C209.072 203.615 208.891 203.555 208.79 203.415H208.81ZM210.098 201.051C209.565 201.351 209.072 201.542 208.589 201.622C208.589 201.822 208.669 203.124 208.85 203.385C209.142 203.806 210.249 203.385 210.923 202.994C211.547 202.634 211.899 202.273 211.979 201.922C212.029 201.712 211.979 201.492 211.818 201.271L211.094 200.179C210.933 200.46 210.611 200.75 210.088 201.051H210.098Z" fill="white"/>
<path d="M205.903 200.971C206.738 201.421 207.371 201.612 208.025 201.612C208.096 201.612 208.176 201.612 208.247 201.612C208.337 201.612 208.418 201.672 208.428 201.762C208.428 201.762 208.539 203.124 208.569 203.545C208.569 203.615 208.518 203.665 208.458 203.665C207.271 203.635 206.305 203.104 205.883 202.884C205.681 202.774 205.5 202.684 205.339 202.583C205.279 202.553 205.249 202.483 205.259 202.413L205.54 201.031C205.561 200.921 205.681 200.87 205.782 200.921C205.832 200.951 205.872 200.971 205.923 201.001L205.903 200.971Z" fill="#104B5E"/>
<path d="M208.448 203.675C207.251 203.645 206.275 203.114 205.852 202.884C205.651 202.774 205.47 202.684 205.309 202.583C205.238 202.543 205.198 202.463 205.218 202.373L205.5 200.991C205.51 200.931 205.55 200.881 205.611 200.851C205.671 200.82 205.731 200.83 205.782 200.851L205.923 200.931C206.758 201.371 207.381 201.562 208.035 201.562C208.106 201.562 208.176 201.562 208.257 201.562C208.367 201.562 208.458 201.632 208.468 201.742L208.609 203.525C208.609 203.525 208.599 203.605 208.569 203.635C208.538 203.665 208.508 203.675 208.468 203.675H208.448ZM208.247 201.622C208.176 201.622 208.096 201.622 208.025 201.622C207.361 201.622 206.727 201.432 205.882 200.981L205.741 200.901C205.741 200.901 205.661 200.881 205.621 200.901C205.58 200.921 205.55 200.951 205.55 201.001L205.269 202.383C205.259 202.443 205.289 202.503 205.339 202.523C205.51 202.614 205.681 202.714 205.882 202.824C206.295 203.044 207.271 203.565 208.448 203.605C208.468 203.605 208.498 203.605 208.508 203.575C208.528 203.555 208.528 203.535 208.528 203.515L208.387 201.732C208.387 201.662 208.327 201.612 208.257 201.612H208.247V201.622Z" fill="white"/>
<path d="M203.649 199.699H203.659C204.031 199.929 204.323 200.099 204.595 200.249C204.836 200.39 205.057 200.51 205.299 200.64C205.369 200.68 205.409 200.76 205.389 200.84L205.128 202.163C205.098 202.293 204.957 202.353 204.846 202.293C204.484 202.093 204.122 201.882 203.599 201.572C203.317 201.401 202.985 201.211 202.582 200.981C202.502 200.931 202.472 200.84 202.502 200.75L202.935 199.528C202.975 199.418 203.106 199.368 203.216 199.428C203.377 199.518 203.518 199.608 203.659 199.688L203.649 199.699Z" fill="#104B5E"/>
<path d="M204.826 202.323C204.464 202.123 204.102 201.902 203.589 201.602C203.307 201.432 202.975 201.241 202.572 201.011C202.482 200.961 202.442 200.851 202.472 200.75L202.904 199.528C202.925 199.468 202.975 199.418 203.035 199.398C203.096 199.378 203.166 199.378 203.226 199.418L203.689 199.689C204.061 199.909 204.353 200.079 204.625 200.229C204.866 200.37 205.098 200.5 205.329 200.62C205.41 200.67 205.46 200.76 205.44 200.861L205.178 202.183C205.168 202.253 205.118 202.313 205.057 202.343C205.027 202.353 204.997 202.363 204.967 202.363C204.927 202.363 204.896 202.363 204.856 202.333L204.826 202.323ZM203.045 199.448C203.045 199.448 202.965 199.498 202.945 199.548L202.522 200.77C202.492 200.841 202.522 200.921 202.593 200.961C202.995 201.191 203.317 201.381 203.609 201.552C204.122 201.852 204.494 202.073 204.846 202.273C204.896 202.303 204.947 202.303 204.997 202.273C205.047 202.253 205.078 202.213 205.088 202.153L205.349 200.83C205.359 200.76 205.329 200.69 205.269 200.66C205.037 200.53 204.816 200.41 204.564 200.27C204.293 200.119 204.001 199.939 203.629 199.729L203.176 199.458C203.176 199.458 203.126 199.438 203.096 199.438C203.075 199.438 203.055 199.438 203.035 199.438L203.045 199.448Z" fill="white"/>
<path d="M179.714 191.454L186.797 187.388L181.465 184.322L174.392 188.389L179.714 191.454Z" fill="#EDEDED"/>
<path d="M179.724 192.927V191.454L174.392 188.389V189.862L179.724 192.927Z" fill="#ABABAB"/>
<path d="M179.724 191.454V192.927L186.807 188.85V187.387L179.724 191.454Z" fill="#D9D9D9"/>
<path d="M182.109 193.498L185.288 191.665L182.904 190.292L179.725 192.116L182.109 193.498Z" fill="#EDEDED"/>
<path d="M182.119 194.289V193.498L179.725 192.116V192.917L182.119 194.289Z" fill="#ABABAB"/>
<path d="M182.119 193.498V194.289L185.288 192.466V191.665L182.119 193.498Z" fill="#D9D9D9"/>
<path d="M181.163 192.286L184.342 190.463L182.904 189.631L179.725 191.464L181.163 192.286Z" fill="#EDEDED"/>
<path d="M181.163 192.947V192.286L179.725 191.464V192.116L181.163 192.947Z" fill="#ABABAB"/>
<path d="M181.163 192.286V192.947L184.342 191.124V190.463L181.163 192.286Z" fill="#D9D9D9"/>
<path d="M172.058 187.738L172.873 188.54C173.095 188.75 178.376 193.879 193.538 202.754C201.476 207.392 212.039 211.649 219.514 214.394C227.593 217.369 233.901 219.272 233.962 219.292L237 220.204L234.867 217.87C234.867 217.87 231.507 214.193 226.315 209.535C221.527 205.228 214.122 199.138 206.033 194.57C190.62 185.865 181.475 182.75 181.385 182.72L181.012 182.589L172.058 187.738ZM173.497 187.918L177.34 185.705L181.113 183.541C181.113 183.541 190.087 186.556 205.611 195.321C221.134 204.086 234.223 218.451 234.223 218.451C234.223 218.451 232.11 217.809 228.73 216.688C228.458 216.597 228.177 216.497 227.885 216.397H227.865C227.583 216.297 227.291 216.197 226.99 216.097L226.939 216.077C226.647 215.976 226.346 215.876 226.034 215.766L225.973 215.746C225.672 215.646 225.36 215.536 225.038 215.425L224.967 215.405C224.806 215.345 224.645 215.295 224.484 215.235H224.474C224.313 215.175 224.163 215.125 224.002 215.065L223.921 215.035C223.76 214.975 223.599 214.925 223.438 214.864C223.418 214.864 223.408 214.854 223.388 214.844C223.237 214.794 223.086 214.734 222.925 214.684L222.855 214.654C222.694 214.594 222.523 214.534 222.352 214.474C222.321 214.474 222.301 214.454 222.271 214.444C222.12 214.394 221.969 214.334 221.818 214.283L221.738 214.253C221.567 214.193 221.406 214.133 221.235 214.073C221.205 214.063 221.164 214.053 221.134 214.033C220.983 213.973 220.822 213.923 220.671 213.863C220.651 213.863 220.631 213.843 220.611 213.843C220.44 213.783 220.269 213.723 220.098 213.652C220.058 213.642 220.028 213.622 219.987 213.612C219.816 213.552 219.655 213.492 219.484 213.432H219.454C219.283 213.352 219.102 213.292 218.931 213.222L218.8 213.172C218.619 213.101 218.448 213.041 218.267 212.971H218.257C218.086 212.901 217.905 212.841 217.734 212.771C217.694 212.751 217.643 212.741 217.603 212.721C217.422 212.651 217.251 212.591 217.07 212.52L216.999 212.49C216.838 212.43 216.677 212.37 216.516 212.31L216.376 212.26C216.194 212.19 216.023 212.12 215.842 212.05C215.812 212.04 215.772 212.02 215.742 212.01C215.581 211.949 215.43 211.889 215.269 211.829C215.229 211.809 215.188 211.799 215.138 211.779L214.595 211.569C214.595 211.569 214.514 211.539 214.474 211.519C214.313 211.459 214.162 211.399 214.001 211.328C213.961 211.308 213.921 211.298 213.881 211.278C213.699 211.208 213.518 211.138 213.337 211.058C213.287 211.038 213.247 211.018 213.196 211.008C213.035 210.948 212.874 210.878 212.713 210.818C212.683 210.808 212.653 210.788 212.613 210.777C212.432 210.707 212.241 210.627 212.06 210.557C212.009 210.537 211.959 210.517 211.919 210.497C211.748 210.427 211.577 210.357 211.406 210.287C211.385 210.287 211.365 210.267 211.335 210.257C211.144 210.176 210.963 210.106 210.772 210.026C210.721 210.006 210.671 209.986 210.631 209.966C210.44 209.886 210.249 209.806 210.068 209.736H210.037C209.856 209.646 209.675 209.575 209.494 209.495L209.343 209.435C209.152 209.355 208.971 209.275 208.78 209.195C208.75 209.185 208.729 209.175 208.699 209.165C208.528 209.095 208.367 209.024 208.196 208.954C208.146 208.934 208.096 208.914 208.055 208.894C207.874 208.814 207.683 208.734 207.502 208.654C207.462 208.634 207.432 208.624 207.391 208.604C207.23 208.534 207.069 208.464 206.908 208.393C206.858 208.373 206.818 208.353 206.768 208.333C206.587 208.253 206.395 208.173 206.214 208.093L206.094 208.043C205.933 207.973 205.772 207.903 205.611 207.832C205.57 207.812 205.53 207.802 205.49 207.782C205.309 207.702 205.118 207.612 204.937 207.532C204.896 207.512 204.846 207.492 204.806 207.472C204.645 207.402 204.484 207.322 204.323 207.251C204.293 207.241 204.263 207.221 204.222 207.211C204.041 207.131 203.85 207.041 203.669 206.961L203.528 206.901C203.357 206.821 203.186 206.741 203.015 206.66L202.955 206.63C202.774 206.54 202.582 206.46 202.401 206.37C202.351 206.35 202.311 206.33 202.26 206.3C202.079 206.21 201.888 206.12 201.707 206.039H201.697C201.516 205.949 201.335 205.859 201.154 205.769C201.103 205.749 201.063 205.729 201.013 205.699C200.832 205.609 200.651 205.519 200.47 205.428L200.409 205.398C200.238 205.318 200.077 205.238 199.916 205.148C199.876 205.128 199.826 205.108 199.786 205.088C199.604 204.998 199.423 204.907 199.252 204.817C199.222 204.807 199.192 204.787 199.162 204.777C199.001 204.697 198.85 204.617 198.689 204.537C198.649 204.517 198.608 204.497 198.568 204.477C198.397 204.387 198.216 204.296 198.045 204.206C198.015 204.186 197.975 204.166 197.944 204.156C197.794 204.076 197.643 203.996 197.482 203.916C197.451 203.896 197.411 203.876 197.381 203.866C197.21 203.776 197.039 203.685 196.868 203.595L196.757 203.535C196.606 203.455 196.455 203.375 196.305 203.285C196.274 203.275 196.254 203.255 196.224 203.245C196.053 203.154 195.882 203.064 195.721 202.964L195.6 202.904C195.439 202.814 195.288 202.734 195.138 202.644L195.087 202.614C194.916 202.523 194.755 202.423 194.594 202.333C194.554 202.313 194.514 202.293 194.474 202.263C194.313 202.163 194.142 202.073 193.981 201.972C193.769 201.852 193.558 201.722 193.347 201.602C193.296 201.572 193.246 201.542 193.196 201.512C192.995 201.391 192.783 201.271 192.582 201.151C192.381 201.031 192.18 200.911 191.978 200.79C191.928 200.76 191.878 200.73 191.828 200.7C191.626 200.58 191.435 200.46 191.244 200.35C191.053 200.229 190.852 200.109 190.661 199.999C190.61 199.969 190.57 199.939 190.52 199.909C190.339 199.799 190.147 199.679 189.966 199.568H189.956C189.765 199.448 189.584 199.328 189.403 199.218L189.272 199.138C189.091 199.027 188.91 198.917 188.739 198.807C188.558 198.687 188.387 198.577 188.206 198.466C188.165 198.436 188.125 198.416 188.075 198.386C187.904 198.276 187.733 198.176 187.572 198.066C187.401 197.956 187.23 197.845 187.059 197.735L186.938 197.665C186.777 197.565 186.616 197.455 186.455 197.355H186.445C186.284 197.244 186.123 197.134 185.962 197.034C185.922 197.014 185.892 196.984 185.852 196.964C185.701 196.864 185.54 196.764 185.389 196.663H185.379C185.228 196.553 185.067 196.453 184.916 196.353L184.805 196.283C184.654 196.183 184.513 196.092 184.373 195.992H184.363C184.212 195.882 184.071 195.792 183.92 195.692C183.89 195.672 183.849 195.652 183.819 195.622C183.678 195.531 183.548 195.441 183.417 195.351H183.397C183.256 195.241 183.115 195.151 182.984 195.061C182.954 195.041 182.924 195.021 182.894 195.001C182.763 194.91 182.642 194.83 182.511 194.74L182.491 194.72C182.36 194.63 182.23 194.54 182.099 194.45L182.008 194.39C181.888 194.309 181.767 194.229 181.656 194.149L181.626 194.129C181.505 194.039 181.385 193.959 181.264 193.879L181.173 193.809C181.063 193.728 180.962 193.658 180.851 193.588L180.811 193.568C180.7 193.488 180.58 193.408 180.469 193.328L180.379 193.268C180.278 193.197 180.187 193.127 180.087 193.057L180.036 193.027C179.936 192.947 179.825 192.877 179.725 192.807C179.694 192.787 179.664 192.767 179.634 192.737C179.543 192.677 179.463 192.616 179.372 192.546C179.352 192.536 179.332 192.516 179.312 192.506C179.211 192.436 179.121 192.366 179.02 192.296C178.99 192.276 178.96 192.246 178.93 192.226C178.849 192.166 178.779 192.116 178.698 192.056C178.678 192.035 178.658 192.025 178.638 192.005C178.547 191.945 178.467 191.875 178.376 191.815L178.276 191.745C178.205 191.695 178.145 191.645 178.085 191.605C178.055 191.585 178.034 191.565 178.004 191.545C177.924 191.485 177.853 191.424 177.773 191.374C177.743 191.354 177.702 191.324 177.672 191.304C177.612 191.264 177.562 191.224 177.501 191.174C177.471 191.144 177.431 191.124 177.401 191.094C177.34 191.044 177.27 190.994 177.209 190.944L177.109 190.863L176.978 190.763C176.978 190.763 176.887 190.693 176.837 190.653C176.787 190.613 176.747 190.583 176.696 190.543C176.656 190.513 176.626 190.483 176.586 190.463C176.555 190.433 176.515 190.413 176.485 190.383C176.435 190.343 176.374 190.293 176.324 190.252C176.294 190.222 176.254 190.202 176.223 190.172L176.113 190.082L176.032 190.022C175.962 189.972 175.902 189.912 175.841 189.862L175.791 189.822C175.791 189.822 175.71 189.762 175.68 189.732L175.64 189.691C175.559 189.631 175.489 189.571 175.409 189.511C174.081 188.419 173.497 187.848 173.497 187.848V187.918Z" fill="#E8E8E8"/>
<path d="M181.445 184.482L181.575 184.402V182.75L181.445 182.82V184.482Z" fill="#A3A3A3"/>
<path d="M181.314 184.402L181.444 184.482V182.82L181.314 182.75V184.402Z" fill="#737373"/>
<path d="M181.314 182.75L181.445 182.82L181.576 182.75L181.445 182.669L181.314 182.75Z" fill="#E0E0E0"/>
<path d="M183.93 185.204L181.435 183.801L181.566 183.731L184.061 185.134L183.93 185.204Z" fill="#E0E0E0"/>
<path d="M181.435 183.801L183.93 185.204V185.354L181.435 183.952V183.801Z" fill="#737373"/>
<path d="M183.93 184.252L181.445 182.82L181.576 182.75L184.061 184.172L183.93 184.252Z" fill="#E0E0E0"/>
<path d="M181.445 182.82L183.93 184.252V184.402L181.445 182.97V182.82Z" fill="#737373"/>
<path d="M178.276 185.614L181.445 183.801L181.314 183.731L178.145 185.544L178.276 185.614Z" fill="#E0E0E0"/>
<path d="M181.445 183.801L178.276 185.614V185.765L181.445 183.952V183.801Z" fill="#A3A3A3"/>
<path d="M178.276 184.663L181.445 182.82L181.314 182.75L178.145 184.583L178.276 184.663Z" fill="#E0E0E0"/>
<path d="M181.445 182.82L178.276 184.663V184.813L181.445 182.97V182.82Z" fill="#A3A3A3"/>
<path d="M184.061 185.985L184.191 185.915V184.252L184.061 184.332V185.985Z" fill="#A3A3A3"/>
<path d="M183.93 185.915L184.06 185.985V184.332L183.93 184.252V185.915Z" fill="#737373"/>
<path d="M183.93 184.252L184.061 184.332L184.192 184.252L184.061 184.182L183.93 184.252Z" fill="#E0E0E0"/>
<path d="M186.546 185.735L184.061 184.332L184.191 184.252L186.676 185.655L186.546 185.735Z" fill="#E0E0E0"/>
<path d="M184.061 184.332L186.546 185.735V185.885L184.061 184.483V184.332Z" fill="#737373"/>
<path d="M186.546 186.686L184.061 185.284L184.191 185.204L186.676 186.616L186.546 186.686Z" fill="#E0E0E0"/>
<path d="M184.061 185.284L186.546 186.686V186.836L184.061 185.434V185.284Z" fill="#737373"/>
<path d="M186.677 187.468L186.807 187.397V185.735L186.677 185.805V187.468Z" fill="#A3A3A3"/>
<path d="M186.546 187.397L186.676 187.468V185.805L186.546 185.735V187.397Z" fill="#737373"/>
<path d="M186.546 185.735L186.676 185.805L186.807 185.735L186.676 185.655L186.546 185.735Z" fill="#E0E0E0"/>
<path d="M178.145 186.396L178.275 186.316V184.663L178.145 184.733V186.396Z" fill="#A3A3A3"/>
<path d="M178.014 186.316L178.144 186.396V184.733L178.014 184.663V186.316Z" fill="#737373"/>
<path d="M178.014 184.663L178.145 184.733L178.276 184.663L178.145 184.583L178.014 184.663Z" fill="#E0E0E0"/>
<path d="M174.654 187.688L178.145 185.715L178.004 185.645L174.523 187.608L174.654 187.688Z" fill="#E0E0E0"/>
<path d="M178.145 185.715L174.654 187.688V187.838L178.145 185.865V185.715Z" fill="#A3A3A3"/>
<path d="M184.755 186.376C184.724 186.426 184.704 186.476 184.674 186.526C184.674 186.526 184.664 186.556 184.654 186.566L184.815 186.656L184.926 186.466L184.765 186.376H184.755Z" fill="#383838"/>
<path d="M184.544 186.506L184.453 186.456C184.362 186.586 184.252 186.706 184.131 186.786L184.222 186.837C184.342 186.746 184.453 186.636 184.544 186.506Z" fill="#050505"/>
<path d="M184.785 185.885L184.694 185.835C184.684 185.975 184.634 186.135 184.563 186.276L184.654 186.326C184.724 186.185 184.775 186.025 184.785 185.885Z" fill="#050505"/>
<path d="M184.071 187.097V187.347L184.221 187.257V187.007H184.211C184.211 187.007 184.171 187.047 184.151 187.057C184.131 187.067 184.111 187.077 184.101 187.087H184.081L184.071 187.097Z" fill="#383838"/>
<path d="M184.07 187.097L183.98 187.047V187.297L184.07 187.347V187.097Z" fill="#050505"/>
<path d="M184.926 185.624C184.926 185.624 184.926 185.665 184.926 185.685V185.735C184.926 185.735 184.926 185.775 184.926 185.805L185.147 185.675V185.494L184.926 185.624Z" fill="#383838"/>
<path d="M185.147 185.494L185.057 185.434L184.835 185.564L184.926 185.625L185.147 185.494Z" fill="#050505"/>
<path d="M184.071 186.937L183.98 186.887C183.859 186.937 183.749 186.947 183.658 186.917L183.749 186.967C183.839 186.997 183.95 186.987 184.071 186.937Z" fill="#050505"/>
<path d="M184.07 186.416L183.97 186.366V186.877L184.07 186.937V186.416Z" fill="#050505"/>
<path d="M184.785 185.705L184.684 185.645L184.232 185.905L184.332 185.965L184.785 185.705Z" fill="#050505"/>
<path d="M184.654 185.414L184.563 185.364C184.634 185.424 184.684 185.524 184.694 185.655L184.785 185.705C184.775 185.574 184.724 185.474 184.654 185.414Z" fill="#050505"/>
<path d="M183.497 187.057L183.588 187.107C183.588 187.107 183.558 187.087 183.537 187.077C183.437 186.997 183.376 186.867 183.366 186.696L183.276 186.646C183.296 186.817 183.356 186.947 183.447 187.027C183.467 187.037 183.477 187.047 183.497 187.057Z" fill="black"/>
<path d="M183.537 187.077L183.376 187.347L183.487 187.407L183.648 187.137C183.648 187.137 183.568 187.097 183.537 187.077Z" fill="#383838"/>
<path d="M183.439 187.03L183.283 187.299L183.379 187.354L183.535 187.085L183.439 187.03Z" fill="#050505"/>
<path d="M183.864 186.303L183.545 186.847L183.64 186.903L183.959 186.358L183.864 186.303Z" fill="#050505"/>
<path d="M184.442 185.311L184.125 185.857L184.221 185.912L184.537 185.366L184.442 185.311Z" fill="#050505"/>
<path d="M184.795 184.903L184.704 184.853L184.543 185.124L184.644 185.174L184.795 184.903Z" fill="#050505"/>
<path d="M184.705 185.204L184.614 185.154C184.614 185.154 184.574 185.134 184.554 185.124C184.433 185.084 184.292 185.094 184.131 185.164H184.111L184.091 185.184L184.181 185.234H184.201L184.222 185.214C184.383 185.144 184.523 185.134 184.644 185.174C184.664 185.174 184.684 185.194 184.705 185.204Z" fill="black"/>
<path d="M183.96 186.175L183.859 186.125L183.407 186.386L183.507 186.436L183.96 186.175Z" fill="#050505"/>
<path d="M184.06 185.474L183.97 185.414V185.935L184.07 185.985L184.06 185.474Z" fill="#050505"/>
<path d="M184.06 185.054L183.97 185.003V185.254L184.06 185.304V185.054Z" fill="#050505"/>
<path d="M184.101 185.284L184.01 185.234H184L183.98 185.254C183.819 185.364 183.678 185.514 183.558 185.695C183.517 185.755 183.477 185.815 183.447 185.885C183.346 186.075 183.286 186.276 183.276 186.466L183.366 186.516C183.376 186.326 183.447 186.125 183.537 185.935C183.568 185.875 183.608 185.805 183.648 185.745C183.769 185.564 183.91 185.414 184.071 185.304L184.091 185.284H184.101Z" fill="black"/>
<path d="M184.061 185.054V185.304L184.091 185.284L184.121 185.264H184.141L184.171 185.234L184.201 185.214H184.221V184.953L184.071 185.044L184.061 185.054Z" fill="#383838"/>
<path d="M183.487 185.665L183.376 185.855L183.537 185.945C183.568 185.885 183.608 185.815 183.648 185.755L183.487 185.665Z" fill="#383838"/>
<path d="M183.356 186.606V186.686C183.376 186.867 183.437 186.997 183.527 187.077C183.558 187.107 183.598 187.127 183.638 187.137C183.759 187.177 183.9 187.167 184.061 187.097H184.081V187.077L184.131 187.057C184.131 187.057 184.161 187.037 184.171 187.037L184.191 187.017H184.201C184.362 186.897 184.503 186.746 184.624 186.566C184.624 186.556 184.634 186.546 184.644 186.536C184.805 186.286 184.896 186.005 184.906 185.755V185.665C184.906 185.464 184.825 185.324 184.725 185.234H184.714V185.214H184.694C184.694 185.214 184.644 185.184 184.614 185.174C184.493 185.134 184.352 185.144 184.191 185.214H184.171L184.151 185.234H184.141L184.111 185.254H184.091V185.274H184.061L184.04 185.304C183.879 185.414 183.739 185.564 183.618 185.745C183.578 185.805 183.537 185.865 183.507 185.935C183.407 186.125 183.346 186.326 183.336 186.516V186.606H183.356ZM184.775 185.705L184.322 185.965L184.644 185.414C184.714 185.474 184.765 185.574 184.775 185.705ZM184.322 186.145L184.775 185.885C184.765 186.025 184.714 186.185 184.644 186.326L184.322 186.145ZM184.211 186.336L184.533 186.516C184.443 186.646 184.332 186.766 184.211 186.847V186.326V186.336ZM184.211 185.394C184.332 185.344 184.443 185.334 184.533 185.364L184.211 185.915V185.394ZM184.061 185.995L183.739 185.815C183.829 185.685 183.94 185.564 184.061 185.484V186.005V185.995ZM183.749 186.967L184.071 186.416V186.937C183.95 186.987 183.839 186.997 183.749 186.967ZM183.507 186.616L183.96 186.356L183.638 186.907C183.568 186.847 183.517 186.746 183.507 186.616ZM183.507 186.436C183.517 186.296 183.568 186.135 183.638 185.995L183.96 186.175L183.507 186.436Z" fill="#383838"/>
<path d="M184.795 184.903L184.634 185.174C184.634 185.174 184.684 185.194 184.715 185.214H184.735V185.234H184.745L184.906 184.973L184.795 184.913V184.903Z" fill="#383838"/>
<path d="M183.366 186.516L183.266 186.466L183.044 186.596L183.135 186.646L183.366 186.516Z" fill="#050505"/>
<path d="M183.135 186.646V186.827L183.356 186.696V186.536L183.135 186.656V186.646Z" fill="#383838"/>
<path d="M183.134 186.646L183.044 186.596V186.766L183.144 186.826L183.134 186.646Z" fill="#383838"/>
<path d="M184.221 184.963L184.121 184.913L183.97 185.003L184.061 185.053L184.221 184.963Z" fill="#383838"/>
<path d="M183.397 185.599L183.286 185.789L183.381 185.845L183.492 185.655L183.397 185.599Z" fill="#383838"/>
<path d="M184.252 188.439L184.483 188.309V185.965L184.252 186.095V188.439Z" fill="#A3A3A3"/>
<path d="M184.02 188.309L184.252 188.439V186.095L184.02 185.965V188.309Z" fill="#737373"/>
<path d="M184.02 185.965L184.252 186.095L184.483 185.965L184.252 185.835L184.02 185.965Z" fill="#D1D1D1"/>
<path d="M184.292 186.266C184.292 186.266 184.322 186.326 184.362 186.306C184.402 186.286 184.432 186.225 184.432 186.185C184.432 186.145 184.402 186.125 184.362 186.145C184.322 186.165 184.292 186.225 184.292 186.266Z" fill="#737373"/>
<path d="M174.654 186.736L178.135 184.733L178.004 184.663L174.523 186.656L174.654 186.736Z" fill="#E0E0E0"/>
<path d="M178.135 184.733L174.654 186.736V186.887L178.135 184.883V184.733Z" fill="#A3A3A3"/>
<path d="M174.523 188.469L174.643 188.389V186.736L174.523 186.806V188.469Z" fill="#A3A3A3"/>
<path d="M174.392 188.389L174.522 188.469V186.806L174.392 186.736V188.389Z" fill="#737373"/>
<path d="M174.392 186.736L174.523 186.807L174.644 186.736L174.523 186.656L174.392 186.736Z" fill="#E0E0E0"/>
<path d="M176.968 189.181L174.523 187.798L174.654 187.718L177.109 189.11L176.968 189.181Z" fill="#E0E0E0"/>
<path d="M174.513 187.798L176.968 189.18V189.331L174.513 187.948V187.798Z" fill="#737373"/>
<path d="M176.978 188.219L174.493 186.796L174.624 186.716L177.109 188.139L176.978 188.219Z" fill="#E0E0E0"/>
<path d="M174.493 186.796L176.978 188.219V188.369L174.493 186.947V186.796Z" fill="#737373"/>
<path d="M177.109 189.952L177.229 189.882V188.219L177.109 188.289V189.952Z" fill="#A3A3A3"/>
<path d="M176.978 189.882L177.108 189.952V188.289L176.978 188.219V189.882Z" fill="#737373"/>
<path d="M176.978 188.219L177.109 188.289L177.23 188.219L177.109 188.139L176.978 188.219Z" fill="#E0E0E0"/>
<path d="M179.594 189.711L177.109 188.289L177.239 188.219L179.724 189.631L179.594 189.711Z" fill="#E0E0E0"/>
<path d="M177.099 188.289L179.594 189.711V189.862L177.099 188.439V188.289Z" fill="#737373"/>
<path d="M179.594 190.663L177.109 189.261L177.239 189.181L179.724 190.593L179.594 190.663Z" fill="#E0E0E0"/>
<path d="M177.099 189.261L179.594 190.663V190.813L177.099 189.411V189.261Z" fill="#737373"/>
<path d="M179.725 191.444L179.855 191.364V189.711L179.725 189.782V191.444Z" fill="#A3A3A3"/>
<path d="M179.594 191.364L179.724 191.444V189.782L179.594 189.711V191.364Z" fill="#737373"/>
<path d="M179.594 189.711L179.725 189.782L179.855 189.711L179.725 189.631L179.594 189.711Z" fill="#E0E0E0"/>
<path d="M182.914 188.93L186.676 186.786L186.546 186.716L182.783 188.85L182.914 188.93Z" fill="#E0E0E0"/>
<path d="M186.677 186.786L182.914 188.93V189.08L186.677 186.947V186.786Z" fill="#A3A3A3"/>
<path d="M182.914 187.968L186.676 185.805L186.546 185.735L182.783 187.898L182.914 187.968Z" fill="#E0E0E0"/>
<path d="M186.677 185.805L182.914 187.968V188.119L186.677 185.965V185.805Z" fill="#A3A3A3"/>
<path d="M182.783 189.711L182.913 189.631V187.968L182.783 188.049V189.711Z" fill="#A3A3A3"/>
<path d="M182.652 189.631L182.782 189.711V188.049L182.652 187.968V189.631Z" fill="#737373"/>
<path d="M182.652 187.968L182.783 188.049L182.914 187.968L182.783 187.898L182.652 187.968Z" fill="#E0E0E0"/>
<path d="M181.032 190.553L179.724 189.782L179.855 189.711L181.163 190.483L181.032 190.553Z" fill="#E0E0E0"/>
<path d="M179.724 189.781L181.032 190.553V190.703L179.724 189.932V189.781Z" fill="#737373"/>
<path d="M181.032 191.494L179.724 190.753L179.855 190.673L181.163 191.414L181.032 191.494Z" fill="#E0E0E0"/>
<path d="M179.724 190.753L181.032 191.494V191.645L179.724 190.903V190.753Z" fill="#737373"/>
<path d="M184.081 188.8L182.783 188.049L182.914 187.969L184.212 188.73L184.081 188.8Z" fill="#E0E0E0"/>
<path d="M182.783 188.049L184.081 188.8V188.95L182.783 188.199V188.049Z" fill="#737373"/>
<path d="M184.101 189.752L182.783 189.01L182.914 188.94L184.232 189.681L184.101 189.752Z" fill="#E0E0E0"/>
<path d="M182.783 189.01L184.101 189.752V189.902L182.783 189.161V189.01Z" fill="#737373"/>
<path d="M181.163 192.286L181.293 192.216V190.553L181.163 190.623V192.286Z" fill="#A3A3A3"/>
<path d="M181.032 192.216L181.162 192.286V190.623L181.032 190.553V192.216Z" fill="#737373"/>
<path d="M181.032 190.553L181.163 190.623L181.294 190.553L181.163 190.473L181.032 190.553Z" fill="#E0E0E0"/>
<path d="M184.212 190.543L184.342 190.463V188.8L184.212 188.88V190.543Z" fill="#A3A3A3"/>
<path d="M184.081 190.463L184.211 190.543V188.88L184.081 188.8V190.463Z" fill="#737373"/>
<path d="M184.081 188.8L184.212 188.88L184.342 188.8L184.212 188.73L184.081 188.8Z" fill="#E0E0E0"/>
<path d="M228.73 216.698C228.459 216.607 228.177 216.507 227.885 216.417H227.865C227.583 216.317 227.291 216.217 226.99 216.117L226.939 216.097C226.758 216.036 226.567 215.966 226.376 215.906L229.595 213.773C232.523 216.587 234.233 218.471 234.233 218.471C234.233 218.471 232.121 217.83 228.74 216.708L228.73 216.698Z" fill="#E8E8E8"/>
<path d="M172.883 188.55C173.105 188.76 178.386 193.889 193.548 202.764C201.486 207.402 212.049 211.659 219.524 214.404C227.603 217.379 233.911 219.282 233.972 219.302L237.01 220.214L234.776 224.01L231.849 223.129C231.788 223.109 225.702 221.275 217.905 218.4C210.691 215.746 200.49 211.649 192.834 207.171C178.195 198.607 173.095 193.658 172.883 193.458L172.068 192.647V187.758L172.883 188.56V188.55Z" fill="#D4D4D4"/>
<path d="M187.109 192.316L189.826 190.753L187.109 189.191L184.393 190.753L187.109 192.316Z" fill="#C79C6B"/>
<path d="M187.894 191.454C187.984 191.505 188.135 191.505 188.236 191.454C188.326 191.404 188.326 191.314 188.236 191.264C188.145 191.214 187.994 191.214 187.894 191.264C187.803 191.314 187.803 191.404 187.894 191.454Z" fill="#A37A52"/>
<path d="M212.754 204.487C213.659 203.966 214.223 203.475 214.464 202.974L215.722 204.877C215.993 205.268 216.094 205.649 216.003 206.019C215.973 206.17 215.903 206.33 215.802 206.49L210.872 205.298C211.476 205.128 212.1 204.857 212.744 204.487H212.754Z" fill="#255E70"/>
<path d="M215.812 206.48C215.53 206.931 214.997 207.392 214.202 207.842C213.025 208.514 211.164 209.215 210.651 208.484C210.299 207.983 210.198 205.438 210.198 205.438C210.43 205.398 210.651 205.348 210.882 205.288L215.812 206.48Z" fill="#104B5E"/>
<path d="M210.088 201.021C210.621 200.71 210.963 200.42 211.104 200.119L211.848 201.251C212.009 201.482 212.07 201.712 212.019 201.932C211.999 202.002 211.969 202.083 211.929 202.153L209.082 201.462C209.404 201.361 209.736 201.211 210.088 201.011V201.021Z" fill="#255E70"/>
<path d="M211.929 202.153C211.768 202.443 211.446 202.734 210.943 203.014C210.249 203.415 209.132 203.836 208.83 203.395C208.619 203.094 208.559 201.592 208.559 201.592C208.73 201.562 208.901 201.522 209.082 201.472L211.929 202.163V202.153Z" fill="#104B5E"/>
<path opacity="0.1" d="M205.812 198.376C205.812 198.376 195.138 193.969 185.932 192.456C185.932 192.456 190.711 191.424 195.922 187.938L205.631 196.794L205.822 198.376H205.812Z" fill="black"/>
<path d="M206.134 197.344C206.134 197.405 206.174 197.425 206.224 197.395C206.275 197.365 206.315 197.294 206.315 197.234C206.315 197.174 206.275 197.154 206.224 197.184C206.174 197.214 206.134 197.284 206.134 197.344Z" fill="#E6E7E8"/>
<path d="M185.932 185.665C185.932 185.604 185.972 185.534 186.023 185.504C186.053 185.484 186.073 185.484 186.093 185.504L206.285 197.164C206.285 197.164 206.245 197.164 206.224 197.164C206.174 197.194 206.134 197.264 206.134 197.324C206.134 197.355 206.134 197.365 206.154 197.375L185.962 185.705H185.952C185.952 185.705 185.932 185.665 185.932 185.645V185.665Z" fill="url(#paint3_linear_153_218534)"/>
<path d="M205.973 142.531C206.184 142.651 206.526 142.651 206.748 142.531C206.959 142.411 206.959 142.21 206.748 142.09C206.536 141.97 206.194 141.97 205.973 142.09C205.762 142.21 205.762 142.411 205.973 142.531Z" fill="#E6E7E8"/>
<path d="M205.812 142.331C205.812 142.401 205.872 142.481 205.973 142.531C206.184 142.651 206.526 142.651 206.748 142.531C206.858 142.471 206.909 142.391 206.909 142.311V198.987C206.909 199.067 206.858 199.148 206.748 199.208C206.536 199.328 206.194 199.328 205.973 199.208C205.862 199.138 205.812 199.057 205.812 198.967V142.331Z" fill="url(#paint4_linear_153_218534)"/>
<path d="M206.738 145.867C206.738 145.867 223.69 191.955 234.213 218.461C234.213 218.461 216.496 200.209 206.889 197.645C206.889 197.645 208.549 165.951 206.728 145.867H206.738Z" fill="url(#paint5_linear_153_218534)"/>
<path d="M205.812 142.331C205.812 142.331 195.5 177.01 186.023 185.514C186.023 185.514 202.442 194.079 205.621 196.794L205.812 142.331Z" fill="url(#paint6_linear_153_218534)"/>
<path opacity="0.2" d="M234.223 218.461C234.223 218.461 218.78 205.559 206.898 197.645C216.506 200.209 234.223 218.461 234.223 218.461Z" fill="black"/>
<path d="M172.884 188.549C173.105 188.76 178.387 193.889 193.548 202.764C201.486 207.402 212.05 211.659 219.525 214.404C227.603 217.379 233.911 219.282 233.972 219.302L237.01 220.213L236.155 220.023L231.849 218.781C231.789 218.761 225.702 216.928 217.905 214.053C210.691 211.398 200.49 207.301 192.834 202.824C178.196 194.259 173.095 189.311 172.884 189.11L172.069 188.299V187.748L172.884 188.549Z" fill="#63B2EB"/>
<path d="M193.548 204.477C201.486 209.115 212.05 213.372 219.525 216.117C227.603 219.092 233.911 220.995 233.972 221.015L236.145 221.666L234.978 221.386L231.849 220.604C231.789 220.584 225.702 218.751 217.905 215.876C210.691 213.222 200.49 209.125 192.834 204.647C178.196 196.082 173.095 191.134 172.884 190.934L172.069 190.122V189.461L172.884 190.262C173.105 190.473 178.387 195.602 193.548 204.477Z" fill="#63B2EB"/>
<path d="M196.647 207.582C196.647 207.862 196.848 208.203 197.089 208.343L197.301 208.463C197.542 208.604 197.743 208.494 197.743 208.213C197.743 207.933 197.542 207.592 197.301 207.452L197.089 207.332C196.848 207.191 196.647 207.301 196.647 207.582Z" fill="#104B5E"/>
<path d="M206.325 212.11C206.345 212.39 206.577 212.711 206.828 212.831L207.05 212.931C207.301 213.051 207.492 212.931 207.472 212.641C207.452 212.36 207.221 212.04 206.969 211.919L206.748 211.819C206.496 211.699 206.305 211.819 206.325 212.11Z" fill="#104B5E"/>
<path d="M215.39 215.806C215.41 216.086 215.641 216.407 215.893 216.527L216.114 216.627C216.366 216.748 216.557 216.627 216.537 216.337C216.517 216.056 216.285 215.736 216.034 215.616L215.812 215.515C215.561 215.395 215.37 215.515 215.39 215.806Z" fill="#104B5E"/>
<path d="M189.011 203.174C189.011 203.455 189.212 203.796 189.453 203.936L189.665 204.056C189.906 204.196 190.107 204.086 190.107 203.806C190.107 203.525 189.906 203.185 189.665 203.044L189.453 202.924C189.212 202.784 189.011 202.894 189.011 203.174Z" fill="#104B5E"/>
<path d="M181.485 198.386C181.485 198.667 181.687 199.007 181.928 199.148L182.139 199.268C182.381 199.408 182.582 199.298 182.582 199.017C182.582 198.737 182.381 198.396 182.139 198.256L181.928 198.136C181.687 197.996 181.485 198.106 181.485 198.386Z" fill="#104B5E"/>
<path d="M205.765 142.296L178.221 184.624L178.322 184.69L205.867 142.362L205.765 142.296Z" fill="#AAAAAA"/>
<path d="M218.217 213.011L218.327 212.991L206.858 145.716L206.738 145.736L218.217 213.011Z" fill="#AAAAAA"/>
<path d="M206.738 142.531V145.867C210.52 144.785 213.649 152.388 217.1 150.164C213.649 151.286 210.188 141.419 206.738 142.541V142.531Z" fill="url(#paint7_linear_153_218534)"/>
<path d="M215.601 168.275L215.812 168.175C213.146 162.786 207.643 161.303 207.593 161.283L207.532 161.513C207.583 161.523 212.985 162.996 215.601 168.285V168.275Z" fill="#D1D1D1"/>
<path d="M221.668 185.254L221.879 185.154C219.907 180.856 216.124 177.721 213.307 175.858C210.259 173.834 207.633 172.813 207.603 172.803L207.522 173.023C207.623 173.063 217.935 177.12 221.668 185.254Z" fill="#D1D1D1"/>
<path d="M229.022 205.278L229.233 205.188C227.905 202.193 223.821 198.336 217.07 193.728C212.05 190.302 207.361 187.728 207.311 187.698L207.2 187.898C207.392 187.999 225.893 198.216 229.012 205.278H229.022Z" fill="#D1D1D1"/>
<path d="M205.671 161.123L205.822 160.942C205.822 160.942 203.418 158.939 200.309 158.468L200.269 158.699C203.317 159.159 205.641 161.103 205.671 161.123Z" fill="#D1D1D1"/>
<path d="M205.641 172.772L205.782 172.582C205.55 172.422 200.088 168.555 196.254 168.555H196.204V168.786H196.254C200.007 168.786 205.591 172.732 205.641 172.772Z" fill="#D1D1D1"/>
<path d="M205.581 187.077L205.721 186.897C205.329 186.596 196.164 179.424 190.711 179.344V179.574C196.083 179.654 205.48 186.997 205.571 187.077H205.581Z" fill="#D1D1D1"/>
<path d="M206.738 145.867V149.192C210.188 146.969 213.609 152.448 217.06 150.214C213.609 151.336 210.188 144.745 206.738 145.857V145.867Z" fill="url(#paint8_linear_153_218534)"/>
</g>
<g clip-path="url(#clip2_153_218534)">
<path d="M442.011 260.613L435.475 256.672C433.202 255.358 429.366 255.358 427.093 256.672L420.131 260.905C417.858 262.219 417.858 264.555 420.131 265.869L426.525 269.664C426.525 269.664 425.672 269.518 425.388 269.664L424.82 269.956C424.82 269.956 424.393 270.686 424.82 270.978L426.098 271.708C426.098 271.708 427.377 272 427.803 271.708L428.372 271.416C428.372 271.416 428.798 270.686 428.372 270.394L427.661 269.956C429.934 270.832 433.06 270.978 435.049 269.664L441.869 265.577C444.142 264.263 444.142 261.927 441.869 260.613H442.011Z" fill="#AB938A"/>
<path d="M430.076 254.044C430.787 252.438 431.213 252.584 431.213 252.584C431.213 252.584 430.645 252.292 429.934 254.044H430.076Z" fill="#DBDBDB"/>
<path d="M419.137 263.679V263.387H418.142H418C418 263.387 418 263.533 418.142 263.533H419.137V263.679Z" fill="#262626"/>
<path d="M444 263.679C444 263.679 444 263.533 444 263.387H443.29C443.29 263.387 443.147 263.095 443.005 263.387C443.005 263.387 443.005 263.533 443.005 263.679H443.716C443.716 263.679 443.858 263.971 444 263.679Z" fill="#353435"/>
<path d="M431.213 271.854C431.213 271.854 431.355 271.854 431.355 271.708V270.54H430.929V271.708C430.929 271.708 431.071 271.854 431.213 271.854Z" fill="#262626"/>
<path d="M431.071 253.606V269.956L443.29 262.803C440.874 257.839 434.197 253.752 434.197 253.752H431.071V253.606Z" fill="#8AD9DD"/>
<path d="M418.995 262.803L431.355 270.102C431.782 267.182 432.918 258.569 431.213 255.65C430.929 255.212 432.208 254.044 431.497 253.752C430.645 253.314 427.945 253.752 427.945 253.752C427.803 253.752 421.836 256.088 418.995 262.803Z" fill="#A9E4EA"/>
<path d="M431.497 256.672C432.492 253.606 434.197 253.752 434.197 253.752C434.197 253.752 431.355 252 427.803 253.752C427.803 253.752 430.076 253.168 431.497 256.672Z" fill="#FFDD4D"/>
<path d="M429.508 266.891C429.508 266.891 431.213 259.591 428.94 257.109C428.656 256.818 428.372 256.672 428.087 256.526C427.661 256.38 427.377 256.234 426.951 256.234C423.967 256.234 421.126 261.343 420.699 261.781V262.073L429.366 267.182V266.891H429.508Z" fill="#75D3D3"/>
<path d="M420.842 261.927C420.842 261.927 424.82 255.212 427.945 256.672C428.23 256.672 428.514 256.964 428.656 257.255C430.929 259.737 429.224 266.891 429.224 266.891L420.842 261.927Z" fill="#4FAAA5"/>
<path d="M420.842 261.927L429.224 266.745C429.224 266.745 430.929 259.591 428.656 257.109L420.842 261.927Z" fill="#2B2B2B"/>
<path d="M420.842 261.927L428.798 257.255C428.798 257.255 428.372 256.817 428.087 256.672L421.978 260.321C421.41 261.051 421.126 261.635 420.984 261.927H420.842Z" fill="#1B1819"/>
<path d="M421.836 260.321L427.945 256.672C425.672 255.504 423.257 258.423 421.836 260.321Z" fill="#4FAAA5"/>
<path d="M431.924 265.139H432.208C432.208 265.139 432.066 259.153 435.049 257.402C438.033 255.796 441.869 260.759 441.869 260.759H442.011C442.011 260.759 441.727 260.175 441.301 259.591C441.159 259.299 440.874 259.007 440.732 258.715C440.306 258.131 439.738 257.547 439.169 256.818C438.885 256.526 438.743 256.38 438.459 256.088C437.749 255.504 437.038 254.92 436.186 254.336C435.902 254.19 435.618 254.044 435.333 253.752C434.481 253.314 433.628 253.022 432.776 252.73C432.492 252.73 432.208 252.73 431.924 252.73C431.781 252.73 431.497 252.73 431.355 252.73C432.35 255.942 432.066 262.657 432.066 264.993L431.924 265.139Z" fill="#F4F3EA"/>
<path d="M419.989 260.613H420.415C420.415 260.613 423.257 255.066 427.377 257.256C431.497 259.445 431.497 264.993 431.497 264.993H431.923C431.923 262.803 432.208 255.942 431.213 252.73H430.929C430.929 252.73 430.645 252.73 430.503 252.73C430.219 252.73 429.934 252.73 429.508 252.73C428.656 252.73 427.803 253.022 426.951 253.46C426.667 253.46 426.382 253.752 425.956 253.898C425.246 254.336 424.393 254.92 423.683 255.504C423.399 255.796 423.115 255.942 422.973 256.234C422.262 256.964 421.694 257.693 420.984 258.569C420.841 258.861 420.557 259.153 420.415 259.445C420.273 259.737 419.989 260.029 419.847 260.321L419.989 260.613Z" fill="#E0DCC6"/>
<path d="M431.213 269.956V270.978L443.432 263.533C443.432 263.533 443.432 262.949 443.29 262.803L431.213 269.956Z" fill="#353435"/>
<path d="M418.71 263.533L431.213 270.978C431.213 270.978 431.213 270.54 431.213 269.956L418.995 262.803C418.995 262.803 418.853 263.387 418.71 263.533Z" fill="#262626"/>
<path d="M443.858 263.679C443.858 262.365 442.579 259.591 440.306 257.11C438.743 255.504 435.475 252.438 431.355 252.292C426.525 252.146 423.115 255.212 421.268 257.839C419.137 260.613 418.142 263.387 418.142 263.533C418.142 263.533 419.137 260.759 421.126 257.985C423.257 255.358 426.525 252.292 431.355 252.438C435.475 252.438 438.743 255.504 440.306 257.256C442.579 259.737 443.858 262.511 443.858 263.679Z" fill="#DBDBDB"/>
<path d="M431.213 271.854C432.918 261.051 431.213 252.584 431.213 252.438C431.213 252.438 432.776 261.051 431.213 271.708V271.854Z" fill="#DBDBDB"/>
<path d="M440.732 258.861C440.732 258.861 441.159 259.445 441.301 259.737L441.869 259.445L441.301 258.569L440.732 259.007V258.861Z" fill="#4FAAA5"/>
<path d="M438.459 256.234C438.459 256.234 439.028 256.672 439.17 256.964L439.738 256.526L438.885 255.796L438.317 256.234H438.459Z" fill="#4FAAA5"/>
<path d="M435.333 254.044C435.333 254.044 435.902 254.336 436.186 254.628L436.47 254.044L435.618 253.606L435.333 254.044Z" fill="#4FAAA5"/>
<path d="M431.924 252.876C431.924 252.876 432.492 252.876 432.776 252.876V252.438H432.066V252.73L431.924 252.876Z" fill="#4FAAA5"/>
<path d="M429.65 252.438V252.876C429.65 252.876 430.361 252.876 430.645 252.876V252.292H429.65V252.438Z" fill="#4FAAA5"/>
<path d="M425.956 253.606L426.24 254.044C426.24 254.044 426.809 253.752 427.235 253.606V253.168L426.098 253.606H425.956Z" fill="#4FAAA5"/>
<path d="M422.688 256.088L423.115 256.526C423.115 256.526 423.683 256.088 423.825 255.796L423.399 255.358L422.688 256.088Z" fill="#4FAAA5"/>
<path d="M420.131 259.299L420.557 259.591C420.557 259.591 420.841 259.153 421.126 258.861L420.557 258.569L420.131 259.299Z" fill="#4FAAA5"/>
<path d="M431.355 253.022C431.355 253.022 431.639 252.876 431.639 252.73V252.292C431.639 252.292 431.497 252 431.355 252C431.213 252 431.071 252.146 431.071 252.292V252.584C431.071 252.584 431.213 252.876 431.355 252.876V253.022Z" fill="#353435"/>
<path d="M431.924 256.672H431.781V257.547H431.924V256.672Z" fill="#4FAAA5"/>
<path d="M432.066 260.321H431.924V261.051L432.066 261.197V260.321Z" fill="#4FAAA5"/>
<path d="M432.066 263.387H431.924V264.263H432.066V263.387Z" fill="#4FAAA5"/>
<path d="M431.639 253.606H431.355L431.497 254.336L431.781 254.482L431.639 253.606Z" fill="#4FAAA5"/>
<path d="M427.661 270.54L427.377 270.248V270.394L427.661 270.686V270.54Z" fill="#F7B114"/>
<path d="M427.803 269.956H427.945V269.81H428.087V269.664V269.518H428.229V269.372L428.514 269.518V269.664V269.81H428.371V269.956V270.102H428.229V270.248H428.087L427.661 270.54L427.377 270.248L427.803 269.956Z" fill="#EA7500"/>
<path d="M428.229 267.328L428.087 267.182L428.372 267.328H428.514V267.474V267.62V269.518L428.229 269.372V267.328Z" fill="#EA7500"/>
<path d="M427.661 267.474H428.087C428.087 267.474 428.514 267.328 428.514 267.474V269.518C428.514 269.518 428.372 270.102 428.087 270.102L427.661 270.394H428.087C428.087 270.394 428.514 269.664 428.514 269.372V267.328C428.514 267.328 428.229 266.891 427.945 267.037L427.519 267.328L427.661 267.474Z" fill="#C72F21"/>
<path d="M427.661 267.474L427.377 267.328V267.474L427.661 267.62V267.474Z" fill="#F7B114"/>
<path d="M427.803 267.036V266.891H427.945H428.087L428.514 267.182H428.371H428.229H428.087L427.661 267.474L427.377 267.328L427.803 267.036Z" fill="#FE5236"/>
<path d="M426.525 269.81L426.24 269.664V269.81L426.525 269.956V269.81Z" fill="#F7B114"/>
<path d="M426.667 269.372L426.809 269.226L426.951 269.08V268.934V268.788H427.093V268.642L427.377 268.934V269.08V269.226H427.235V269.372H427.093V269.518H426.951L426.525 269.81L426.24 269.664L426.667 269.372Z" fill="#FBA400"/>
<path d="M426.951 266.599V266.453L427.235 266.599L427.377 266.745V266.891V268.934L427.093 268.642V266.745V266.599H426.951Z" fill="#EA7500"/>
<path d="M426.525 266.745H426.951C426.951 266.745 427.377 266.599 427.377 266.745V268.788C427.377 268.788 427.235 269.372 426.951 269.372L426.525 269.664H426.951C426.951 269.664 427.377 268.934 427.377 268.642V266.599C427.377 266.599 427.093 266.161 426.809 266.307L426.383 266.599L426.525 266.745Z" fill="#C72F21"/>
<path d="M426.525 266.745L426.24 266.599V266.745L426.525 266.891V266.745Z" fill="#F7B114"/>
<path d="M426.667 266.307H426.809H426.951L427.377 266.453H427.235H427.093H426.951L426.525 266.745L426.24 266.599L426.667 266.307Z" fill="#FE5236"/>
<path d="M426.951 271.854C426.951 271.854 425.672 271.124 425.246 270.832C424.678 270.394 424.962 266.89 425.388 266.599H425.956L427.803 267.912L427.377 271.27L426.951 272V271.854Z" fill="#B7251D"/>
<path d="M428.088 267.766C428.088 267.766 427.803 267.474 427.519 267.766C427.235 268.058 427.093 268.058 426.951 269.226C426.951 270.394 426.951 271.854 426.951 271.854C426.951 271.854 426.951 272 427.803 271.562C427.945 271.562 428.088 271.416 428.088 271.124V267.766Z" fill="#C72F21"/>
<path d="M426.951 270.978C426.951 270.978 427.093 271.27 427.235 271.27L427.945 270.832C427.945 270.832 427.945 270.832 427.945 270.686C427.945 270.54 427.945 270.248 427.945 269.956L427.519 269.226L426.951 269.518H426.667V270.102C426.667 270.102 426.667 270.832 426.667 270.978H426.951Z" fill="#B7251D"/>
<path d="M426.951 270.978C426.951 270.978 427.093 271.27 427.235 271.27C427.235 270.978 427.235 269.81 427.235 269.518H426.951V270.102C426.951 270.102 426.951 270.832 426.951 270.978Z" fill="#B7251D"/>
<path d="M426.951 270.102C426.951 270.102 427.093 270.248 427.235 270.248C427.377 270.248 427.803 269.956 428.088 269.81L427.377 269.664C427.377 269.664 427.093 269.664 427.093 269.956L426.951 270.102Z" fill="#FFDD4D"/>
<path d="M426.951 269.956C426.951 269.956 427.093 270.102 427.235 270.102C427.377 270.102 427.803 269.81 428.088 269.664C428.088 269.226 427.661 269.08 427.661 269.08L426.951 269.518V269.956Z" fill="#FE5236"/>
<path d="M424.962 270.686L426.382 271.562H426.667V269.372H426.382L425.246 268.496C425.246 268.496 424.82 268.642 424.82 268.788V269.372C424.82 269.372 424.82 270.54 424.82 270.686H424.962Z" fill="#B7251D"/>
<path d="M426.382 271.562H426.667V269.372H426.382C426.382 269.372 426.098 270.248 426.382 271.562Z" fill="#C72F21"/>
<path d="M424.962 269.226C424.962 269.226 426.098 270.102 426.24 270.102C426.24 270.102 426.525 270.102 426.667 269.956L425.814 269.664L425.388 269.226H425.104C425.104 269.226 424.536 268.788 424.678 269.226H424.962Z" fill="#FFDD4D"/>
<path d="M424.962 269.226C424.962 269.226 426.098 269.956 426.382 269.956C426.382 269.956 426.667 269.956 426.809 269.956V269.372L425.388 268.496C425.388 268.496 424.962 268.642 424.962 268.788C424.962 268.788 424.962 269.08 424.962 269.372V269.226Z" fill="#FE5236"/>
<path d="M425.104 267.766C425.104 267.766 425.104 267.912 425.246 268.058H425.388C425.388 268.058 425.956 268.642 426.241 268.788H426.383C426.383 268.788 426.809 269.08 426.951 269.08C426.951 269.08 427.661 268.788 427.945 268.642C427.945 268.642 428.088 268.496 427.945 268.35V267.912C427.945 267.912 427.945 267.62 427.803 267.474H427.661L427.377 267.183H427.093C427.093 267.183 426.525 266.745 426.241 266.599H426.098C425.388 266.015 424.82 267.328 424.962 267.912L425.104 267.766Z" fill="#FFC124"/>
<path d="M426.951 269.08C426.951 269.08 427.661 268.788 427.945 268.642C427.945 268.642 428.088 268.496 427.945 268.35V267.912C427.945 267.912 427.945 267.62 427.803 267.474H427.945C427.945 267.474 427.093 267.766 426.951 269.08Z" fill="#F7B114"/>
<path d="M426.382 268.642H426.524H426.382L426.24 268.496V268.642H426.382Z" fill="#FBA400"/>
<path d="M425.672 270.248H425.814C425.814 270.248 425.814 270.248 425.814 269.664C425.814 269.372 426.098 269.08 426.24 269.08C426.24 269.08 426.24 268.934 426.24 268.788C426.24 268.788 426.24 268.642 426.24 268.496C426.382 267.328 427.093 267.182 427.235 267.182H426.951C426.951 267.182 426.098 267.474 425.956 268.496C425.956 268.496 425.956 268.642 425.956 268.788C425.956 268.788 425.814 269.08 425.672 269.226C425.672 269.226 425.388 269.518 425.388 269.81C425.388 270.248 425.388 270.394 425.388 270.394L425.672 270.248Z" fill="#5E4534"/>
<path d="M425.53 268.058H425.388L425.246 267.912V268.058H425.388H425.53Z" fill="#FBA400"/>
<path d="M424.82 269.08V269.664H424.962C424.962 269.664 424.962 269.518 424.962 269.08C424.962 268.788 425.246 268.496 425.388 268.496V268.204C425.388 268.204 425.388 268.058 425.388 267.766C425.53 266.745 426.098 266.453 426.382 266.453H426.24C426.24 266.453 425.53 266.745 425.388 267.766C425.388 267.766 425.388 267.912 425.388 268.058C425.388 268.058 425.246 268.35 425.104 268.496C425.104 268.496 424.82 268.788 424.82 269.08Z" fill="#5E4534"/>
<path d="M426.524 268.642V268.496L426.382 268.35L426.24 268.204V268.35V268.496V268.35H426.382L426.524 268.496V268.642Z" fill="#FBA400"/>
<path d="M425.53 268.058V267.912L425.388 267.766L425.246 267.62V267.766V267.912V267.766H425.388L425.53 267.912V268.058Z" fill="#FBA400"/>
<path d="M425.246 268.204L425.388 268.35V268.204H425.246Z" fill="#503B2C"/>
<path d="M426.383 268.058H426.525V267.912L426.383 268.058Z" fill="#503B2C"/>
<path d="M426.24 268.788L426.383 268.934V268.788H426.24Z" fill="#503B2C"/>
</g>
</g>
<defs>
<radialGradient id="paint0_radial_153_218534" cx="0" cy="0" r="1" gradientUnits="userSpaceOnUse" gradientTransform="translate(6.90462 183.951) rotate(-11.3856) scale(599.99 479.631)">
<stop stop-color="#00A1FF"/>
<stop offset="0.17" stop-color="#07A7FD"/>
<stop offset="0.42" stop-color="#1BB9F9"/>
<stop offset="0.71" stop-color="#3BD6F2"/>
<stop offset="1" stop-color="#62F9EA"/>
</radialGradient>
<linearGradient id="paint1_linear_153_218534" x1="216.315" y1="201.582" x2="191.395" y2="201.582" gradientUnits="userSpaceOnUse">
<stop stop-color="#F5F5F5"/>
<stop offset="1" stop-color="#EAECED"/>
</linearGradient>
<linearGradient id="paint2_linear_153_218534" x1="212.201" y1="199.298" x2="197.401" y2="199.298" gradientUnits="userSpaceOnUse">
<stop stop-color="#F1F2F2"/>
<stop offset="1" stop-color="#D1D3D4"/>
</linearGradient>
<linearGradient id="paint3_linear_153_218534" x1="196.164" y1="191.304" x2="196.014" y2="191.565" gradientUnits="userSpaceOnUse">
<stop stop-color="#B5B7B8"/>
<stop offset="1" stop-color="#6D6E70"/>
</linearGradient>
<linearGradient id="paint4_linear_153_218534" x1="206.899" y1="170.809" x2="205.812" y2="170.809" gradientUnits="userSpaceOnUse">
<stop stop-color="#D1D3D4"/>
<stop offset="1" stop-color="#939598"/>
</linearGradient>
<linearGradient id="paint5_linear_153_218534" x1="234.223" y1="182.159" x2="206.738" y2="182.159" gradientUnits="userSpaceOnUse">
<stop stop-color="#E2E4E6"/>
<stop offset="1" stop-color="#F4F5F5"/>
</linearGradient>
<linearGradient id="paint6_linear_153_218534" x1="205.812" y1="169.557" x2="186.013" y2="169.557" gradientUnits="userSpaceOnUse">
<stop stop-color="#E2E4E6"/>
<stop offset="1" stop-color="#F4F5F5"/>
</linearGradient>
<linearGradient id="paint7_linear_153_218534" x1="216.496" y1="145.816" x2="206.92" y2="147.17" gradientUnits="userSpaceOnUse">
<stop stop-color="#FFEB00"/>
<stop offset="0.32" stop-color="#FFFF00"/>
<stop offset="0.62" stop-color="#EFE100"/>
<stop offset="1" stop-color="#F0FF15"/>
</linearGradient>
<linearGradient id="paint8_linear_153_218534" x1="216.677" y1="147.519" x2="206.699" y2="148.924" gradientUnits="userSpaceOnUse">
<stop stop-color="#009AD4"/>
<stop offset="0.32" stop-color="#00BAFF"/>
<stop offset="0.62" stop-color="#009AD4"/>
<stop offset="1" stop-color="#00BAFF"/>
</linearGradient>
<clipPath id="clip0_153_218534">
<rect width="444" height="380" fill="white"/>
</clipPath>
<clipPath id="clip1_153_218534">
<rect width="81" height="85" fill="white" transform="translate(169 142)"/>
</clipPath>
<clipPath id="clip2_153_218534">
<rect width="26" height="20" fill="white" transform="translate(418 252)"/>
</clipPath>
</defs>
</svg>
