<svg width="210" height="170" viewBox="0 0 210 170" fill="none" xmlns="http://www.w3.org/2000/svg">
<g style="mix-blend-mode:multiply" opacity="0.5">
<path d="M72 169.5L154.135 160L210 123.5L119.5 79.5L74 82.5L72 169.5Z" fill="#6F5F6A"/>
</g>
<path d="M152.048 48.5742L151.859 114.583L86.751 152.675L86.9297 86.6659L152.048 48.5742Z" fill="#A08162"/>
<path d="M86.9297 86.6659L86.751 152.675L26.5872 117.915L26.7758 51.906L86.9297 86.6659Z" fill="#DBBA8F"/>
<path d="M152.048 48.5742L86.9298 86.6659L26.7759 51.9061L91.8838 13.8145L152.048 48.5742Z" fill="#F4F3EA"/>
<path d="M72.8816 163.804L2.70044 123.176V121.615L72.8816 162.242V163.804Z" fill="#CCAB7A"/>
<path d="M72.8815 165.326L1.3501 123.922L2.70032 123.176L72.8815 163.794V165.326Z" fill="#DBC7A1"/>
<path d="M72.8815 166.887L1.3501 125.513V123.952L72.8815 165.326V166.887Z" fill="#CCAB7A"/>
<path d="M72.8717 168.438L0 126.309L1.3502 125.523L72.8717 166.887V168.438Z" fill="#DBC7A1"/>
<path d="M72.8717 170L0 127.88V126.309L72.8717 168.438V170Z" fill="#CCAB7A"/>
<path d="M72.8816 163.804L157.3 115.2V113.638L72.8816 162.242V163.804Z" fill="#BA9564"/>
<path d="M72.8816 165.326L158.65 115.976L157.3 115.2L72.8816 163.794V165.326Z" fill="#DBC7A1"/>
<path d="M72.8716 166.907L158.65 117.537V115.976L72.8716 165.346V166.907Z" fill="#BA9564"/>
<path d="M72.8716 168.438L160 118.333L158.65 117.547L72.8815 166.887L72.8716 168.438Z" fill="#DBC7A1"/>
<path d="M72.8716 170L160 119.894V118.333L72.8716 168.438V170Z" fill="#BA9564"/>
<path d="M157.3 113.618L72.8816 162.242L2.70044 121.625L21.6927 110.595L86.761 148.269L151.869 111.042L157.3 113.618Z" fill="#DBC7A1"/>
<path d="M29.2578 108.536L33.2588 110.844L33.368 110.784L33.2588 110.715L29.3769 108.467L29.2578 108.536Z" fill="white"/>
<path d="M29.2578 108.536L29.3769 108.467L29.3968 98.9189V98.7897L29.2876 98.8493L29.2578 108.536Z" fill="#E6E7E8"/>
<path d="M33.4873 111.242L33.5965 111.172L33.6263 100.968L33.5171 101.028L33.4873 111.242Z" fill="#E6E7E8"/>
<path d="M33.5172 101.027L33.6265 100.968L29.1688 98.3918L29.0596 98.4515L33.5172 101.027Z" fill="white"/>
<path d="M29.0295 108.666L33.4872 111.241L33.517 101.027L29.0593 98.4514L29.0295 108.666ZM29.2579 108.536L29.2777 98.8592L29.3969 98.9288L33.2787 101.176L33.2589 110.724V110.854L29.2678 108.546L29.2579 108.536Z" fill="#F1F2F2"/>
<path d="M29.377 108.467L33.2588 110.714L33.2787 101.167L29.3968 98.9189L29.377 108.467Z" fill="#6B5A53"/>
<path d="M29.2778 98.5509L33.2689 100.858L33.3781 100.799L33.2689 100.729L29.387 98.4813L29.2778 98.5509Z" fill="white"/>
<path d="M29.2778 98.5509L29.387 98.4813L29.4168 90.0972V89.9679L29.2977 90.0375L29.2778 98.5509Z" fill="#E6E7E8"/>
<path d="M33.4971 101.256L33.6162 101.187L33.636 92.146L33.5269 92.2156L33.4971 101.256Z" fill="#E6E7E8"/>
<path d="M33.527 92.2156L33.6362 92.1459L29.1785 89.5701L29.0693 89.6397L33.527 92.2156Z" fill="white"/>
<path d="M29.0395 98.68L33.4972 101.256L33.517 92.2154L29.0593 89.6395L29.0295 98.68H29.0395ZM29.2678 98.5507L29.2877 90.0373L29.4068 90.1069L33.2887 92.3547L33.2688 100.739V100.868L29.2777 98.5607L29.2678 98.5507Z" fill="#F1F2F2"/>
<path d="M29.387 98.4813L33.2688 100.729L33.2887 92.3449L29.4167 90.0972L29.387 98.4813Z" fill="#6B5A53"/>
<path d="M33.5168 111.003L37.5079 113.31L37.6171 113.251L37.5079 113.181L33.6261 110.933L33.5168 111.003Z" fill="white"/>
<path d="M33.5168 111.003L33.6261 110.933L33.6459 101.386V101.256L33.5367 101.316L33.5168 111.003Z" fill="#E6E7E8"/>
<path d="M37.7363 113.708L37.8555 113.639L37.8753 103.434L37.7562 103.504L37.7363 113.708Z" fill="#E6E7E8"/>
<path d="M37.7564 103.504L37.8755 103.434L33.4178 100.858L33.3086 100.928L37.7564 103.504Z" fill="white"/>
<path d="M33.2786 111.132L37.7362 113.708L37.7561 103.494L33.2984 100.918L33.2786 111.132ZM33.5069 111.003L33.5268 101.326L33.6459 101.395L37.5278 103.643L37.5079 113.191V113.32L33.5168 111.013L33.5069 111.003Z" fill="#F1F2F2"/>
<path d="M33.626 110.933L37.5078 113.181L37.5277 103.633L33.6458 101.385L33.626 110.933Z" fill="#6B5A53"/>
<path d="M33.5168 101.018L37.5178 103.325L37.6271 103.265L37.5178 103.196L33.636 100.948L33.5168 101.018Z" fill="white"/>
<path d="M33.5168 101.017L33.636 100.948L33.6658 92.5637V92.4344L33.5466 92.5041L33.5168 101.017Z" fill="#E6E7E8"/>
<path d="M37.7461 103.723L37.8553 103.653L37.8851 94.6125L37.7759 94.6822L37.7461 103.723Z" fill="#E6E7E8"/>
<path d="M37.776 94.6822L37.8852 94.6126L33.4276 92.0366L33.3184 92.1062L37.776 94.6822Z" fill="white"/>
<path d="M33.2885 101.147L37.7462 103.723L37.766 94.682L33.3083 92.1061L33.2786 101.147H33.2885ZM33.5168 101.017L33.5466 92.5039L33.6657 92.5736L37.5476 94.8212L37.5178 103.205V103.335L33.5268 101.027L33.5168 101.017Z" fill="#F1F2F2"/>
<path d="M33.636 100.948L37.5178 103.196L37.5377 94.8114L33.6658 92.5637L33.636 100.948Z" fill="#6B5A53"/>
<path d="M38.491 114.086L37.8556 114.454L37.2003 114.842L27.729 109.402L29.0296 108.656L37.2103 113.34L37.8556 113.718L38.491 114.086Z" fill="white"/>
<path d="M29.0296 88.5557V90.0575V108.656L27.729 109.402L27.7389 89.3115L28.3843 88.9336L29.0296 88.5557Z" fill="#A09787"/>
<path d="M28.3842 87.4318L27.0935 88.1777V109.77L37.8456 115.956L39.1362 115.21V93.618L28.3742 87.4318H28.3842ZM37.2102 113.34V114.842L27.7388 109.402V89.3115L29.0394 90.0574L37.2201 94.7517V113.35L37.2102 113.34Z" fill="#DBBA8F"/>
<g style="mix-blend-mode:multiply" opacity="0.5">
<path d="M27.7487 109.402L30.3995 109.431V109.173L30.5186 109.123L30.5782 90.9127L27.709 89.2418L27.7487 109.402Z" fill="#AC958B"/>
</g>
<path d="M39.3547 114.364L43.3458 116.672L43.465 116.612L43.3458 116.542L39.4739 114.295L39.3547 114.364Z" fill="white"/>
<path d="M39.3547 114.364L39.4739 114.295L39.4937 104.747V104.618L39.3746 104.687L39.3547 114.364Z" fill="#E6E7E8"/>
<path d="M43.5742 117.079L43.6934 117.01L43.7231 106.796L43.604 106.855L43.5742 117.079Z" fill="#E6E7E8"/>
<path d="M43.6042 106.855L43.7233 106.796L39.2656 104.22L39.1465 104.28L43.6042 106.855Z" fill="white"/>
<path d="M39.1265 114.494L43.5842 117.069L43.614 106.855L39.1562 104.279L39.1364 114.494H39.1265ZM39.3548 114.364L39.3747 104.687L39.4938 104.757L43.3757 107.005L43.3558 116.552V116.682L39.3648 114.374L39.3548 114.364Z" fill="#F1F2F2"/>
<path d="M39.4739 114.295L43.3458 116.542L43.3756 106.995L39.4938 104.747L39.4739 114.295Z" fill="#6B5A53"/>
<path d="M39.3647 104.379L43.3558 106.686L43.4749 106.627L43.3558 106.557L39.4839 104.309L39.3647 104.379Z" fill="white"/>
<path d="M39.3647 104.379L39.4839 104.309L39.5037 95.9351V95.7959L39.3945 95.8655L39.3647 104.379Z" fill="#E6E7E8"/>
<path d="M43.594 107.084L43.7032 107.024L43.733 97.974L43.6139 98.0436L43.594 107.084Z" fill="#E6E7E8"/>
<path d="M43.6142 98.0436L43.7333 97.974L39.2757 95.3981L39.1565 95.4677L43.6142 98.0436Z" fill="white"/>
<path d="M39.1365 104.508L43.5941 107.084L43.6239 98.0435L39.1663 95.4675L39.1464 104.508H39.1365ZM39.3648 104.379L39.3847 95.8654L39.5038 95.9349L43.3857 98.1827L43.3658 106.567V106.696L39.3747 104.389L39.3648 104.379Z" fill="#F1F2F2"/>
<path d="M39.4839 104.309L43.3558 106.557L43.3856 98.1728L39.5037 95.9351L39.4839 104.309Z" fill="#6B5A53"/>
<path d="M43.6038 116.831L47.5948 119.148L47.714 119.079L47.5948 119.009L43.7229 116.761L43.6038 116.831Z" fill="white"/>
<path d="M43.6038 116.831L43.7229 116.761L43.7428 107.214V107.084L43.6236 107.154L43.6038 116.831Z" fill="#E6E7E8"/>
<path d="M47.8232 119.536L47.9424 119.476L47.9722 109.262L47.853 109.332L47.8232 119.536Z" fill="#E6E7E8"/>
<path d="M47.8532 109.332L47.9723 109.262L43.5146 106.686L43.3955 106.756L47.8532 109.332Z" fill="white"/>
<path d="M43.3755 116.96L47.8332 119.536L47.863 109.322L43.4053 106.746L43.3755 116.96ZM43.6038 116.831L43.6237 107.154L43.7429 107.223L47.6247 109.471L47.6048 119.019V119.148L43.6138 116.841L43.6038 116.831Z" fill="#F1F2F2"/>
<path d="M43.7229 116.761L47.5948 119.009L47.6246 109.461L43.7428 107.214L43.7229 116.761Z" fill="#6B5A53"/>
<path d="M43.6138 106.846L47.6148 109.153L47.724 109.093L47.6148 109.024L43.7329 106.776L43.6138 106.846Z" fill="white"/>
<path d="M43.6138 106.846L43.7329 106.776L43.7527 98.3917V98.2625L43.6436 98.3321L43.6138 106.846Z" fill="#E6E7E8"/>
<path d="M47.843 109.551L47.9522 109.491L47.982 100.441L47.8629 100.51L47.843 109.551Z" fill="#E6E7E8"/>
<path d="M47.863 100.51L47.9822 100.441L43.5245 97.8646L43.4153 97.9343L47.863 100.51Z" fill="white"/>
<path d="M43.3855 106.975L47.8432 109.551L47.873 100.51L43.4153 97.9341L43.3855 106.975ZM43.6139 106.845L43.6337 98.3319L43.7528 98.4016L47.6347 100.649L47.6148 109.033V109.163L43.6238 106.855L43.6139 106.845Z" fill="#F1F2F2"/>
<path d="M43.7329 106.776L47.6148 109.024L47.6346 100.639L43.7528 98.3917L43.7329 106.776Z" fill="#6B5A53"/>
<path d="M48.5879 119.914L47.9426 120.282L47.2973 120.67L37.8259 115.24L39.1166 114.484L47.2973 119.168L47.9525 119.546L48.5879 119.914Z" fill="white"/>
<path d="M39.1265 94.3837V95.8855L39.1166 114.484L37.8259 115.24V95.1395L38.4812 94.7616L39.1265 94.3837Z" fill="#A09787"/>
<path d="M38.4811 93.2598L37.1904 94.0057V115.568L47.9425 121.784L49.2331 121.028V99.436L38.4811 93.2499V93.2598ZM47.3071 119.168V120.66L37.8357 115.23V95.1395L39.1363 95.8854L47.317 100.58V119.178L47.3071 119.168Z" fill="#DBBA8F"/>
<g style="mix-blend-mode:multiply" opacity="0.5">
<path d="M37.8258 115.24L40.4766 115.259V115.001L40.5958 114.951L40.6553 96.7407L37.7861 95.0698L37.8258 115.24Z" fill="#AC958B"/>
</g>
<path d="M56.709 128.189L51.1394 124.966V109.242L56.709 112.465V128.189Z" fill="#58595B"/>
<path d="M51.4472 117.656L51.7847 117.457L51.7748 125.036L51.4373 125.235L51.4472 117.656Z" fill="#6D6E71"/>
<path d="M51.4373 125.235L51.7748 125.036L56.709 127.9L56.3814 128.099L51.4373 125.235Z" fill="#808285"/>
<path d="M51.467 109.491L51.8045 109.302L51.7846 116.881L51.457 117.07L51.467 109.491Z" fill="#6D6E71"/>
<path d="M51.457 117.069L51.7846 116.88L56.7288 119.735L56.4012 119.934L51.457 117.069Z" fill="#808285"/>
<path d="M50.9606 108.616L56.9174 112.057L56.8976 120.222V120.809L56.8777 128.974L50.9209 125.533L50.9408 117.368V116.781L50.9606 108.616ZM56.3714 128.089L56.3912 120.511L51.4471 117.656V125.235L56.3714 128.089ZM56.3912 119.924V112.345L51.467 109.491L51.4471 117.069L56.3912 119.934V119.924Z" fill="#414042"/>
<path d="M57.2551 111.868L51.2982 108.427L50.9607 108.616L56.9175 112.067L56.8977 120.222V120.809L56.8877 128.964L57.2153 128.775L57.2352 120.61V120.033L57.2551 111.868Z" fill="#DBBA8F"/>
<path d="M56.7884 120.988L56.6196 120.889L56.4409 120.988L56.6196 121.087L56.7884 120.988Z" fill="#565045"/>
<path d="M56.5005 119.645L56.3218 119.546V121.197L56.5005 121.296V119.645Z" fill="#9A7F55"/>
<path d="M56.7884 119.476L56.6196 119.377L56.3218 119.546L56.5005 119.645L56.7884 119.476Z" fill="#BF9E77"/>
<path d="M56.7884 119.476L56.5005 119.645V121.296L56.7884 121.127V120.988L56.6197 121.087V119.715L56.7884 119.615V119.476Z" fill="#705E42"/>
<path d="M62.5865 131.58L57.0168 128.368V112.644L62.5865 115.856V131.58Z" fill="#58595B"/>
<path d="M57.3346 121.048L57.6622 120.859L57.6522 128.437L57.3147 128.636L57.3346 121.048Z" fill="#6D6E71"/>
<path d="M57.3147 128.636L57.6522 128.437L62.5964 131.302L62.2589 131.491L57.3147 128.636Z" fill="#808285"/>
<path d="M57.3444 112.892L57.6819 112.693L57.6621 120.272L57.3345 120.471L57.3444 112.892Z" fill="#6D6E71"/>
<path d="M57.3345 120.471L57.6621 120.272L62.6063 123.136L62.2687 123.325L57.3345 120.471Z" fill="#808285"/>
<path d="M56.8381 112.017L62.7949 115.458L62.775 123.624V124.211L62.7552 132.376L56.7983 128.935L56.8182 120.769V120.183L56.8381 112.017ZM62.2488 131.491L62.2687 123.912L57.3245 121.058L57.3047 128.636L62.2488 131.491ZM62.2687 123.325L62.2885 115.747L57.3444 112.892V120.471L62.2687 123.325Z" fill="#414042"/>
<path d="M63.1325 115.269L57.1757 111.818L56.8381 112.017L62.7949 115.458L62.785 123.624L62.7751 124.201L62.7652 132.366L63.0928 132.177L63.1126 124.012V123.425L63.1325 115.269Z" fill="#DBBA8F"/>
<path d="M57.1756 121.197L56.9969 121.098L56.8281 121.197L56.9969 121.296L57.1756 121.197Z" fill="#565045"/>
<path d="M56.8877 119.854L56.709 119.745V121.396L56.8877 121.495V119.854Z" fill="#9A7F55"/>
<path d="M57.1756 119.685L56.9969 119.576L56.709 119.745L56.8877 119.854L57.1756 119.685Z" fill="#BF9E77"/>
<path d="M57.1756 119.685L56.8877 119.854V121.495L57.1756 121.326V121.197L56.9969 121.296V119.914L57.1756 119.814V119.685Z" fill="#705E42"/>
<path d="M64.8202 133.36L63.887 133.888L62.8743 134.524L49.1538 126.538L51.0401 125.444L62.9538 132.276L63.8969 132.823L64.8202 133.36Z" fill="white"/>
<path d="M50.921 108.168L51.0401 110.217V125.444L49.1538 126.538L49.0347 109.272L49.9877 108.715L50.921 108.168Z" fill="#B4B096"/>
<path d="M49.9777 106.527L48.1013 107.621L48.2602 126.001L63.9663 135.111L64.1152 135.081L65.7732 134.992L65.664 115.538L49.9777 106.527ZM62.7849 132.177V134.454L49.1736 126.548L49.0346 109.272L50.9209 110.356L62.8345 117.189L62.7849 132.187V132.177Z" fill="#DBBA8F"/>
<path d="M66.0908 129.432L70.0819 131.739L70.201 131.68L70.0819 131.61L66.21 129.362L66.0908 129.432Z" fill="white"/>
<path d="M66.0908 129.432L66.21 129.362L66.2298 119.815V119.685L66.1206 119.745L66.0908 129.432Z" fill="#E6E7E8"/>
<path d="M70.3201 132.137L70.4293 132.068L70.4591 121.863L70.3399 121.923L70.3201 132.137Z" fill="#E6E7E8"/>
<path d="M70.3401 121.923L70.4592 121.863L66.0015 119.287L65.8923 119.347L70.3401 121.923Z" fill="white"/>
<path d="M65.8625 129.561L70.3201 132.137L70.34 121.923L65.8823 119.347L65.8525 129.561H65.8625ZM66.0908 129.432L66.1107 119.745L66.2298 119.814L70.1117 122.062L70.0819 131.61V131.739L66.0908 129.432Z" fill="#F1F2F2"/>
<path d="M66.21 129.362L70.0819 131.61L70.1117 122.062L66.2298 119.815L66.21 129.362Z" fill="#6B5A53"/>
<path d="M66.1008 119.447L70.1018 121.754L70.211 121.684L70.1018 121.625L66.22 119.377L66.1008 119.447Z" fill="white"/>
<path d="M66.1008 119.447L66.22 119.377L66.2398 110.993V110.864L66.1306 110.933L66.1008 119.447Z" fill="#E6E7E8"/>
<path d="M70.3301 122.152L70.4393 122.082L70.4691 113.042L70.3599 113.111L70.3301 122.152Z" fill="#E6E7E8"/>
<path d="M70.3598 113.111L70.469 113.042L66.0113 110.466L65.9021 110.535L70.3598 113.111Z" fill="white"/>
<path d="M65.8723 119.576L70.33 122.152L70.3499 113.111L65.8922 110.535L65.8723 119.576ZM66.1007 119.446L66.1205 110.933L66.2297 111.003L70.1116 113.25L70.0917 121.634V121.764L66.1007 119.456V119.446Z" fill="#F1F2F2"/>
<path d="M66.2197 119.377L70.1016 121.625L70.1214 113.241L66.2396 110.993L66.2197 119.377Z" fill="#6B5A53"/>
<path d="M70.3398 131.898L74.3309 134.206L74.4501 134.136L74.3309 134.077L70.459 131.829L70.3398 131.898Z" fill="white"/>
<path d="M70.3398 131.899L70.459 131.829L70.4789 122.281V122.152L70.3597 122.212L70.3398 131.899Z" fill="#E6E7E8"/>
<path d="M74.5693 134.604L74.6786 134.534L74.7083 124.33L74.5892 124.39L74.5693 134.604Z" fill="#E6E7E8"/>
<path d="M74.5893 124.39L74.7084 124.33L70.2507 121.754L70.1316 121.814L74.5893 124.39Z" fill="white"/>
<path d="M70.1116 132.028L74.5692 134.604L74.5891 124.39L70.1314 121.814L70.1116 132.028ZM70.3399 131.898L70.3598 122.221L70.4789 122.291L74.3608 124.539L74.3409 134.086V134.216L70.3498 131.908L70.3399 131.898Z" fill="#F1F2F2"/>
<path d="M70.459 131.829L74.3309 134.077L74.3607 124.529L70.4788 122.281L70.459 131.829Z" fill="#6B5A53"/>
<path d="M70.3499 121.913L74.3508 124.22L74.4601 124.151L74.3508 124.091L70.469 121.844L70.3499 121.913Z" fill="white"/>
<path d="M70.3499 121.913L70.469 121.844L70.4889 113.459V113.33L70.3796 113.4L70.3499 121.913Z" fill="#E6E7E8"/>
<path d="M74.5791 124.618L74.6883 124.549L74.7181 115.508L74.5989 115.578L74.5791 124.618Z" fill="#E6E7E8"/>
<path d="M74.5991 115.578L74.7183 115.508L70.2606 112.932L70.1514 113.002L74.5991 115.578Z" fill="white"/>
<path d="M70.1216 122.042L74.5793 124.618L74.5991 115.578L70.1415 113.002L70.1216 122.042ZM70.3499 121.913L70.3698 113.399L70.4889 113.469L74.3708 115.717L74.3509 124.101V124.23L70.3599 121.923L70.3499 121.913Z" fill="#F1F2F2"/>
<path d="M70.469 121.843L74.3509 124.091L74.3707 115.707L70.4889 113.459L70.469 121.843Z" fill="#6B5A53"/>
<path d="M75.324 134.982L74.6787 135.35L74.0333 135.737L64.562 130.297L65.8526 129.541L74.0433 134.236L74.6886 134.614L75.324 134.982Z" fill="white"/>
<path d="M65.8626 109.451V110.953L65.8526 129.541L64.562 130.297L64.5719 110.207L65.2172 109.829L65.8626 109.451Z" fill="#A09787"/>
<path d="M65.2171 108.327L63.9265 109.073V130.635L74.6786 136.851L75.9692 136.105V114.514L65.2171 108.327ZM74.0432 134.236V135.727L64.5718 130.287V110.197L65.8724 110.943L74.0531 115.637V134.236H74.0432Z" fill="#DBBA8F"/>
<g style="mix-blend-mode:multiply" opacity="0.5">
<path d="M64.562 130.297L67.2128 130.327V130.068L67.3319 130.019L67.3915 111.808L64.5322 110.137L64.562 130.297Z" fill="#AC958B"/>
</g>
<path d="M76.1975 135.25L80.1985 137.567L80.3077 137.498L80.1985 137.438L76.3166 135.19L76.1975 135.25Z" fill="white"/>
<path d="M76.1975 135.25L76.3166 135.19L76.3365 125.643V125.503L76.2273 125.573L76.1975 135.25Z" fill="#E6E7E8"/>
<path d="M80.4268 137.965L80.536 137.896L80.5658 127.682L80.4466 127.751L80.4268 137.965Z" fill="#E6E7E8"/>
<path d="M80.4468 127.751L80.5659 127.682L76.1082 125.106L75.999 125.175L80.4468 127.751Z" fill="white"/>
<path d="M75.9692 135.389L80.4268 137.965L80.4467 127.751L75.989 125.175L75.9592 135.389H75.9692ZM76.1975 135.26L76.2174 125.583L76.3365 125.652L80.2184 127.9L80.1886 137.448V137.577L76.1975 135.27V135.26Z" fill="#F1F2F2"/>
<path d="M76.3167 135.19L80.1985 137.438L80.2184 127.88L76.3365 125.643L76.3167 135.19Z" fill="#6B5A53"/>
<path d="M76.2173 125.265L80.2083 127.582L80.3275 127.512L80.2083 127.453L76.3265 125.205L76.2173 125.265Z" fill="white"/>
<path d="M76.2173 125.265L76.3265 125.205L76.3464 116.821V116.692L76.2371 116.751L76.2173 125.265Z" fill="#E6E7E8"/>
<path d="M80.4368 127.98L80.5559 127.91L80.5757 118.87L80.4666 118.929L80.4368 127.98Z" fill="#E6E7E8"/>
<path d="M80.4665 118.929L80.5757 118.87L76.118 116.294L76.0088 116.353L80.4665 118.929Z" fill="white"/>
<path d="M75.979 125.404L80.4367 127.98L80.4665 118.939L76.0088 116.363L75.979 125.404ZM76.2073 125.274L76.2272 116.761L76.3364 116.831L80.2183 119.078L80.1984 127.463V127.592L76.2073 125.284V125.274Z" fill="#F1F2F2"/>
<path d="M76.3264 125.205L80.2083 127.453L80.2282 119.069L76.3463 116.821L76.3264 125.205Z" fill="#6B5A53"/>
<path d="M80.4465 137.727L84.4475 140.034L84.5567 139.964L84.4475 139.905L80.5657 137.657L80.4465 137.727Z" fill="white"/>
<path d="M80.4465 137.727L80.5657 137.657L80.5855 128.109V127.97L80.4763 128.04L80.4465 137.727Z" fill="#E6E7E8"/>
<path d="M84.676 140.432L84.7852 140.362L84.815 130.148L84.6959 130.218L84.676 140.432Z" fill="#E6E7E8"/>
<path d="M84.6961 130.218L84.8152 130.148L80.3575 127.572L80.2483 127.642L84.6961 130.218Z" fill="white"/>
<path d="M80.2183 137.856L84.6759 140.432L84.6958 130.218L80.2381 127.642L80.2183 137.856ZM80.4466 137.726L80.4665 128.049L80.5856 128.119L84.4675 130.367L84.4377 139.914V140.044L80.4466 137.736V137.726Z" fill="#F1F2F2"/>
<path d="M80.5657 137.657L84.4475 139.905L84.4674 130.347L80.5855 128.109L80.5657 137.657Z" fill="#6B5A53"/>
<path d="M80.4666 127.741L84.4576 130.049L84.5668 129.979L84.4576 129.919L80.5757 127.672L80.4666 127.741Z" fill="white"/>
<path d="M80.4666 127.741L80.5757 127.672L80.5956 119.288V119.158L80.4864 119.218L80.4666 127.741Z" fill="#E6E7E8"/>
<path d="M84.6858 130.446L84.8049 130.377L84.8248 121.336L84.7156 121.396L84.6858 130.446Z" fill="#E6E7E8"/>
<path d="M84.7157 121.396L84.8249 121.336L80.3673 118.76L80.2581 118.82L84.7157 121.396Z" fill="white"/>
<path d="M80.2283 127.87L84.6859 130.446L84.7058 121.406L80.2481 118.83L80.2283 127.87ZM80.4566 127.741L80.4765 119.228L80.5956 119.297L84.4775 121.545L84.4576 129.929V130.058L80.4665 127.751L80.4566 127.741Z" fill="#F1F2F2"/>
<path d="M80.5757 127.672L84.4575 129.919L84.4774 121.535L80.5956 119.287L80.5757 127.672Z" fill="#6B5A53"/>
<path d="M85.4307 140.81L84.7854 141.178L84.14 141.556L74.6687 136.125L75.9693 135.37L84.15 140.064L84.7953 140.442L85.4307 140.81Z" fill="white"/>
<path d="M75.9693 115.279V116.771V135.37L74.6687 136.125L74.6786 116.035L75.3339 115.657L75.9693 115.279Z" fill="#A09787"/>
<path d="M75.3239 114.156L74.0332 114.901V136.473L84.6562 142.451L85.5597 141.357L85.2618 120.232L75.3139 114.156H75.3239ZM84.1499 140.064V141.556L74.6785 136.125V116.035L75.9791 116.781L84.1598 121.476V140.074L84.1499 140.064Z" fill="#DBBA8F"/>
<g style="mix-blend-mode:multiply" opacity="0.5">
<path d="M74.6884 136.145L77.3392 136.165V135.907L77.4583 135.857L77.5179 117.646L74.6487 115.976L74.6884 136.145Z" fill="#AC958B"/>
</g>
<path d="M78.4016 93.9659L82.9486 96.5916L83.0777 96.522L82.9486 96.4424L78.5307 93.8864L78.4016 93.9659Z" fill="#E6E7E8"/>
<path d="M78.4016 93.9659L78.5307 93.8863L78.5604 85.0447V84.8955L78.4215 84.9751L78.4016 93.9659Z" fill="#E6E7E8"/>
<path d="M83.2068 97.0491L83.3458 96.9695L83.3755 87.382L83.2465 87.4516L83.2068 97.0491Z" fill="#E6E7E8"/>
<path d="M83.2467 87.4516L83.3758 87.382L78.2926 84.448L78.1636 84.5176L83.2467 87.4516Z" fill="#E6E7E8"/>
<path d="M78.1335 94.115L83.2068 97.0489L83.2366 87.4514L78.1633 84.5175L78.1335 94.115ZM78.3917 93.9658L78.4215 84.975L78.5505 85.0545L82.9685 87.6105L82.9387 96.4422V96.5914L78.3917 93.9558V93.9658Z" fill="#BCBEC0"/>
<path d="M78.5308 93.8863L82.9487 96.4423L82.9785 87.6106L78.5605 85.0447L78.5308 93.8863Z" fill="#4F413C"/>
<path d="M83.2266 97.059L82.5415 97.4469L81.8466 97.8646L76.7336 94.9009L78.1137 94.1052L81.8565 96.2634L82.5515 96.6712L83.2266 97.059Z" fill="white"/>
<path d="M78.1335 84.5574V86.1487L78.1137 94.1052L76.7336 94.9008L76.7535 85.3531L77.4485 84.9552L78.1335 84.5574Z" fill="#8E7959"/>
<path d="M82.5415 99.0581L83.9215 98.2624L83.9513 87.1134L77.4484 83.354L76.0784 84.1496L76.0486 95.2987L82.5515 99.0581H82.5415ZM76.7336 94.9108L76.7535 85.363L78.1335 86.1587L81.8764 88.3268L81.8565 96.2833V97.8845L76.7336 94.9307V94.9108Z" fill="#DBBA8F"/>
<path d="M65.366 86.467L69.913 89.1025L70.0421 89.023L69.913 88.9534L65.495 86.3973L65.366 86.467Z" fill="#E6E7E8"/>
<path d="M65.366 86.4669L65.495 86.3973L65.5149 77.5556V77.4065L65.3858 77.4761L65.366 86.4669Z" fill="#E6E7E8"/>
<path d="M70.1711 89.55L70.3002 89.4804L70.33 79.8829L70.2009 79.9625L70.1711 89.55Z" fill="#E6E7E8"/>
<path d="M70.2012 79.9625L70.3302 79.8829L65.257 76.949L65.1279 77.0286L70.2012 79.9625Z" fill="#E6E7E8"/>
<path d="M65.0979 86.6159L70.1711 89.5499L70.2009 79.9623L65.1277 77.0284L65.0979 86.6159ZM65.356 86.4668L65.3858 77.4759L65.5149 77.5456L69.9328 80.1016L69.9031 88.9432V89.0925L65.356 86.4568V86.4668Z" fill="#BCBEC0"/>
<path d="M65.4951 86.3973L69.9131 88.9533L69.9429 80.1117L65.515 77.5557L65.4951 86.3973Z" fill="#4F413C"/>
<path d="M70.1909 89.57L69.5059 89.9579L68.811 90.3656L63.698 87.4118L65.078 86.6062L68.8209 88.7743L69.5158 89.1721L70.1909 89.57Z" fill="white"/>
<path d="M65.0979 77.0585V78.6597L65.078 86.6063L63.698 87.4119L63.7179 77.8641L64.4128 77.4563L65.0979 77.0585Z" fill="#8E7959"/>
<path d="M69.5058 91.5591L70.8859 90.7635L70.9156 79.6144L64.4128 75.855L63.0427 76.6507L63.0129 87.7996L69.5158 91.5591H69.5058ZM63.6979 87.4118L63.7178 77.864L65.0978 78.6596L68.8407 80.8179L68.8208 88.7744V90.3656L63.6979 87.4118Z" fill="#DBBA8F"/>
<path d="M30.2903 66.347L34.8472 68.9726L34.9763 68.903L34.8472 68.8235L30.4194 66.2675L30.2903 66.347Z" fill="#E6E7E8"/>
<path d="M30.2903 66.347L30.4194 66.2675L30.4491 57.4358V57.2766L30.3201 57.3562L30.2903 66.347Z" fill="#E6E7E8"/>
<path d="M35.1055 69.4302L35.2345 69.3506L35.2643 59.7631L35.1353 59.8426L35.1055 69.4302Z" fill="#E6E7E8"/>
<path d="M35.1355 59.8426L35.2645 59.763L30.1913 56.8291L30.0623 56.8987L35.1355 59.8426Z" fill="#E6E7E8"/>
<path d="M30.0322 66.4961L35.1054 69.43L35.1352 59.8325L30.062 56.8986L30.0322 66.4961ZM30.2903 66.3469L30.3201 57.3561L30.4492 57.4357L34.8672 59.9917L34.8374 68.8234V68.9725L30.2903 66.337V66.3469Z" fill="#BCBEC0"/>
<path d="M30.4194 66.2675L34.8473 68.8235L34.8771 59.9918L30.4492 57.4358L30.4194 66.2675Z" fill="#4F413C"/>
<path d="M35.1252 69.4402L34.4402 69.838L33.7453 70.2458L28.6323 67.2919L30.0123 66.4863L33.7552 68.6445L34.4501 69.0523L35.1252 69.4402Z" fill="white"/>
<path d="M30.0322 56.9386V58.5299L30.0123 66.4863L28.6323 67.2919L28.6522 57.7342L29.3471 57.3364L30.0322 56.9386Z" fill="#8E7959"/>
<path d="M34.4402 71.4392L35.8202 70.6435L35.85 59.4946L29.3471 55.7351L27.977 56.5307L27.9473 67.6798L34.4501 71.4392H34.4402ZM28.6323 67.2919L28.6521 57.7441L30.0322 58.5398L33.775 60.7079L33.7552 68.6644V70.2656L28.6323 67.3118V67.2919Z" fill="#DBBA8F"/>
<path d="M43.3357 73.9058L47.8827 76.5414L48.0118 76.4718L47.8827 76.3922L43.4648 73.8362L43.3357 73.9058Z" fill="#E6E7E8"/>
<path d="M43.3357 73.9058L43.4648 73.8361L43.4945 64.9945V64.8453L43.3555 64.9249L43.3357 73.9058Z" fill="#E6E7E8"/>
<path d="M48.1409 76.9989L48.2798 76.9193L48.2997 67.3318L48.1707 67.4014L48.1409 76.9989Z" fill="#E6E7E8"/>
<path d="M48.1706 67.4013L48.2997 67.3317L43.2265 64.3878L43.0974 64.4674L48.1706 67.4013Z" fill="#E6E7E8"/>
<path d="M43.0675 74.0647L48.1408 76.9986L48.1705 67.4111L43.0874 64.4772L43.0576 74.0746L43.0675 74.0647ZM43.3257 73.9155L43.3554 64.9247L43.4845 64.9943L47.9025 67.5503L47.8727 76.382V76.5312L43.3257 73.8956V73.9155Z" fill="#BCBEC0"/>
<path d="M43.4646 73.8362L47.8826 76.3922L47.9123 67.5505L43.4944 64.9945L43.4646 73.8362Z" fill="#4F413C"/>
<path d="M48.1606 77.0088L47.4756 77.3967L46.7807 77.8144L41.6677 74.8506L43.0477 74.0549L46.7906 76.2132L47.4855 76.611L48.1606 77.0088Z" fill="white"/>
<path d="M43.0675 64.4972V66.0984L43.0477 74.0549L41.6677 74.8506L41.6876 65.3028L42.3825 64.905L43.0675 64.4972Z" fill="#8E7959"/>
<path d="M47.4756 78.9979L48.8556 78.2023L48.8854 67.0532L42.3825 63.2938L41.0124 64.0895L40.9827 75.2384L47.4855 78.9979H47.4756ZM41.6677 74.8506L41.6875 65.3028L43.0675 66.0984L46.8104 68.2666L46.7905 76.2231V77.8243L41.6677 74.8704V74.8506Z" fill="#DBBA8F"/>
<path d="M78.4016 112.723L82.9486 115.349L83.0777 115.279L82.9486 115.2L78.5307 112.644L78.4016 112.723Z" fill="#E6E7E8"/>
<path d="M78.4016 112.723L78.5307 112.644L78.5604 103.802V103.653L78.4215 103.732L78.4016 112.723Z" fill="#E6E7E8"/>
<path d="M83.2068 115.806L83.3458 115.727L83.3755 106.139L83.2465 106.209L83.2068 115.806Z" fill="#E6E7E8"/>
<path d="M83.2467 106.209L83.3758 106.139L78.2926 103.205L78.1636 103.275L83.2467 106.209Z" fill="#E6E7E8"/>
<path d="M78.1335 112.872L83.2068 115.806L83.2366 106.209L78.1633 103.275L78.1335 112.862V112.872ZM78.3917 112.723L78.4215 103.732L78.5505 103.802L82.9685 106.358L82.9387 115.19V115.339L78.3917 112.703V112.723Z" fill="#BCBEC0"/>
<path d="M78.5308 112.644L82.9487 115.2L82.9785 106.368L78.5605 103.802L78.5308 112.644Z" fill="#4F413C"/>
<path d="M83.2266 115.816L82.5415 116.214L81.8466 116.622L76.7336 113.658L78.1137 112.863L81.8565 115.021L82.5515 115.429L83.2266 115.816Z" fill="white"/>
<path d="M78.1335 103.315V104.906L78.1137 112.863L76.7336 113.658L76.7535 104.11L77.4485 103.713L78.1335 103.315Z" fill="#8E7959"/>
<path d="M82.5415 117.815L83.9215 117.02L83.9513 105.871L77.4484 102.111L76.0784 102.907L76.0486 114.056L82.5515 117.815H82.5415ZM76.7336 113.668L76.7535 104.12L78.1335 104.916L81.8764 107.074L81.8565 115.031V116.632L76.7336 113.678V113.668Z" fill="#DBBA8F"/>
<path d="M65.366 105.224L69.913 107.86L70.0421 107.78L69.913 107.711L65.495 105.145L65.366 105.224Z" fill="#E6E7E8"/>
<path d="M65.366 105.224L65.495 105.145L65.5149 96.3131V96.1639L65.3858 96.2336L65.366 105.224Z" fill="#E6E7E8"/>
<path d="M70.1711 108.307L70.3002 108.238L70.33 98.6404L70.2009 98.72L70.1711 108.307Z" fill="#E6E7E8"/>
<path d="M70.2012 98.72L70.3302 98.6404L65.257 95.7064L65.1279 95.786L70.2012 98.72Z" fill="#E6E7E8"/>
<path d="M65.0979 105.373L70.1711 108.307L70.2009 98.7199L65.1277 95.7859L65.0979 105.383V105.373ZM65.356 105.224L65.3858 96.2335L65.5149 96.313L69.9328 98.869L69.9031 107.701V107.85L65.356 105.214V105.224Z" fill="#BCBEC0"/>
<path d="M65.4951 105.145L69.9131 107.711L69.9429 98.8691L65.515 96.3131L65.4951 105.145Z" fill="#4F413C"/>
<path d="M70.1909 108.317L69.5059 108.715L68.811 109.123L63.698 106.169L65.078 105.364L68.8209 107.532L69.5158 107.93L70.1909 108.317Z" fill="white"/>
<path d="M65.0979 95.8158V97.4171L65.078 105.364L63.698 106.169L63.7179 96.6214L64.4128 96.2136L65.0979 95.8158Z" fill="#8E7959"/>
<path d="M69.5058 110.316L70.8859 109.521L70.9156 98.3718L64.4128 94.6124L63.0427 95.4081L63.0129 106.557L69.5158 110.316H69.5058ZM63.6979 106.169L63.7178 96.6214L65.0978 97.4171L68.8407 99.5852L68.8208 107.542V109.133L63.6979 106.179V106.169Z" fill="#DBBA8F"/>
<path d="M30.2903 85.1044L34.8472 87.73L34.9763 87.6604L34.8472 87.5808L30.4194 85.0248L30.2903 85.1044Z" fill="#E6E7E8"/>
<path d="M30.2903 85.1043L30.4194 85.0247L30.4491 76.193V76.0339L30.3201 76.1135L30.2903 85.1043Z" fill="#E6E7E8"/>
<path d="M35.1055 88.1875L35.2345 88.1178L35.2643 78.5204L35.1353 78.5999L35.1055 88.1875Z" fill="#E6E7E8"/>
<path d="M35.1355 78.5999L35.2645 78.5204L30.1913 75.5864L30.0623 75.6561L35.1355 78.5999Z" fill="#E6E7E8"/>
<path d="M30.0322 85.2533L35.1054 88.1873L35.1352 78.5898L30.062 75.6559L30.0322 85.2533ZM30.2903 85.1042L30.3201 76.1133L30.4492 76.183L34.8672 78.739L34.8374 87.5806V87.7298L30.2903 85.0942V85.1042Z" fill="#BCBEC0"/>
<path d="M30.4194 85.0247L34.8473 87.5807L34.8771 78.749L30.4492 76.193L30.4194 85.0247Z" fill="#4F413C"/>
<path d="M35.1252 88.1975L34.4402 88.5954L33.7453 89.0031L28.6323 86.0492L30.0123 85.2437L33.7552 87.4019L34.4501 87.8096L35.1252 88.1975Z" fill="white"/>
<path d="M30.0322 75.6959V77.2872L30.0123 85.2437L28.6323 86.0493L28.6522 76.4916L29.3471 76.0938L30.0322 75.6959Z" fill="#8E7959"/>
<path d="M34.4402 90.1966L35.8202 89.4009L35.85 78.2519L29.3471 74.4924L27.977 75.2881L27.9473 86.4371L34.4501 90.1966H34.4402ZM28.6323 86.0492L28.6521 76.5015L30.0322 77.2971L33.775 79.4553L33.7552 87.4118V89.013L28.6323 86.0592V86.0492Z" fill="#DBBA8F"/>
<path d="M43.3357 92.673L47.8827 95.2986L48.0118 95.219L47.8827 95.1494L43.4648 92.5934L43.3357 92.673Z" fill="#E6E7E8"/>
<path d="M43.3357 92.6729L43.4648 92.5933L43.4945 83.7517V83.6025L43.3555 83.6821L43.3357 92.6729Z" fill="#E6E7E8"/>
<path d="M48.1409 95.7561L48.2798 95.6766L48.2997 86.089L48.1707 86.1586L48.1409 95.7561Z" fill="#E6E7E8"/>
<path d="M48.1706 86.1586L48.2997 86.089L43.2265 83.155L43.0974 83.2247L48.1706 86.1586Z" fill="#E6E7E8"/>
<path d="M43.0675 92.8121L48.1408 95.746L48.1705 86.1486L43.0874 83.2146L43.0576 92.8121H43.0675ZM43.3257 92.6629L43.3554 83.6721L43.4845 83.7516L47.9025 86.3077L47.8727 95.1394V95.2886L43.3257 92.653V92.6629Z" fill="#BCBEC0"/>
<path d="M43.4646 92.5934L47.8826 95.1494L47.9123 86.3177L43.4944 83.7517L43.4646 92.5934Z" fill="#4F413C"/>
<path d="M48.1606 95.7661L47.4756 96.154L46.7807 96.5717L41.6677 93.6079L43.0477 92.8123L46.7906 94.9704L47.4855 95.3683L48.1606 95.7661Z" fill="white"/>
<path d="M43.0675 83.2545V84.8558L43.0477 92.8123L41.6677 93.6079L41.6876 84.0601L42.3825 83.6623L43.0675 83.2545Z" fill="#8E7959"/>
<path d="M47.4756 97.7651L48.8556 96.9695L48.8854 85.8204L42.3825 82.061L41.0124 82.8567L40.9827 94.0056L47.4855 97.7651H47.4756ZM41.6677 93.6178L41.6875 84.07L43.0675 84.8657L46.8104 87.0239L46.7905 94.9803V96.5716L41.6677 93.6178Z" fill="#DBBA8F"/>
<g style="mix-blend-mode:multiply" opacity="0.5">
<path d="M86.91 89.8386L49.5608 87.3522L49.2034 91.2509L44.835 88.4362L41.6779 85.3033L41.668 97.3375L44.8052 99.1377V107.402H44.5769V107.701L44.8052 107.83V117.388H44.5769V117.617H41.9857V122.331L15.4282 122.281L15.4878 126.995H53.7405V126.568H54.3957V119.357L53.7405 118.979V118.402H54.4354V112.365L50.1962 109.939V95.5374L55.1006 98.3222L55.0807 112.773L55.7956 113.181V119.218H55.1205V119.805L55.8254 120.202V127.393H55.1403L55.1304 127.791L24.6712 127.841V132.366H62.7651L62.8345 117.179L59.8065 115.508V100.998L63.6685 103.196L63.6983 106.169H66.4682V105.871H66.8157V103.872L68.8311 105.085L68.8211 106.139L76.7437 110.774V113.618H79.5037V113.33H79.7916V111.351L81.8666 112.524V113.718L84.1401 115.031V141.257H83.6139V146.449L86.7611 148.269L86.8504 115.807L86.91 89.8386Z" fill="#AC958B"/>
</g>
<path d="M19.2506 123.912C19.062 123.584 18.7443 123.266 18.2876 123.007C16.719 122.102 14.1675 122.102 12.5889 123.007C12.2514 123.206 11.9932 123.425 11.8046 123.654L11.4075 123.445V124.787C11.4571 125.344 11.8443 125.881 12.569 126.299C14.1377 127.204 16.6892 127.204 18.2677 126.299C19.0322 125.861 19.4194 125.294 19.4492 124.718V123.474L19.2407 123.912H19.2506Z" fill="#B5AA95"/>
<path d="M18.2875 121.784C19.8561 122.689 19.8462 124.171 18.2677 125.086C16.6891 125.991 14.1376 126.001 12.569 125.086C11.0003 124.181 11.0103 122.699 12.5888 121.784C14.1674 120.869 16.7189 120.869 18.2875 121.784Z" fill="#C2BEA8"/>
<path d="M14.5347 69.5395V125.434L17.9201 124.917V69.0223L14.5347 69.5395Z" fill="#C2BEA8"/>
<path d="M18.8137 67.0631V122.957L17.9202 124.917V69.0224L18.8137 67.0631Z" fill="#B5AA95"/>
<path d="M14.5347 69.5395L12.0427 68.0974V123.992L14.5347 125.434V69.5395Z" fill="#E0DCC6"/>
<path d="M28.8014 128.885L28.5929 129.323C28.4043 128.994 28.0866 128.676 27.6299 128.418C26.0612 127.512 23.5097 127.512 21.9312 128.427C21.5936 128.616 21.3355 128.845 21.1469 129.074L20.7498 128.855V130.078V130.208C20.7994 130.765 21.1866 131.312 21.9113 131.729C23.4799 132.634 26.0315 132.634 27.61 131.729C28.3745 131.292 28.7617 130.725 28.7915 130.148V128.905L28.8014 128.885Z" fill="#B5AA95"/>
<path d="M27.6298 127.184C29.1984 128.089 29.1885 129.571 27.61 130.486C26.0314 131.401 23.4799 131.401 21.9112 130.486C20.3426 129.581 20.3526 128.099 21.9311 127.194C23.5097 126.279 26.0612 126.279 27.6298 127.184Z" fill="#C2BEA8"/>
<path d="M23.8672 74.9499V130.844L27.2626 130.327V74.4327L23.8672 74.9499Z" fill="#C2BEA8"/>
<path d="M28.156 72.4735V128.368L27.2625 130.327V74.4328L28.156 72.4735Z" fill="#B5AA95"/>
<path d="M23.867 74.9499L21.385 73.5078V129.402L23.867 130.844V74.9499Z" fill="#E0DCC6"/>
<path d="M62.2887 148.736C62.1001 148.408 61.7824 148.09 61.3257 147.831C59.757 146.926 57.2055 146.926 55.627 147.831C55.2894 148.03 55.0313 148.249 54.8427 148.478L54.4456 148.269V149.611C54.4952 150.168 54.8824 150.705 55.6071 151.123C57.1757 152.028 59.7273 152.028 61.3058 151.123C62.0703 150.686 62.4574 150.119 62.4872 149.542V148.299L62.2788 148.736H62.2887Z" fill="#B5AA95"/>
<path d="M61.3256 146.598C62.8942 147.503 62.8843 148.985 61.3058 149.9C59.7272 150.805 57.1757 150.815 55.6071 149.9C54.0384 148.995 54.0484 147.513 55.6269 146.598C57.2055 145.683 59.757 145.683 61.3256 146.598Z" fill="#C2BEA8"/>
<path d="M57.563 94.3537V150.248L60.9484 149.731V93.8365L57.563 94.3537Z" fill="#C2BEA8"/>
<path d="M61.8517 91.8773V147.772L60.9482 149.731V93.8366L61.8517 91.8773Z" fill="#B5AA95"/>
<path d="M57.5628 94.3538L55.0808 92.9216V148.806L57.5628 150.248V94.3538Z" fill="#E0DCC6"/>
<path d="M71.8294 153.699L71.621 154.137C71.4323 153.809 71.1146 153.49 70.6579 153.232C69.0893 152.327 66.5378 152.327 64.9593 153.242C64.6217 153.431 64.3636 153.659 64.1749 153.888L63.7778 153.669V154.893V155.022C63.8275 155.579 64.2146 156.126 64.9394 156.544C66.508 157.449 69.0595 157.449 70.6381 156.544C71.3926 156.106 71.7898 155.539 71.8195 154.962V153.719L71.8294 153.699Z" fill="#B5AA95"/>
<path d="M70.6579 151.998C72.2265 152.904 72.2166 154.385 70.638 155.3C69.0595 156.215 66.508 156.215 64.9393 155.3C63.3707 154.395 63.3806 152.923 64.9592 152.008C66.5378 151.093 69.0892 151.093 70.6579 151.998Z" fill="#C2BEA8"/>
<path d="M66.905 99.7641V155.658L70.2905 155.141V99.2469L66.905 99.7641Z" fill="#C2BEA8"/>
<path d="M71.194 97.2877V153.182L70.2905 155.141V99.247L71.194 97.2877Z" fill="#B5AA95"/>
<path d="M66.905 99.7641L64.4131 98.322V154.216L66.905 155.658V99.7641Z" fill="#E0DCC6"/>
<path d="M95.1007 97.1287L90.5536 99.7544L90.4246 99.6847L90.5536 99.6052L94.9716 97.0492L95.1007 97.1287Z" fill="#E6E7E8"/>
<path d="M95.1007 97.1287L94.9717 97.0491L94.9419 88.2075V88.0682L95.071 88.1379L95.1007 97.1287Z" fill="#E6E7E8"/>
<path d="M90.2855 100.212L90.1565 100.142L90.1267 90.5447L90.2557 90.6243L90.2855 100.212Z" fill="#E6E7E8"/>
<path d="M90.2557 90.6243L90.1267 90.5447L95.2099 87.6107L95.3389 87.6903L90.2557 90.6243Z" fill="#E6E7E8"/>
<path d="M95.3389 87.6902L90.2656 90.6241L90.2954 100.212L95.3686 97.2778L95.3389 87.6902ZM90.5535 99.7641V99.6149L90.5238 90.7833L94.9417 88.2272L95.0708 88.1577L95.1006 97.1485L90.5535 99.7841V99.7641Z" fill="white"/>
<path d="M94.9714 97.0492L90.5535 99.6051L90.5237 90.7734L94.9416 88.2075L94.9714 97.0492Z" fill="#4F413C"/>
<path d="M90.2756 100.222L90.9607 100.62L91.6556 101.027L96.7686 98.0735L95.3886 97.2679L91.6457 99.4361L90.9507 99.8339L90.2756 100.222Z" fill="#BFAA8C"/>
<path d="M95.3687 87.7202V89.3115L95.3885 97.268L96.7685 98.0736L96.7486 88.5258L96.0537 88.118L95.3687 87.7202Z" fill="#826D52"/>
<path d="M97.4535 98.4614L97.4237 87.3223L96.0537 86.5167L89.5508 90.2761L89.5806 101.425L90.9606 102.231L97.4634 98.4713L97.4535 98.4614ZM91.6456 101.027V99.4261L91.6158 91.4696L95.3587 89.3015L96.7387 88.5058L96.7585 98.0536L91.6456 101.017V101.027Z" fill="#A08162"/>
<path d="M108.196 89.5004L103.649 92.136L103.51 92.0564L103.649 91.9868L108.066 89.4308L108.196 89.5004Z" fill="#E6E7E8"/>
<path d="M108.196 89.5004L108.067 89.4307L108.037 80.5891V80.4399L108.166 80.5096L108.196 89.5004Z" fill="#E6E7E8"/>
<path d="M103.381 92.5934L103.251 92.5138L103.222 82.9164L103.351 82.996L103.381 92.5934Z" fill="#E6E7E8"/>
<path d="M103.351 82.996L103.222 82.9164L108.295 79.9824L108.424 80.062L103.351 82.996Z" fill="#E6E7E8"/>
<path d="M108.424 80.0619L103.351 82.9959L103.381 92.5933L108.454 89.6593L108.424 80.0718V80.0619ZM103.639 92.1359V91.9866L103.609 83.145L108.027 80.589L108.156 80.5095L108.186 89.5002L103.639 92.1359Z" fill="white"/>
<path d="M108.067 89.4308L103.649 91.9868L103.619 83.1451L108.037 80.5891L108.067 89.4308Z" fill="#4F413C"/>
<path d="M103.361 92.6034L104.046 92.9913L104.741 93.3991L109.854 90.4452L108.474 89.6396L104.731 91.8078L104.036 92.2056L103.361 92.6034Z" fill="#BFAA8C"/>
<path d="M108.454 80.0918V81.6931L108.473 89.6396L109.853 90.4452L109.834 80.8974L109.139 80.4896L108.454 80.0918Z" fill="#826D52"/>
<path d="M110.548 90.8331L110.519 79.694L109.149 78.8884L102.646 82.6478L102.676 93.7969L104.056 94.6025L110.558 90.843L110.548 90.8331ZM104.741 93.399V91.8077L104.711 83.8513L108.454 81.6831L109.834 80.8875L109.854 90.4352L104.741 93.3891V93.399Z" fill="#A08162"/>
<path d="M121.231 82.0113L116.674 84.6469L116.545 84.5673L116.674 84.4878L121.102 81.9318L121.231 82.0113Z" fill="#E6E7E8"/>
<path d="M121.231 82.0113L121.102 81.9318L121.073 73.1001V72.9409L121.202 73.0205L121.231 82.0113Z" fill="#E6E7E8"/>
<path d="M116.416 85.0945L116.287 85.0249L116.257 75.4274L116.386 75.497L116.416 85.0945Z" fill="#E6E7E8"/>
<path d="M116.386 75.4969L116.257 75.4273L121.331 72.4934L121.46 72.563L116.386 75.4969Z" fill="#E6E7E8"/>
<path d="M121.46 72.5629L116.386 75.4968L116.416 85.0943L121.489 82.1604L121.46 72.5629ZM116.674 84.6368V84.4877L116.645 75.656L121.063 73.1L121.192 73.0303L121.221 82.0211L116.674 84.6567V84.6368Z" fill="white"/>
<path d="M121.102 81.9318L116.674 84.4878L116.655 75.6561L121.072 73.1001L121.102 81.9318Z" fill="#4F413C"/>
<path d="M116.396 85.1045L117.081 85.4923L117.776 85.9101L122.889 82.9562L121.509 82.1506L117.766 84.3088L117.071 84.7166L116.396 85.1045Z" fill="#BFAA8C"/>
<path d="M121.489 72.6029V74.1942L121.509 82.1507L122.889 82.9562L122.869 73.3985L122.174 73.0007L121.489 72.6029Z" fill="#826D52"/>
<path d="M123.584 83.3441L123.554 72.205L122.184 71.3994L115.681 75.1589L115.711 86.3078L117.091 87.1035L123.594 83.3441H123.584ZM117.776 85.9101V84.3088L117.746 76.3523L121.489 74.1941L122.869 73.3985L122.889 82.9462L117.776 85.9001V85.9101Z" fill="#A08162"/>
<path d="M147.362 66.894L142.805 69.5196L142.676 69.4501L142.805 69.3705L147.223 66.8145L147.362 66.894Z" fill="#E6E7E8"/>
<path d="M147.362 66.894L147.223 66.8144L147.203 57.9728V57.8236L147.332 57.9031L147.362 66.894Z" fill="#E6E7E8"/>
<path d="M142.547 69.9771L142.418 69.8976L142.388 60.3101L142.517 60.3796L142.547 69.9771Z" fill="#E6E7E8"/>
<path d="M142.517 60.3796L142.388 60.3101L147.461 57.3761L147.59 57.4457L142.517 60.3796Z" fill="#E6E7E8"/>
<path d="M147.59 57.4456L142.517 60.3795L142.547 69.977L147.62 67.043L147.59 57.4555V57.4456ZM142.805 69.5195V69.3703L142.775 60.5287L147.193 57.9726L147.322 57.903L147.352 66.8939L142.805 69.5294V69.5195Z" fill="white"/>
<path d="M147.223 66.8144L142.805 69.3704L142.775 60.5288L147.203 57.9728L147.223 66.8144Z" fill="#4F413C"/>
<path d="M142.527 69.9872L143.212 70.3751L143.907 70.7928L149.02 67.829L147.64 67.0333L143.897 69.1916L143.202 69.5993L142.527 69.9872Z" fill="#BFAA8C"/>
<path d="M147.62 57.4756V59.0768L147.64 67.0333L149.02 67.829L149 58.2812L148.305 57.8834L147.62 57.4756Z" fill="#826D52"/>
<path d="M149.715 68.2268L149.685 57.0877L148.315 56.2821L141.812 60.0416L141.842 71.1906L143.222 71.9962L149.725 68.2367L149.715 68.2268ZM143.907 70.7928V69.2015L143.877 61.245L147.62 59.0768L149 58.2812L149.02 67.829L143.907 70.7828V70.7928Z" fill="#A08162"/>
<path d="M134.316 74.4528L129.769 77.0884L129.64 77.0088L129.769 76.9392L134.187 74.3832L134.316 74.4528Z" fill="#E6E7E8"/>
<path d="M134.316 74.4528L134.187 74.3831L134.167 65.5415V65.3923L134.296 65.4719L134.316 74.4528Z" fill="#E6E7E8"/>
<path d="M129.511 77.5458L129.372 77.4663L129.352 67.8688L129.481 67.9484L129.511 77.5458Z" fill="#E6E7E8"/>
<path d="M129.481 67.9484L129.352 67.8688L134.425 64.9348L134.554 65.0144L129.481 67.9484Z" fill="#E6E7E8"/>
<path d="M134.554 65.0143L129.481 67.9482L129.511 77.5457L134.584 74.6117L134.554 65.0242V65.0143ZM129.769 77.0882V76.939L129.739 68.1073L134.157 65.5513L134.286 65.4817L134.316 74.4726L129.769 77.1081V77.0882Z" fill="white"/>
<path d="M134.187 74.3832L129.769 76.9392L129.739 68.0975L134.167 65.5415L134.187 74.3832Z" fill="#4F413C"/>
<path d="M129.491 77.5558L130.176 77.9437L130.871 78.3514L135.984 75.3976L134.604 74.592L130.861 76.7602L130.166 77.158L129.491 77.5558Z" fill="#BFAA8C"/>
<path d="M134.584 65.0442V66.6455L134.604 74.592L135.984 75.3976L135.964 65.8498L135.269 65.442L134.584 65.0442Z" fill="#826D52"/>
<path d="M136.669 75.7855L136.639 64.6464L135.269 63.8408L128.766 67.6002L128.796 78.7493L130.176 79.5548L136.679 75.7954L136.669 75.7855ZM130.861 78.3514V76.7502L130.831 68.7937L134.574 66.6256L135.954 65.8299L135.974 75.3777L130.861 78.3316V78.3514Z" fill="#A08162"/>
<path d="M148.424 105.712L144.393 108.039L144.284 107.969L144.393 107.9L148.305 105.642L148.424 105.712Z" fill="white"/>
<path d="M148.424 105.712L148.305 105.642L148.285 96.0147V95.8854L148.394 95.955L148.424 105.712Z" fill="#E6E7E8"/>
<path d="M144.165 108.437L144.046 108.367L144.026 98.0834L144.135 98.143L144.165 108.437Z" fill="#E6E7E8"/>
<path d="M144.135 98.1431L144.026 98.0834L148.514 95.4777L148.633 95.5473L144.135 98.1431Z" fill="white"/>
<path d="M148.633 95.5472L144.145 98.143L144.165 108.427L148.653 105.831L148.633 95.5372V95.5472ZM144.403 108.029V107.9L144.374 98.2723L148.285 96.0146L148.404 95.945L148.424 105.702L144.403 108.029Z" fill="#F1F2F2"/>
<path d="M148.305 105.642L144.393 107.9L144.374 98.2823L148.285 96.0146L148.305 105.642Z" fill="#4F413C"/>
<path d="M148.404 95.6468L144.384 97.9741L144.264 97.9044L144.384 97.8448L148.295 95.5771L148.404 95.6468Z" fill="white"/>
<path d="M148.404 95.6468L148.295 95.5771L148.265 87.1333V87.004L148.385 87.0637L148.404 95.6468Z" fill="#E6E7E8"/>
<path d="M144.155 98.3719L144.036 98.3122L144.016 89.1921L144.125 89.2618L144.155 98.3719Z" fill="#E6E7E8"/>
<path d="M144.125 89.2617L144.016 89.1921L148.504 86.5963L148.613 86.6659L144.125 89.2617Z" fill="white"/>
<path d="M148.613 86.6658L144.125 89.2616L144.155 98.3717L148.643 95.7759L148.613 86.6658ZM144.383 97.9739V97.8446L144.354 89.4008L148.265 87.1332L148.384 87.0636L148.404 95.6466L144.383 97.9739Z" fill="#F1F2F2"/>
<path d="M148.295 95.5771L144.383 97.8447L144.364 89.391L148.265 87.1333L148.295 95.5771Z" fill="#4F413C"/>
<path d="M144.135 108.198L140.114 110.525L139.995 110.456L140.114 110.386L144.026 108.128L144.135 108.198Z" fill="white"/>
<path d="M144.135 108.198L144.026 108.128L143.996 98.501V98.3717L144.115 98.4413L144.135 108.198Z" fill="#E6E7E8"/>
<path d="M139.886 110.923L139.767 110.853L139.737 100.57L139.856 100.629L139.886 110.923Z" fill="#E6E7E8"/>
<path d="M139.856 100.629L139.737 100.57L144.234 97.964L144.344 98.0336L139.856 100.629Z" fill="white"/>
<path d="M144.344 98.0334L139.856 100.629L139.876 110.923L144.364 108.327L144.344 98.0334ZM140.114 110.515V110.376L140.085 100.759L143.996 98.5009L144.115 98.4312L144.135 108.188L140.114 110.515Z" fill="#F1F2F2"/>
<path d="M144.026 108.128L140.114 110.386L140.094 100.769L143.996 98.501L144.026 108.128Z" fill="#4F413C"/>
<path d="M144.125 98.1331L140.104 100.46L139.985 100.391L140.104 100.331L144.016 98.0635L144.125 98.1331Z" fill="white"/>
<path d="M144.125 98.1331L144.016 98.0635L143.986 89.6197V89.4904L144.105 89.55L144.125 98.1331Z" fill="#E6E7E8"/>
<path d="M139.876 100.858L139.757 100.799L139.727 91.6785L139.846 91.7481L139.876 100.858Z" fill="#E6E7E8"/>
<path d="M139.846 91.7481L139.727 91.6784L144.224 89.0826L144.334 89.1523L139.846 91.7481Z" fill="white"/>
<path d="M144.334 89.1521L139.846 91.7479L139.866 100.858L144.354 98.2622L144.334 89.1521ZM140.104 100.46V100.331L140.084 91.8871L143.996 89.6295L144.115 89.5598L144.135 98.1329L140.114 100.46H140.104Z" fill="#F1F2F2"/>
<path d="M144.016 98.0634L140.104 100.331L140.074 91.8773L143.986 89.6196L144.016 98.0634Z" fill="#4F413C"/>
<path d="M139.121 111.301L139.767 111.669L140.422 112.057L149.963 106.587L148.662 105.831L140.412 110.555L139.757 110.933L139.121 111.301Z" fill="#BFAA8C"/>
<path d="M148.652 85.5818V87.0935L148.662 105.831L149.963 106.587L149.953 86.3377L149.298 85.9597L148.652 85.5818Z" fill="#826D52"/>
<path d="M138.456 90.6839V112.435L139.767 113.191L150.618 106.955V85.2138H150.608L149.308 84.448L138.456 90.6839ZM149.883 85.6216L149.308 85.9597L148.662 86.3277L145.317 88.2472L149.893 85.6216H149.883ZM140.412 91.8177L148.652 87.0936L149.953 86.3476V106.597L140.422 112.067V91.8277L140.412 91.8177ZM139.757 111.967V111.659V111.967Z" fill="#A08162"/>
<path d="M138.248 111.58L134.227 113.907L134.108 113.837L134.227 113.777L138.139 111.51L138.248 111.58Z" fill="white"/>
<path d="M138.248 111.58L138.139 111.51L138.109 101.893V101.763L138.228 101.823L138.248 111.58Z" fill="#E6E7E8"/>
<path d="M133.999 114.315L133.88 114.245L133.85 103.951L133.969 104.021L133.999 114.315Z" fill="#E6E7E8"/>
<path d="M133.969 104.021L133.85 103.951L138.347 101.355L138.456 101.425L133.969 104.021Z" fill="white"/>
<path d="M138.456 101.425L133.969 104.021L133.989 114.314L138.476 111.719L138.456 101.425ZM134.227 113.907V113.777L134.207 104.16L138.119 101.902L138.238 101.833L138.258 111.589L134.237 113.917L134.227 113.907Z" fill="#F1F2F2"/>
<path d="M138.139 111.51L134.227 113.778L134.207 104.15L138.109 101.893L138.139 111.51Z" fill="#4F413C"/>
<path d="M138.238 101.515L134.217 103.842L134.098 103.782L134.217 103.713L138.119 101.455L138.238 101.515Z" fill="white"/>
<path d="M138.238 101.515L138.119 101.455L138.099 93.0111V92.8719L138.218 92.9416L138.238 101.515Z" fill="#E6E7E8"/>
<path d="M133.979 104.25L133.87 104.18L133.84 95.0699L133.959 95.1396L133.979 104.25Z" fill="#E6E7E8"/>
<path d="M133.959 95.1395L133.84 95.0699L138.327 92.4741L138.446 92.5437L133.959 95.1395Z" fill="white"/>
<path d="M138.446 92.5436L133.959 95.1394L133.989 104.25L138.476 101.654L138.446 92.5436ZM134.217 103.852V103.722L134.197 95.2786L138.109 93.0209L138.228 92.9513L138.248 101.534L134.227 103.862L134.217 103.852Z" fill="#F1F2F2"/>
<path d="M138.119 101.455L134.217 103.713L134.187 95.2688L138.099 93.0111L138.119 101.455Z" fill="#4F413C"/>
<path d="M133.969 114.066L129.948 116.393L129.829 116.323L129.948 116.264L133.85 113.996L133.969 114.066Z" fill="white"/>
<path d="M133.969 114.066L133.85 113.996L133.83 104.379V104.24L133.949 104.309L133.969 114.066Z" fill="#E6E7E8"/>
<path d="M129.71 116.791L129.601 116.731L129.571 106.438L129.69 106.507L129.71 116.791Z" fill="#E6E7E8"/>
<path d="M129.69 106.507L129.571 106.438L134.058 103.842L134.177 103.911L129.69 106.507Z" fill="white"/>
<path d="M134.177 103.911L129.69 106.507L129.71 116.801L134.197 114.205L134.167 103.911H134.177ZM129.948 116.393V116.264L129.928 106.636L133.84 104.369L133.959 104.299L133.989 114.056L129.968 116.383L129.948 116.393Z" fill="#F1F2F2"/>
<path d="M133.85 113.996L129.948 116.264L129.918 106.637L133.83 104.379L133.85 113.996Z" fill="#4F413C"/>
<path d="M133.959 104.001L129.938 106.328L129.819 106.269L129.938 106.199L133.84 103.941L133.959 104.001Z" fill="white"/>
<path d="M133.959 104.001L133.84 103.941L133.82 95.4876V95.3583L133.939 95.4279L133.959 104.001Z" fill="#E6E7E8"/>
<path d="M129.7 106.736L129.591 106.666L129.561 97.5563L129.68 97.6159L129.7 106.736Z" fill="#E6E7E8"/>
<path d="M129.68 97.6159L129.561 97.5562L134.048 94.9604L134.167 95.0201L129.68 97.6159Z" fill="white"/>
<path d="M134.167 95.02L129.68 97.6158L129.71 106.726L134.197 104.13L134.167 95.02ZM129.938 106.328V106.199L129.918 97.7551L133.83 95.4875L133.949 95.4179L133.969 103.991L129.948 106.318L129.938 106.328Z" fill="#F1F2F2"/>
<path d="M133.84 103.941L129.938 106.199L129.908 97.7551L133.82 95.4875L133.84 103.941Z" fill="#4F413C"/>
<path d="M128.955 117.179L129.6 117.547L130.256 117.935L139.796 112.455L138.486 111.699L130.246 116.423L129.59 116.801L128.955 117.179Z" fill="#BFAA8C"/>
<path d="M138.486 91.4497V92.9614V111.699L139.797 112.455L139.787 92.2155L139.131 91.8375L138.486 91.4497Z" fill="#826D52"/>
<path d="M128.28 96.5518V118.303L129.591 119.069L140.442 112.793V91.0718H140.432L139.131 90.3159L128.28 96.5518ZM139.707 91.4895L139.131 91.8277L138.486 92.1956L135.14 94.1151L139.717 91.4895H139.707ZM130.236 97.6856L138.476 92.9614L139.777 92.2155V112.455L130.246 117.935V97.6955L130.236 97.6856Z" fill="#A08162"/>
<path d="M128.062 117.447L124.041 119.775L123.922 119.715L124.041 119.645L127.952 117.388L128.062 117.447Z" fill="white"/>
<path d="M128.062 117.447L127.952 117.388L127.923 107.76V107.631L128.042 107.691L128.062 117.447Z" fill="#E6E7E8"/>
<path d="M123.812 120.183L123.693 120.113L123.664 109.819L123.783 109.889L123.812 120.183Z" fill="#E6E7E8"/>
<path d="M123.783 109.889L123.664 109.819L128.161 107.223L128.27 107.293L123.783 109.889Z" fill="white"/>
<path d="M128.27 107.293L123.783 109.889L123.812 120.182L128.3 117.587L128.28 107.293H128.27ZM124.041 119.775V119.645L124.021 110.028L127.933 107.76L128.052 107.691L128.072 117.447L124.051 119.775H124.041Z" fill="#F1F2F2"/>
<path d="M127.952 117.388L124.041 119.645L124.021 110.018L127.923 107.76L127.952 117.388Z" fill="#4F413C"/>
<path d="M128.052 107.393L124.031 109.72L123.912 109.65L124.031 109.581L127.932 107.323L128.052 107.393Z" fill="white"/>
<path d="M128.052 107.393L127.932 107.323L127.913 98.8791V98.7399L128.032 98.8095L128.052 107.393Z" fill="#E6E7E8"/>
<path d="M123.793 110.118L123.683 110.048L123.654 100.938L123.773 101.007L123.793 110.118Z" fill="#E6E7E8"/>
<path d="M123.773 101.007L123.654 100.938L128.141 98.342L128.26 98.4117L123.773 101.007Z" fill="white"/>
<path d="M128.26 98.4115L123.773 101.007L123.802 110.117L128.29 107.522L128.26 98.4115ZM124.031 109.72V109.59L124.011 101.147L127.923 98.8889L128.042 98.8192L128.072 107.402L124.051 109.73L124.031 109.72Z" fill="#F1F2F2"/>
<path d="M127.932 107.323L124.031 109.58L124.001 101.137L127.913 98.879L127.932 107.323Z" fill="#4F413C"/>
<path d="M123.783 119.934L119.762 122.261L119.643 122.202L119.762 122.132L123.663 119.864L123.783 119.934Z" fill="white"/>
<path d="M123.783 119.934L123.663 119.864L123.644 110.247V110.118L123.763 110.177L123.783 119.934Z" fill="#E6E7E8"/>
<path d="M119.523 122.669L119.414 122.599L119.385 112.306L119.504 112.375L119.523 122.669Z" fill="#E6E7E8"/>
<path d="M119.504 112.375L119.385 112.306L123.872 109.71L123.991 109.779L119.504 112.375Z" fill="white"/>
<path d="M123.991 109.779L119.504 112.375L119.533 122.669L124.021 120.073L123.991 109.779ZM119.762 122.261V122.132L119.742 112.514L123.654 110.257L123.773 110.187L123.793 119.944L119.772 122.271L119.762 122.261Z" fill="#F1F2F2"/>
<path d="M123.663 119.864L119.762 122.132L119.732 112.504L123.644 110.247L123.663 119.864Z" fill="#4F413C"/>
<path d="M123.773 109.879L119.752 112.206L119.633 112.137L119.752 112.067L123.653 109.809L123.773 109.879Z" fill="white"/>
<path d="M123.773 109.879L123.653 109.809L123.634 101.366V101.226L123.743 101.296L123.773 109.879Z" fill="#E6E7E8"/>
<path d="M119.513 112.604L119.404 112.534L119.375 103.424L119.494 103.494L119.513 112.604Z" fill="#E6E7E8"/>
<path d="M119.494 103.494L119.375 103.424L123.862 100.828L123.981 100.898L119.494 103.494Z" fill="white"/>
<path d="M123.981 100.898L119.494 103.494L119.523 112.604L124.011 110.008L123.981 100.898ZM119.752 112.206V112.067L119.732 103.623L123.644 101.355L123.763 101.286L123.783 109.869L119.762 112.196L119.752 112.206Z" fill="#F1F2F2"/>
<path d="M123.653 109.809L119.752 112.067L119.722 103.623L123.634 101.365L123.653 109.809Z" fill="#4F413C"/>
<path d="M118.769 123.047L119.414 123.415L120.069 123.803L129.61 118.323L128.3 117.567L120.059 122.291L119.404 122.669L118.769 123.047Z" fill="#BFAA8C"/>
<path d="M128.3 97.3176V98.8294V117.567L129.61 118.323L129.6 98.0835L128.945 97.7055L128.3 97.3176Z" fill="#826D52"/>
<path d="M118.094 102.42L118.124 123.753L119.543 124.698L130.266 118.671V96.9397H130.246L128.955 96.1838L118.104 102.42H118.094ZM129.521 97.3575L128.945 97.6956L128.3 98.0636L124.954 99.9831L129.531 97.3575H129.521ZM120.05 103.554L128.29 98.8294L129.59 98.0735V118.323L120.06 123.803V103.564L120.05 103.554Z" fill="#A08162"/>
<path d="M117.905 123.266L113.884 125.593L113.765 125.523L113.884 125.454L117.796 123.196L117.905 123.266Z" fill="white"/>
<path d="M117.905 123.266L117.796 123.196L117.766 113.579V113.439L117.885 113.509L117.905 123.266Z" fill="#E6E7E8"/>
<path d="M113.656 125.991L113.537 125.921L113.507 115.637L113.626 115.707L113.656 125.991Z" fill="#E6E7E8"/>
<path d="M113.626 115.707L113.507 115.637L118.004 113.042L118.114 113.111L113.626 115.707Z" fill="white"/>
<path d="M118.114 113.111L113.626 115.707L113.656 126L118.143 123.405L118.114 113.111ZM113.884 125.593V125.463L113.864 115.836L117.776 113.578L117.895 113.509L117.915 123.265L113.894 125.593H113.884Z" fill="#F1F2F2"/>
<path d="M117.796 123.196L113.884 125.454L113.865 115.836L117.766 113.579L117.796 123.196Z" fill="#4F413C"/>
<path d="M117.895 113.201L113.874 115.528L113.755 115.458L113.874 115.399L117.776 113.131L117.895 113.201Z" fill="white"/>
<path d="M117.895 113.201L117.776 113.131L117.756 104.687V104.558L117.875 104.628L117.895 113.201Z" fill="#E6E7E8"/>
<path d="M113.636 115.936L113.527 115.866L113.497 106.756L113.616 106.816L113.636 115.936Z" fill="#E6E7E8"/>
<path d="M113.616 106.816L113.497 106.756L117.985 104.16L118.104 104.22L113.616 106.816Z" fill="white"/>
<path d="M118.104 104.22L113.616 106.816L113.646 115.926L118.133 113.33L118.104 104.22ZM113.874 115.528V115.399L113.845 106.955L117.756 104.687L117.875 104.618L117.895 113.191L113.874 115.518V115.528Z" fill="#F1F2F2"/>
<path d="M117.776 113.131L113.874 115.399L113.844 106.955L117.756 104.687L117.776 113.131Z" fill="#4F413C"/>
<path d="M113.626 125.752L109.605 128.079L109.486 128.01L109.605 127.94L113.507 125.682L113.626 125.752Z" fill="white"/>
<path d="M113.626 125.752L113.507 125.682L113.487 116.065V115.926L113.606 115.995L113.626 125.752Z" fill="#E6E7E8"/>
<path d="M109.367 128.477L109.258 128.418L109.228 118.124L109.347 118.193L109.367 128.477Z" fill="#E6E7E8"/>
<path d="M109.347 118.193L109.228 118.124L113.716 115.528L113.835 115.598L109.347 118.193Z" fill="white"/>
<path d="M113.835 115.597L109.347 118.193L109.377 128.487L113.865 125.891L113.835 115.607V115.597ZM109.606 128.079V127.95L109.586 118.332L113.497 116.075L113.616 116.005L113.636 125.762L109.615 128.089L109.606 128.079Z" fill="#F1F2F2"/>
<path d="M113.507 125.682L109.605 127.94L109.576 118.323L113.487 116.065L113.507 125.682Z" fill="#4F413C"/>
<path d="M113.616 115.687L109.595 118.014L109.476 117.945L109.595 117.885L113.497 115.618L113.616 115.687Z" fill="white"/>
<path d="M113.616 115.687L113.497 115.618L113.477 107.174V107.044L113.586 107.114L113.616 115.687Z" fill="#E6E7E8"/>
<path d="M109.357 118.422L109.238 118.353L109.218 109.242L109.337 109.302L109.357 118.422Z" fill="#E6E7E8"/>
<path d="M109.337 109.302L109.218 109.242L113.706 106.637L113.825 106.706L109.337 109.302Z" fill="white"/>
<path d="M113.825 106.706L109.337 109.302L109.357 118.412L113.845 115.816L113.825 106.706ZM109.596 118.014V117.885L109.566 109.441L113.477 107.183L113.597 107.114L113.616 115.687L109.596 118.014Z" fill="#F1F2F2"/>
<path d="M113.497 115.618L109.595 117.885L109.566 109.431L113.477 107.174L113.497 115.618Z" fill="#4F413C"/>
<path d="M108.613 128.855L109.258 129.233L109.913 129.621L119.444 124.141L118.143 123.385L109.903 128.109L109.248 128.487L108.613 128.855Z" fill="#BFAA8C"/>
<path d="M118.144 103.136V104.647V123.385L119.444 124.141V103.902L118.789 103.514L118.144 103.136Z" fill="#826D52"/>
<path d="M107.938 108.238V129.989L109.258 130.745L120.109 124.509L120.089 102.758L118.799 102.002L107.947 108.238H107.938ZM119.365 103.176L118.789 103.514L118.144 103.882L114.798 105.801L119.375 103.176H119.365ZM109.893 109.372L118.134 104.647L119.434 103.902V124.141L109.903 129.621V109.372H109.893Z" fill="#A08162"/>
<path d="M107.739 129.143L103.718 131.471L103.599 131.401L103.718 131.331L107.62 129.074L107.739 129.143Z" fill="white"/>
<path d="M107.739 129.143L107.62 129.074L107.6 119.446V119.317L107.719 119.387L107.739 129.143Z" fill="#E6E7E8"/>
<path d="M103.48 131.869L103.371 131.799L103.341 121.505L103.46 121.575L103.48 131.869Z" fill="#E6E7E8"/>
<path d="M103.46 121.575L103.341 121.505L107.829 118.909L107.948 118.979L103.46 121.575Z" fill="white"/>
<path d="M107.948 118.979L103.46 121.575L103.48 131.868L107.968 129.273L107.948 118.979ZM103.718 131.461V131.331L103.689 121.714L107.6 119.446L107.719 119.377L107.739 129.133L103.718 131.461Z" fill="#F1F2F2"/>
<path d="M107.62 129.074L103.718 131.331L103.688 121.714L107.6 119.446L107.62 129.074Z" fill="#4F413C"/>
<path d="M107.729 119.079L103.698 121.406L103.589 121.336L103.698 121.267L107.61 119.009L107.729 119.079Z" fill="white"/>
<path d="M107.729 119.079L107.61 119.009L107.59 110.565V110.426L107.699 110.496L107.729 119.079Z" fill="#E6E7E8"/>
<path d="M103.47 121.804L103.351 121.744L103.331 112.624L103.45 112.694L103.47 121.804Z" fill="#E6E7E8"/>
<path d="M103.45 112.693L103.331 112.624L107.819 110.028L107.938 110.098L103.45 112.693Z" fill="white"/>
<path d="M107.938 110.098L103.45 112.693L103.47 121.803L107.958 119.208L107.928 110.098H107.938ZM103.708 121.406V121.276L103.688 112.833L107.6 110.575L107.719 110.505L107.739 119.088L103.718 121.416L103.708 121.406Z" fill="#F1F2F2"/>
<path d="M107.61 119.009L103.698 121.267L103.678 112.823L107.59 110.565L107.61 119.009Z" fill="#4F413C"/>
<path d="M103.46 131.62L99.4293 133.947L99.3201 133.887L99.4293 133.818L103.341 131.56L103.46 131.62Z" fill="white"/>
<path d="M103.46 131.62L103.341 131.56L103.321 121.933V121.804L103.43 121.873L103.46 131.62Z" fill="#E6E7E8"/>
<path d="M99.201 134.355L99.0819 134.285L99.062 123.992L99.1811 124.061L99.201 134.355Z" fill="#E6E7E8"/>
<path d="M99.1811 124.061L99.062 123.992L103.549 121.396L103.659 121.466L99.1811 124.061Z" fill="white"/>
<path d="M103.669 121.465L99.1812 124.061L99.201 134.355L103.688 131.759L103.669 121.465ZM99.4393 133.947V133.818L99.4194 124.2L103.331 121.943L103.45 121.873L103.47 131.63L99.4492 133.957L99.4393 133.947Z" fill="#F1F2F2"/>
<path d="M103.341 131.56L99.4293 133.818L99.4094 124.2L103.321 121.933L103.341 131.56Z" fill="#4F413C"/>
<path d="M103.45 121.565L99.4193 123.892L99.3101 123.823L99.4193 123.753L103.331 121.495L103.45 121.565Z" fill="white"/>
<path d="M103.45 121.565L103.331 121.495L103.311 113.052V112.912L103.42 112.982L103.45 121.565Z" fill="#E6E7E8"/>
<path d="M99.191 124.29L99.0718 124.22L99.052 115.11L99.1612 115.18L99.191 124.29Z" fill="#E6E7E8"/>
<path d="M99.1612 115.18L99.052 115.11L103.539 112.515L103.649 112.584L99.1612 115.18Z" fill="white"/>
<path d="M103.649 112.584L99.1611 115.18L99.181 124.29L103.668 121.694L103.649 112.584ZM99.4193 123.892V123.763L99.3994 115.319L103.311 113.051L103.43 112.982L103.45 121.555L99.4292 123.882L99.4193 123.892Z" fill="#F1F2F2"/>
<path d="M103.331 121.495L99.4193 123.753L99.3994 115.309L103.311 113.052L103.331 121.495Z" fill="#4F413C"/>
<path d="M98.4365 134.733L99.0818 135.101L99.7371 135.489L109.278 130.019L107.977 129.253L99.7371 133.977L99.0719 134.365L98.4365 134.733Z" fill="#BFAA8C"/>
<path d="M107.967 109.014V110.515L107.977 129.253L109.278 130.019V109.77L108.623 109.392L107.967 109.014Z" fill="#826D52"/>
<path d="M97.7712 114.116V135.867L99.0817 136.623L109.933 130.357V108.636H109.923L108.623 107.87L97.7712 114.106V114.116ZM109.198 109.053L108.623 109.392L107.977 109.76L104.632 111.679L109.208 109.053H109.198ZM99.7271 115.25L107.967 110.515L109.268 109.77V130.009L99.737 135.489V115.25H99.7271Z" fill="#A08162"/>
<path d="M97.5528 135.001L93.532 137.329L93.4128 137.269L93.532 137.199L97.4337 134.942L97.5528 135.001Z" fill="white"/>
<path d="M97.5528 135.001L97.4337 134.942L97.4138 125.314V125.185L97.5329 125.255L97.5528 135.001Z" fill="#E6E7E8"/>
<path d="M93.2938 137.736L93.1846 137.667L93.1548 127.383L93.2739 127.443L93.2938 137.736Z" fill="#E6E7E8"/>
<path d="M93.2739 127.443L93.1548 127.383L97.6422 124.787L97.7614 124.847L93.2739 127.443Z" fill="white"/>
<path d="M97.7614 124.847L93.2739 127.443L93.2938 137.736L97.7813 135.141L97.7614 124.847ZM93.5321 137.329V137.199L93.5122 127.582L97.4238 125.314L97.543 125.245L97.5628 135.001L93.542 137.329H93.5321Z" fill="#F1F2F2"/>
<path d="M97.4337 134.942L93.532 137.199L93.5022 127.582L97.4138 125.314L97.4337 134.942Z" fill="#4F413C"/>
<path d="M97.5428 124.946L93.512 127.274L93.4028 127.204L93.512 127.135L97.4237 124.877L97.5428 124.946Z" fill="white"/>
<path d="M97.5428 124.946L97.4237 124.877L97.4038 116.433V116.304L97.513 116.363L97.5428 124.946Z" fill="#E6E7E8"/>
<path d="M93.2838 127.671L93.1647 127.602L93.1448 118.492L93.254 118.561L93.2838 127.671Z" fill="#E6E7E8"/>
<path d="M93.254 118.561L93.1448 118.492L97.6323 115.896L97.7514 115.966L93.254 118.561Z" fill="white"/>
<path d="M97.7514 115.965L93.2639 118.561L93.2937 127.681L97.7812 125.085L97.7613 115.975L97.7514 115.965ZM93.5221 127.273V127.144L93.5022 118.7L97.4139 116.443L97.533 116.373L97.5528 124.946L93.532 127.273H93.5221Z" fill="#F1F2F2"/>
<path d="M97.4237 124.877L93.512 127.134L93.4922 118.691L97.4038 116.433L97.4237 124.877Z" fill="#4F413C"/>
<path d="M93.2738 137.498L89.243 139.825L89.1338 139.755L89.243 139.686L93.1546 137.428L93.2738 137.498Z" fill="white"/>
<path d="M93.2737 137.498L93.1546 137.428L93.1348 127.801V127.672L93.244 127.741L93.2737 137.498Z" fill="#E6E7E8"/>
<path d="M89.0147 140.223L88.8956 140.153L88.8757 129.859L88.9949 129.929L89.0147 140.223Z" fill="#E6E7E8"/>
<path d="M88.9949 129.929L88.8757 129.86L93.3632 127.264L93.4823 127.333L88.9949 129.929Z" fill="white"/>
<path d="M93.4823 127.333L88.9949 129.929L89.0147 140.223L93.5022 137.627L93.4823 127.333ZM89.253 139.815V139.686L89.2331 130.068L93.1448 127.801L93.2639 127.731L93.2838 137.488L89.2629 139.815H89.253Z" fill="#F1F2F2"/>
<path d="M93.1546 137.428L89.243 139.686L89.2231 130.068L93.1348 127.801L93.1546 137.428Z" fill="#4F413C"/>
<path d="M93.2538 127.433L89.233 129.76L89.1238 129.691L89.233 129.621L93.1446 127.363L93.2538 127.433Z" fill="white"/>
<path d="M93.254 127.433L93.1448 127.363L93.115 118.919V118.79L93.2341 118.85L93.254 127.433Z" fill="#E6E7E8"/>
<path d="M89.0047 130.158L88.8856 130.098L88.8657 120.978L88.9749 121.048L89.0047 130.158Z" fill="#E6E7E8"/>
<path d="M88.9749 121.048L88.8657 120.978L93.3532 118.382L93.4624 118.452L88.9749 121.048Z" fill="white"/>
<path d="M93.4623 118.452L88.9749 121.048L89.0046 130.158L93.4921 127.562L93.4623 118.452ZM89.233 129.76V129.631L89.2131 121.187L93.1248 118.929L93.2439 118.86L93.2637 127.443L89.2429 129.77L89.233 129.76Z" fill="#F1F2F2"/>
<path d="M93.1446 127.363L89.233 129.621L89.2131 121.177L93.1148 118.919L93.1446 127.363Z" fill="#4F413C"/>
<path d="M88.2502 140.601L88.8956 140.969L89.5508 141.357L99.0917 135.887L97.7911 135.121L89.5508 139.855L88.8857 140.233L88.2502 140.601Z" fill="#BFAA8C"/>
<path d="M97.781 114.881V116.383L97.7909 135.121L99.0915 135.887V115.637L98.4363 115.259L97.781 114.881Z" fill="#826D52"/>
<path d="M88.2402 120.083L88.27 141.416L89.0345 142.262L99.7567 136.235V114.504H99.7468L98.4462 113.748L88.2502 120.083H88.2402ZM99.0121 114.921L98.4363 115.259L97.791 115.627L94.4452 117.547L99.0221 114.921H99.0121ZM89.5408 121.117L97.7811 116.393L99.0816 115.647V135.887L89.5507 141.367V121.127L89.5408 121.117Z" fill="#A08162"/>
<path d="M95.1007 112.137L90.5536 114.762L90.4246 114.693L90.5536 114.613L94.9716 112.057L95.1007 112.137Z" fill="#E6E7E8"/>
<path d="M95.1007 112.137L94.9717 112.057L94.9419 103.215V103.066L95.071 103.146L95.1007 112.137Z" fill="#E6E7E8"/>
<path d="M90.2855 115.22L90.1565 115.14L90.1267 105.553L90.2557 105.632L90.2855 115.22Z" fill="#E6E7E8"/>
<path d="M90.2557 105.632L90.1267 105.553L95.2099 102.609L95.3389 102.688L90.2557 105.632Z" fill="#E6E7E8"/>
<path d="M95.3389 102.688L90.2656 105.622L90.2954 115.21L95.3686 112.276L95.3389 102.678V102.688ZM90.5535 114.762V114.613L90.5238 105.781L94.9417 103.225L95.0708 103.155L95.1006 112.146L90.5535 114.782V114.762Z" fill="white"/>
<path d="M94.9714 112.057L90.5535 114.613L90.5237 105.781L94.9416 103.215L94.9714 112.057Z" fill="#4F413C"/>
<path d="M90.2756 115.23L90.9607 115.618L91.6556 116.035L96.7686 113.072L95.3886 112.276L91.6457 114.434L90.9507 114.842L90.2756 115.23Z" fill="#BFAA8C"/>
<path d="M95.3687 102.728V104.319L95.3885 112.276L96.7685 113.071L96.7486 103.524L96.0537 103.126L95.3687 102.728Z" fill="#826D52"/>
<path d="M97.4535 113.469L97.4237 102.33L96.0537 101.525L89.5508 105.284L89.5806 116.433L90.9606 117.239L97.4634 113.469H97.4535ZM91.6456 116.035V114.434L91.6158 106.487L95.3587 104.319L96.7387 103.524L96.7585 113.071L91.6456 116.025V116.035Z" fill="#A08162"/>
<path d="M108.196 104.508L103.649 107.144L103.51 107.064L103.649 106.995L108.066 104.429L108.196 104.508Z" fill="#E6E7E8"/>
<path d="M108.196 104.508L108.067 104.429L108.037 95.5968V95.4476L108.166 95.5173L108.196 104.508Z" fill="#E6E7E8"/>
<path d="M103.381 107.591L103.251 107.522L103.222 97.9242L103.351 98.0038L103.381 107.591Z" fill="#E6E7E8"/>
<path d="M103.351 98.0037L103.222 97.9241L108.295 94.9902L108.424 95.0698L103.351 98.0037Z" fill="#E6E7E8"/>
<path d="M108.424 95.0696L103.351 98.0035L103.381 107.601L108.454 104.667L108.424 95.0696ZM103.639 107.144V106.994L103.609 98.1528L108.027 95.5967L108.156 95.5271L108.186 104.518L103.639 107.153V107.144Z" fill="white"/>
<path d="M108.067 104.429L103.649 106.995L103.619 98.1529L108.037 95.5969L108.067 104.429Z" fill="#4F413C"/>
<path d="M103.361 107.611L104.046 107.999L104.741 108.407L109.854 105.453L108.474 104.647L104.731 106.816L104.036 107.213L103.361 107.611Z" fill="#BFAA8C"/>
<path d="M108.454 95.0997V96.701L108.473 104.647L109.853 105.453L109.834 95.9053L109.139 95.4975L108.454 95.0997Z" fill="#826D52"/>
<path d="M110.548 105.841L110.519 94.7018L109.149 93.8962L102.646 97.6557L102.676 108.795L104.056 109.6L110.558 105.841H110.548ZM104.741 108.407V106.806L104.711 98.8492L108.454 96.6909L109.834 95.8953L109.854 105.443L104.741 108.397V108.407Z" fill="#A08162"/>
<path d="M121.231 97.0193L116.674 99.6449L116.545 99.5753L116.674 99.4957L121.102 96.9397L121.231 97.0193Z" fill="#E6E7E8"/>
<path d="M121.231 97.0192L121.102 96.9396L121.073 88.0981V87.9489L121.202 88.0284L121.231 97.0192Z" fill="#E6E7E8"/>
<path d="M116.416 100.102L116.287 100.023L116.257 90.4353L116.386 90.5049L116.416 100.102Z" fill="#E6E7E8"/>
<path d="M116.386 90.5049L116.257 90.4353L121.331 87.5013L121.46 87.571L116.386 90.5049Z" fill="#E6E7E8"/>
<path d="M121.46 87.5709L116.386 90.5048L116.416 100.092L121.489 97.1584L121.46 87.5609V87.5709ZM116.674 99.6448V99.4956L116.645 90.6639L121.063 88.1079L121.192 88.0383L121.221 97.0291L116.674 99.6647V99.6448Z" fill="white"/>
<path d="M121.102 96.9397L116.674 99.4958L116.655 90.6641L121.072 88.0981L121.102 96.9397Z" fill="#4F413C"/>
<path d="M116.396 100.112L117.081 100.5L117.776 100.918L122.889 97.9542L121.509 97.1586L117.766 99.3167L117.071 99.7245L116.396 100.112Z" fill="#BFAA8C"/>
<path d="M121.489 87.6107V89.202L121.509 97.1585L122.889 97.9542L122.869 88.4064L122.174 88.0086L121.489 87.6107Z" fill="#826D52"/>
<path d="M123.584 98.352L123.554 87.2129L122.184 86.4073L115.681 90.1668L115.711 101.316L117.091 102.121L123.594 98.3619L123.584 98.352ZM117.776 100.918V99.3267L117.746 91.3702L121.489 89.2021L122.869 88.4064L122.889 97.9542L117.776 100.908V100.918Z" fill="#A08162"/>
<path d="M147.362 81.892L142.805 84.5276L142.676 84.448L142.805 84.3784L147.223 81.8224L147.362 81.892Z" fill="#E6E7E8"/>
<path d="M147.362 81.892L147.223 81.8223L147.203 72.9808V72.8315L147.332 72.9111L147.362 81.892Z" fill="#E6E7E8"/>
<path d="M142.547 84.9851L142.418 84.9056L142.388 75.318L142.517 75.3876L142.547 84.9851Z" fill="#E6E7E8"/>
<path d="M142.517 75.3876L142.388 75.3179L147.461 72.374L147.59 72.4536L142.517 75.3876Z" fill="#E6E7E8"/>
<path d="M147.59 72.4535L142.517 75.3875L142.547 84.975L147.62 82.0411L147.59 72.4535ZM142.805 84.5275V84.3782L142.775 75.5466L147.193 72.9906L147.322 72.921L147.352 81.9118L142.805 84.5474V84.5275Z" fill="white"/>
<path d="M147.223 81.8224L142.805 84.3784L142.775 75.5369L147.203 72.9808L147.223 81.8224Z" fill="#4F413C"/>
<path d="M142.527 84.995L143.212 85.3829L143.907 85.8006L149.02 82.8368L147.64 82.0312L143.897 84.1994L143.202 84.5972L142.527 84.995Z" fill="#BFAA8C"/>
<path d="M147.62 72.4835V74.0847L147.64 82.0313L149.02 82.8369L149 73.2891L148.305 72.8913L147.62 72.4835Z" fill="#826D52"/>
<path d="M149.715 83.2247L149.685 72.0856L148.315 71.28L141.812 75.0395L141.842 86.1885L143.222 86.9941L149.725 83.2247H149.715ZM143.907 85.7907V84.1894L143.877 76.2329L147.62 74.0747L149 73.2791L149.02 82.8268L143.907 85.7807V85.7907Z" fill="#A08162"/>
<path d="M134.316 89.4606L129.769 92.0961L129.64 92.0165L129.769 91.947L134.187 89.381L134.316 89.4606Z" fill="#E6E7E8"/>
<path d="M134.316 89.4605L134.187 89.3809L134.167 80.5492V80.4L134.296 80.4697L134.316 89.4605Z" fill="#E6E7E8"/>
<path d="M129.511 92.5437L129.372 92.474L129.352 82.8766L129.481 82.9561L129.511 92.5437Z" fill="#E6E7E8"/>
<path d="M129.481 82.9561L129.352 82.8766L134.425 79.9426L134.554 80.0221L129.481 82.9561Z" fill="#E6E7E8"/>
<path d="M134.554 80.022L129.481 82.9559L129.511 92.5435L134.584 89.6095L134.554 80.022ZM129.769 92.0959V91.9468L129.739 83.1051L134.157 80.5491L134.286 80.4795L134.316 89.4703L129.769 92.1059V92.0959Z" fill="white"/>
<path d="M134.187 89.381L129.769 91.947L129.739 83.1053L134.167 80.5493L134.187 89.381Z" fill="#4F413C"/>
<path d="M129.491 92.5537L130.176 92.9515L130.871 93.3593L135.984 90.4054L134.604 89.5999L130.861 91.768L130.166 92.1658L129.491 92.5537Z" fill="#BFAA8C"/>
<path d="M134.584 80.0521V81.6533L134.604 89.5999L135.984 90.4055L135.964 80.8577L135.269 80.45L134.584 80.0521Z" fill="#826D52"/>
<path d="M136.669 90.7933L136.639 79.6542L135.269 78.8486L128.766 82.6081L128.796 93.7571L130.176 94.5627L136.679 90.8033L136.669 90.7933ZM130.861 93.3593V91.7679L130.831 83.8115L134.574 81.6433L135.954 80.8477L135.974 90.3955L130.861 93.3493V93.3593Z" fill="#A08162"/>
<path d="M38.8285 78.7491L8.24023 61.0559V64.5965V68.1372L38.8285 85.8304L69.4068 103.514V99.9829V96.4423L38.8285 78.7491Z" fill="#E0DCC6"/>
<path d="M38.4611 50.1655L8.24023 61.056L69.4068 96.4423L38.4611 50.1655Z" fill="#E0DCC6"/>
<path d="M37.4187 53.358L16.282 60.9764L59.0519 85.7111L37.4187 53.358Z" fill="#DBC7A1"/>
<path d="M16.282 60.9764L14.5049 61.6229L60.8688 88.4362L59.0519 85.7111L16.282 60.9764Z" fill="#F4F3EA"/>
<path d="M155.235 46.2867V53.358L69.4067 103.514V96.4424L155.235 46.2867Z" fill="#18606A"/>
<path d="M124.219 0L38.4612 50.1656L69.4068 96.4424L155.165 46.2868L124.219 0Z" fill="#18606A"/>
<path d="M93.9985 10.9003L8.24023 61.056L38.4611 50.1656L124.219 0L93.9985 10.9003Z" fill="#53939A"/>
<path d="M41.7571 70.7626C40.9927 71.4588 39.7815 71.4986 38.4313 70.7229C36.1081 69.3802 34.2317 66.138 34.2317 63.4725C34.2317 61.9608 34.8373 60.9662 35.7805 60.6281C35.2344 61.1253 34.9068 61.9608 34.9068 63.0747C34.9068 65.7401 36.7832 68.9823 39.1064 70.325C40.1091 70.9118 41.0324 71.0312 41.7571 70.7726V70.7626Z" fill="#F4F3EA"/>
<path d="M42.6307 68.3163C42.6307 69.4302 42.3031 70.2656 41.7571 70.7628C41.0324 71.0214 40.109 70.8922 39.1063 70.3153C36.7831 68.9727 34.9067 65.7304 34.9067 63.065C34.9067 61.9511 35.2344 61.1157 35.7804 60.6184C36.5052 60.3598 37.4285 60.489 38.4312 61.0659C40.7544 62.4085 42.6307 65.6508 42.6307 68.3163Z" fill="#565045"/>
<g style="mix-blend-mode:multiply" opacity="0.5">
<path d="M14.5049 61.6228H17.5925L38.0542 54.3228L37.4187 53.358L14.5049 61.6228Z" fill="#AC958B"/>
</g>
<path d="M14.3083 68.0348L13 67.2794L13 62.0936L14.3191 62.8552C14.6903 63.0695 15.0099 63.3579 15.2778 63.7202C15.5457 64.0808 15.7517 64.496 15.8959 64.9658C16.0413 65.4363 16.114 65.9408 16.114 66.4793C16.114 67.0195 16.0413 67.4418 15.8959 67.7461C15.7517 68.0511 15.5445 68.2294 15.2742 68.281C15.0051 68.3333 14.6831 68.2512 14.3083 68.0348ZM13.7803 66.7905L14.2759 67.0766C14.5065 67.2098 14.7005 67.2644 14.8579 67.2405C15.0165 67.2156 15.1354 67.1045 15.2147 66.9072C15.2952 66.7089 15.3355 66.4164 15.3355 66.0299C15.3355 65.6467 15.2952 65.3103 15.2147 65.0207C15.1354 64.7319 15.0171 64.4846 14.8597 64.2789C14.7023 64.0733 14.5083 63.9039 14.2777 63.7707L13.7803 63.4835L13.7803 66.7905Z" fill="#6F5F6A"/>
<path d="M17.4669 69.9318C17.2903 69.8298 17.1329 69.6959 16.9947 69.5301C16.8566 69.3625 16.7472 69.1703 16.6667 68.9533C16.5875 68.7353 16.5478 68.4981 16.5478 68.2415C16.5478 68.0254 16.576 67.8602 16.6325 67.746C16.689 67.6317 16.7659 67.5579 16.8632 67.5246C16.9605 67.4914 17.071 67.4876 17.1948 67.5135C17.3197 67.5401 17.4506 67.5836 17.5876 67.6441C17.7486 67.7134 17.8783 67.7664 17.9768 67.803C18.0754 67.8379 18.1468 67.8471 18.1913 67.8306C18.2357 67.814 18.258 67.7644 18.258 67.6817L18.258 67.6665C18.258 67.5061 18.2219 67.3613 18.1498 67.2319C18.079 67.1032 17.978 67.001 17.8471 66.9254C17.7089 66.8456 17.599 66.8252 17.5173 66.8641C17.4356 66.9014 17.3816 66.9765 17.3551 67.0896L16.6451 66.5986C16.6812 66.3831 16.752 66.2197 16.8578 66.1086C16.9635 65.9958 17.0998 65.9411 17.2668 65.9447C17.435 65.9473 17.6296 66.0124 17.8507 66.14C18.0045 66.2288 18.1516 66.3391 18.2922 66.4709C18.434 66.6033 18.5595 66.7543 18.6688 66.9238C18.7794 67.094 18.8665 67.281 18.9301 67.4849C18.9938 67.6871 19.0256 67.9038 19.0256 68.1351L19.0256 70.7583L18.2976 70.338L18.2976 69.7987L18.276 69.7862C18.2315 69.8821 18.1721 69.9549 18.0976 70.0048C18.0231 70.0529 17.9336 70.073 17.8291 70.065C17.7246 70.0553 17.6038 70.0109 17.4669 69.9318ZM17.6867 69.3143C17.7996 69.3795 17.8994 69.4058 17.9859 69.3933C18.0724 69.3791 18.1402 69.3322 18.1895 69.2526C18.2387 69.173 18.2634 69.0648 18.2634 68.9281L18.2634 68.5154C18.2393 68.5234 18.2063 68.5246 18.1643 68.5189C18.1234 68.5122 18.0772 68.5015 18.0255 68.4869C17.9738 68.4706 17.9222 68.4534 17.8705 68.4354C17.8189 68.4157 17.772 68.398 17.73 68.3821C17.6399 68.3487 17.5612 68.3328 17.4939 68.3344C17.4266 68.3361 17.3744 68.3608 17.3371 68.4085C17.2999 68.4545 17.2812 68.5282 17.2812 68.6295C17.2812 68.7763 17.3191 68.9105 17.3948 69.0318C17.4717 69.1522 17.569 69.2463 17.6867 69.3143Z" fill="#6F5F6A"/>
<path d="M21.0935 68.0629L21.0935 68.8732L19.4266 67.9108L19.4266 67.1005L21.0935 68.0629ZM19.805 66.3871L20.5727 66.8304L20.5727 70.4564C20.5727 70.556 20.5835 70.6399 20.6052 70.7081C20.6268 70.7746 20.6568 70.8299 20.6953 70.874C20.7349 70.9189 20.7806 70.9562 20.8322 70.986C20.8683 71.0068 20.9043 71.0234 20.9403 71.0358C20.9764 71.0465 21.004 71.0548 21.0232 71.0609L21.144 71.9332C21.1055 71.9279 21.0515 71.9161 20.9818 71.8978C20.9121 71.8813 20.8274 71.8467 20.7277 71.7942C20.5427 71.6975 20.3805 71.5693 20.2411 71.4095C20.103 71.2504 19.9955 71.065 19.9186 70.8535C19.8417 70.642 19.8038 70.4092 19.805 70.155L19.805 66.3871Z" fill="#6F5F6A"/>
<path d="M22.3829 72.7701C22.2063 72.6681 22.0489 72.5342 21.9107 72.3684C21.7726 72.2008 21.6633 72.0085 21.5828 71.7916C21.5035 71.5736 21.4638 71.3363 21.4638 71.0797C21.4638 70.8637 21.4921 70.6985 21.5485 70.5842C21.605 70.47 21.6819 70.3962 21.7792 70.3629C21.8765 70.3296 21.987 70.3259 22.1108 70.3518C22.2357 70.3783 22.3667 70.4219 22.5036 70.4824C22.6646 70.5517 22.7944 70.6046 22.8929 70.6413C22.9914 70.6762 23.0629 70.6854 23.1073 70.6689C23.1518 70.6523 23.174 70.6027 23.174 70.52L23.174 70.5048C23.174 70.3444 23.138 70.1995 23.0659 70.0701C22.995 69.9414 22.8941 69.8393 22.7631 69.7637C22.625 69.6839 22.515 69.6635 22.4333 69.7024C22.3517 69.7396 22.2976 69.8148 22.2712 69.9278L21.5611 69.4369C21.5972 69.2213 21.6681 69.058 21.7738 68.9469C21.8795 68.834 22.0159 68.7794 22.1829 68.783C22.3511 68.7855 22.5457 68.8506 22.7667 68.9783C22.9205 69.067 23.0677 69.1773 23.2082 69.3091C23.35 69.4416 23.4755 69.5926 23.5849 69.7621C23.6954 69.9322 23.7825 70.1192 23.8462 70.3231C23.9098 70.5253 23.9417 70.7421 23.9417 70.9733L23.9417 73.5966L23.2136 73.1763L23.2136 72.6369L23.192 72.6245C23.1476 72.7203 23.0881 72.7932 23.0136 72.843C22.9391 72.8912 22.8496 72.9113 22.7451 72.9032C22.6406 72.8935 22.5198 72.8492 22.3829 72.7701ZM22.6027 72.1526C22.7157 72.2178 22.8154 72.2441 22.9019 72.2316C22.9884 72.2174 23.0563 72.1705 23.1055 72.0909C23.1548 72.0113 23.1794 71.9031 23.1794 71.7664L23.1794 71.3536C23.1554 71.3617 23.1223 71.3629 23.0803 71.3572C23.0394 71.3505 22.9932 71.3398 22.9415 71.3252C22.8899 71.3089 22.8382 71.2917 22.7865 71.2737C22.7349 71.254 22.688 71.2362 22.646 71.2204C22.5559 71.1869 22.4772 71.171 22.4099 71.1727C22.3426 71.1744 22.2904 71.1991 22.2531 71.2468C22.2159 71.2928 22.1973 71.3665 22.1973 71.4677C22.1973 71.6146 22.2351 71.7487 22.3108 71.8701C22.3877 71.9904 22.485 72.0846 22.6027 72.1526Z" fill="#6F5F6A"/>
<path d="M26.3929 69.826L27.2849 74.281L27.3192 74.3008L28.213 70.8769L29.078 71.3763L27.8057 75.8275L26.8002 75.247L25.5261 69.3256L26.3929 69.826Z" fill="#6F5F6A"/>
<path d="M30.457 77.4342C30.1723 77.2698 29.9272 77.0473 29.7218 76.7666C29.5176 76.485 29.3602 76.1629 29.2496 75.8002C29.1391 75.436 29.0839 75.0487 29.0839 74.6385C29.0839 74.2384 29.1391 73.9192 29.2496 73.6809C29.3602 73.4425 29.5157 73.2968 29.7164 73.2439C29.9182 73.1916 30.1549 73.2438 30.4264 73.4006C30.609 73.506 30.779 73.6455 30.9364 73.8191C31.095 73.9917 31.2331 74.1938 31.3509 74.4255C31.4698 74.6579 31.5623 74.9173 31.6284 75.2036C31.6944 75.4882 31.7275 75.7959 31.7275 76.1268L31.7275 76.4231L29.3902 75.0736L29.3902 74.4052L31.0049 75.3374C31.0049 75.1821 30.9808 75.0306 30.9328 74.883C30.8847 74.7354 30.818 74.6032 30.7327 74.4865C30.6486 74.3687 30.5507 74.2776 30.439 74.2131C30.3225 74.1458 30.2192 74.1241 30.1291 74.1481C30.0402 74.171 29.9705 74.2312 29.92 74.3287C29.8696 74.4245 29.8437 74.5488 29.8425 74.7018L29.8425 75.3373C29.8425 75.5298 29.8678 75.7106 29.9182 75.8799C29.9699 76.0498 30.0426 76.1998 30.1363 76.3299C30.23 76.4599 30.3411 76.5621 30.4696 76.6363C30.5549 76.6855 30.633 76.7137 30.7039 76.7209C30.7748 76.7281 30.8355 76.7124 30.8859 76.674C30.9364 76.6357 30.9748 76.5751 31.0012 76.4925L31.7113 76.9682C31.6752 77.1871 31.6013 77.3538 31.4896 77.4682C31.3791 77.5817 31.2361 77.6376 31.0607 77.6359C30.8865 77.6332 30.6853 77.566 30.457 77.4342Z" fill="#6F5F6A"/>
<path d="M32.2285 78.381L32.2285 74.4916L32.9727 74.9213L32.9727 75.5999L33.0015 75.6166C33.052 75.4043 33.1367 75.2709 33.2556 75.2163C33.3746 75.1601 33.5115 75.1767 33.6665 75.2662C33.7049 75.2884 33.7464 75.3157 33.7908 75.3481C33.8353 75.3805 33.8743 75.4123 33.908 75.4436L33.908 76.4007C33.8719 76.3647 33.8221 76.3224 33.7584 76.2739C33.6947 76.2253 33.6365 76.1857 33.5836 76.1552C33.4707 76.09 33.3698 76.0664 33.2809 76.0842C33.1932 76.1011 33.1235 76.1554 33.0718 76.2471C33.0214 76.3396 32.9961 76.4651 32.9961 76.6238L32.9961 78.8242L32.2285 78.381Z" fill="#6F5F6A"/>
<path d="M36.6079 78.1292L35.9051 77.7842C35.8931 77.6929 35.8673 77.602 35.8276 77.5116C35.788 77.4195 35.7357 77.3344 35.6708 77.2565C35.6072 77.1775 35.5309 77.1123 35.442 77.061C35.323 76.9924 35.2227 76.9699 35.141 76.9936C35.0593 77.0157 35.0185 77.0849 35.0185 77.2014C35.0185 77.2943 35.0449 77.388 35.0978 77.4827C35.1506 77.5773 35.2414 77.6812 35.3699 77.7942L35.8709 78.2253C36.14 78.4583 36.3406 78.6991 36.4728 78.9475C36.6049 79.196 36.671 79.4604 36.671 79.7406C36.671 79.9955 36.6175 80.1883 36.5106 80.319C36.4049 80.4504 36.2595 80.5167 36.0745 80.5179C35.8907 80.5182 35.6787 80.4489 35.4384 80.3102C35.072 80.0986 34.78 79.8229 34.5626 79.483C34.3463 79.142 34.2196 78.7751 34.1823 78.3823L34.9374 78.7625C34.9602 78.9327 35.0155 79.0844 35.1032 79.2178C35.1909 79.3494 35.3032 79.4548 35.4402 79.5339C35.5747 79.6116 35.6829 79.6377 35.7646 79.6123C35.8474 79.5859 35.8895 79.5148 35.8907 79.399C35.8895 79.3004 35.8601 79.2032 35.8024 79.1074C35.7447 79.01 35.6558 78.9097 35.5357 78.8066L35.0563 78.3956C34.786 78.1636 34.5848 77.9158 34.4527 77.6521C34.3217 77.3891 34.2562 77.1124 34.2562 76.8221C34.2562 76.5722 34.3043 76.3848 34.4004 76.2596C34.4977 76.1352 34.6341 76.0746 34.8095 76.078C34.9861 76.082 35.1927 76.1524 35.4294 76.289C35.779 76.4909 36.0541 76.7535 36.2547 77.077C36.4565 77.4012 36.5743 77.7519 36.6079 78.1292Z" fill="#6F5F6A"/>
<path d="M37.1544 81.225L37.1544 77.3356L37.9221 77.7788L37.9221 81.6682L37.1544 81.225ZM37.54 77.0569C37.4259 76.991 37.328 76.8813 37.2463 76.7278C37.1658 76.5733 37.1256 76.4209 37.1256 76.2707C37.1256 76.1221 37.1658 76.0179 37.2463 75.958C37.328 75.8972 37.4259 75.8997 37.54 75.9656C37.6542 76.0315 37.7515 76.1417 37.832 76.2962C37.9137 76.4497 37.9545 76.6007 37.9545 76.7493C37.9545 76.8995 37.9137 77.0051 37.832 77.0659C37.7515 77.1258 37.6542 77.1228 37.54 77.0569Z" fill="#6F5F6A"/>
<path d="M39.7877 82.8213C39.5077 82.6596 39.2657 82.4363 39.0614 82.1513C38.8584 81.8653 38.7016 81.5401 38.5911 81.1758C38.4806 80.8098 38.4253 80.4276 38.4253 80.0293C38.4253 79.6275 38.4806 79.3083 38.5911 79.0716C38.7016 78.8332 38.8584 78.6891 39.0614 78.6392C39.2657 78.5883 39.5077 78.6437 39.7877 78.8053C40.0676 78.9669 40.3091 79.1907 40.5121 79.4768C40.7163 79.7618 40.8737 80.0873 40.9842 80.4533C41.0948 80.8176 41.15 81.2006 41.15 81.6024C41.15 82.0008 41.0948 82.3191 40.9842 82.5575C40.8737 82.7942 40.7163 82.9379 40.5121 82.9888C40.3091 83.0387 40.0676 82.9829 39.7877 82.8213ZM39.7913 81.9877C39.9186 82.0613 40.0249 82.072 40.1102 82.02C40.1955 81.9662 40.2598 81.8632 40.303 81.711C40.3475 81.5594 40.3697 81.3705 40.3697 81.1443C40.3697 80.9181 40.3475 80.7035 40.303 80.5006C40.2598 80.2984 40.1955 80.1212 40.1102 79.9689C40.0249 79.8167 39.9186 79.7038 39.7913 79.6303C39.6627 79.5561 39.5546 79.5452 39.4669 79.5975C39.3804 79.6505 39.3149 79.7528 39.2705 79.9044C39.2272 80.0567 39.2056 80.246 39.2056 80.4722C39.2056 80.6984 39.2272 80.9126 39.2705 81.1148C39.3149 81.3177 39.3804 81.4956 39.4669 81.6485C39.5546 81.8005 39.6627 81.9135 39.7913 81.9877Z" fill="#6F5F6A"/>
<path d="M42.4169 82.0147L42.4169 84.2633L41.6492 83.82L41.6492 79.9307L42.3808 80.3531L42.3808 81.0393L42.4133 81.058C42.4745 80.8672 42.5772 80.7476 42.7214 80.6991C42.8656 80.649 43.0404 80.6833 43.2458 80.8019C43.438 80.9128 43.6056 81.0687 43.7486 81.2694C43.8916 81.4701 44.0027 81.7031 44.082 81.9683C44.1613 82.2318 44.2009 82.5147 44.2009 82.8169L44.2009 85.2933L43.4332 84.8501L43.4332 82.5661C43.4344 82.3288 43.3912 82.1181 43.3035 81.9341C43.2158 81.7484 43.095 81.6112 42.9413 81.5224C42.8379 81.4628 42.7466 81.4413 42.6674 81.458C42.5893 81.4753 42.528 81.5311 42.4835 81.6253C42.4403 81.7185 42.4181 81.8483 42.4169 82.0147Z" fill="#6F5F6A"/>
<path d="M47.109 84.192L46.4062 83.847C46.3942 83.7556 46.3683 83.6648 46.3287 83.5744C46.289 83.4823 46.2368 83.3972 46.1719 83.3193C46.1082 83.2403 46.032 83.1751 45.9431 83.1238C45.8241 83.0552 45.7238 83.0327 45.6421 83.0564C45.5604 83.0785 45.5196 83.1477 45.5196 83.2642C45.5196 83.357 45.546 83.4508 45.5989 83.5455C45.6517 83.6401 45.7424 83.744 45.871 83.857L46.3719 84.2881C46.641 84.5211 46.8417 84.7618 46.9738 85.0103C47.106 85.2588 47.1721 85.5232 47.1721 85.8034C47.1721 86.0583 47.1186 86.2511 47.0117 86.3818C46.906 86.5132 46.7606 86.5795 46.5756 86.5807C46.3918 86.581 46.1797 86.5117 45.9394 86.373C45.573 86.1614 45.2811 85.8857 45.0636 85.5458C44.8474 85.2048 44.7207 84.8379 44.6834 84.4451L45.4385 84.8253C45.4613 84.9955 45.5166 85.1472 45.6043 85.2806C45.692 85.4122 45.8043 85.5176 45.9412 85.5967C46.0758 85.6744 46.1839 85.7005 46.2656 85.6751C46.3485 85.6487 46.3906 85.5775 46.3918 85.4618C46.3906 85.3632 46.3611 85.266 46.3035 85.1702C46.2458 85.0728 46.1569 84.9725 46.0368 84.8694L45.5574 84.4584C45.2871 84.2264 45.0859 83.9786 44.9537 83.7149C44.8228 83.4519 44.7573 83.1752 44.7573 82.8849C44.7573 82.635 44.8053 82.4476 44.9015 82.3224C44.9988 82.198 45.1351 82.1374 45.3105 82.1408C45.4871 82.1448 45.6938 82.2152 45.9304 82.3518C46.28 82.5537 46.5552 82.8163 46.7558 83.1398C46.9576 83.464 47.0753 83.8147 47.109 84.192Z" fill="#6F5F6A"/>
<path d="M48.8444 87.9742L48.8444 82.7884L49.6247 83.2389L49.6247 87.5207L51.2069 88.4342L51.2069 89.3382L48.8444 87.9742Z" fill="#6F5F6A"/>
<path d="M51.7092 89.6282L51.7092 85.7388L52.4769 86.1821L52.4769 90.0714L51.7092 89.6282ZM52.0948 85.4601C51.9807 85.3942 51.8828 85.2845 51.8011 85.131C51.7206 84.9765 51.6804 84.8241 51.6804 84.6739C51.6804 84.5253 51.7206 84.4211 51.8011 84.3612C51.8828 84.3004 51.9807 84.3029 52.0948 84.3688C52.209 84.4347 52.3063 84.5449 52.3868 84.6994C52.4685 84.8529 52.5093 85.0039 52.5093 85.1525C52.5093 85.3027 52.4685 85.4083 52.3868 85.4692C52.3063 85.529 52.209 85.526 52.0948 85.4601Z" fill="#6F5F6A"/>
<path d="M53.1062 90.4348L53.1062 85.249L53.8739 85.6922L53.8739 87.6419L53.8974 87.6555C53.931 87.5702 53.9796 87.492 54.0433 87.4207C54.1082 87.3484 54.1923 87.3058 54.2956 87.2929C54.4001 87.2789 54.5299 87.3167 54.6849 87.4062C54.8867 87.5227 55.0729 87.7045 55.2435 87.9516C55.4141 88.1969 55.5504 88.4976 55.6526 88.8537C55.7547 89.2081 55.8057 89.6081 55.8057 90.0537C55.8057 90.4876 55.7559 90.8251 55.6562 91.0663C55.5577 91.3065 55.4231 91.4542 55.2525 91.5093C55.0831 91.5635 54.8933 91.5298 54.6831 91.4085C54.5341 91.3225 54.4073 91.2147 54.3028 91.0851C54.1995 90.9563 54.1148 90.8204 54.0487 90.6776C53.9827 90.5331 53.9322 90.3968 53.8974 90.2686L53.8631 90.2489L53.8631 90.8718L53.1062 90.4348ZM53.8577 88.924C53.8577 89.1552 53.8805 89.3701 53.9262 89.5687C53.9718 89.7672 54.0379 89.9396 54.1244 90.0857C54.2109 90.2302 54.316 90.3382 54.4398 90.4096C54.5647 90.4817 54.6704 90.4947 54.7569 90.4484C54.8434 90.4004 54.9089 90.3032 54.9534 90.1567C54.999 90.0091 55.0218 89.8223 55.0218 89.5961C55.0218 89.3716 54.9996 89.1612 54.9552 88.9651C54.9107 88.7689 54.8452 88.5977 54.7587 88.4516C54.6722 88.3054 54.5659 88.1959 54.4398 88.1231C54.3148 88.051 54.2091 88.0363 54.1226 88.0792C54.0373 88.1228 53.9718 88.2167 53.9262 88.3609C53.8805 88.505 53.8577 88.6927 53.8577 88.924Z" fill="#6F5F6A"/>
<path d="M56.318 92.2891L56.318 88.3997L57.0622 88.8294L57.0622 89.508L57.0911 89.5247C57.1415 89.3124 57.2262 89.179 57.3451 89.1244C57.4641 89.0682 57.601 89.0848 57.756 89.1743C57.7945 89.1965 57.8359 89.2238 57.8804 89.2562C57.9248 89.2886 57.9639 89.3204 57.9975 89.3517L57.9975 90.3088C57.9615 90.2728 57.9116 90.2305 57.8479 90.1819C57.7842 90.1334 57.726 90.0938 57.6731 90.0633C57.5602 89.9981 57.4593 89.9744 57.3704 89.9923C57.2827 90.0092 57.213 90.0635 57.1613 90.1552C57.1109 90.2476 57.0856 90.3732 57.0856 90.5319L57.0856 92.7323L56.318 92.2891Z" fill="#6F5F6A"/>
<path d="M59.1044 93.9713C58.9278 93.8693 58.7704 93.7354 58.6323 93.5695C58.4941 93.402 58.3848 93.2097 58.3043 92.9928C58.225 92.7748 58.1854 92.5375 58.1854 92.2809C58.1854 92.0649 58.2136 91.8997 58.2701 91.7854C58.3265 91.6712 58.4034 91.5974 58.5007 91.5641C58.598 91.5308 58.7086 91.5271 58.8323 91.553C58.9572 91.5795 59.0882 91.623 59.2251 91.6836C59.3861 91.7529 59.5159 91.8058 59.6144 91.8424C59.7129 91.8774 59.7844 91.8866 59.8288 91.87C59.8733 91.8535 59.8955 91.8039 59.8955 91.7212L59.8955 91.706C59.8955 91.5456 59.8595 91.4007 59.7874 91.2713C59.7165 91.1426 59.6156 91.0405 59.4846 90.9648C59.3465 90.8851 59.2366 90.8647 59.1549 90.9036C59.0732 90.9408 59.0191 91.016 58.9927 91.129L58.2827 90.638C58.3187 90.4225 58.3896 90.2592 58.4953 90.148C58.601 90.0352 58.7374 89.9806 58.9044 89.9841C59.0726 89.9867 59.2672 90.0518 59.4882 90.1794C59.642 90.2682 59.7892 90.3785 59.9298 90.5103C60.0715 90.6428 60.1971 90.7938 60.3064 90.9632C60.4169 91.1334 60.504 91.3204 60.5677 91.5243C60.6314 91.7265 60.6632 91.9432 60.6632 92.1745L60.6632 94.7978L59.9352 94.3775L59.9352 93.8381L59.9135 93.8256C59.8691 93.9215 59.8096 93.9944 59.7351 94.0442C59.6606 94.0924 59.5711 94.1124 59.4666 94.1044C59.3621 94.0947 59.2414 94.0503 59.1044 93.9713ZM59.3243 93.3537C59.4372 93.4189 59.5369 93.4453 59.6234 93.4328C59.7099 93.4186 59.7778 93.3717 59.827 93.2921C59.8763 93.2125 59.9009 93.1043 59.9009 92.9676L59.9009 92.5548C59.8769 92.5629 59.8439 92.5641 59.8018 92.5584C59.761 92.5517 59.7147 92.541 59.663 92.5264C59.6114 92.51 59.5597 92.4929 59.5081 92.4749C59.4564 92.4552 59.4096 92.4374 59.3675 92.4216C59.2774 92.3881 59.1987 92.3722 59.1314 92.3739C59.0642 92.3756 59.0119 92.4003 58.9747 92.448C58.9374 92.494 58.9188 92.5676 58.9188 92.6689C58.9188 92.8158 58.9566 92.9499 59.0323 93.0713C59.1092 93.1916 59.2065 93.2858 59.3243 93.3537Z" fill="#6F5F6A"/>
<path d="M61.2588 95.1417L61.2588 91.2523L62.003 91.682L62.003 92.3606L62.0319 92.3772C62.0823 92.165 62.167 92.0316 62.2859 91.977C62.4049 91.9208 62.5418 91.9374 62.6968 92.0268C62.7353 92.049 62.7767 92.0763 62.8212 92.1088C62.8656 92.1412 62.9047 92.173 62.9383 92.2042L62.9383 93.1614C62.9023 93.1254 62.8524 93.0831 62.7887 93.0345C62.7251 92.9859 62.6668 92.9464 62.6139 92.9159C62.501 92.8507 62.4001 92.827 62.3112 92.8449C62.2235 92.8618 62.1538 92.9161 62.1021 93.0078C62.0517 93.1002 62.0265 93.2258 62.0265 93.3844L62.0265 95.5849L61.2588 95.1417Z" fill="#6F5F6A"/>
<path d="M63.8934 98.1213C63.7961 98.0651 63.7048 98.0014 63.6195 97.9302C63.5354 97.8614 63.4657 97.795 63.4104 97.731L63.5834 97.0257C63.6735 97.1165 63.7546 97.1844 63.8267 97.2294C63.9 97.2751 63.9631 97.2879 64.0159 97.2678C64.07 97.2483 64.1138 97.1876 64.1475 97.0854L64.1925 96.9469L63.1996 92.3728L64.0069 92.8389L64.58 96.026L64.6088 96.0427L65.1873 93.5204L66 93.9896L64.9242 97.6782C64.8725 97.8577 64.8022 97.9994 64.7133 98.1034C64.6256 98.2098 64.5145 98.2663 64.3799 98.273C64.2454 98.2814 64.0832 98.2308 63.8934 98.1213Z" fill="#6F5F6A"/>
</svg>
