<svg width="274" height="187" viewBox="0 0 274 187" fill="none" xmlns="http://www.w3.org/2000/svg">
    <path d="M133 134.192L99.5 131.188L133 84.1201" stroke="black" stroke-linecap="round"/>
    <path d="M68.0857 173.924C68.0857 175.127 67.2454 176.596 66.2107 177.197C65.1761 177.799 64.3358 177.311 64.3358 176.108C64.3358 174.904 65.1761 173.436 66.2107 172.834C67.2454 172.232 68.0857 172.72 68.0857 173.924Z" fill="#212121"/>
    <path d="M66.9336 173.263C66.9336 174.466 66.0933 175.934 65.0586 176.536C64.024 177.138 63.1837 176.65 63.1837 175.447C63.1837 174.243 64.024 172.775 65.0586 172.173C66.0933 171.571 66.9336 172.059 66.9336 173.263Z" fill="#212121"/>
    <path d="M67.3041 174.38C67.3041 175.082 66.8161 175.939 66.2107 176.29C65.6098 176.641 65.1174 176.358 65.1174 175.652C65.1174 174.945 65.6053 174.092 66.2107 173.741C66.8161 173.39 67.3041 173.673 67.3041 174.38Z" fill="#EAEAEA"/>
    <path d="M66.4683 174.867C66.4683 175.031 66.3553 175.231 66.2107 175.318C66.0707 175.4 65.9532 175.332 65.9532 175.168C65.9532 175.004 66.0662 174.803 66.2107 174.717C66.3508 174.635 66.4683 174.703 66.4683 174.867Z" fill="#B8B8B8"/>
    <path d="M64.015 162.224C63.0346 162.798 61.8916 163.058 61.4669 162.812C61.0422 162.566 61.4895 161.9 62.4744 161.326C63.4548 160.751 64.5978 160.491 65.0225 160.738C65.4472 160.984 64.9999 161.649 64.015 162.224Z" fill="#8A8A8A"/>
    <path d="M67.2995 173.345C64.9547 174.713 62.2304 175.337 61.2138 174.744C61.1687 174.717 61.1325 174.69 61.0964 174.662L62.0723 175.77C62.122 175.848 62.1897 175.916 62.2846 175.971C63.0436 176.413 65.0812 175.944 66.8342 174.927C67.792 174.371 68.4652 173.764 68.7543 173.254L68.7679 173.226C68.7679 173.226 68.7859 173.194 68.795 173.176L69.816 171.193C69.4004 171.854 68.5239 172.624 67.2995 173.34V173.345Z" fill="url(#paint0_linear_546_1419578)"/>
    <path d="M69.7031 169.802L67.2363 168.543C67.661 168.79 67.2137 169.455 66.2288 170.03C65.2484 170.604 64.1053 170.864 63.6806 170.618C63.4773 170.499 63.4773 170.285 63.6309 170.034L61.4714 172.866C61.3223 173.035 61.1958 173.199 61.0964 173.358C60.7214 173.96 60.7304 174.471 61.2138 174.754C62.2304 175.346 64.9547 174.717 67.2995 173.354C69.6443 171.986 70.7196 170.399 69.7031 169.806V169.802Z" fill="url(#paint1_linear_546_1419578)"/>
    <path d="M61.0783 174.64C61.0783 174.64 61.1145 174.658 61.1732 174.685C61.2048 174.699 61.3675 174.754 61.4127 174.772C61.4579 174.786 61.5527 174.804 61.6115 174.817C61.6702 174.836 61.738 174.845 61.8148 174.858C61.8916 174.872 61.9729 174.886 62.0633 174.886C62.2395 174.9 62.4428 174.895 62.6641 174.886C62.7726 174.877 62.89 174.868 63.0075 174.854C63.125 174.836 63.247 174.822 63.3735 174.799C63.5 174.772 63.6265 174.749 63.7575 174.722C63.8885 174.69 64.0195 174.658 64.1551 174.626C64.2906 174.589 64.4262 174.548 64.5617 174.507C64.6972 174.462 64.8373 174.416 64.9773 174.371C65.2529 174.275 65.5331 174.17 65.8041 174.051C65.9442 173.997 66.0752 173.933 66.2107 173.869C66.3463 173.81 66.4773 173.741 66.6083 173.678C66.8704 173.55 67.1234 173.409 67.3673 173.267C67.4893 173.194 67.6068 173.126 67.7197 173.053C67.8327 172.98 67.9411 172.907 68.0496 172.839C68.2619 172.693 68.4607 172.551 68.6324 172.41C68.7227 172.342 68.8041 172.273 68.8809 172.205C68.9577 172.136 69.0345 172.077 69.0977 172.013C69.1655 171.95 69.2242 171.89 69.283 171.836C69.3372 171.776 69.3869 171.726 69.432 171.676C69.5224 171.58 69.5811 171.498 69.6263 171.443C69.6715 171.389 69.6941 171.361 69.6941 171.361C69.6941 171.361 69.6715 171.393 69.6263 171.448C69.5811 171.503 69.5224 171.589 69.432 171.685C69.3869 171.735 69.3417 171.79 69.2875 171.845C69.2287 171.899 69.17 171.959 69.1068 172.027C69.0435 172.091 68.9712 172.155 68.8944 172.223C68.8176 172.291 68.7363 172.364 68.6504 172.433C68.4788 172.579 68.28 172.72 68.0721 172.871C67.9637 172.943 67.8553 173.016 67.7423 173.094C67.6294 173.167 67.5119 173.24 67.3899 173.313C67.146 173.454 66.8975 173.605 66.6354 173.737C66.5044 173.805 66.3734 173.874 66.2379 173.937C66.1023 174.001 65.9668 174.07 65.8312 174.124C65.5556 174.248 65.28 174.357 65.0044 174.457C64.8644 174.507 64.7243 174.553 64.5888 174.599C64.4487 174.64 64.3132 174.681 64.1777 174.722C64.0421 174.758 63.9066 174.79 63.7756 174.827C63.6445 174.854 63.5135 174.881 63.387 174.909C63.2605 174.931 63.134 174.95 63.0165 174.972C62.8946 174.991 62.7771 175 62.6641 175.014C62.4382 175.032 62.2304 175.036 62.0452 175.027C61.9548 175.027 61.8645 175.014 61.7877 175C61.7063 174.991 61.634 174.982 61.5663 174.959L61.4217 174.918C61.3765 174.895 61.372 174.9 61.3404 174.886C61.2771 174.858 61.241 174.84 61.241 174.84L61.0693 174.631L61.0783 174.64Z" fill="#F52E00"/>
    <path d="M65.1806 160.943H65.1761C65.2303 161.262 64.7921 161.772 64.015 162.224C63.0346 162.798 61.8916 163.058 61.4669 162.812C61.3585 162.748 61.3088 162.661 61.3042 162.557L63.5271 170.29C63.5226 170.331 63.5226 170.367 63.5271 170.404V170.413C63.5451 170.495 63.5903 170.563 63.6807 170.613C64.1054 170.86 65.2484 170.6 66.2288 170.025C67.0375 169.556 67.4848 169.022 67.3809 168.707L67.3944 168.698L65.1761 160.938L65.1806 160.943Z" fill="url(#paint2_linear_546_1419578)"/>
    <path d="M39.1979 181.128C39.1979 182.332 38.3575 183.8 37.3229 184.402C36.2883 185.003 35.448 184.516 35.448 183.312C35.448 182.108 36.2883 180.64 37.3229 180.038C38.3575 179.436 39.1979 179.924 39.1979 181.128Z" fill="#212121"/>
    <path d="M38.0458 180.462C38.0458 181.666 37.2054 183.134 36.1708 183.736C35.1362 184.338 34.2959 183.85 34.2959 182.646C34.2959 181.442 35.1362 179.974 36.1708 179.372C37.2054 178.77 38.0458 179.258 38.0458 180.462Z" fill="#212121"/>
    <path d="M38.4163 181.579C38.4163 182.281 37.9283 183.138 37.3229 183.489C36.722 183.841 36.2296 183.558 36.2296 182.851C36.2296 182.144 36.7175 181.292 37.3229 180.941C37.9238 180.59 38.4163 180.872 38.4163 181.579Z" fill="#EAEAEA"/>
    <path d="M37.5804 182.067C37.5804 182.23 37.4675 182.431 37.3229 182.517C37.1829 182.599 37.0654 182.531 37.0654 182.367C37.0654 182.203 37.1829 182.003 37.3229 181.916C37.463 181.834 37.5804 181.903 37.5804 182.067Z" fill="#B8B8B8"/>
    <path d="M37.341 170.627C36.3606 171.197 35.2175 171.462 34.7928 171.215C34.3681 170.969 34.8199 170.303 35.8003 169.729C36.7807 169.159 37.9238 168.895 38.3485 169.141C38.7731 169.387 38.3259 170.053 37.341 170.627Z" fill="#8A8A8A"/>
    <path d="M38.4117 180.549C36.0669 181.917 33.3426 182.541 32.326 181.949C32.2854 181.921 32.2447 181.894 32.2086 181.866L33.1844 182.974C33.2341 183.052 33.3019 183.12 33.3968 183.175C34.1558 183.617 36.1934 183.148 37.9464 182.126C38.9042 181.57 39.5774 180.964 39.8665 180.453L39.8801 180.426C39.8801 180.426 39.8981 180.394 39.9026 180.375L40.9237 178.392C40.5081 179.053 39.6316 179.824 38.4072 180.54L38.4117 180.549Z" fill="url(#paint3_linear_546_1419578)"/>
    <path d="M41.1084 178.046L41.1134 178.041H41.1084V178.046Z" fill="url(#paint4_linear_546_1419578)"/>
    <path d="M40.8153 177.001L38.3484 175.743C38.7731 175.989 38.3259 176.655 37.3409 177.229C36.3605 177.804 35.2175 178.064 34.7928 177.818C34.5895 177.699 34.5895 177.485 34.7431 177.234L32.5835 180.065C32.4344 180.234 32.3079 180.398 32.2085 180.558C31.8336 181.16 31.8426 181.67 32.326 181.953C33.3425 182.546 36.0714 181.917 38.4117 180.553C40.7565 179.185 41.8318 177.599 40.8153 177.006V177.001Z" fill="url(#paint5_linear_546_1419578)"/>
    <path d="M32.1905 181.839C32.1905 181.839 32.2267 181.853 32.2854 181.885C32.317 181.898 32.4797 181.953 32.5248 181.971C32.57 181.985 32.6694 182.003 32.7282 182.017C32.7869 182.035 32.8547 182.044 32.9315 182.058C33.0083 182.072 33.0896 182.085 33.18 182.085C33.3562 182.099 33.5595 182.094 33.7808 182.085C33.8893 182.076 34.0067 182.067 34.1242 182.053C34.2417 182.035 34.3637 182.021 34.4902 181.999C34.6167 181.976 34.7432 181.949 34.8742 181.921C35.0052 181.889 35.1362 181.857 35.2718 181.825C35.4073 181.789 35.5428 181.748 35.6784 181.707C35.8139 181.661 35.954 181.616 36.094 181.57C36.3696 181.474 36.6497 181.369 36.9253 181.251C37.0654 181.196 37.1964 181.132 37.332 181.069C37.4675 181.009 37.5985 180.941 37.7295 180.877C37.9916 180.749 38.2446 180.608 38.4886 180.467C38.6105 180.394 38.728 180.325 38.841 180.252C38.9539 180.179 39.0669 180.106 39.1708 180.038C39.3831 179.892 39.5819 179.751 39.7536 179.609C39.8439 179.541 39.9253 179.473 40.0021 179.404C40.0789 179.336 40.1557 179.277 40.2189 179.213C40.2867 179.149 40.3454 179.09 40.4042 179.035C40.4584 178.976 40.5081 178.926 40.5533 178.875C40.6436 178.78 40.7024 178.698 40.7475 178.643C40.7927 178.588 40.8153 178.561 40.8153 178.561C40.8153 178.561 40.7927 178.588 40.7475 178.647C40.7024 178.702 40.6436 178.789 40.5533 178.885C40.5081 178.935 40.4584 178.989 40.4087 179.049C40.3545 179.103 40.2912 179.163 40.228 179.226C40.1647 179.29 40.0924 179.354 40.0156 179.423C39.9388 179.491 39.8575 179.564 39.7717 179.632C39.6 179.778 39.4012 179.92 39.1934 180.07C39.0849 180.143 38.9765 180.216 38.8635 180.293C38.7506 180.366 38.6331 180.439 38.5111 180.512C38.2672 180.654 38.0187 180.804 37.7566 180.936C37.6256 181.005 37.4946 181.073 37.3591 181.137C37.2235 181.201 37.088 181.269 36.9525 181.324C36.6769 181.447 36.4013 181.556 36.1211 181.657C35.9811 181.707 35.8456 181.752 35.7055 181.798C35.5654 181.839 35.4299 181.88 35.2944 181.921C35.1588 181.958 35.0233 181.994 34.8923 182.026C34.7612 182.053 34.6302 182.081 34.5037 182.113C34.3772 182.135 34.2507 182.154 34.1332 182.177C34.0113 182.195 33.8938 182.204 33.7808 182.218C33.5549 182.236 33.3471 182.24 33.1619 182.231C33.0715 182.231 32.9812 182.218 32.9044 182.204C32.823 182.195 32.7507 182.186 32.683 182.163C32.6152 182.145 32.5926 182.135 32.5384 182.122C32.4932 182.099 32.4887 182.104 32.4571 182.09L32.3577 182.044L32.186 181.835L32.1905 181.839Z" fill="#F52E00"/>
    <path d="M38.5066 169.351H38.4976C38.5518 169.67 38.1135 170.18 37.3364 170.632C36.356 171.202 35.213 171.466 34.7883 171.22C34.6799 171.156 34.6302 171.069 34.6302 170.965V177.489C34.6302 177.53 34.6302 177.567 34.6347 177.603V177.612C34.6528 177.694 34.6979 177.763 34.7883 177.813C35.213 178.059 36.356 177.799 37.3364 177.225C38.1452 176.755 38.5924 176.222 38.4885 175.907L38.5066 175.898V169.346V169.351Z" fill="url(#paint6_linear_546_1419578)"/>
    <path d="M97.5969 123.505L89.2387 128.374L73.4981 117.636L75.1156 110.405L97.5969 123.505Z" fill="url(#paint7_linear_546_1419578)"/>
    <path d="M73.4981 117.636V118.079L89.2386 128.812V128.374L73.4981 117.636Z" fill="url(#paint8_linear_546_1419578)"/>
    <path d="M99.8379 101.61V101.327L99.5714 101.482V101.145L92.3336 105.362L85.1004 131.465C76.0147 136.759 52.6524 141.086 52.2864 141.154H52.2819L37.8109 149.59L26.9587 163.218C18.343 168.238 18.9439 176.34 20.1185 179.071C20.1231 179.085 20.1321 179.099 20.1366 179.117C20.1728 179.195 20.2044 179.272 20.2405 179.341C20.2496 179.354 20.2541 179.368 20.2631 179.382V179.391C20.2812 179.413 20.2993 179.436 20.3128 179.459C21.0854 182.085 28.9828 184.839 36.4464 180.49C41.5066 177.539 58.0694 169.328 71.5013 157.336C85.7509 144.611 100.095 133.098 100.095 133.098V101.459L99.8379 101.61Z" fill="url(#paint9_linear_546_1419578)"/>
    <path d="M99.8379 101.61V101.327L99.5714 101.482V101.145L92.3336 105.362L85.1004 131.465C76.0147 136.759 52.6524 141.086 52.2864 141.154H52.2819L37.8109 149.59L26.9587 163.218C18.343 168.238 18.9439 176.34 20.1185 179.071C20.1231 179.085 20.1321 179.099 20.1366 179.117C20.1728 179.195 20.2044 179.272 20.2405 179.341C20.2496 179.354 20.2541 179.368 20.2631 179.382V179.391C20.2812 179.413 20.2993 179.436 20.3128 179.459C21.0854 182.085 28.9828 184.839 36.4464 180.49C41.5066 177.539 58.0694 169.328 71.5013 157.336C85.7509 144.611 100.095 133.098 100.095 133.098V101.459L99.8379 101.61Z" fill="url(#paint10_linear_546_1419578)"/>
    <path d="M46.9235 155.084L55.5935 149.845V156.88L37.1557 167.604L46.9235 155.084Z" fill="#686F75"/>
    <path d="M55.4444 150.109L47.0229 155.198L37.7475 167.089L55.4489 156.794V150.109H55.4444ZM55.738 149.585V156.967L36.5683 168.119L46.8241 154.974L55.7426 149.585H55.738Z" fill="white"/>
    <path d="M56.5739 149.321L61.9548 146.156L61.9865 151.336L56.5739 156.269V149.321Z" fill="#686F75"/>
    <path d="M61.8057 146.411L56.7185 149.407V155.936L61.8373 151.267L61.8057 146.411ZM62.0948 145.896L62.131 151.4L56.4203 156.607V149.238L62.0948 145.896Z" fill="white"/>
    <path d="M92.3381 105.362L92.8622 105.676L85.6244 131.78L85.1003 131.465L92.3381 105.362Z" fill="#D1D1D1"/>
    <path d="M52.2863 141.15L60.649 146.06L46.178 154.491L37.8153 149.585L52.2863 141.15Z" fill="#CACACA"/>
    <path d="M27.18 163.168L37.8515 149.777L45.9567 154.532L35.2898 167.924L27.18 163.168Z" fill="#686F75"/>
    <path d="M37.8831 149.968L27.4015 163.127L35.2492 167.732L45.7308 154.573L37.8831 149.968ZM37.8108 149.581L46.1736 154.487L35.3214 168.115L26.9587 163.209L37.8108 149.581Z" fill="white"/>
    <path d="M26.9587 163.209C18.0402 168.407 18.998 176.906 20.245 179.327C20.2676 179.363 20.2902 179.404 20.3173 179.441C21.0537 181.935 28.2147 184.543 35.3259 181.073V168.115L26.9632 163.209H26.9587Z" fill="url(#paint11_linear_546_1419578)"/>
    <path d="M36.4464 176.906C28.9828 181.256 21.0899 178.502 20.3128 175.875C20.2993 175.853 20.2812 175.83 20.2676 175.807V175.798C20.2676 175.798 20.2495 175.77 20.2405 175.761C20.2044 175.693 20.1682 175.62 20.1366 175.538C20.1276 175.524 20.1231 175.506 20.1185 175.492C19.8972 174.982 19.6984 174.284 19.5764 173.454C19.2375 175.853 19.6306 177.927 20.1185 179.062C20.1231 179.076 20.1321 179.09 20.1366 179.108C20.1728 179.186 20.2044 179.263 20.2405 179.331C20.2495 179.345 20.2541 179.359 20.2631 179.372V179.382C20.2812 179.404 20.2993 179.427 20.3128 179.45C21.0854 182.076 28.9828 184.83 36.4464 180.48C41.5066 177.53 58.0694 169.319 71.5013 157.327C85.7509 144.601 100.095 133.089 100.095 133.089V129.519C100.095 129.519 85.7509 141.031 71.5013 153.757C58.0739 165.749 41.5066 173.96 36.4464 176.91V176.906Z" fill="#B5000A"/>
    <path d="M36.4464 177.498C28.9828 181.848 21.0899 179.094 20.3128 176.468C20.2993 176.445 20.2812 176.422 20.2676 176.4V176.39C20.2676 176.39 20.2496 176.363 20.2405 176.349C20.2044 176.281 20.1682 176.208 20.1366 176.126C20.1276 176.112 20.1231 176.099 20.1185 176.08C19.8746 175.511 19.6532 174.708 19.5357 173.746C19.2692 176.012 19.6487 177.964 20.1185 179.053C20.1231 179.067 20.1321 179.081 20.1366 179.099C20.1728 179.176 20.2044 179.254 20.2405 179.322C20.2496 179.336 20.2541 179.35 20.2631 179.363V179.372C20.2812 179.395 20.2993 179.418 20.3128 179.441C21.0854 182.067 28.9828 184.821 36.4464 180.471C41.5066 177.521 58.0694 169.31 71.5013 157.318C85.7509 144.592 100.095 133.08 100.095 133.08V130.107C100.095 130.107 85.7509 141.62 71.5013 154.345C58.0739 166.337 41.5066 174.548 36.4464 177.498Z" fill="white"/>
    <path d="M36.4464 178.57C28.9828 182.92 21.0899 180.166 20.3128 177.539C20.2993 177.517 20.2812 177.494 20.2676 177.471V177.462C20.2676 177.462 20.2496 177.435 20.2405 177.421C20.2044 177.352 20.1682 177.279 20.1366 177.197C20.1276 177.184 20.1231 177.165 20.1185 177.152C19.8294 176.482 19.5764 175.488 19.486 174.293C19.3324 176.327 19.6893 178.055 20.1185 179.058C20.1231 179.071 20.1321 179.085 20.1366 179.103C20.1728 179.181 20.2044 179.258 20.2405 179.327C20.2496 179.34 20.2541 179.354 20.2631 179.363V179.372C20.2631 179.372 20.2993 179.418 20.3128 179.441C21.0854 182.067 28.9828 184.821 36.4464 180.471C41.5066 177.521 58.0694 169.309 71.5013 157.318C85.7509 144.592 100.095 133.079 100.095 133.079V131.169C100.095 131.169 85.7509 142.682 71.5013 155.407C58.0739 167.399 41.5066 175.611 36.4464 178.561V178.57Z" fill="#B5000A"/>
    <path d="M85.6199 131.776C76.462 137.11 60.6446 146.056 60.6446 146.056L56.4881 143.617L52.2818 141.15C52.6433 141.082 76.0102 136.755 85.0958 131.461L85.3669 131.625L85.6199 131.776Z" fill="url(#paint12_linear_546_1419578)"/>
    <path d="M54.6311 141.551C58.9503 140.689 68.7498 138.596 76.8234 135.879C69.7753 139.919 62.4517 144.068 60.6536 145.085L54.6311 141.551Z" fill="#B5000A"/>
    <path d="M19.7479 178.437V178.073C19.7479 178.073 17.263 176.705 15.4288 175.319C13.5945 173.932 8.75573 171.438 8.75573 172.031C8.75573 172.624 13.599 175.77 15.4288 176.522C17.263 177.275 19.7479 178.802 19.7479 178.802V178.437Z" fill="#3B3B3B"/>
    <path d="M8.78239 171.972C8.78239 171.972 8.79172 171.968 8.79639 171.963L8.77772 171.972H8.78239Z" fill="#5F5F5F"/>
    <path d="M15.7541 175.173C14.0101 173.855 9.53284 171.53 9.11267 171.822L8.819 171.954C9.38827 171.772 13.721 174.029 15.4288 175.319C17.2631 176.705 19.7479 178.073 19.7479 178.073V178.798L20.0732 178.647V177.922C20.0732 177.922 17.5884 176.554 15.7541 175.168V175.173Z" fill="#5F5F5F"/>
    <path d="M23.0551 180.311C23.4481 179.869 23.4256 179.172 23.3081 178.629C23.1771 178.027 22.8969 177.453 22.5265 176.96C21.9979 176.253 20.7283 175.205 19.9286 176.135C19.2781 176.883 18.6681 177.744 18.3745 178.702C18.248 179.117 18.0763 179.796 18.4016 180.161C18.7585 180.558 19.391 180.699 19.8925 180.763C20.4708 180.84 21.0672 180.831 21.641 180.749C22.0973 180.685 22.7208 180.681 23.0551 180.307V180.311Z" fill="url(#paint13_radial_546_1419578)"/>
    <path d="M22.034 179.773V179.408C22.034 179.408 24.5189 180.936 26.3532 181.688C28.1875 182.436 33.0262 185.591 33.0262 186.179C33.0262 186.768 28.183 184.278 26.3532 182.892C24.5189 181.506 22.034 180.138 22.034 180.138V179.773Z" fill="#3B3B3B"/>
    <path d="M33.3516 186.029C33.3516 185.441 28.5083 182.29 26.6785 181.538C24.8442 180.786 22.3594 179.258 22.3594 179.258L22.0341 179.409C22.0341 179.409 24.5189 180.936 26.3532 181.689C28.1875 182.436 33.0263 185.591 33.0263 186.18C33.0263 186.207 33.0127 186.225 32.9946 186.239L33.2838 186.107H33.2928L33.3064 186.098C33.329 186.079 33.347 186.061 33.347 186.029H33.3516Z" fill="#5F5F5F"/>
    <path d="M53.5016 170.645L54.9564 169.715L71.0042 167.75L71.6232 168.429L53.5016 170.645Z" fill="url(#paint14_linear_546_1419578)"/>
    <path d="M31.1197 157.988L22.0431 139.964L23.0235 140.288L31.6302 157.35L31.1197 157.988Z" fill="url(#paint15_linear_546_1419578)"/>
    <path opacity="0.4" d="M37.8515 149.777L27.1801 163.168L27.7042 163.473L44.0818 153.433L37.8515 149.777Z" fill="white"/>
    <path d="M100.095 121.895V118.712L88.9813 128.374L100.095 121.895Z" fill="#B5000A"/>
    <path opacity="0.2" d="M46.0154 154.514L55.7607 169.196L63.3328 163.943L46.0154 154.514Z" fill="black"/>
    <path d="M94.4706 167.062L61.3991 145.117L46.9281 136.686L11.2588 118.58L3.8147e-05 125.141L33.1167 144.734L47.5877 153.164L83.2118 173.623L94.4706 167.062Z" fill="url(#paint16_linear_546_1419578)"/>
    <path d="M42.2113 146.525C41.8092 146.762 41.1541 146.762 40.7475 146.525C40.3454 146.288 40.3454 145.91 40.7475 145.673L48.5365 141.131C48.9386 140.894 49.5937 140.894 50.0003 141.131C50.4024 141.369 50.4024 141.747 50.0003 141.984L42.2113 146.525Z" fill="#646570"/>
    <path d="M45.6585 148.532C45.2564 148.769 44.6013 148.769 44.1947 148.532C43.7926 148.295 43.7926 147.916 44.1947 147.679L51.9836 143.138C52.3857 142.901 53.0408 142.901 53.4474 143.138C53.8495 143.375 53.8495 143.753 53.4474 143.99L45.6585 148.532Z" fill="#646570"/>
    <path d="M47.5877 153.164L33.1167 144.733L7.62939e-06 125.141V126.213L33.1167 146.995L47.5877 155.426L83.2118 174.694V173.623L47.5877 153.164Z" fill="url(#paint17_linear_546_1419578)"/>
    <path d="M83.2118 173.623V174.694L94.4706 168.133V167.062L83.2118 173.623Z" fill="url(#paint18_linear_546_1419578)"/>
    <path d="M10.4591 131.329L22.5266 124.298L20.7691 123.409L8.82816 130.367L10.4591 131.329Z" fill="#B5000A"/>
    <path d="M73.9907 168.329L85.9136 161.385L84.373 160.364L72.3371 167.381L73.9907 168.329Z" fill="#B5000A"/>
    <path opacity="0.2" d="M90.1649 129.446L95.7039 136.663L99.0969 133.896L90.1649 129.446Z" fill="black"/>
    <path d="M98.5186 124.129L90.1649 128.999L108.589 138.173L121 137.229L98.5186 124.129Z" fill="url(#paint19_linear_546_1419578)"/>
    <path d="M90.1649 128.999V129.445L108.589 138.619V138.172L90.1649 128.999Z" fill="url(#paint20_linear_546_1419578)"/>
    <path d="M108.589 138.172V138.619L121 137.675V137.229L108.589 138.172Z" fill="url(#paint21_linear_546_1419578)"/>
    <path d="M271 2.0026L132 82.3976L132 134.966L135 134.966L274 2.00248L271 2.0026Z" fill="#0F1624"/>
    <rect width="160.561" height="52.5683" transform="matrix(-0.865715 0.500538 2.1999e-08 1 274 2.26196)" fill="white"/>
    <path d="M155.333 92.2559C155.23 91.9008 155.085 91.6182 154.898 91.4081C154.711 91.1923 154.482 91.0518 154.212 90.9867C153.946 90.913 153.641 90.916 153.297 90.9958C152.957 91.0727 152.581 91.2306 152.168 91.4695C151.395 91.916 150.717 92.53 150.131 93.3116C149.551 94.0904 149.098 94.9969 148.774 96.0312C148.449 97.0598 148.287 98.1821 148.287 99.398C148.287 100.614 148.447 101.556 148.766 102.223C149.086 102.89 149.539 103.279 150.124 103.39C150.709 103.495 151.4 103.317 152.197 102.856C152.92 102.438 153.538 101.933 154.049 101.342C154.566 100.742 154.959 100.091 155.23 99.3894C155.505 98.6847 155.643 97.9602 155.643 97.2159L156.292 96.9513L152.396 99.2037L152.396 96.4253L158.72 92.7694L158.72 94.9682C158.72 96.5023 158.439 97.9826 157.878 99.4091C157.318 100.83 156.545 102.123 155.562 103.288C154.578 104.448 153.452 105.395 152.182 106.129C150.766 106.948 149.521 107.306 148.449 107.205C147.377 107.097 146.541 106.55 145.94 105.561C145.345 104.565 145.048 103.146 145.048 101.305C145.048 99.8901 145.225 98.5263 145.579 97.2136C145.938 95.8924 146.44 94.6591 147.084 93.5138C147.728 92.3685 148.479 91.3468 149.334 90.4485C150.19 89.5502 151.118 88.8125 152.116 88.2351C152.972 87.7403 153.769 87.4244 154.507 87.2876C155.244 87.1451 155.899 87.1703 156.469 87.3631C157.045 87.5531 157.514 87.9037 157.878 88.4148C158.242 88.9202 158.476 89.5749 158.579 90.3788L155.333 92.2559ZM175.005 83.967C175.005 85.8704 174.693 87.6703 174.068 89.3667C173.448 91.0603 172.602 92.5694 171.53 93.8939C170.463 95.2099 169.263 96.2532 167.93 97.024C166.587 97.8004 165.382 98.1449 164.314 98.0575C163.247 97.97 162.403 97.4379 161.783 96.461C161.164 95.4841 160.854 94.0468 160.854 92.1491C160.854 90.2457 161.164 88.4472 161.783 86.7536C162.403 85.0601 163.247 83.5553 164.314 82.2393C165.382 80.9176 166.587 79.8685 167.93 79.0921C169.263 78.3214 170.463 77.9798 171.53 78.0672C172.602 78.1461 173.448 78.6739 174.068 79.6508C174.693 80.6249 175.005 82.0636 175.005 83.967ZM171.766 85.8398C171.766 84.6068 171.606 83.6595 171.287 82.9977C170.972 82.3332 170.527 81.9485 169.951 81.8437C169.376 81.739 168.702 81.9098 167.93 82.3563C167.157 82.8028 166.483 83.4112 165.908 84.1815C165.332 84.9517 164.885 85.8526 164.565 86.884C164.25 87.9126 164.093 89.0434 164.093 90.2763C164.093 91.5093 164.25 92.4581 164.565 93.1226C164.885 93.7844 165.332 94.1676 165.908 94.2724C166.483 94.3771 167.157 94.2063 167.93 93.7598C168.702 93.3133 169.376 92.7049 169.951 91.9346C170.527 91.1644 170.972 90.265 171.287 89.2364C171.606 88.2049 171.766 87.0727 171.766 85.8398ZM191.258 74.5702C191.258 76.4736 190.945 78.2735 190.321 79.9699C189.701 81.6635 188.855 83.1725 187.783 84.4971C186.715 85.8131 185.515 86.8564 184.182 87.6272C182.839 88.4036 181.634 88.7481 180.567 88.6606C179.499 88.5732 178.656 88.0411 178.036 87.0642C177.416 86.0873 177.106 84.65 177.106 82.7523C177.106 80.8489 177.416 79.0504 178.036 77.3568C178.656 75.6633 179.499 74.1585 180.567 72.8425C181.634 71.5208 182.839 70.4717 184.182 69.6953C185.515 68.9246 186.715 68.583 187.783 68.6704C188.855 68.7492 189.701 69.2771 190.321 70.254C190.945 71.2281 191.258 72.6668 191.258 74.5702ZM188.019 76.4429C188.019 75.21 187.859 74.2627 187.539 73.6009C187.224 72.9363 186.779 72.5517 186.204 72.4469C185.628 72.3422 184.954 72.513 184.182 72.9595C183.41 73.406 182.736 74.0144 182.16 74.7847C181.585 75.5549 181.137 76.4557 180.817 77.4872C180.503 78.5158 180.345 79.6466 180.345 80.8795C180.345 82.1125 180.503 83.0613 180.817 83.7258C181.137 84.3876 181.585 84.7708 182.16 84.8756C182.736 84.9803 183.41 84.8094 184.182 84.3629C184.954 83.9164 185.628 83.3081 186.204 82.5378C186.779 81.7676 187.224 80.8682 187.539 79.8396C187.859 78.8081 188.019 77.6759 188.019 76.4429ZM198.981 78.8321L193.624 81.9292L193.624 64.4746L199.025 61.352C200.545 60.4732 201.853 60.0661 202.95 60.1308C204.047 60.1897 204.891 60.6992 205.481 61.659C206.076 62.616 206.374 64.0008 206.374 65.8133C206.374 67.6315 206.076 69.366 205.481 71.017C204.891 72.6651 204.042 74.1585 202.936 75.4973C201.834 76.8332 200.516 77.9448 198.981 78.8321ZM196.819 76.9201L198.848 75.747C199.792 75.2009 200.587 74.5484 201.231 73.7895C201.881 73.0221 202.368 72.1354 202.692 71.1295C203.022 70.1151 203.186 68.9573 203.186 67.6562C203.186 66.3664 203.022 65.4077 202.692 64.7801C202.368 64.1496 201.883 63.8275 201.239 63.8136C200.594 63.7998 199.8 64.066 198.855 64.612L196.819 65.7894L196.819 76.9201ZM219.599 49.4564L222.757 47.6305L222.757 59.801C222.757 60.926 222.538 62.0298 222.101 63.1125C221.668 64.1923 221.065 65.1799 220.293 66.0753C219.521 66.9706 218.623 67.7141 217.6 68.3056C216.69 68.8318 215.864 69.1249 215.121 69.185C214.383 69.2366 213.798 69.0068 213.365 68.4958C212.932 67.979 212.718 67.1396 212.723 65.9777L215.903 64.1391C215.913 64.5936 215.994 64.9416 216.146 65.1829C216.304 65.4158 216.518 65.5421 216.788 65.5618C217.064 65.573 217.388 65.4705 217.762 65.2544C218.156 65.0269 218.488 64.7383 218.758 64.3887C219.034 64.0306 219.243 63.6199 219.385 63.1568C219.528 62.6936 219.599 62.1836 219.599 61.6268L219.599 49.4564ZM239.285 46.8021C239.285 48.7055 238.972 50.5054 238.348 52.2018C237.728 53.8954 236.882 55.4044 235.809 56.729C234.742 58.045 233.542 59.0883 232.209 59.8591C230.866 60.6355 229.661 60.98 228.593 60.8925C227.526 60.8051 226.683 60.273 226.063 59.2961C225.443 58.3192 225.133 56.8819 225.133 54.9842C225.133 53.0808 225.443 51.2823 226.063 49.5887C226.683 47.8952 227.526 46.3904 228.593 45.0744C229.661 43.7527 230.866 42.7036 232.209 41.9272C233.542 41.1565 234.742 40.8149 235.809 40.9023C236.882 40.9811 237.728 41.509 238.348 42.4859C238.972 43.46 239.285 44.8987 239.285 46.8021ZM236.046 48.6748C236.046 47.4419 235.886 46.4946 235.566 45.8328C235.251 45.1682 234.806 44.7836 234.23 44.6788C233.655 44.5741 232.981 44.7449 232.209 45.1914C231.437 45.6379 230.763 46.2463 230.187 47.0166C229.612 47.7868 229.164 48.6876 228.844 49.7191C228.53 50.7477 228.372 51.8785 228.372 53.1114C228.372 54.3444 228.53 55.2932 228.844 55.9577C229.164 56.6195 229.612 57.0027 230.187 57.1075C230.763 57.2122 231.437 57.0413 232.209 56.5948C232.981 56.1483 233.655 55.54 234.23 54.7697C234.806 53.9995 235.251 53.1001 235.566 52.0715C235.886 51.04 236.046 49.9078 236.046 48.6748ZM241.651 54.1611L241.651 36.7065L247.701 33.2085C248.813 32.5657 249.74 32.22 250.483 32.1712C251.226 32.1225 251.784 32.3281 252.158 32.7881C252.532 33.2424 252.719 33.907 252.719 34.782C252.719 35.4639 252.6 36.1315 252.364 36.7851C252.128 37.433 251.804 38.0411 251.39 38.6096C250.982 39.1695 250.515 39.6698 249.989 40.1104L249.989 40.2809C250.564 39.9766 251.103 39.8526 251.604 39.9092C252.111 39.9628 252.522 40.2111 252.837 40.6541C253.151 41.0914 253.309 41.7391 253.309 42.597C253.309 43.5232 253.11 44.465 252.711 45.4227C252.318 46.3718 251.735 47.2798 250.963 48.1468C250.19 49.0137 249.238 49.7743 248.107 50.4284L241.651 54.1611ZM244.846 49.2969L247.45 47.791C248.341 47.2762 248.99 46.7048 249.398 46.0767C249.807 45.4429 250.011 44.7965 250.011 44.1374C250.011 43.6545 249.91 43.2866 249.708 43.0339C249.507 42.7812 249.219 42.6578 248.845 42.6637C248.476 42.6668 248.036 42.8162 247.524 43.112L244.846 44.6605L244.846 49.2969ZM244.846 42.1633L247.214 40.794C247.652 40.5409 248.041 40.2281 248.38 39.8558C248.724 39.4749 248.995 39.0628 249.192 38.6195C249.393 38.1733 249.494 37.7201 249.494 37.2599C249.494 36.6292 249.3 36.233 248.911 36.0713C248.528 35.9068 247.982 36.0293 247.273 36.4388L244.846 37.8423L244.846 42.1633ZM259.084 26.6272L258.796 39.0151L256.096 40.5765L255.801 28.5255L259.084 26.6272ZM257.446 45.2503C256.959 45.5319 256.541 45.5748 256.192 45.379C255.843 45.1775 255.67 44.7941 255.675 44.2287C255.67 43.6747 255.843 43.0979 256.192 42.4983C256.541 41.8986 256.959 41.458 257.446 41.1765C257.913 40.9063 258.324 40.8677 258.678 41.0607C259.032 41.2536 259.212 41.6271 259.217 42.1811C259.212 42.5589 259.126 42.9524 258.959 43.3616C258.796 43.7623 258.582 44.1332 258.317 44.4742C258.051 44.8096 257.761 45.0683 257.446 45.2503Z" fill="black"/>
    <defs>
        <linearGradient id="paint0_linear_546_1419578" x1="61.0964" y1="173.673" x2="69.816" y2="173.673" gradientUnits="userSpaceOnUse">
            <stop stop-color="#C0C0C0"/>
            <stop offset="1" stop-color="#9E9E9E"/>
        </linearGradient>
        <linearGradient id="paint1_linear_546_1419578" x1="60.8298" y1="171.753" x2="70.0871" y2="171.753" gradientUnits="userSpaceOnUse">
            <stop stop-color="#D8D8D8"/>
            <stop offset="1" stop-color="#BFBFBF"/>
        </linearGradient>
        <linearGradient id="paint2_linear_546_1419578" x1="61.3042" y1="165.826" x2="67.399" y2="165.826" gradientUnits="userSpaceOnUse">
            <stop stop-color="#D8D8D8"/>
            <stop offset="1" stop-color="#BFBFBF"/>
        </linearGradient>
        <linearGradient id="paint3_linear_546_1419578" x1="32.2086" y1="180.872" x2="40.9282" y2="180.872" gradientUnits="userSpaceOnUse">
            <stop stop-color="#C0C0C0"/>
            <stop offset="1" stop-color="#9E9E9E"/>
        </linearGradient>
        <linearGradient id="paint4_linear_546_1419578" x1="41.1084" y1="178.046" x2="41.1134" y2="178.046" gradientUnits="userSpaceOnUse">
            <stop stop-color="#CBCBCB"/>
            <stop offset="1" stop-color="#A9A9A9"/>
        </linearGradient>
        <linearGradient id="paint5_linear_546_1419578" x1="31.942" y1="178.957" x2="41.1993" y2="178.957" gradientUnits="userSpaceOnUse">
            <stop stop-color="#D8D8D8"/>
            <stop offset="1" stop-color="#BFBFBF"/>
        </linearGradient>
        <linearGradient id="paint6_linear_546_1419578" x1="34.6302" y1="173.627" x2="38.5066" y2="173.627" gradientUnits="userSpaceOnUse">
            <stop stop-color="#E3E3E3"/>
            <stop offset="1" stop-color="#CACACA"/>
        </linearGradient>
        <linearGradient id="paint7_linear_546_1419578" x1="82.1771" y1="124.257" x2="86.4139" y2="116.986" gradientUnits="userSpaceOnUse">
            <stop stop-color="#D9D9D9"/>
            <stop offset="1" stop-color="#C9C9C9"/>
        </linearGradient>
        <linearGradient id="paint8_linear_546_1419578" x1="81.4768" y1="123.067" x2="81.2618" y2="123.379" gradientUnits="userSpaceOnUse">
            <stop stop-color="#D9D9D9"/>
            <stop offset="1" stop-color="#C9C9C9"/>
        </linearGradient>
        <linearGradient id="paint9_linear_546_1419578" x1="37.9735" y1="190.562" x2="92.4793" y2="97.0128" gradientUnits="userSpaceOnUse">
            <stop stop-color="#D9D9D9"/>
            <stop offset="0.49" stop-color="#DCDCDC"/>
            <stop offset="0.88" stop-color="#E6E6E6"/>
            <stop offset="1" stop-color="#EBEBEB"/>
        </linearGradient>
        <linearGradient id="paint10_linear_546_1419578" x1="37.9735" y1="190.562" x2="92.4793" y2="97.0128" gradientUnits="userSpaceOnUse">
            <stop stop-color="#D9D9D9"/>
            <stop offset="0.49" stop-color="#DCDCDC"/>
            <stop offset="0.88" stop-color="#E6E6E6"/>
            <stop offset="1" stop-color="#EBEBEB"/>
        </linearGradient>
        <linearGradient id="paint11_linear_546_1419578" x1="19.4498" y1="172.98" x2="35.3214" y2="172.98" gradientUnits="userSpaceOnUse">
            <stop stop-color="#EBEBEB"/>
            <stop offset="0.38" stop-color="#E2E2E2"/>
            <stop offset="1" stop-color="#D9D9D9"/>
        </linearGradient>
        <linearGradient id="paint12_linear_546_1419578" x1="63.8252" y1="142.855" x2="76.0403" y2="127.895" gradientUnits="userSpaceOnUse">
            <stop stop-color="#C9C9C9"/>
            <stop offset="1" stop-color="#D9D9D9"/>
        </linearGradient>
        <radialGradient id="paint13_radial_546_1419578" cx="0" cy="0" r="1" gradientUnits="userSpaceOnUse" gradientTransform="translate(21.6139 178.46) scale(3.57822 3.61115)">
            <stop stop-color="#E0E2E5"/>
            <stop offset="1" stop-color="#C1C3C9"/>
        </radialGradient>
        <linearGradient id="paint14_linear_546_1419578" x1="62.4382" y1="168.657" x2="62.59" y2="169.71" gradientUnits="userSpaceOnUse">
            <stop stop-color="#E3E3E3"/>
            <stop offset="1" stop-color="#B0B0B0"/>
        </linearGradient>
        <linearGradient id="paint15_linear_546_1419578" x1="26.5747" y1="148.978" x2="27.2413" y2="148.641" gradientUnits="userSpaceOnUse">
            <stop stop-color="#B0B0B0"/>
            <stop offset="1" stop-color="#E3E3E3"/>
        </linearGradient>
        <linearGradient id="paint16_linear_546_1419578" x1="44.2941" y1="151.245" x2="51.2929" y2="139.226" gradientUnits="userSpaceOnUse">
            <stop stop-color="#E3E3E3"/>
            <stop offset="1" stop-color="#CACACA"/>
        </linearGradient>
        <linearGradient id="paint17_linear_546_1419578" x1="40.7384" y1="151.436" x2="41.8515" y2="149.525" gradientUnits="userSpaceOnUse">
            <stop stop-color="#CACACA"/>
            <stop offset="1" stop-color="#E3E3E3"/>
        </linearGradient>
        <linearGradient id="paint18_linear_546_1419578" x1="88.6108" y1="170.477" x2="89.078" y2="171.28" gradientUnits="userSpaceOnUse">
            <stop stop-color="#E3E3E3"/>
            <stop offset="1" stop-color="#CACACA"/>
        </linearGradient>
        <linearGradient id="paint19_linear_546_1419578" x1="103.493" y1="136.764" x2="107.73" y2="129.497" gradientUnits="userSpaceOnUse">
            <stop stop-color="#D9D9D9"/>
            <stop offset="1" stop-color="#C9C9C9"/>
        </linearGradient>
        <linearGradient id="paint20_linear_546_1419578" x1="99.4854" y1="133.585" x2="99.2653" y2="134.031" gradientUnits="userSpaceOnUse">
            <stop stop-color="#D9D9D9"/>
            <stop offset="1" stop-color="#C9C9C9"/>
        </linearGradient>
        <linearGradient id="paint21_linear_546_1419578" x1="114.779" y1="137.671" x2="114.811" y2="138.177" gradientUnits="userSpaceOnUse">
            <stop stop-color="#D9D9D9"/>
            <stop offset="0.46" stop-color="#CFCFCF"/>
            <stop offset="1" stop-color="#C9C9C9"/>
        </linearGradient>
    </defs>
</svg>
