<svg width="70" height="88" viewBox="0 0 70 88" fill="none" xmlns="http://www.w3.org/2000/svg">
<g clip-path="url(#clip0_231_72954)">
<path d="M30.625 77.1614V82.8388L32.1691 88.0001V82.3227L30.625 77.1614Z" fill="#001D24"/>
<path d="M32.6832 76.6453H31.6538V76.9033H32.6832V76.6453Z" fill="#307178"/>
<path d="M37.3169 76.1289L32.9419 76.645V76.9031L37.3169 76.387V76.1289Z" fill="#307178"/>
<path d="M39.375 80.7743L39.1176 81.2904L32.9412 81.8065L32.4265 81.2904L31.1397 77.6775V77.1614H31.3971V76.6453L30.8824 76.9033L30.625 77.1614L32.1691 82.3227L39.6324 81.5485V80.7743L39.1176 78.9678V80.2582L39.375 80.7743Z" fill="#307178"/>
<path d="M37.5741 76.1289V76.645L38.8609 79.4837L38.6035 78.1934L37.8314 76.1289H37.5741Z" fill="#307178"/>
<path d="M37.5742 76.6453L37.3169 76.9033V76.3872L32.9419 76.9033V77.4195L37.3169 76.9033L38.861 80.7743L37.0595 81.0324L32.9419 81.5485H32.6845V81.0324L31.6551 77.4195H32.6845V76.9033H31.6551V77.4195L31.3977 77.1614H31.1404V77.6775L32.4271 81.2904L32.9419 81.8066L39.1183 81.2904L39.3757 80.7743L39.1183 80.2582V80.5162H38.861V79.484L37.5742 76.6453Z" fill="#A1A1A1"/>
<path d="M38.8603 80.774L37.3162 76.9031L37.0588 81.0321L38.8603 80.774Z" fill="#001D24"/>
<path d="M32.6844 76.9033V77.4195V78.1937V81.0324V81.5485H32.9418V78.4517V77.4195V76.9033V76.6453V75.8711H32.6844V76.6453V76.9033Z" fill="#3D3D3D"/>
<path d="M38.6029 78.1934L38.8603 79.4838V80.516H39.1176V80.258V78.9676L38.8603 75.3547H38.6029V78.1934Z" fill="#3D3D3D"/>
<path d="M37.574 75.3549V71.7419H37.3167V75.3549H37.574Z" fill="#3D3D3D"/>
<path d="M37.3167 76.387V76.9031L37.574 76.6451V76.1289V75.6128H37.3167V76.1289V76.387Z" fill="#3D3D3D"/>
<path d="M31.3964 77.1613L31.6537 77.4193V76.9032V76.6452L31.9111 73.0322L31.6537 72.2581L31.3964 76.6452V77.1613Z" fill="#3D3D3D"/>
<path d="M35.258 69.4192V69.1611H35.0007H34.486L34.7433 69.4192H35.258Z" fill="#307178"/>
<path d="M34.2285 71.7419L34.4859 72V71.7419H34.2285Z" fill="#003948"/>
<path d="M34.7428 69.4192L34.4854 69.1611H34.2281V70.7095L33.9707 70.9676L34.2281 71.4837H34.4854L34.7428 69.4192Z" fill="#003948"/>
<path d="M35.2573 70.4515L35.5147 70.1934V70.4515V69.4192V69.1611H35.2573V69.4192V70.4515Z" fill="#003948"/>
<path d="M34.486 71.7419V72L34.7433 71.7419H34.486Z" fill="#33616D"/>
<path d="M35.258 70.4517V69.4194H34.7433L34.486 71.4839H34.7433V70.7098L35.0007 70.4517H35.258Z" fill="#33616D"/>
<path d="M36.03 71.7417H36.2874V71.2256H36.03V71.7417Z" fill="#797979"/>
<path d="M38.6023 74.8385L38.8597 74.3224L38.345 72.774V73.032L38.0876 72.774L38.345 72.2578L38.0876 71.7417L37.8303 71.4837H37.5729H37.3156V71.2256H36.8009L36.5435 71.7417L37.0582 71.4837L37.3156 71.7417H37.5729L37.8303 71.9998L38.6023 75.0966H38.345L37.5729 75.3546H37.3156H36.0288V75.6127H35.7715V75.3546H34.4847V75.6127H33.97H32.9406L31.9112 72.2578L32.1685 71.9998L33.7126 71.7417V71.4837L32.9406 71.7417H32.6832H31.9112V71.9998L31.6538 72.2578V71.9998V72.2578L31.9112 73.032L32.6832 75.8708H32.9406L37.3156 75.6127H37.5729H38.345L38.6023 75.3546H38.8597L39.117 75.0966V74.8385H38.8597H38.6023Z" fill="#797979"/>
<path d="M34.7432 71.742V71.4839H34.4859H34.2285V71.742H34.4859H34.7432Z" fill="#797979"/>
<path d="M35.2566 70.4517H34.9993L34.7419 70.7097L35.2566 70.9678H35.7714V70.7097V70.4517H35.514V70.1936L35.2566 70.4517Z" fill="#307178"/>
<path d="M34.7433 70.7097V71.4839V71.742L34.486 72V72.2581V73.0323L35.0007 73.5484L35.258 70.9678L34.7433 70.7097Z" fill="#003948"/>
<path d="M36.0299 70.9678L35.7726 70.7097V70.9678V73.5484L36.0299 73.2904V72.2581V71.742V71.2258V70.9678Z" fill="#003948"/>
<path d="M35.2571 70.9678L34.9998 73.5484H35.5145H35.7718V70.9678H35.2571Z" fill="#33616D"/>
<path d="M31.9118 71.9999V71.7418L30.8824 68.387H30.625L31.6544 71.9999V72.2579L31.9118 71.9999Z" fill="#3D3D3D"/>
<path d="M32.1691 68.6453L32.6838 71.742H32.9411L32.4264 68.9033L32.1691 68.6453Z" fill="#3D3D3D"/>
<path d="M34.2278 71.4837L33.9705 70.9676V69.1611H33.7131V71.4837V71.7418L33.9705 75.6127H34.4852V75.3547L34.2278 71.7418V71.4837Z" fill="#3D3D3D"/>
<path d="M36.802 69.1611L36.2873 71.2256V71.7418L35.7726 75.3547V75.6127H36.0299V75.3547L36.5446 71.7418L36.802 71.2256L37.0593 69.1611H36.802Z" fill="#3D3D3D"/>
<path d="M37.8314 69.1611L37.3167 71.2257V71.4837H37.574L38.3461 68.9031L37.8314 69.1611Z" fill="#3D3D3D"/>
<path d="M38.345 72.2579L38.0876 72.7741L38.345 73.0321V72.7741L39.6318 68.387L39.3744 68.645L38.345 72.2579Z" fill="#3D3D3D"/>
<path d="M41.1764 67.8709L38.8603 74.3225L38.6029 74.8386H38.8603H39.1176L41.4338 67.3547L41.1764 67.6128V67.8709Z" fill="#3D3D3D"/>
<path d="M32.1691 88.0002H32.4264H32.6838L39.3749 87.4841L39.6323 87.226V81.5486L32.1691 82.3228V88.0002Z" fill="#00586F"/>
<path d="M32.6832 81.0323V78.1936L31.6538 77.4194L32.6832 81.0323Z" fill="#002B36"/>
<path d="M31.6538 77.4194L32.6832 78.1936V77.4194H31.6538Z" fill="#003948"/>
<path d="M32.9419 78.4514V81.5482L37.0595 81.0321L32.9419 78.4514Z" fill="#002B36"/>
<path d="M37.3169 76.9031L32.9419 77.4192V78.4515L37.0595 81.0321L37.3169 76.9031Z" fill="#003948"/>
<path d="M33.9705 69.161H34.9999V65.032V23.4836L35.5146 17.032C34.2279 17.032 32.9411 17.032 31.9117 16.7739L30.1102 21.6772L29.0808 25.2901L28.3088 28.3868L26.5073 36.6449V38.1933L25.7352 46.1933V52.3868L27.2793 60.1288L28.8235 63.2255L30.6249 65.8062L32.6838 68.903H33.9705V69.161Z" fill="#26FF22"/>
<path d="M38.8603 19.3551L40.1471 23.7422L40.9191 26.0648L43.2353 37.4196L44.0074 45.4196V51.6131L43.2353 57.0325L41.6912 62.7099L39.1177 65.8067L38.603 66.3228L37.0588 69.4196H38.0882L39.1177 68.9035L40.9191 66.3228L44.0074 64.0002L46.5809 61.6777L48.6397 58.3228L50.6985 53.4196L51.4706 51.6131V41.0325L50.9559 40.0002L49.1544 33.2906L47.8677 29.6777L45.0368 24.0002L44.0074 21.9357L42.978 20.1293L41.4338 17.8067L40.4044 16.2583C40.4044 16.2583 38.603 16.7744 37.5735 17.0325L38.3456 19.6131L38.8603 19.3551Z" fill="#60A40B"/>
<path d="M64.8521 36.9031V36.3869L62.536 29.6773L58.933 23.4837L53.5286 18.3224L50.6977 16.2579L46.0654 13.1611C46.0654 13.1611 44.7786 14.1934 44.2639 14.7095L46.0654 16.2579L49.1536 19.0966L51.9845 22.9676L53.786 25.2902L56.6169 29.9353V30.7095L58.6757 35.3547L59.9624 42.5805V44.9031L59.4477 48.2579L57.3889 53.1611L54.0433 57.0321L53.2713 57.5482L47.8669 62.4515L50.4404 61.1611L56.3595 56.2579L59.9624 52.3869L63.5654 46.7095L64.8521 40.2579V36.645V36.9031Z" fill="#60A40B"/>
<path d="M66.9123 29.1614L66.1402 26.8389L62.5373 21.1614L57.3902 17.0324L54.8167 14.9679L51.4711 13.4195L47.0961 11.355C47.0961 11.355 46.3241 12.6453 45.552 13.4195L50.1844 16.5163L53.0152 18.5808L58.4197 23.7421L62.0226 29.9356L64.3388 36.6453V37.1614L64.8535 40.7743L63.5667 47.226L66.1402 44.6453L68.1991 39.7421V34.0647L66.6549 29.4195L66.9123 29.1614Z" fill="#26FF22"/>
<path d="M57.133 9.80645L50.6992 8H47.3536C47.3536 8 47.3536 9.03226 47.3536 9.29032V9.80645L49.1551 10.3226L55.3316 12.129L57.133 12.9032L59.9639 14.4516L65.6257 19.3548L68.1992 24.7742L68.7139 26.3226V24.7742L67.6845 20.9032L64.8536 14.9677L64.0816 14.4516L62.2801 12.9032L56.8757 9.80645H57.133Z" fill="#60A40B"/>
<path d="M53.7867 6.45143L48.897 5.9353H46.5808C46.5808 5.9353 47.3529 7.48369 47.6102 7.99982H50.9558L57.3896 9.80627L62.794 12.903L64.5955 14.4514V13.6772L62.022 10.8385L58.6764 8.25788H58.1617L55.5882 6.96756L53.7867 6.19337V6.45143Z" fill="#26FF22"/>
<path d="M44.5219 4.12922H45.294L49.9263 3.61309H50.441L49.1543 2.8389L45.8087 1.80664H43.7499L41.691 2.8389C41.691 2.8389 43.4925 3.61309 44.2646 4.12922H44.5219Z" fill="#60A40B"/>
<path d="M41.6912 2.83869L43.75 1.80643L42.978 1.2903L40.6618 0.77417H37.5735V1.2903L37.0588 2.06449C38.8603 2.06449 40.4044 2.58062 41.6912 3.09675V2.83869Z" fill="#26FF22"/>
<path d="M28.3082 3.09675C28.3082 3.09675 30.8817 2.06449 32.4259 1.80643L31.9111 0.77417H26.2494L25.22 1.80643L27.5361 2.58062L28.5656 3.09675H28.3082Z" fill="#60A40B"/>
<path d="M22.905 3.35479H23.4197L26.2506 4.12898C26.2506 4.12898 27.5373 3.09673 28.5667 2.83866L27.5373 2.32253L25.2211 1.54834H21.6182L18.0153 3.61286H21.1035L23.1623 3.09673L22.905 3.35479Z" fill="#26FF22"/>
<path d="M9.0072 11.6127L11.3234 10.3224L12.3528 9.80627L16.2131 8.51595L20.3307 7.74175H23.419C23.419 7.74175 23.9337 6.45143 24.4484 5.9353H15.441L11.3234 7.99982L10.0366 9.03208L8.4925 10.3224L6.17632 12.903L4.6322 15.7418L6.69103 13.4192L9.26456 11.6127H9.0072Z" fill="#60A40B"/>
<path d="M1.80156 22.4516L3.86039 19.6129L4.37509 18.8387L5.4045 17.5484L8.23539 14.9678L12.6104 12.9032H13.1251L15.6986 11.0968L17.2427 10.5807L23.1619 9.03228C23.1619 9.03228 23.1619 7.74196 23.4192 7.22583H20.331L16.2133 8.00002L12.353 9.29035L11.3236 9.80648L9.00745 11.0968L6.43392 12.9032L4.37509 15.2258L2.05892 19.3549L0.772152 22.7097L0.257446 27.6129L1.02951 25.2903L2.05892 22.1936L1.80156 22.4516Z" fill="#26FF22"/>
<path d="M7.20593 48.258L6.69122 46.9676L5.66181 44.9031L5.1471 43.3547V39.7418L4.6324 38.9676L5.40445 35.0967L6.17651 32.7741V31.7418L9.0074 27.0967L12.8677 22.1934L15.6986 19.6128L18.2721 17.5483H18.7868V17.0321H19.5589L23.6765 14.1934L25.2206 13.4192C25.2206 13.4192 24.4486 12.1289 24.1912 11.6128L20.3309 13.1612L18.5295 14.1934L15.9559 15.4838L12.8677 17.2902L12.0956 18.0644L10.0368 19.8709H9.26475L8.75004 20.387L7.72063 21.4192L5.66181 23.9999H5.40445L3.34563 28.6451V29.4192L1.80151 33.0321V38.9676V39.4838L3.08828 42.5805L3.86034 43.8709L4.37504 45.1612L5.91916 47.7418L7.72063 50.3225L10.5515 53.6773L9.0074 51.8709L7.46328 49.5483L7.20593 48.258Z" fill="#60A40B"/>
<path d="M16.2125 57.8063L13.8964 54.7095L11.5802 50.3224L10.5508 47.9998V39.9998L12.0949 35.0966L13.3816 30.9676L14.9258 28.3869L16.2125 26.0644L20.3302 20.645L24.1905 16.516L24.7052 15.9998L25.9919 14.7095C25.9919 14.7095 24.7052 13.6773 24.4478 13.1611L22.9037 13.9353L18.7861 16.516H18.2714V17.0321H17.4993L14.9258 19.3547L12.3522 21.6773H12.0949L8.23459 26.8386L5.91841 31.4837V32.516H5.66106L4.889 34.8386L4.11694 38.7095V39.4837V43.0966L5.14636 44.645L6.17577 46.7095L6.69047 47.9998L8.23459 50.3224L9.77871 52.1289L11.3228 54.1934L12.6096 55.4837L14.9258 57.8063L20.8449 61.6773L18.014 59.6127L15.9552 57.5482L16.2125 57.8063Z" fill="#26FF22"/>
<path d="M35.2571 32.2583V64.7744H34.9998V69.1615H37.3159L38.86 66.0647L41.6909 62.1938L43.235 56.7744L43.7498 51.097L44.2645 47.7422V44.9035L43.235 37.1615L40.9189 25.5486L40.1468 23.226L38.86 18.8389L38.088 16.2583C38.088 16.2583 36.2865 16.2583 35.2571 16.2583V31.4841V32.2583Z" fill="#015805"/>
<path d="M53.7861 57.0325L57.1317 53.1616L59.1905 48.2583V44.9035L59.7052 42.5809L58.4185 35.3551L56.617 30.71V29.9358L53.2714 25.2906L51.47 22.968L48.6391 19.0971L45.5508 16.2583L43.7494 14.71C43.7494 14.71 41.9479 15.4842 40.9185 16.0003L41.9479 17.5487L43.492 19.8713L44.5214 21.6777L45.5508 23.7422L48.3817 29.4196L49.6685 33.0325L51.47 39.7422V40.7745L52.242 45.9358V51.3551L51.2126 53.1616L49.1538 58.0648L47.095 60.9035L44.5214 63.4842L41.4332 65.8067L39.6317 68.3874H39.8891L41.4332 67.3551H41.9479L43.7494 65.5487L45.0361 64.5164L48.1244 62.1938L53.5288 57.0325L54.3008 56.5164L53.7861 57.0325Z" fill="#015805"/>
<path d="M68.9712 26.3228L68.4565 24.7744L65.883 19.355L60.2212 14.4518L57.3903 12.9034L55.5888 12.1292L49.4124 10.3228L47.6109 9.80664C47.6109 9.80664 47.6109 10.8389 47.0962 11.355L51.4712 13.4195L54.8168 14.9679L57.3903 17.0324L62.5374 21.1615L66.1403 26.8389L66.9124 29.1615L68.4565 33.8066V39.4841L69.7433 36.1292V30.1937L68.9712 26.3228Z" fill="#015805"/>
<path d="M45.2935 3.87086H44.5215C44.5215 3.87086 46.0656 5.41924 46.5803 6.19344H48.8965L53.7862 6.70957L58.4185 8.51602V7.74183L55.845 5.93537L52.4994 4.12892H50.9553L50.4406 3.61279H45.8082L45.2935 3.87086Z" fill="#015805"/>
<path d="M32.4263 1.8062C32.4263 1.8062 34.4852 1.8062 35.5146 1.8062C36.0293 1.8062 36.544 1.8062 37.0587 1.8062L37.5734 1.03201L36.544 0.257812H32.941L31.9116 0.773941L32.4263 1.8062Z" fill="#015805"/>
<path d="M15.956 6.19369L19.5589 5.67756H24.4486C24.4486 5.67756 25.478 4.6453 26.2501 4.12917L23.4192 3.35498H17.7574L14.9265 4.90337L12.353 6.70982L11.3236 7.74208L15.4413 6.19369H15.956Z" fill="#015805"/>
<path d="M1.28676 35.097V32.0002L2.83088 28.3873V27.8712L5.14706 23.4841H5.40441L7.46324 20.6454L8.75 19.6131L9.26471 19.097L11.3235 17.2905L12.0956 16.5163L15.1838 14.7099L17.7574 13.4196L19.5588 12.3873L23.4191 10.8389C23.4191 10.8389 23.1618 9.5486 23.1618 9.03247L17.2426 10.5809L15.6985 11.097L13.125 12.3873H12.6103L8.23529 14.968L5.40441 17.5486L4.375 18.8389L3.86029 19.3551L1.80147 22.4518L0.772059 25.5486L0 27.8712V29.4196H0V34.3228L1.02941 37.9357V35.097H1.28676Z" fill="#015805"/>
<path d="M28.0508 65.5484L26.764 64.5162L22.6464 61.1613L18.2714 52.6452L17.7567 48.7742L18.2714 41.5484L18.7861 39.4839V38.4516L19.5581 36.6452L20.5875 32.5162L24.1905 24L26.2493 20.6452L28.3081 17.2904L29.0802 16.2581C29.0802 16.2581 27.2787 15.4839 26.5067 14.9678L25.2199 16.2581L24.7052 16.7742L20.8449 20.6452H20.5875L16.4699 26.3226L15.1831 28.6452L13.639 31.2258L12.3523 35.3549L10.8081 40.2581V44.6452H10.5508V48.2581L11.8375 50.5807L14.1537 54.9678L16.4699 58.0645L18.5287 60.1291H18.7861L21.3596 62.1936L25.4773 65.2904L28.3081 67.0968L30.8817 68.6452L29.8523 67.6129L28.3081 65.8065L28.0508 65.5484Z" fill="#015805"/>
<path d="M32.1691 68.6452H32.6838L30.625 65.5484L28.8235 62.9677L27.2794 59.871L25.7353 52.129V45.9355L26.25 37.9355V36.3871L28.0514 28.129L28.8235 25.0323L29.8529 21.4194L31.6544 16.5161C31.6544 16.5161 29.8529 16 29.0809 15.7419L28.3088 16.7742L26.25 20.129L24.1911 23.4839L20.5882 32L19.5588 36.129L19.0441 37.9355V38.9677L18.272 41.0323L17.7573 48.2581L18.272 52.129L22.647 60.6452L28.0514 65.0323L29.5956 66.8387L30.625 67.871H32.1691V68.6452Z" fill="#60A40B"/>
<path d="M47.611 8.00019C47.611 8.00019 47.0963 6.70987 46.5816 5.93567C46.0669 5.16148 45.2948 4.64535 44.5228 4.12922C43.7507 3.61309 42.7213 3.09696 41.9492 2.8389C40.4051 2.32277 38.861 1.80664 37.3169 1.80664C36.8022 1.80664 36.2875 1.80664 35.7728 1.80664C34.7434 1.80664 33.7139 1.80664 32.6845 1.80664C31.1404 1.80664 29.8537 2.58083 28.5669 3.09696C28.5669 3.09696 27.0228 3.87116 26.2507 4.38729C25.4787 4.90341 24.9639 5.41954 24.4492 5.93567C23.9345 6.4518 23.6772 6.96793 23.4198 7.74212C23.4198 7.74212 23.1625 8.77438 23.1625 9.54858C23.1625 9.54858 23.1625 10.8389 23.4198 11.355C23.4198 11.8712 23.9345 12.6453 24.4492 13.1615C24.9639 13.6776 25.4787 14.1937 25.9934 14.7099C26.7654 15.226 27.7948 15.7421 28.5669 16.0002C29.3389 16.2583 30.3684 16.5163 31.1404 16.7744C32.4272 16.7744 33.4566 17.0324 34.7434 17.0324C34.7434 17.0324 36.5448 17.0324 37.5742 17.0324C38.6037 17.0324 39.6331 16.7744 40.4051 16.2583C41.4345 16.0002 42.2066 15.4841 43.236 14.9679C44.0081 14.4518 44.5228 13.9357 45.0375 13.4195C45.5522 12.9034 46.0669 12.1292 46.5816 11.355C46.5816 10.8389 47.0963 10.3228 47.0963 9.80664V9.29051C47.0963 9.29051 47.0963 8.25825 47.0963 8.00019H47.611Z" fill="#CE4A00"/>
<path style="mix-blend-mode:overlay" opacity="0.43" d="M68.9706 26.3226V24.7742L67.9412 20.9032L65.3676 15.2258L64.5956 14.4516L64.3382 13.6774L62.0221 11.0968L58.4191 8.25806H58.1618L57.9044 7.22581L55.5882 5.67742L51.9853 3.87097H51.7279L50.4412 3.6129L49.1544 2.58065L45.8088 1.54839H44.0074H43.75L42.9779 1.03226L40.6618 0.516129L37.5735 0.774193L37.3162 1.03226L36.2868 0H32.6838L31.6544 0.774193L30.8824 0.516129H29.3382L25.9926 1.03226L24.9632 1.80645L24.7059 1.54839L21.3603 2.06452L17.7574 3.87097L14.9265 5.16129L12.3529 6.96774L11.3235 8L10.0368 9.03226L8.49265 10.0645L6.17647 12.6452L4.375 15.4839L2.05882 19.6129V19.871L0.772059 22.9677L0 27.871V29.4194V31.7419V34.3226L1.28676 37.9355V38.4516L2.57353 41.5484L3.08824 42.8387L3.86029 44.129L5.40441 46.7097L7.20588 49.0323L10.0368 52.3871L11.5809 54.4516L12.8676 55.7419L15.1838 58.0645L21.1029 61.9355L18.2721 59.871L18.5294 60.129L21.1029 61.9355L25.2206 65.0322L28.0515 66.8387L30.625 68.3871H30.8824L32.1691 68.6452L32.4265 68.9032H32.6838L33.7132 69.1613H33.9706H34.2279H34.4853H35H35.2574H35.5147H36.8015H37.0588H37.8309L38.3456 68.9032L39.1176 68.6452H39.375L39.6324 68.3871L41.1765 67.871V67.6129L41.4338 67.3548L43.2353 66.0645L44.5221 65.0322L47.6103 62.9677L47.8676 62.7097L50.4412 61.4194L56.3603 56.5161L59.9632 52.6452L60.2206 52.3871L63.8235 46.9677L66.3971 44.3871L68.4559 39.4839L69.7426 36.129L70 30.7097V30.1935L68.9706 26.3226Z" fill="url(#paint0_radial_231_72954)"/>
</g>
<defs>
<radialGradient id="paint0_radial_231_72954" cx="0" cy="0" r="1" gradientUnits="userSpaceOnUse" gradientTransform="translate(35 34.5806) scale(34.7426 34.8387)">
<stop offset="0.07" stop-color="white"/>
<stop offset="0.28" stop-color="#FCFCFC"/>
<stop offset="0.42" stop-color="#F3F3F3"/>
<stop offset="0.54" stop-color="#E4E4E4"/>
<stop offset="0.65" stop-color="#CECECE"/>
<stop offset="0.75" stop-color="#B3B3B3"/>
<stop offset="0.84" stop-color="#919191"/>
<stop offset="0.93" stop-color="#696969"/>
<stop offset="1" stop-color="#454545"/>
</radialGradient>
<clipPath id="clip0_231_72954">
<rect width="70" height="88" fill="white"/>
</clipPath>
</defs>
</svg>
