<svg width="100" height="126" viewBox="0 0 100 126" fill="none" xmlns="http://www.w3.org/2000/svg">
<g clip-path="url(#clip0_231_72886)">
<path d="M43.75 110.481V118.61L45.9559 126V117.871L43.75 110.481Z" fill="#001D24"/>
<path d="M46.6903 109.742H45.2197V110.111H46.6903V109.742Z" fill="#307178"/>
<path d="M53.3098 109.003L47.0598 109.742V110.111L53.3098 109.372V109.003Z" fill="#307178"/>
<path d="M56.25 115.654L55.8824 116.393L47.0588 117.132L46.3235 116.393L44.4853 111.22V110.481H44.8529V109.742L44.1176 110.111L43.75 110.481L45.9559 117.871L56.6176 116.762V115.654L55.8824 113.067V114.915L56.25 115.654Z" fill="#307178"/>
<path d="M53.6774 109.003V109.742L55.5156 113.806L55.148 111.959L54.045 109.003H53.6774Z" fill="#307178"/>
<path d="M53.6774 109.742L53.3097 110.112V109.373L47.0597 110.112V110.851L53.3097 110.112L55.5156 115.654L52.9421 116.024L47.0597 116.763H46.6921V116.024L45.2215 110.851H46.6921V110.112H45.2215V110.851L44.8539 110.481H44.4862V111.22L46.3244 116.393L47.0597 117.132L55.8833 116.393L56.2509 115.654L55.8833 114.915V115.285H55.5156V113.807L53.6774 109.742Z" fill="#A1A1A1"/>
<path d="M55.5147 115.654L53.3088 110.111L52.9412 116.023L55.5147 115.654Z" fill="#001D24"/>
<path d="M46.692 110.112V110.851V111.959V116.024V116.763H47.0597V112.329V110.851V110.112V109.742V108.634H46.692V109.742V110.112Z" fill="#3D3D3D"/>
<path d="M55.147 111.959L55.5146 113.806V115.284H55.8823V114.915V113.067L55.5146 107.894H55.147V111.959Z" fill="#3D3D3D"/>
<path d="M53.6772 107.894V102.721H53.3096V107.894H53.6772Z" fill="#3D3D3D"/>
<path d="M53.3096 109.372V110.111L53.6772 109.742V109.003V108.264H53.3096V109.003V109.372Z" fill="#3D3D3D"/>
<path d="M44.8519 110.481L45.2196 110.85V110.111V109.742L45.5872 104.569L45.2196 103.46L44.8519 109.742V110.481Z" fill="#3D3D3D"/>
<path d="M50.3686 99.3956V99.0261H50.0009H49.2656L49.6333 99.3956H50.3686Z" fill="#307178"/>
<path d="M48.8978 102.721L49.2655 103.091V102.721H48.8978Z" fill="#003948"/>
<path d="M49.6325 99.3956L49.2648 99.0261H48.8972V101.243L48.5295 101.613L48.8972 102.352H49.2648L49.6325 99.3956Z" fill="#003948"/>
<path d="M50.3676 100.874L50.7352 100.504V100.874V99.3956V99.0261H50.3676V99.3956V100.874Z" fill="#003948"/>
<path d="M49.2656 102.721V103.091L49.6333 102.721H49.2656Z" fill="#33616D"/>
<path d="M50.3686 100.874V99.396H49.6333L49.2656 102.352H49.6333V101.244L50.0009 100.874H50.3686Z" fill="#33616D"/>
<path d="M51.4716 102.721H51.8392V101.982H51.4716V102.721Z" fill="#797979"/>
<path d="M55.1462 107.155L55.5138 106.416L54.7786 104.199V104.569L54.4109 104.199L54.7786 103.46L54.4109 102.721L54.0433 102.352H53.6756H53.308V101.982H52.5727L52.205 102.721L52.9403 102.352L53.308 102.721H53.6756L54.0433 103.091L55.1462 107.525H54.7786L53.6756 107.894H53.308H51.4697V108.264H51.1021V107.894H49.2638V108.264H48.5286H47.058L45.5874 103.46L45.955 103.091L48.1609 102.721V102.352L47.058 102.721H46.6903H45.5874V103.091L45.2197 103.46V103.091V103.46L45.5874 104.569L46.6903 108.633H47.058L53.308 108.264H53.6756H54.7786L55.1462 107.894H55.5138L55.8815 107.525V107.155H55.5138H55.1462Z" fill="#797979"/>
<path d="M49.6331 102.722V102.352H49.2655H48.8978V102.722H49.2655H49.6331Z" fill="#797979"/>
<path d="M50.3666 100.874H49.999L49.6313 101.243L50.3666 101.613H51.1019V101.243V100.874H50.7343V100.504L50.3666 100.874Z" fill="#307178"/>
<path d="M49.6333 101.244V102.352V102.722L49.2656 103.091V103.461V104.569L50.0009 105.308L50.3686 101.613L49.6333 101.244Z" fill="#003948"/>
<path d="M51.4714 101.613L51.1038 101.244V101.613V105.308L51.4714 104.939V103.461V102.722V101.983V101.613Z" fill="#003948"/>
<path d="M50.3674 101.613L49.9998 105.308H50.735H51.1027V101.613H50.3674Z" fill="#33616D"/>
<path d="M45.5882 103.09V102.721L44.1176 97.9175H43.75L45.2206 103.09V103.46L45.5882 103.09Z" fill="#3D3D3D"/>
<path d="M45.9558 98.2876L46.6911 102.722H47.0588L46.3235 98.6571L45.9558 98.2876Z" fill="#3D3D3D"/>
<path d="M48.897 102.352L48.5294 101.613V99.0261H48.1617V102.352V102.721L48.5294 108.264H49.2647V107.894L48.897 102.721V102.352Z" fill="#3D3D3D"/>
<path d="M52.5743 99.0261L51.8391 101.982V102.721L51.1038 107.894V108.264H51.4714V107.894L52.2067 102.721L52.5743 101.982L52.942 99.0261H52.5743Z" fill="#3D3D3D"/>
<path d="M54.0449 99.0262L53.3096 101.982V102.352H53.6772L54.7802 98.6567L54.0449 99.0262Z" fill="#3D3D3D"/>
<path d="M54.7785 103.46L54.4109 104.199L54.7785 104.569V104.199L56.6168 97.9175L56.2491 98.287L54.7785 103.46Z" fill="#3D3D3D"/>
<path d="M58.8234 97.179L55.5146 106.416L55.147 107.155H55.5146H55.8823L59.1911 96.4399L58.8234 96.8094V97.179Z" fill="#3D3D3D"/>
<path d="M45.9558 126H46.3235H46.6911L56.2499 125.261L56.6176 124.892V116.763L45.9558 117.871V126Z" fill="#00586F"/>
<path d="M46.6903 116.023V111.959L45.2197 110.85L46.6903 116.023Z" fill="#002B36"/>
<path d="M45.2197 110.85L46.6903 111.959V110.85H45.2197Z" fill="#003948"/>
<path d="M47.0598 112.328V116.762L52.9422 116.023L47.0598 112.328Z" fill="#002B36"/>
<path d="M53.3098 110.111L47.0598 110.85V112.328L52.9422 116.023L53.3098 110.111Z" fill="#003948"/>
<path d="M48.5294 99.0261H49.9999V93.1141V33.6244L50.7352 24.3868C48.897 24.3868 47.0588 24.3868 45.5882 24.0173L43.0146 31.0379L41.5441 36.2109L40.4411 40.6449L37.8676 52.4689V54.686L36.7646 66.1405V75.0085L38.9705 86.0936L41.1764 90.5276L43.7499 94.2226L46.6911 98.6566H48.5294V99.0261Z" fill="#FFC022"/>
<path d="M55.5147 27.7128L57.3529 33.9944L58.4559 37.3199L61.7647 53.5779L62.8676 65.0325V73.9005L61.7647 81.66L59.5588 89.7891L55.8823 94.2231L55.147 94.9621L52.9412 99.3961H54.4117L55.8823 98.6571L58.4559 94.9621L62.8676 91.6366L66.5441 88.3111L69.4853 83.5075L72.4265 76.487L73.5294 73.9005V58.7509L72.7941 57.2729L70.2206 47.6659L68.3823 42.4929L64.3382 34.3639L62.8676 31.4078L61.397 28.8213L59.1912 25.4958L57.7206 23.2788C57.7206 23.2788 55.147 24.0178 53.6765 24.3873L54.7794 28.0823L55.5147 27.7128Z" fill="#ED7000"/>
<path d="M92.646 52.8384V52.0994L89.3372 42.4923L84.1901 33.6243L76.4695 26.2343L72.4254 23.2783L65.8078 18.8442C65.8078 18.8442 63.9695 20.3222 63.2343 21.0612L65.8078 23.2783L70.2195 27.3428L74.2637 32.8853L76.8372 36.2108L80.8813 42.8618V43.9703L83.8225 50.6214L85.6607 60.9674V64.2929L84.9254 69.0964L81.9843 76.117L77.2048 81.6595L76.1019 82.3985L68.3813 89.419L72.0578 87.5715L80.5137 80.551L85.6607 75.0085L90.8078 66.8794L92.646 57.6419V52.4689V52.8384Z" fill="#ED7000"/>
<path d="M95.589 41.7537L94.4861 38.4281L89.3391 30.2991L81.9861 24.3871L78.3096 21.4311L73.5302 19.2141L67.2802 16.2581C67.2802 16.2581 66.1773 18.1056 65.0743 19.2141L71.692 23.6481L75.7361 26.6041L83.4567 33.9941L88.6038 42.8622L91.9126 52.4692V53.2082L92.6479 58.3812L90.8096 67.6188L94.4861 63.9237L97.4273 56.9032V48.7742L95.2214 42.1232L95.589 41.7537Z" fill="#FFC022"/>
<path d="M81.6187 14.0411L72.4275 11.4546H67.6481C67.6481 11.4546 67.6481 12.9326 67.6481 13.3021V14.0411L70.2216 14.7801L79.0451 17.3666L81.6187 18.4751L85.6628 20.6921L93.751 27.7127L97.4275 35.4722L98.1628 37.6892V35.4722L96.6922 29.9297L92.6481 21.4311L91.5451 20.6921L88.9716 18.4751L81.251 14.0411H81.6187Z" fill="#ED7000"/>
<path d="M76.8382 9.23729L69.8529 8.49829H66.5441C66.5441 8.49829 67.647 10.7153 68.0147 11.4543H72.7941L81.9852 14.0408L89.7058 18.4748L92.2794 20.6918V19.5833L88.6029 15.5188L83.8235 11.8238H83.0882L79.4117 9.9763L76.8382 8.86779V9.23729Z" fill="#FFC022"/>
<path d="M63.6028 5.91218H64.7058L71.3234 5.17318H72.0587L70.2205 4.06468L65.4411 2.58667H62.4999L59.5587 4.06468C59.5587 4.06468 62.1322 5.17318 63.2352 5.91218H63.6028Z" fill="#ED7000"/>
<path d="M59.5588 4.06441L62.5 2.5864L61.397 1.8474L58.0882 1.1084H53.6765V1.8474L52.9412 2.95591C55.5147 2.95591 57.7206 3.69491 59.5588 4.43391V4.06441Z" fill="#FFC022"/>
<path d="M40.4403 4.43391C40.4403 4.43391 44.1168 2.95591 46.3227 2.5864L45.5874 1.1084H37.4992L36.0286 2.5864L39.3374 3.69491L40.808 4.43391H40.4403Z" fill="#ED7000"/>
<path d="M32.7213 4.80355H33.4566L37.5007 5.91206C37.5007 5.91206 39.3389 4.43405 40.8095 4.06455L39.3389 3.32555L36.0301 2.21704H30.883L25.736 5.17305H30.1477L33.0889 4.43405L32.7213 4.80355Z" fill="#FFC022"/>
<path d="M12.8676 16.6273L16.1764 14.7798L17.647 14.0408L23.1617 12.1933L29.044 11.0848H33.4558C33.4558 11.0848 34.1911 9.23729 34.9264 8.49829H22.0587L16.1764 11.4543L14.3381 12.9323L12.1323 14.7798L8.82344 18.4748L6.61755 22.5393L9.55873 19.2138L13.2352 16.6273H12.8676Z" fill="#ED7000"/>
<path d="M2.57368 32.1465L5.51486 28.082L6.25015 26.9735L7.72074 25.126L11.7649 21.431L18.0149 18.475H18.7502L22.4266 15.8885L24.6325 15.1495L33.0884 12.9325C33.0884 12.9325 33.0884 11.085 33.456 10.3459H29.0443L23.1619 11.4545L17.6472 13.302L16.1766 14.041L12.8678 15.8885L9.19133 18.475L6.25015 21.8005L2.94133 27.7125L1.10309 32.516L0.367798 39.5366L1.47074 36.2111L2.94133 31.777L2.57368 32.1465Z" fill="#FFC022"/>
<path d="M10.2942 69.0967L9.5589 67.2491L8.08831 64.2931L7.35302 62.0761V56.9031L6.61773 55.7946L7.72067 50.2521L8.82361 46.9266V45.4486L12.8677 38.7975L18.3824 31.777L22.4265 28.082L26.103 25.126H26.8383V24.387H27.9413L33.8236 20.3225L36.0295 19.214C36.0295 19.214 34.9265 17.3664 34.5589 16.6274L29.0442 18.8445L26.4707 20.3225L22.7942 22.17L18.3824 24.7565L17.2795 25.865L14.3383 28.4515H13.2354L12.5001 29.1905L11.0295 30.6685L8.08831 34.3635H7.72067L4.77949 41.0145V42.123L2.57361 47.2961V55.7946V56.5336L4.41184 60.9676L5.51479 62.8151L6.25008 64.6626L8.45596 68.3577L11.0295 72.0527L15.0736 76.8562L12.8677 74.2697L10.6618 70.9442L10.2942 69.0967Z" fill="#ED7000"/>
<path d="M23.1608 82.768L19.8519 78.334L16.5431 72.0525L15.0725 68.7269V57.2724L17.2784 50.2519L19.1166 44.3398L21.3225 40.6448L23.1608 37.3193L29.0431 29.5598L34.5578 23.6478L35.2931 22.9088L37.1313 21.0612C37.1313 21.0612 35.2931 19.5832 34.9255 18.8442L32.7196 19.9527L26.8372 23.6478H26.1019V24.3868H24.999L21.3225 27.7123L17.6461 31.0378H17.2784L11.7637 38.4278L8.45488 45.0788V46.5568H8.08723L6.98429 49.8824L5.88135 55.4249V56.5334V61.7064L7.35194 63.9234L8.82252 66.8794L9.55782 68.7269L11.7637 72.0525L13.9696 74.639L16.1755 77.595L18.0137 79.4425L21.3225 82.768L29.7784 88.3105L25.7343 85.3545L22.7931 82.3985L23.1608 82.768Z" fill="#FFC022"/>
<path d="M50.3674 46.1879V92.7451H49.9998V99.0266H53.3086L55.5145 94.5926L59.5586 89.0501L61.7645 81.2905L62.4998 73.1615L63.2351 68.358V64.2935L61.7645 53.2084L58.4556 36.5809L57.3527 33.2553L55.5145 26.9738L54.4115 23.2788C54.4115 23.2788 51.838 23.2788 50.3674 23.2788V45.0794V46.1879Z" fill="#D13100"/>
<path d="M76.8373 81.66L81.6167 76.1175L84.5579 69.097V64.2934L85.2932 60.9679L83.4549 50.6219L80.8814 43.9709V42.8624L76.102 36.2113L73.5285 32.8858L69.4843 27.3433L65.0726 23.2788L62.4991 21.0618C62.4991 21.0618 59.9255 22.1703 58.4549 22.9093L59.9255 25.1263L62.1314 28.4518L63.602 31.0383L65.0726 33.9943L69.1167 42.1234L70.9549 47.2964L73.5285 56.9034V58.3814L74.6314 65.7714V73.531L73.1608 76.1175L70.2196 83.138L67.2785 87.2025L63.602 90.8975L59.1902 94.2231L56.6167 97.9181H56.9843L59.1902 96.4401H59.9255L62.4991 93.8536L64.3373 92.3755L68.7491 89.05L76.4696 81.66L77.5726 80.921L76.8373 81.66Z" fill="#D13100"/>
<path d="M98.5302 37.6894L97.7949 35.4723L94.1184 27.7128L86.0301 20.6923L81.986 18.4753L79.4125 17.3668L70.589 14.7803L68.0154 14.0413C68.0154 14.0413 68.0154 15.5193 67.2802 16.2583L73.5302 19.2143L78.3096 21.4313L81.986 24.3873L89.339 30.2993L94.486 38.4284L95.589 41.7539L97.7949 48.4049V56.5339L99.6331 51.7304V43.2319L98.5302 37.6894Z" fill="#D13100"/>
<path d="M64.705 5.5426H63.6021C63.6021 5.5426 65.8079 7.75961 66.5432 8.86811H69.852L76.8373 9.60711L83.455 12.1936V11.0851L79.7785 8.49861L74.9991 5.9121H72.7932L72.0579 5.1731H65.4403L64.705 5.5426Z" fill="#D13100"/>
<path d="M46.3233 2.58639C46.3233 2.58639 49.2645 2.58639 50.7351 2.58639C51.4704 2.58639 52.2057 2.58639 52.941 2.58639L53.6762 1.47789L52.2057 0.369385H47.0586L45.588 1.10839L46.3233 2.58639Z" fill="#D13100"/>
<path d="M22.7942 8.86823L27.9412 8.12922H34.9265C34.9265 8.12922 36.3971 6.65122 37.5 5.91222L33.4559 4.80371H25.3677L21.3236 7.02072L17.6471 9.60723L16.1765 11.0852L22.0589 8.86823H22.7942Z" fill="#D13100"/>
<path d="M1.83824 50.2525V45.8185L4.04412 40.6455V39.9065L7.35294 33.6249H7.72059L10.6618 29.5604L12.5 28.0824L13.2353 27.3434L16.1765 24.7569L17.2794 23.6484L21.6912 21.0619L25.3676 19.2144L27.9412 17.7364L33.4559 15.5194C33.4559 15.5194 33.0882 13.6719 33.0882 12.9329L24.6324 15.1499L22.4265 15.8889L18.75 17.7364H18.0147L11.7647 21.4314L7.72059 25.1264L6.25 26.9739L5.51471 27.7129L2.57353 32.1469L1.10294 36.581L0 39.9065V42.1235H0V49.144L1.47059 54.317V50.2525H1.83824Z" fill="#D13100"/>
<path d="M40.0725 93.8534L38.2343 92.3754L32.3519 87.5719L26.1019 75.3784L25.3666 69.8358L26.1019 59.4898L26.8372 56.5338V55.0558L27.9402 52.4693L29.4107 46.5573L34.5578 34.3637L37.499 29.5602L40.4402 24.7567L41.5431 23.2787C41.5431 23.2787 38.9696 22.1702 37.8666 21.4312L36.0284 23.2787L35.2931 24.0177L29.7784 29.5602H29.4107L23.5284 37.6892L21.6902 41.0147L19.4843 44.7097L17.646 50.6218L15.4402 57.6423V63.9238H15.0725V69.0968L16.9107 72.4224L20.2196 78.7039L23.5284 83.1379L26.4696 86.0939H26.8372L30.5137 89.0499L36.396 93.4839L40.4402 96.0704L44.1166 98.2875L42.646 96.8094L40.4402 94.2229L40.0725 93.8534Z" fill="#D13100"/>
<path d="M45.9559 98.2874H46.6912L43.75 93.8533L41.1765 90.1583L38.9706 85.7243L36.7647 74.6393V65.7712L37.5 54.3167V52.0997L40.0736 40.2756L41.1765 35.8416L42.6471 30.6686L45.2206 23.6481C45.2206 23.6481 42.6471 22.9091 41.5441 22.5396L40.4412 24.0176L37.5 28.8211L34.5589 33.6246L29.4118 45.8181L27.9412 51.7302L27.2059 54.3167V55.7947L26.103 58.7507L25.3677 69.0967L26.103 74.6393L32.353 86.8328L40.0736 93.1143L42.2794 95.7008L43.75 97.1789H45.9559V98.2874Z" fill="#ED7000"/>
<path d="M68.0156 11.4547C68.0156 11.4547 67.2803 9.6072 66.545 8.49869C65.8097 7.39019 64.7068 6.65119 63.6038 5.91218C62.5009 5.17318 61.0303 4.43418 59.9273 4.06468C57.7215 3.32567 55.5156 2.58667 53.3097 2.58667C52.5744 2.58667 51.8391 2.58667 51.1038 2.58667C49.6332 2.58667 48.1626 2.58667 46.6921 2.58667C44.4862 2.58667 42.6479 3.69517 40.8097 4.43418C40.8097 4.43418 38.6038 5.54268 37.5009 6.28168C36.3979 7.02069 35.6626 7.75969 34.9273 8.49869C34.1921 9.2377 33.8244 9.9767 33.4568 11.0852C33.4568 11.0852 33.0891 12.5632 33.0891 13.6717C33.0891 13.6717 33.0891 15.5192 33.4568 16.2582C33.4568 16.9972 34.1921 18.1057 34.9273 18.8447C35.6626 19.5837 36.3979 20.3227 37.1332 21.0617C38.2362 21.8007 39.7068 22.5397 40.8097 22.9093C41.9126 23.2788 43.3832 23.6483 44.4862 24.0178C46.3244 24.0178 47.795 24.3873 49.6332 24.3873C49.6332 24.3873 52.2068 24.3873 53.6773 24.3873C55.1479 24.3873 56.6185 24.0178 57.7215 23.2788C59.1921 22.9093 60.295 22.1702 61.7656 21.4312C62.8685 20.6922 63.6038 19.9532 64.3391 19.2142C65.0744 18.4752 65.8097 17.3667 66.545 16.2582C66.545 15.5192 67.2803 14.7802 67.2803 14.0412V13.3022C67.2803 13.3022 67.2803 11.8242 67.2803 11.4547H68.0156Z" fill="#CE4A00"/>
<path style="mix-blend-mode:overlay" opacity="0.43" d="M98.5294 37.6891V35.4721L97.0588 29.9296L93.3824 21.8006L92.2794 20.6921L91.9118 19.5836L88.6029 15.8886L83.4559 11.824H83.0882L82.7206 10.346L79.4118 8.12903L74.2647 5.54252H73.8971L72.0588 5.17302L70.2206 3.69501L65.4412 2.21701H62.8676H62.5L61.3971 1.47801L58.0882 0.739003L53.6765 1.1085L53.3088 1.47801L51.8382 0H46.6912L45.2206 1.1085L44.1176 0.739003H41.9118L37.1324 1.47801L35.6618 2.58651L35.2941 2.21701L30.5147 2.95601L25.3676 5.54252L21.3235 7.39003L17.6471 9.97654L16.1765 11.4545L14.3382 12.9326L12.1324 14.4106L8.82353 18.1056L6.25 22.1701L2.94118 28.0821V28.4516L1.10294 32.8856L0 39.9062V42.1232V45.4487V49.1437L1.83824 54.3167V55.0557L3.67647 59.4897L4.41176 61.3372L5.51471 63.1847L7.72059 66.8798L10.2941 70.2053L14.3382 75.0088L16.5441 77.9648L18.3824 79.8123L21.6912 83.1378L30.1471 88.6804L26.1029 85.7243L26.4706 86.0938L30.1471 88.6804L36.0294 93.1144L40.0735 95.7009L43.75 97.9179H44.1176L45.9559 98.2874L46.3235 98.6569H46.6912L48.1618 99.0264H48.5294H48.8971H49.2647H50H50.3676H50.7353H52.5735H52.9412H54.0441L54.7794 98.6569L55.8824 98.2874H56.25L56.6176 97.9179L58.8235 97.1789V96.8094L59.1912 96.4399L61.7647 94.5924L63.6029 93.1144L68.0147 90.1584L68.3824 89.7889L72.0588 87.9414L80.5147 80.9208L85.6618 75.3783L86.0294 75.0088L91.1765 67.2493L94.8529 63.5543L97.7941 56.5337L99.6324 51.7302L100 43.9707V43.2317L98.5294 37.6891Z" fill="url(#paint0_radial_231_72886)"/>
</g>
<defs>
<radialGradient id="paint0_radial_231_72886" cx="0" cy="0" r="1" gradientUnits="userSpaceOnUse" gradientTransform="translate(50 49.5132) scale(49.6324 49.8827)">
<stop offset="0.07" stop-color="white"/>
<stop offset="0.28" stop-color="#FCFCFC"/>
<stop offset="0.42" stop-color="#F3F3F3"/>
<stop offset="0.54" stop-color="#E4E4E4"/>
<stop offset="0.65" stop-color="#CECECE"/>
<stop offset="0.75" stop-color="#B3B3B3"/>
<stop offset="0.84" stop-color="#919191"/>
<stop offset="0.93" stop-color="#696969"/>
<stop offset="1" stop-color="#454545"/>
</radialGradient>
<clipPath id="clip0_231_72886">
<rect width="100" height="126" fill="white"/>
</clipPath>
</defs>
</svg>
