<svg width="64" height="64" viewBox="0 0 64 64" fill="none" xmlns="http://www.w3.org/2000/svg">
<path d="M23.223 14.0317C23.4252 14.1151 23.6089 14.2374 23.7635 14.3915L27.289 17.9033L27.3065 17.8944L32.01 22.5885L32.0013 22.5972L41.4168 31.9764L46.1293 27.2822L28.467 9.69763C26.906 8.14597 24.7908 7.27454 22.5855 7.27454C20.3803 7.27454 18.2651 8.14597 16.704 9.69763L9.63554 16.7386C8.07776 18.2935 7.20288 20.4005 7.20288 22.5972C7.20288 24.794 8.07776 26.9009 9.63554 28.4559L13.1698 31.9764L17.8733 27.2822L14.3475 23.7707C14.1927 23.6166 14.0699 23.4337 13.986 23.2323C13.9022 23.031 13.8591 22.8151 13.8591 22.5971C13.8591 22.3791 13.9022 22.1633 13.986 21.9619C14.0699 21.7605 14.1927 21.5776 14.3475 21.4236L21.4075 14.3915C21.6405 14.1594 21.9373 14.0013 22.2605 13.9372C22.5837 13.8732 22.9186 13.9061 23.223 14.0317Z" fill="url(#paint0_linear_194_27328)"/>
<path d="M40.2388 49.5609L36.7135 46.0491L36.6958 46.0581L31.9923 41.3641L32.0013 41.3552L22.5855 31.9763L17.873 36.6702L35.5355 54.2548C37.0965 55.8066 39.2116 56.6781 41.4169 56.6781C43.6222 56.6781 45.7374 55.8066 47.2983 54.2548L54.3668 47.2138C55.9245 45.6589 56.7994 43.5519 56.7994 41.3552C56.7994 39.1585 55.9245 37.0515 54.3668 35.4966L50.8326 31.9763L46.1293 36.6702L49.6545 40.1818C49.8094 40.3358 49.9322 40.5187 50.0161 40.7201C50.0999 40.9215 50.143 41.1373 50.143 41.3553C50.143 41.5733 50.0999 41.7891 50.0161 41.9905C49.9322 42.1919 49.8094 42.3748 49.6545 42.5288L42.595 49.5609C42.4404 49.7151 42.2568 49.8375 42.0546 49.921C41.8525 50.0045 41.6358 50.0474 41.4169 50.0474C41.1981 50.0474 40.9814 50.0045 40.7792 49.921C40.5771 49.8375 40.3934 49.7151 40.2388 49.5609Z" fill="url(#paint1_linear_194_27328)"/>
<path fill-rule="evenodd" clip-rule="evenodd" d="M50.0237 23.2208C49.9349 23.4237 49.8199 23.6 49.6692 23.7502L31.9894 41.3612L36.6927 46.0551L54.3639 28.4528C55.9217 26.8979 56.7966 24.7909 56.7966 22.5942C56.7966 20.3975 55.9217 18.2905 54.3639 16.7356L47.2954 9.69486C45.7345 8.14315 43.6192 7.27167 41.4139 7.27167C39.2087 7.27167 37.0934 8.14315 35.5324 9.69486L32.0072 13.1887L36.7194 17.8829L40.2359 14.3798C40.3905 14.2255 40.5742 14.1032 40.7763 14.0197C40.9784 13.9362 41.1951 13.8932 41.4139 13.8932C41.6328 13.8932 41.8495 13.9362 42.0516 14.0197C42.2537 14.1032 42.4373 14.2255 42.5919 14.3798L49.6517 21.4121C49.885 21.644 50.044 21.9396 50.1086 22.2616C50.1732 22.5835 50.1405 22.9173 50.0147 23.2208H50.0237ZM23.7694 49.5489L27.2859 46.0461L32.0072 50.7313L28.4639 54.2428C26.903 55.7946 24.7877 56.666 22.5824 56.666C20.3772 56.666 18.2619 55.7946 16.7009 54.2428L9.6327 47.2018C8.0748 45.647 7.19983 43.54 7.19983 41.3432C7.19983 39.1465 8.0748 37.0395 9.6327 35.4846L27.3124 17.8826L32.0072 22.5768L14.3537 40.1701C14.1988 40.3241 14.076 40.507 13.9922 40.7084C13.9084 40.9098 13.8652 41.1256 13.8652 41.3436C13.8652 41.5616 13.9084 41.7774 13.9922 41.9788C14.076 42.1802 14.1988 42.3631 14.3537 42.5172L21.4132 49.5492C21.5678 49.7034 21.7515 49.8258 21.9536 49.9093C22.1558 49.9928 22.3725 50.0357 22.5913 50.0357C22.8102 50.0357 23.0269 49.9928 23.229 49.9093C23.4312 49.8258 23.6148 49.7034 23.7694 49.5492V49.5489Z" fill="url(#paint2_linear_194_27328)"/>
<defs>
<linearGradient id="paint0_linear_194_27328" x1="19.1575" y1="26.2413" x2="42.5388" y2="49.7138" gradientUnits="userSpaceOnUse">
<stop stop-color="#13ADC7"/>
<stop offset="1" stop-color="#945DD6"/>
</linearGradient>
<linearGradient id="paint1_linear_194_27328" x1="19.1575" y1="26.2412" x2="42.5388" y2="49.7138" gradientUnits="userSpaceOnUse">
<stop stop-color="#13ADC7"/>
<stop offset="1" stop-color="#945DD6"/>
</linearGradient>
<linearGradient id="paint2_linear_194_27328" x1="41.2957" y1="21.8297" x2="17.4794" y2="45.739" gradientUnits="userSpaceOnUse">
<stop stop-color="#F46837"/>
<stop offset="1" stop-color="#945DD6"/>
</linearGradient>
</defs>
</svg>
